<svg id="Layer_1" xmlns="http://www.w3.org/2000/svg" viewBox="0 0 1120.1 659.7"><style>.st0{fill:#fff}</style><path class="st0" d="M27.4 511.9c.1 0 .1 0 .2.1 6.1 1.7 12.1 2.8 17.4 1.4 2-.5 3.9-1.1 5.8-1.7.2-.2.3-.3.5-.2-.2.1-.3.1-.5.2 1.8-.6 3.6-1.3 5.4-2H56c.2-.1.5-.2.8-.3-.1.1-.2.1-.2.1 11.4-4.7 22.4-11.6 33.6-17.1 0-1.2-.1-2.3-.1-3.5-9.1-2.7-19-8.7-27.4-8.8-.1.4-.1.7.3 1 .1.2.2.4 0 .5-.8.5-.5 1.2-.2 1.8.1.1.1.3 0 .4-.1.1-.2 0-.3 0-.9-.6-.8-1.7-1.6-2.2v-.1c.6-.2.7-.7.7-1.4-.9 0-1.8.2-2.7.4-16.9 4.4-32.2 14.6-48.2 22.4 0 .7.1 1.4.2 2 .2 0 .2.1.1.3h-.1c.1.8.1 1.5.2 2.3 5.3 1 10.8 2.9 16.3 4.4zm59.9-22.6c.1 0 .1.2.1.2 0 .1-.2.2-.3.1-.1 0-.1-.2-.1-.2 0-.1.2-.1.3-.1zm-4.5-1.6c.1 0 .3 0 .3.1.1.1 0 .2-.1.3-.1 0-.2 0-.3-.1s0-.3.1-.3zm-18.8-.8c0 .1.1.1.1.2 0 .2-.2.3-.3.2-.1 0-.1-.1-.1-.2 0-.2.1-.2.3-.2zm-1.6 3.4c.2-.2.4-.2.5 0 .1.2.1.3 0 .4-.1.1-.2.1-.5 0-.1-.1-.1-.3 0-.4zm-5 14.3c-.1 0-.2-.1-.2-.2.1-.1.1-.2.2-.1.1-.1.2.1.2.2-.1 0-.1.1-.2.1zm-.4-13.1c-.3-.1-.5-.2-.4-.5.1-.4.3-.4.6-.3.2.1.3.3.4.6-.2.2-.4.2-.6.2zm1.5 10.7c-.2 0-.2-.1-.2-.2s.1-.2.2-.1c.2 0 .2.1.2.2 0 0-.1.1-.2.1zm1.4-5.8c.5.5.8 1.3.6 2-.2.8-.9.4-1.4.4.4-.6.5-1.3.4-2 0-.2.1-.7.4-.4zm-1-5.6c.3.1.3.4.3.7-.1.2-.2.3-.2.2-.3-.1-.4-.3-.4-.6 0-.2.1-.4.3-.3zm-1 7.8c.4-.3.7 0 1 .2h.1c-.3.2-.7.4-1.1 0v-.2zm.3 2.3c.7-.2 1.4-.4 2.1-.8.1 0 .3 0 .4.1.1.1 0 .3 0 .3-.7.6-1.4 1.2-2.3 1.3-.3.1-.6.1-.7-.2-.1-.3.2-.6.5-.7zm-1.1-12.3c.3.1.6.2.5.7 0 .3-.3.2-.5.1-.3-.1-.6-.2-.6-.6.2-.3.4-.3.6-.2zm-4.9-3.7c.2 0 .3 0 .4.1.1.1 0 .2-.1.3-.2.1-.3.1-.4-.1-.1-.1 0-.2.1-.3zm-.4 24.4c.1 0 .1.2.1.3s-.2.1-.3.1c-.1-.1-.1-.2-.1-.3.1 0 .2-.1.3-.1zM48.6 495c.1.1.2.1.2.2s-.1.1-.1.2c-.1-.1-.2-.1-.2-.2s0-.1.1-.2zm-12.1 10.7c-.2 0-.3-.1-.3-.3 0-.2.2-.3.4-.3.2.1.3.2.3.4s-.2.3-.4.2zm.5-16.5c-.2.3-.5.5-.8.4h-.1c.3-.1.6-.3.9-.4zm-2.7 13.4c.1-.1.3 0 .3.1s0 .2-.1.3c-.1.2-.2.1-.3-.1 0-.1 0-.2.1-.3zm-1.4-2.6c.1 0 .2.1.3.1 0 .1 0 .2-.1.3-.1.1-.2 0-.3-.1 0-.1.1-.2.1-.3zm-2.9-2.7c.6-.1 1.1.3 1.4.8.2.3.3.7-.1.8-.7.2-.6-.5-1-.8-.1-.3-.5-.8-.3-.8zm-2.3 2.2c.1 0 .3 0 .3.3 0 .1 0 .2-.2.3-.1 0-.3-.1-.3-.2 0-.2 0-.3.2-.4zm-11.5 5.4c0 .1-.2.2-.3.1-.1-.1-.2-.2-.2-.3 0-.2.1-.2.3-.2.2.1.3.2.2.4zm.8-.9c-.2-.1-.3-.2-.2-.4 0 0 .2-.1.3-.1.1 0 .3.1.3.3-.1.2-.3.2-.4.2zm4.6 4.3c-.1.1-.2 0-.3-.1 0-.2 0-.3.1-.4.2-.1.4-.1.3.2.1.1 0 .2-.1.3zm1.3-.7c-.2.2-.4.3-.7.2l-.1-.1c.5-.8 0-1.2-.7-1.6l.1-.2c.5-.3.8-1.1 1.4-.9.7.2 1.1-.2 1.6-.4.3-.1.7-.6 1-.1.2.4 0 1-.3 1.1-1 .4-1.6 1.2-2.3 2zm2.5.8c-.1.1-.2.3-.4.2-.4-.3-.2-.7-.1-1.1 0-.3.2-.3.3-.1.4.3.4.6.2 1zM276.6 526c.1-.1.2-.1.3-.2.1.1.2.1.3.2.2.2.5.4.3.8-.4.3-.8.1-1.1-.1l-.2-.2c.1-.1.1-.2.2-.2-8.7 8.5-11.8 18-11.1 30.2 8.1-4 15.7-8.6 23.8-12v-.1c.1-.1.3-.1.4-.1 2-.9 4-1.6 6.1-2.3 4.7-1.5 8.5-3.4 11.8-5.8h-.1c-.2-.2-.3-.5 0-.7.7-.4 1.3-.6 2-.9.1 0 .1-.1.1 0 8.8-7.6 12-19 12.9-32.9-22.1 8.2-36.7 15.7-45.7 24.3zm36.5 1.3c.1-.1.3-.1.4 0 .1.1 0 .3-.2.4-.1 0-.2 0-.3-.1-.1-.1 0-.2.1-.3zm-3.7-5.4c.1.1.2.1.2.1.1.1 0 .2-.1.3l-.2-.1c-.1-.1-.1-.3.1-.3zm-9.6 12.1c-.2.1-.4.2-.5 0-.1-.2 0-.3.2-.4.1-.1.3-.1.5.1 0 .1-.1.2-.2.3zm.1-1.5c-.2 0-.3 0-.4-.2-.1-.1.1-.2.2-.2.1.1.2.1.3.2.1.1.1.3-.1.2zm2.5-10.1c-.2.3-.5.1-.7 0-.3-.2-.4-.4-.2-.7.2-.2.4-.1.6 0 .2.2.5.4.3.7zm-1.1-5.4c.4-.5.7-.5 1.1-.2.4.2.5.5.3.9-.3.5-.7.3-1.1.2-.4-.2-.4-.6-.3-.9zm-1.8 11.6c.1-.1.3-.5.6-.2.2.2 0 .4-.1.6-.4.4-.5 1-1.2 1-.2-.1-.3-.2-.3-.4 0-.6.7-.7 1-1zm-3 8.4c.1-.2.2 0 .2.1 0 .2 0 .3-.1.4-.2.2-.2 0-.2-.2 0-.1 0-.2.1-.3zm-5.4 6.5c-.1.1-.1.1-.2.1v-.1c0-.1.1-.1.2 0 0-.1 0 0 0 0zm1.6-16.1c.2.6 1.3.5 1.2 1.3 0 .6-.7.9-1.1.7-.7-.3-.4-1.2-.6-1.8 0-.1.1-.3.5-.2zm-1.5 7.7c.2 0 .4.2.3.5 0 .1-.1.2-.3.3 0 .1 0 .2-.1.3-.1 0-.2 0-.2-.1v-.2c-.1 0-.2-.2-.2-.4.1-.3.2-.4.5-.4zm-1.6-7c.2-.1.4-.3.5-.1.3.4-.2.5-.4.7-.1.1-.3.2-.6 0 .1-.3.3-.4.5-.6zM265.9 552c-.1.2-.3.2-.5.1-.1-.1-.1-.1-.1-.2v-.7c.1 0 .2 0 .3.1.2.2.5.4.3.7zm.5-1.3c-.1-.1-.2-.2-.1-.3 0-.1.2-.1.3 0 .1 0 .3.1.2.3-.2.1-.3.1-.4 0zm1.2 3.3c-.1.3-.3.4-.4.2-.3-.6-.5-1.2-.4-1.9.1-.2.4-.3.5-.2.5.6.3 1.3.3 1.9zm3.5-17.7c-.1 0-.2 0-.3-.1v-.2c.2 0 .3-.1.3 0 .2.1.2.2 0 .3zm5.4-3.7c-.2-.1-.1-.3-.2-.4 0-.1.1-.2.2-.3.1.2.1.3.1.4s-.1.3-.1.3zm10.3-11.8c.2.1.4.2.4.5 0 .2-.1.3-.4.4-.2-.1-.4-.2-.4-.5s.1-.4.4-.4zm-2.3 17.5c.3.1.5.1.7 0 .9-.7 1.2 0 1.3.6.4.6.2.8-.1.8-.8 0-1.5-.2-2.2-.5-.3-.1-.4-.4-.3-.7.1-.3.4-.3.6-.2zm-.4-9.1c.1 0 .2.1.2.3 0 .1-.2.1-.3.1-.1-.1-.2-.1-.2-.3 0-.1.2-.1.3-.1zm-.2 8.4c.1.2.3.4.1.5-.4.2-.4-.3-.6-.5-.1-.1-.2-.3 0-.5.2 0 .4.3.5.5zm-.8-5.8c.1-.1.1-.2.3-.2.1.1.1.2.1.3-.1.2-.2.3-.3.2-.2 0-.1-.2-.1-.3zm-4.1-.4c-.5.4-.8 1-1.3 1.3-.5.2-.3-.7-.6-.8h-.4c-.3-.1-.7-.6-.5-.6 1.1-.1.5-1.7 1.3-1.5.6.1 1 1 1.5 1.6zM69 452.9c.4.8.9 1.5 1.6 2 .7.5 1.4.9 2.2 1 .8.2 1.6.2 2.4.1.8-.1 1.7-.3 2.4-.7.7-.3 1.2-.7 1.7-1.1.5-.4.9-.9 1.2-1.3.1-.2.3-.3.5-.4.2-.1.5 0 .8.3 0 0 .1.1.2.1h.3l.8-.4c.2-.1.3-.3.2-.5l-5.4-11.5c-.1-.3-.4-.6-.7-.7-.3-.2-.6-.2-.9 0l-4.2 2 .6 1.3c.3.6.6 1 .8 1.2s.5.2.9.2c.4-.1.7.1.9.6l1.7 3.7c.4.9.5 1.6.3 2.2-.2.6-.7 1-1.3 1.3-.6.3-1.2.3-1.8.1-.6-.2-1.1-.8-1.5-1.6l-6.6-14c-.4-.9-.5-1.6-.3-2.2.2-.6.6-1 1.2-1.3s1.2-.3 1.8-.1c.6.2 1 .8 1.4 1.7l.2.4c.3.6.7 1 1.2 1.1.5.1 1 0 1.4-.1l2.3-1.1-1.2-2.6c-.4-.8-.9-1.5-1.5-2s-1.3-.9-2.1-1.1-1.6-.2-2.4-.1c-.9.1-1.7.3-2.5.7-.8.4-1.5.9-2.2 1.5l-.5.5h.1c.1.1.1.2 0 .3-.1.1-.2 0-.3 0-.3.3-.5.7-.7 1.1-.3.7-.5 1.5-.5 2.3s.2 1.6.6 2.5l6.9 14.6zm8.2-10.4s-.1-.2-.1-.3c0-.1.2-.1.2-.2 1.6.4 2.1 1.6 1.4 3.1-.2.3-.1.9-.4.9-.4 0-.4-.7-.6-1s-.1-.6.2-.8c.4-.3.2-.6 0-.9-.2-.3-.5-.5-.7-.8zm-10.9 4.4h.2v.2h-.2v-.2zM507.9 475.4c-.8-.3-2.2-.4-4.1-.4-1 0-1.8-.3-2.6-.8-.7-.5-1.3-1.2-1.5-2.2-.3-.9-.2-1.9.1-3.1.4-1.2 1.2-2.4 2.4-3.6.8-.8 1.2-1.4 1.3-1.7 0-.3-.3-.7-.9-1.2-.5-.4-.9-.7-1.2-.8-.3-.1-.8.1-1.4.8-1.2 1.2-2.2 2.3-3 3.2-.8.9-1.4 1.8-1.8 2.6-.5.8-.8 1.7-.9 2.7-.2 1-.2 2.1-.2 3.4V488c0 .6.8 1 2.3 1.3s3.2.4 5.1.4c1.9 0 3.6-.1 5.3-.4 1.6-.3 2.5-.8 2.5-1.4v-11.2c-.2-.6-.6-1.1-1.4-1.3zM806 245.7c.3.3.2.7.1 1-.1.3-.3.4-.5.2-.3-.3-.4-.6-.3-.9l.1-.1c-16.1 8.2-19 14.2-18.9 27.8l3-1.5c-.1 0-.1-.1-.1-.1-.2-.3-.2-.6.1-.8.4-.3.2-.6-.1-.9s-.6-.5-.8-.8c0 0-.1-.2-.1-.3 0-.2.2-.1.3-.1 1.4.3 2 1.2 1.8 2.5 15.2-7 32.7-11.3 33.4-34.2-7.4 3.1-13.3 5.7-18.1 8.1 0 .1 0 .1.1.1zm-6.4 10.5c.2-.2.3-.1.5 0 .1.1.3.2.1.4-.1.2-.3.1-.5 0-.1-.1-.3-.2-.1-.4zm-2.4-5.5c0 .1 0 .1-.1.2-.2.1-.3.2-.4.2.1-.2.3-.3.5-.4zm-5.6 16.9c-.3.1-.6.1-.5-.3.2-.7.5-1.3.7-2 0-.1.1-.2.2-.3.2 0 .3 0 .4.2.2.4-.3 2.2-.8 2.4zm2-1.5h-.2v-.2s.1-.1.2-.1c.1.1.1.2 0 .3zm.7-9.5c.2.8-.3 1.4-.4 2.1-.1.2-.3.2-.5.1-.2-.2-.3-.4-.3-.7-.1-.4-.2-.8-.2-1.2 0-.3-.6-.8 0-1 .2 0 .4 0 .6.1.2-.2.4-.2.6-.1.2.1.3.2.3.4-.1 0-.1.1-.2.1 0 0 .1.1.1.2zm2.1-1.6c.2-.4.5-.4.8-.3.2.1.4.2.3.4-.2.2-.5.3-.9.3-.2-.1-.3-.2-.2-.4zm.3 10.8c-.1-.1-.3-.2-.3-.4 0-.1.1-.1.2-.1.2.1.3.2.3.4 0 .1-.1.1-.2.1zm1-.9v.2c-.1.1-.2.2-.3.2-.2-.1-.2-.2-.2-.3 0-.1.1-.2.5-.1zm-.1 1.1c-.2.2-.3.3-.3 0-.1-.3 0-.4.2-.6.1-.1.3-.2.4 0 .1.3-.2.4-.3.6zm2.8.7c-.3.5-.9.1-1.3-.1s-1-.5-.6-1.1c.4-.7.8 0 1.2.3.3.2 1.1.2.7.9zm19.7-19.4l.1.2c-.1.1-.2.2-.3.1 0 0-.1-.1-.1-.2.1-.1.2-.2.3-.1zm0 2.7c.1 0 .1.1.1.2-.1.1-.2.2-.3.1-.1 0-.1-.1-.1-.2s.1-.2.3-.1zm-2-3c.2 0 .3.1.3.2 0 0-.1.1-.1.2-.2 0-.3-.1-.3-.2s0-.2.1-.2zm-3.5 4.2c.1 0 .2.1.3.2 0 .2.1.3-.1.3-.1 0-.2-.1-.3-.2-.1-.1-.1-.2.1-.3zm-1.1-7.8c.2 0 .4 0 .5.3-.1.5-.4.5-.7.4-.2 0-.5.1-.5-.2 0-.3.4-.4.7-.5zm-.5 2.2c.3 0 .6 0 .5.4 0 .3-.1.4-.4.4-.2 0-.4 0-.5-.3 0-.3.2-.4.4-.5zm-1.7-.1c.2-.1.3.1.3.3 0 .3-.1.5-.5.5-.1.1-.2 0-.2-.2s.1-.5.4-.6zm-1.8 5.3c.3-.3.4.2.3.4-.2.7-.2 1.4.1 2.1.4-.1.8-.4 1.1 0 .1.1 0 .2-.1.2-.4.4-.8.1-1.1-.2 0 0 .1 0 0 0-.5-.1-1.3.2-1.3-.6.1-.7.4-1.4 1-1.9zm-1.5 3.6c.1-.1.3-.1.4 0 .6.5 1.3.8 2 1.2.3.1.5.4.2.7-.1.3-.4.2-.7.1-.8-.3-1.4-.9-2-1.7 0-.1 0-.2.1-.3zm-.4-7.6c.1-.1.1-.1.2-.1.1.1.1.2 0 .3h-.2v-.2zm-.9 16.3c.1 0 .2.2.1.3-.1.1-.3.1-.4 0-.1-.1-.1-.3-.1-.3.2-.2.3-.2.4 0zM43.3 608.9c18.6-13.3 48.4-11.1 54.6-41.2-18.6 13.2-49.4 10.2-54.6 41.2zm4.7-13c0 .1-.1.2-.1.2 0-.1 0-.1.1-.2zm-3.8 10.4h-.3c0-.4.1-.7.2-1 .1-.1.3 0 .4.2.2.4 0 .6-.3.8zm3.9-4.1c-.5.4-1-.2-1.4-.5-.6-.4-1 .2-1.3.6-.2.2-.4.6-.5.4l.6-1.8c.4-.4.8-.8 1.5-.8.3-.1.6-.1.8.3v.4c-.2.6.9.9.3 1.4zm4 0c-.8-.1-1.6-.1-2 1 0 .2-.4.2-.7.3-.3.1-.7.2-.9-.1-.2-.4.2-.6.4-.8.5-.4 1-.9 1.4-1.3.6-.3 1.3-.3 1.9-.2.3 0 .8 0 .7.5 0 .4-.5.6-.8.6zm33.5-20c.1 0 .1.1.2.1-.1.1-.1.2 0 .2-.1 0-.2-.1-.2-.1-.1 0 0-.1 0-.2zm0 3.7c.1 0 .2.1.3.1 0 .2 0 .3-.2.4-.2.1-.3 0-.3-.1 0-.2 0-.3.2-.4zm-2.7.3c.3 0 .5.1.6.3.1.1 0 .2-.1.3-.3.1-.5-.1-.7-.3 0-.2 0-.3.2-.3zm-2.8-2.2l.2.1s-.1.1-.1.2c-.1 0-.1-.1-.2-.1 0-.1.1-.1.1-.2zm-1.4-2c.2 0 .2.2.2.4-.1.3-.1.7-.4.8-.3 0-.3-.3-.3-.5.1-.3.2-.6.5-.7zm-4.6 3c.1 0 .3 0 .2.2-.1.1-.2.1-.3.2-.2 0-.2-.1-.2-.2.1-.1.2-.2.3-.2zm-2 1.3c.1 0 .2.1.2.3 0 .1-.2.1-.4.1 0 0-.1-.1-.1-.2 0-.2.2-.2.3-.2zm-1.3-1.2c.1 0 .3 0 .3.1.1.2-.1.3-.2.4-.2.1-.4.2-.4-.1 0-.2.1-.3.3-.4zm-3.7 9.2c.2-.1.4 0 .4.2s-.1.3-.3.4-.3 0-.3-.2c0-.1 0-.3.2-.4zm-1.7 3.2c.1-.1.3-.1.3.1 0 .3-.1.5-.2.7-.2.2-.3.1-.4-.1 0-.3.1-.5.3-.7zM60 585.3s.1.1.1.2 0 .2-.2.2c0 0-.1-.1-.1-.2s.1-.2.2-.2zm-1.7.7c.2 0 .2.1.3.2-.1 0-.1.1-.2.1s-.2-.1-.3-.2c.1 0 .2-.1.2-.1zm-1.7 7.6c.2 0 .5.1.4.4-.1.6-.6.5-1 .5-.1-.1-.6.1-.5-.2.1-.5.6-.7 1.1-.7zm-2.5 4.4c.1 0 .1.1.2.2-.1.1-.2.2-.2.1-.1 0-.1-.1-.2-.2.1 0 .1-.1.2-.1zm-1.1-2.9c0 .2 0 .3-.1.3-.3.1-.4-.1-.4-.2 0-.2 0-.3.2-.3s.3.1.3.2zM757.2 223c-6.2 0-11.2 5-11.2 11.2 0 4.2 2.3 7.9 5.7 9.8-1.5 5.1-3.1 10-4.9 14.8.1-.2.2-.4.2-.6.1.4.5.8.2 1.1-.2.1-.3 0-.6-.2-7.9 20.4-19 37.4-31.7 44-15.3 7.9-29.3 3-28.2-22.9l.2-5.5c19.4-1.6 47.9-20.2 49.9-62.1l.4-8.1c1.5-29.8-20.2-40.3-40.5-29.9-20 10.4-30.6 29.1-31.7 52.7l-3 58.1c-.1 1.2-.1 2.4-.1 3.6.2.1.3.2.4.4.1.2.1.4-.1.4-.1 0-.2 0-.3-.1 0 2.3.2 4.5.5 6.6-5.7 22-12.3 40.7-20 49.6l.1-.1c0 .1-.1.3-.2.4h-.2c-1.6 1.8-3.3 3.2-5 4.1-5.5 2.8-10.6.6-9.9-12.1l8.9-188.8-24.8 12.8-4 81.9c-7.9-4.7-19.1-6.5-29.3-1.2-13.4 6.9-26.6 27-27.7 50.6l-3.4 69.6c-6.8 26.2-15 47.5-24.9 52.6-5.5 2.8-10.6.6-9.9-12.1l5.3-120.3-24.9 12.7-5.3 112.2c-1 23.8 15.1 36.9 35.2 26.6 9.6-5 17.5-15.2 23.9-28.2v-.1c0-.1.1-.1.1-.2 2-4 3.8-8.3 5.6-12.8 6.3 8.5 17.2 11.1 29.6 4.7 4.7-2.4 9.2-6.6 13.4-11.9-.4-.3-.7-.5-1.4-.3-.2.1-.5-.2-.7-.4-.3-.2-.6-.4-.4-.8.2-.4.5-.2.8-.1.6.1 1.2.3 1.8.4.2.2.3.3.5.3 4.4-5.9 8.5-13.2 12-21.2 6.1 8.9 17.2 11.7 29.9 5.1 6.7-3.5 12.5-9.4 17.6-17.1 0-.2 0-.2.1-.3 0 0 .1-.1.1 0 6.3-9.5 11.4-21.7 15.7-34.9 4.3 5 9.9 8.4 16.4 9.8.2-.1.4-.1.5 0 .1 0 .1.1.1.1 8.1 1.6 17.5.2 27.3-4.8 28.2-14.5 44.7-50.9 52.9-85.4l-.1-.1c.2-.8.3-1.6.3-2.5 0-6.1-5-11.1-11.2-11.1zm-7.8 10.6c-.2 0-.3 0-.3-.2.1-.1.2-.2.4-.2.1 0 .2.1.2.2-.1.1-.2.2-.3.2zm-28.1 15.9c.1 0 .1.2.1.3 0 .2-.1.4-.2.3-.2 0-.2-.2-.2-.3 0-.2.1-.4.3-.3zm-.9-10.7c-.1.2-.2.2-.3.1-.1-.1-.1-.4-.1-.6s.2-.2.3-.1c.1.2.2.4.1.6zm-.9-11.9c.1-.2.4-.3.6-.1.1 0 .2.2.1.3-.2.2-.4.3-.6.2-.2-.1-.2-.2-.1-.4zm-28.9 35.7c-.4.5-1.1 1-1.7.9-.6-.1.1-.6 0-.9-.1-.2-.1-.5 0-.7.3-.5.7-.7 1.2-.6.1.1.2.1.2.1.4.3.6.8.3 1.2zm1.5-.7c-.2.3-.3.3-.5.2-.4-.2-.4-.5-.2-.9.1-.2.3-.5.5-.3.3.3.2.7.2 1zm5.3-.6c-.2 0-.4-.1-.4-.3-.1-.3.1-.4.4-.5.2 0 .4.1.4.3 0 .3-.1.5-.4.5zm11.4-10.1h-.4c-.4-.1-.4-.5-.4-.8-.1-1.1.6-1.7 1.4-2.3.3-.2.6-.7.9-.3.3.3-.1.6-.4.9-.4.4-.9.9-.4 1.4.4.4 1 .8.7 1.3-.4.6-.9-.4-1.4-.2zm2.7 1.2c0 .3 0 .7-.2.8-1 .5-.9 1.3-.7 2.2 0 .3-.1.8-.5.9-.5 0-.5-.5-.6-.8-.1-.6-.2-1.2 0-1.9.4-.5.7-1 1.1-1.5.2-.3.3-.7.7-.5.3.1.3.5.2.8zm2.6 6.3c-.1.6-.5.7-1 .7-.2 0-.4.2-.6.3-.2.1-.5.3-.7.1-.3-.3.1-.5.2-.5.2-.3.3-.6.6-1 .1-.1-.2-1.2.7-.5.3.2.9.3.8.9zm-.4-13.4c-.2.5-.6.2-.9.2-.2 0-.4-.1-.3-.3.2-.3.6-.3 1-.2.2 0 .4.2.2.3zm0 1.6c-.2.3-.4.5-.8.4-.2 0-.3-.2-.2-.4.2-.3.5-.4.8-.4.3.1.3.3.2.4zm3.5.5c.1-.2.3-.3.5-.3s.2.2.2.4c-.1.3-.3.5-.6.3-.2 0-.2-.2-.1-.4zm-27.9-24.8c1.6-32 29-41 27.5-7.6l-.4 8.1c-1.5 26.5-17.7 34.2-28.7 35.7l1.6-36.2zM544.4 404.9c-.7-.1-.9-.7-1.1-1.2-.1-.2.1-.4.4-.4.6 0 .9.4 1.2.8 0 .5-.2.8-.5.8zm1.9-12.8c-.1 0-.3-.1-.3-.2-.1-.1 0-.3.1-.3s.3.1.3.2 0 .2-.1.3zm.6 7.4h-.3c-.1-.1 0-.2.1-.3.1 0 .2 0 .2.1.1 0 0 .1 0 .2zm12.6-70c-.5.1-.9-.1-1.2-.5-.1-.2 0-.4.2-.4.4.1.9.2 1.2.5.1.2 0 .4-.2.4zm1.6 21.8c.1-.1.3-.1.3 0v.2c-.1.1-.2.1-.3 0v-.2zm.2 10.6c-.1-.2-.2-.3-.1-.5.1-.1.2-.1.3.1.1.1.1.2.1.3 0 .2-.2.2-.3.1zm1.6-31.9c-.1-.2-.1-.5.2-.7.4-.1.5.1.6.4.2.3.3.6-.1.8s-.6-.2-.7-.5zm1 53.2c-.1.1-.2.1-.3-.1 0-.1 0-.2.1-.3.2 0 .3 0 .3.2 0 .1 0 .2-.1.2zm2.3-57.3c-.1.1-.3.1-.3.1-.2-.2-.2-.3-.1-.4 0-.1.2-.2.3-.1.2.1.2.2.1.4zm2.9 33.7c-.1 0-.2 0-.2-.1-.1-.2-.1-.3.1-.3.1 0 .1.1.2.2 0 0-.1.1-.1.2zm.3-34.3c-.1-.2 0-.4.2-.4.1 0 .2.1.3.3 0 .2 0 .3-.1.3-.2 0-.4-.1-.4-.2zm.9 46.4c-.2.3-.3.4-.6.3-.1 0-.2-.1-.1-.4.1-.2.3-.3.5-.3s.3.2.2.4zm6.8 9.4c-.2-.1-.3-.3-.3-.5.1-.2.2-.3.3-.2.1.2.3.4.3.6 0 .1-.2.2-.3.1zm6.9 9c-.1.2-.3.1-.4-.1 0-.1-.1-.2-.1-.3.1-.2.3-.1.4 0 .1.1.2.3.1.4zm1.4-4.2c-.2.3-.4.3-.7.1-.2-.1-.2-.2-.1-.4.2-.2.4-.2.6-.1.2.1.3.2.2.4zm-.7-9.2c.1.1 0 .3-.1.4-.2.1-.3.1-.5.1-1 .8-2 1.5-3 2-5.5 2.8-10.6.6-9.9-12.1l1.6-37.1c-.2 0-.3-.1-.4-.3-.2-.2-.2-.5 0-.7.2-.1.3-.1.5 0l1.7-40.2c1.4-30.1 31-37.8 30.4-9.1l.2-.1-2 42.2c-2 28.6-9.5 47.2-18.5 54.9zm17-25.4c-.2.1-.4.1-.5-.1-.2-.4.1-.7.3-1 .2-.1.4-.1.5.1.1.4 0 .7-.3 1zm-13.6 24.2c-.1.2-.3.2-.4-.1 0-.2 0-.3.1-.4.2-.1.3-.1.4 0 .1.2 0 .4-.1.5zm-1.3.3c.2 0 .3.1.3.3s.2.6-.1.8c-.2.1-.3-.2-.2-.2 0-.3-.2-.6 0-.9zm-.4 6c-.1-.1-.1-.3 0-.5.2-.3.5-.6.8-.4.3 0 .1.2 0 .4-.2.2-.3.7-.8.5zm1.9.9c-.2.4-.5.3-.8.2-.1-.1-.2-.3-.2-.5.3-.2.6-.3.9-.2.2.1.2.3.1.5zm1.8-4.9c-.2-.2-.2-.3-.1-.5.2-.2.4-.5.8-.3.2.1.2.3.1.5-.2.3-.4.5-.8.3zm4.2 4.8c-.1 0-.2.2-.3.2-.6.2-.3 1.3-1 1.1-.6-.2-.3-.9-.3-1.3 0-.7-.7-.8-1.2-.8-.3-.1-.8 0-.8-.4 0-.6.5-.4.8-.4 1 0 1.9-.1 2.6.8.2.2.5.4.2.8zm.3-1.6c-.2.1-.4 0-.4-.2-.1-.4.2-.6.5-.7.1 0 .3 0 .4.2-.1.3-.2.6-.5.7zm1.1-2.7c-.4 0-.7-.1-.7-.4-.1-.4 0-.8.5-1 .3-.1.6 0 .7.4.1.4-.1.8-.5 1zm.6-3.9c-.2.2-.4.2-.6.1-.2-.2-.4-.4-.2-.7.2-.2.4-.2.6-.1.2.1.3.4.2.7zm.2-.3c-.1-.2 0-.3.2-.4.3-.1.5 0 .6.2.1.1 0 .3-.2.4-.3.1-.5 0-.6-.2zm2.4 5.7c-.6.6-1.5.5-1.8-.4-.2-.5-.5-.9-.4-1.5.3-.4.7-.5 1.1-.4.5.1.6.4.4.8-.2.5-.3.8.5.8.6 0 .5.4.2.7zm1.8-22c-.1.1-.2.1-.2 0v-.2c.1 0 .1.1.2.1v.1zm.8-6.1c-.2.1-.4.1-.5 0-.2-.1-.1-.2 0-.3.1-.1.2-.1.4 0 .2 0 .2.2.1.3zm.5 1.8c-.1.1-.2.1-.3 0-.1-.2 0-.4.1-.5.2-.1.3-.1.4 0 .1.2 0 .4-.2.5zm2-1.2h-.2v-.2h.2v.2zm1.8-1.3c-.3.3-2.6-.2-2.8-.6-.1-.2-.1-.4.1-.6s.4-.3.7-.2c.7.2 1.4.5 2 .8.3.2.2.5 0 .6zm3.2-.5c-.3.3-.7 0-1.2-.1-.1 0-.2-.2-.1-.4.4-.3.8-.1 1.1.1.2.1.3.3.2.4zm13.5-46.8c0 .4-.2.6-.5.7-.2 0-.4 0-.4-.2-.1-.4.2-.6.5-.7.2-.1.3-.1.4.2zm-3.7-7c0 .3-.1.4-.3.4-.3 0-.7.1-.9-.3 0-.2.1-.3.3-.4.4-.1.7 0 .9.3zm-.3 22.2s-.1.1-.1.2c-.1 0-.1-.1-.2-.1 0-.1 0-.2.1-.2.1-.1.2 0 .2.1zm-.3-53.7h.3c0 .2.1.3 0 .4 0 .1-.2.1-.4-.1 0-.1.1-.2.1-.3zm-.5 29.8c.1-.1.3-.1.4.1 0 .2-.1.3-.3.4-.2 0-.3 0-.3-.2 0-.1.1-.2.2-.3zm-.3 13.1c.3-.1.5.2.6.4s.1.4-.2.5c-.3 0-.5-.1-.6-.4-.1-.3 0-.5.2-.5zm-.5 14.3c.2 0 .4 0 .5.2 0 0-.1.1-.1.2-.2 0-.4 0-.5-.2 0-.1 0-.2.1-.2zm-.1 2c-.3.1-.4 0-.4-.3 0-.2-.1-.5.3-.6.2-.1.3.1.3.3.1.3 0 .5-.2.6zm-.4-38.1c.1-.1.2 0 .3.1.1.3-.1.5-.3.7-.1.1-.3.1-.3-.1 0-.3.1-.5.3-.7zm-2.7 30.1c.2 0 .5 0 .6.2.1.1 0 .2-.1.3-.2.1-.5 0-.6-.2-.1-.1-.1-.3.1-.3zm-1.3-15.1l.2.2s-.1.1-.1.2c-.1 0-.2 0-.2-.1-.1-.2-.1-.3.1-.3zm-2 50.2h-.2v-.2c0-.1.1 0 .2 0v.2zm-.1-18.9c-.3-.3-.1-.6.2-.9.4-.3.7-.3 1.2.1.1.4.1.7-.3.9-.4.2-.8.4-1.1-.1zm.3 4.7c-.2-.3 0-.5.2-.7.2-.1.4-.2.6 0 .3.3.1.5-.1.7-.2.1-.5.3-.7 0zm.6 16.6v-.4c0-.2.2-.2.3-.1.1.1.1.3.1.4 0 .2-.2.2-.4.1zm.3-4.3c-.3-.2-.3-.5-.2-.9.1-.3.4-.3.6-.2.4.2.4.5.2.9-.1.3-.3.3-.6.2zm.6 11.3c-.1.1-.2 0-.2-.2 0-.1.1-.1.2-.2.1 0 .2 0 .2.2 0 .1-.1.2-.2.2zm.5-8.9c-.1.2-.3.2-.5.1-.3-.2-.4-.5-.3-.9.2-.2.4-.3.6-.1.3.2.4.5.2.9zm.5-8.1c-.1-.2-.3-.4-.1-.6.3-.3.5 0 .6.1.3.4 1 .4 1 1 .1.2-.1.4-.3.4-.7.1-.8-.6-1.2-.9zm1.4 24.1c-.2.1-.3 0-.4-.1v-.4c.3-.6.5-1.3.9-1.9.2-.3.4-.1.6.1.2.5-.6 2.1-1.1 2.3zm2.1-15.6c-.1-.1-.1-.3-.1-.4 0-.1.1-.2.3-.1.1.1.1.2.1.3-.1.2-.1.3-.3.2zm.1-3.2c-.1 0-.1-.2 0-.3 0-.2.1-.3.1-.4 0 .1.1.2.1.3 0 .2.1.4-.2.4zm0-.8h-.4c-.4.1-.4 1-.8.7-.5-.3-.6-1-1-1.5.6-.5 1.2-1.3 1.8-1.4.8-.1-.1 1.5 1 1.7.1.1-.3.4-.6.5zm1.5 23.3c-.1.1-.2.1-.2.1-.3-.2-.3-.3-.2-.4.1-.1.2-.1.3 0 .2 0 .2.2.1.3zm0-41.5c-.5.3-.2-.6-.5-.8-.2-.1-.4-.3-.4-.5-.1-.5.1-1 .6-1.2h.2c.4.1.9.3.9.8 0 .7-.3 1.5-.8 1.7zm1.3-2.6c-.4.1-.7-.2-.7-.6 0-.2 0-.6.3-.5.3.1.5.4.7.7 0 .2-.1.4-.3.4zm1.2-63.4c.5-.3 1.1-.5 1.6-.2.2.1-.4.4-.6.6-.4.2-.6.9-1.2.4-.3-.3-.1-.6.2-.8zm-.3 18.4c0-.2.2-.4.4-.4s.3.1.3.2c0 .3-.2.4-.4.5-.2 0-.3-.1-.3-.3zm1 61.2c0-.2 0-.3.1-.4.1-.1.3-.1.4.1 0 .2-.1.4-.2.5-.2 0-.3 0-.3-.2zm.8 7s-.1.1-.2.1c-.2 0-.1-.2-.1-.3 0 0 .1-.1.2-.1s.2.2.1.3zm.3-20c-.1.1-.2.1-.3.1-.1 0-.2-.2-.2-.3 0-.3.2-.3.4-.2.1.1.2.2.1.4zm.1-18.2c-.3.3-.8.3-.6-.3.2-.8-.2-.8-.7-.7-.5 0-.7-.1-.7-.6 0-.4.2-.8.6-1 .6 0 1 .4 1.4.7.7.5.7 1.4 0 1.9zm.9-45c0 .1-.2.1-.3 0-.2-.2-.1-.3-.1-.4.2-.3.3-.3.4-.1.2.2.1.3 0 .5zm4.2 58.1c-.1-.2-.2-.3-.1-.6 0 0 .1 0 .1-.1v.7zm.2-34.5c.3 0 .4.1.5.4 0 .1-.1.3-.2.2-.2-.1-.4-.2-.5-.4-.1-.1 0-.2.2-.2zm-.3 10.7c.2-.1.3 0 .4.2 0 .4 0 .7-.4.8-.1.1-.4 0-.4-.2-.1-.3.1-.6.4-.8zm-1-1.2c.2-.1.4-.1.4.2.1.5-.3.5-.6.7-.1 0-.4.1-.4-.1-.1-.4.3-.6.6-.8zm-1.2-23.6c.1-.2.3-.1.4 0 .1.2 0 .3-.1.4-.1.1-.2.1-.3 0-.1-.1-.1-.3 0-.4zm-.2 28.6c0-.3 0-.8.5-.7.4.1.2.5.2.8-.1.5-.2 1.1.5 1.3.5.1 1.2 0 1.3.6.1.7-.9.2-1.2.7-.1.1-.2.1-.3.2-.4.2-.5-.1-.8-.2-.7-.9-.5-1.8-.2-2.7zm1.1 51.8c-.1 0-.2-.1-.3-.3-.1-.1-.1-.3.1-.3.1 0 .2.2.3.2.1.2 0 .4-.1.4zm.2-4.1c.2-.5.4-1.1 1.4-.5.2.1.5.1.7 0 .2 0 .5-.1.6.2.1.3 0 .6-.3.7-.7.3-1.4.5-2.2.5-.3 0-.5-.2-.2-.9zm3.6 4.8c-.3.2-.8.1-.7-.4.3-.9-.2-1.4-.7-2-.4-.4-.1-.8.3-1s.8-.1.9.3c.2.6.5 1.1.7 1.6.2.7.1 1.2-.5 1.5zm2.2 2.6c-.2 0-.5 0-.5-.3 0-.4.1-.7.4-.8.3-.1.5 0 .6.4 0 .4-.2.6-.5.7zm3.2-6c-.2.1-.4.3-.7.2-.1-.1-.1-.2 0-.3.2-.2.4-.4.7-.3.2.1.1.3 0 .4zm6.9-4.1c0 .1-.2.2-.3.1-.2-.1-.2-.2-.1-.3h.4v.2zm1.8-3.9c0 .1-.1 0-.2 0-.2-.1-.1-.2-.1-.4.2 0 .3 0 .4.1.1.2 0 .3-.1.3zm2.6 5.4c-.1 0-.2-.1-.1-.3 0-.1.1-.1.2-.1 0 0 .1.1.1.2-.1.1-.1.2-.2.2zm5.6-5.8c-.2.1-.3 0-.4-.2-.1-.1 0-.2.1-.3.2-.1.3 0 .5.3 0 0-.1.2-.2.2zm3.3-9c0-.1-.1-.1-.1-.2.1-.2.2-.2.2 0 .1 0 .1.1.1.2h-.2zm2.2-23.5c-.2 0-.2-.2-.2-.3 0-.2.1-.3.2-.2.3 0 .3.2.3.3 0 .1-.1.2-.3.2zm4.6 12.7c-.1 0-.3-.1-.3-.2-.1-.2.1-.2.3-.2.1.1.2.1.2.3 0 .1-.2.1-.2.1zm2.1 3.3c-.1 0-.2-.2-.2-.3 0-.1 0-.2.2-.3.1 0 .2.2.2.3s0 .3-.2.3zm35.6-19.5c.1 0 .1.2.1.3-.1.2-.2.3-.3.2-.1 0-.1-.2-.1-.3 0-.1.1-.2.3-.2zm-5.2-.9c.1-.1.2 0 .3.1.1.2.1.4 0 .5-.1.2-.2.1-.3-.1 0-.2-.1-.3 0-.5zm-.8 6.5c0-.3.3-.3.5-.3.1 0 .2.1.2.3-.1.2-.3.2-.5.2-.1 0-.3 0-.2-.2zm-2.2-.5c.1-.1.2 0 .3 0 .1.1.2.2.1.3-.1.1-.2.1-.3 0s-.2-.2-.1-.3zM676.2 236c.1-.4.3-.7.7-.8.2.1.3.3.3.4-.2.3-.4.7-.8.8-.2.1-.3-.2-.2-.4zm.6 4.4c-.1.2-.2.3-.3.2-.1 0-.2-.2-.2-.3 0-.2.1-.3.3-.2.1.1.1.2.2.3zm-.9-2.7c.1 0 .1.1.2.2 0 .1-.1.2-.2.2s-.1-.1-.2-.2c.1-.1.1-.2.2-.2zm-3.6 79.6c-.1.1-.2.2-.3.2s-.2-.2-.1-.3l.2-.2c.2.1.3.2.2.3zm1.5-79.8c-.2.2-.4.3-.6.2-.3-.2-.5-.5-.4-.9.1-.3.3-.4.6-.2s.5.5.4.9zm1.2 2.1c0 .2-.2.4-.4.3-.4-.1-.5-.4-.5-.8 0-.2.2-.3.5-.4.4.2.5.5.4.9zm1.6 37.8c-.1.2-.2.4-.4.2l.2-.4c.1-.1.2-.1.3-.2 0 .2-.1.3-.1.4zm.9-.5c.2.2-.4.2-.7.1-.1 0-.2-.2-.3-.2-.4-.2-1 .5-1.1 0-.2-.5.1-1.2 0-1.8.7 0 1.7-.3 2.2 0 .8.4-.9 1.1-.1 1.9zm1.3 13.2c-.2-.1-.2-.3-.1-.5.1-.1.2-.2.3-.2.1.1.1.3.1.4-.1.3-.2.4-.3.3zm1.9-43.8h-.2c-.1-.1-.1-.2 0-.3h.2c.1.1.1.2 0 .3zm2.4 44.3c-.2.5-.3 1.1-.4 1.6-.3.6-.7.9-1.3.8-.3-.1-.6-.5-.3-.7.8-.6.7-1.3.6-1.9 0-.5.4-.7.9-.6.4.1.7.4.5.8zm-.3-58.3c-.1 0-.2-.1-.1-.3.1-.1.2-.2.3-.2.1 0 .2.1.2.2-.1.2-.2.3-.4.3zm.6 44.1c-.1-.1-.2-.2-.1-.3.1-.1.2-.2.3-.2.1-.1.2.1.2.2 0 .2-.2.3-.4.3zm5.6 49.7c-.2 0-.2-.3-.2-.5.1-.2.2-.3.3-.4 0 .2.1.3.1.4.1.3.1.5-.2.5zm1.4-.9c-.4.3-.8.1-1.3-.1-.2-.4 0-.6.3-.7 0-.2.1-.3.4-.4.2 0 .2 0 .3.1.2-.2.5-.5.7 0 .2.4 0 .8-.4 1.1zm.1-4.1c-1.3.1-2.1.8-2.7 1.8-.4.5-.6 1.1-1.3.4-.2 0-.6.1-.6-.1.1.2.1.5-.2.6-.5.2-.6-.3-.7-.6-.1-.4-.4-.9.1-1.1.4-.1.6.4.7.7 0 .1.1.2.1.3 0 0 0-.1.1-.3.7-1.2 1.5-2.3 2.6-3.1.2-.2 1.9-.1.3-.9-.2-.1-.1-.4.1-.6.6-.6.9-1.6 2.2-1.4.4.1.9-.2 1.1.4.2.6.1 1.1-.4 1.3-.6.2-.7.3-.5 1 .2.7 0 1.5-.9 1.6zm3.6 1.2c-.7 0-1.4.3-2.1-.1-.5-.3-.7-.9-.5-1.4s.7.1 1 .2c.4.1.8.3 1.2.4.2.1.5.2.6.5.1.2 0 .4-.2.4zm1.2-4.9c-.3.2-.8.1-.9-.3-.1-.7.5-.8.9-1 .3 0 .7-.3.8.1.1.6-.3 1-.8 1.2zm3.7-4.6c-.1.3-.4.3-.7.2-.4-.2-.7-.5-1.1-.7-.1-.1-.2-.2-.2-.3 0-.1.2-.1.3-.1.2.1.5.2.7.2.2.1.3.1.5.2.3.1.7.1.5.5zm1.2 13.9c-.2-.1-.3-.2-.3-.4 0 0 .1-.1.1-.2.2.1.3.2.3.4 0 .1-.1.2-.1.2zm1.2-3.1c-.2.1-.3 0-.3-.1 0 0 .1-.1.1-.2.1 0 .2 0 .2.1.1 0 0 .2 0 .2zm.4-10.5c-.8.5-1.8.4-2.3-.2-.2-.2-.3-.4-.1-.7.1-.2.4-.2.6-.1.5.4 1.1.3 1.6.2.3-.1.6 0 .7.3.1.3-.2.4-.5.5zm1.6-3.1c-.1.5 0 1.1-.7.3-.3-.5-.7-.2-1 .2-.3.2-.6.3-.8-.1-.1-.3-.1-.6.3-.8.4-.2.7-.3 1.1-.5 1.2-.4 1.3-.3 1.1.9zm2-1.2c-.3 0-.5-.1-.6-.4 0-.2 0-.4.3-.4.2 0 .3.3.5.5 0 .2 0 .3-.2.3zm4.4 14.6c0 .2-.2.3-.3.2-.1 0-.2-.2-.1-.3s.2-.2.3-.2c.1 0 .2.2.1.3zm6.7-7.5c-1 .2-1.7-.8-2.6-.6 0 0-.1-.1-.2-.1.5-.9-.3-1.4-.6-2.1-.1-.3 0-.6.3-.8.4-.2.7 0 .8.3.2.5.4.9 1 .9.2 0 .4.2.3.4-.2.9.3 1.2 1 1.5.1 0 .2.2.2.3 0 .1-.1.2-.2.2zm1.2-12.7c-.2 0-.3-.1-.2-.2 0 0 .2-.1.3-.1 0 0 .1.1.1.2-.1 0-.1.1-.2.1zm2.1 14.6s-.2 0-.2-.1c-.1-.2-.1-.3.1-.3 0 0 .2 0 .2.1.1.1 0 .3-.1.3zm3.3-16.9c-.2.1-.4.1-.5-.1-.2-.2 0-.4.2-.4s.4.1.5.2c.1.2-.1.2-.2.3zm5.2-4.4c-.3.1-.4-.3-.5-.5 0-.4-.1-.9.4-1 .3-.1.6.1.6.4 0 .4 0 1-.5 1.1zm9 1.2s.2.1.2.2c0 .2 0 .3-.2.3s-.3 0-.3-.2c0-.1 0-.3.3-.3zm-2.6 8.4c-.1 0-.2-.2-.1-.3.1-.1.2-.2.3-.1.1 0 .1.1.1.3-.1 0-.2.1-.3.1zm1.2-2.8c-.2 0-.3-.1-.1-.3 0-.1.1-.1.2-.1 0 .1.1.1.1.2s-.1.2-.2.2zm1.6-1.6c0 .3-.3.3-.5.2-.4-.2-.7-.4-.6-.8.1-.3.4-.3.7-.3.3.2.5.5.4.9zm2.6-3.2c-.1 0-.2-.1-.2-.3 0-.1.2-.1.2-.1.1 0 .2.1.2.2.1.2 0 .2-.2.2zm3.9-20.2c-.1 0-.2-.1-.2-.2 0-.2 0-.3.3-.3.1 0 .2.2.2.3 0 .2-.1.3-.3.2zm.8-7.8c0-.1-.1-.1-.1-.2.1 0 .1-.1.2-.1 0 0 .1.1.1.2-.1 0-.1.1-.2.1zm1.8-2.9c-.2.2-.5.2-.7 0-.2 0-.2-.2-.1-.3.2-.2.4-.2.7-.1.2.1.3.2.1.4zm.9-6.6c-.2 0-.3 0-.3-.2 0-.1.1-.2.2-.2s.3 0 .3.2c0 .1-.1.2-.2.2zm1.3-3.4c-.1.2-.2.4-.4.3-.2-.1-.1-.4-.1-.6s.1-.4.4-.3c.2.1.2.4.1.6zm4 4.2c-.2.3-.3-.1-.6-.2-.2-.1-.5-.4-.8-.7-.2-.2-.6-.5-.2-.9.3-.3.7-.2 1 0 .5.3.6.8.7 1.3 0 .2 0 .4-.1.5zm.4-4.7c0-.1 0-.2.1-.2.2 0 .3.1.2.3 0 0-.1.1-.2.1 0-.1-.1-.1-.1-.2zm.9 19.4c-.2.1-.4.1-.7-.2-.1-.2 0-.4.2-.5.2-.1.4 0 .5.1.2.2.2.4 0 .6zm5.7-38.2c.1-.3.3-.4.6-.3.3.2.4.5.3.8-.1.2-.3.3-.5.2-.3-.1-.5-.3-.4-.7zm.8 1.6c-.2.1-.4 0-.4-.2-.1-.2-.1-.4.1-.5.2 0 .4.1.5.3.1.1 0 .3-.2.4zm.1-4.4c-.2.2-.6 0-.9-.3 0-.4 0-1 .4-1.4.2-.2.5-.2.6 0 .2.6.4 1.2-.1 1.7zm5.7 4.3c-.2 0-.3-.1-.4-.3 0-.2-.1-.4.1-.5.2-.1.3.1.3.3.1.2.2.4 0 .5zM978.7 77.7c2.9 3.3 5.9 5.3 9 6.3-.2-.1-.5-.2-.7-.3.1-.3.3-.5.7-.5.5 0 .5.5.4.8v.1c6.2 1.8 12.8-.4 19.7-4.7 8.4-5.2 17.7-8.9 27.8-13.8-15.8-10.7-36-5.9-56.9 12.1zm12 1.4c-.2.3-.1.9-.4.9-.4-.1-.4-.7-.6-1s-.2-.6.1-.8c.4-.3.2-.6 0-.9-.3-.3-.6-.5-.8-.8 0 0-.1-.2-.1-.3 0-.2.2-.1.3-.1 1.6.3 2.2 1.5 1.5 3zm12-2.2c-.3.1-.6.2-.7-.1-.2-.3 0-.6.3-.8.2-.2.5-.1.7.1.2.4 0 .6-.3.8zm4.5-6.6c-.1.1-.3.1-.4 0-.1-.1-.1-.3-.1-.3.1-.2.3-.1.4 0 .1 0 .2.2.1.3zM774 127.3c.1-.4.1-.8 0-1.2-.2-.9-.4-2-.7-3.2-.3-1.2-.6-2.5-1-3.9l-1.2-4.2c-.4-1.4-.8-2.8-1.1-4.1-.4-1.3-.7-2.5-1-3.6-.3-1.1-.5-2-.6-2.6v-.3c0-.2 0-.4.1-.4.1-.2.2-.4.2-.7 0-.3-.1-.7-.3-1.1l-.8-1.8-2.8 1.4c-.6.3-.8.6-.9.9 0 .3 0 .8.2 1.5 0 .1.1.3.2.7.1.4.2.8.4 1.4.2.6.3 1.2.5 1.9s.4 1.4.6 2.2c.5 1.7 1.1 3.7 1.7 5.8-1.3-1.9-2.5-3.7-3.5-5.2-.5-.7-.9-1.3-1.3-1.9-.4-.6-.8-1.2-1.2-1.7-.3-.5-.6-.9-.8-1.2s-.3-.5-.3-.5c-.3-.4-.6-.7-.9-.8-.3-.1-.6-.1-1 0l-3.3 1.6.9 1.9c.2.4.4.7.6.8.2.2.5.3.7.3.3 0 .6.3 1 .8.1.1.2.3.5.7.3.4.7 1 1.2 1.6s1 1.3 1.5 2.1 1.1 1.5 1.6 2.3c.5.7 1.1 1.4 1.5 2.1.5.7.9 1.2 1.2 1.6.4.5.8.6 1.3.4l1.4-.7 1.1 4.8c0 .2 0 .3-.1.4s-.2.2-.3.4c-.4.6-.5 1.2-.1 1.9l1 2.1.6-.3 2.5-1.4c.4-.2.6-.5.7-.8zM995.2 50.8c13.7-3.5 26.1-11.9 39.1-18.2v-3.4c-9.5-2.3-19.8-8-28.5-6.1-12.7 2.8-24.2 10.9-36.2 16.8-.1 1.4-.1 2.8-.2 4.3 8.7 2.5 18.3 8.6 25.8 6.6z"/><path class="st0" d="M661.7 143.8c.2.2.4.3.7.3.2.1.5.1.7 0l8.7 18c.1.2.1.3.1.5 0 .1 0 .2-.1.3-.1.2-.2.5-.3.8s0 .7.2 1.1l.7 1.4 6.1-3-.7-1.4c-.2-.4-.4-.6-.7-.8s-.6-.3-.8-.3c-.1 0-.3-.1-.4-.2-.1-.1-.2-.2-.3-.4l-5.8-12.1c-.1-.1-.1-.2 0-.2h.1c1.4 1.1 2.6 2.1 3.7 3 .5.4.9.8 1.4 1.2.5.4.9.7 1.3 1 .4.3.7.6 1 .8.3.2.4.4.5.4.1.1.4.1.7.1.3-.1.6-.2 1-.3.3-.2.6-.3.9-.6.2-.2.4-.4.4-.6v-.6-1.3-1.7-1.9c0-1.5 0-3.1-.1-4.9l6 12.5c.1.2.2.4.1.5 0 .1-.1.2-.1.4-.1.2-.2.5-.3.8-.1.3 0 .7.2 1.1l.7 1.4 6.1-3-.7-1.4c-.2-.4-.4-.6-.7-.8-.3-.2-.6-.3-.8-.3-.1 0-.2-.1-.3-.1-.1-.1-.2-.2-.3-.4l-8.7-18c.2-.1.3-.3.4-.6.1-.2.1-.4.1-.7s-.1-.6-.3-1l-.7-1.5-4.2 2c-.2.1-.4.2-.6.4-.2.2-.3.4-.3.6l.4 14-10.8-9c-.3-.3-.6-.3-.9-.2l-4.5 2.2.7 1.5c.1.6.3.8.5 1zM979.7 125.6c-4.3 3.3-9.5 5.3-14.8 7.2.3-.1.7-.2 1-.3-.1 0-.1.1-.1.1-.5.6-.9 1.2-1.4 1.7-.3.2-.5.1-.6-.2 0-.2.1-.6.3-1-10.7 3.8-21.6 7.3-26.7 18.8.2 0 .2.1.2.3-.1.2-.2.2-.3.2 0-.1 0-.2.1-.4-.5 1.1-.9 2.3-1.3 3.5.9-.7 1.9-1.3 2.7-2.2.3-.3.7-.4 1.1 0 .4.3.7.7.4 1.2-.1.2-.3.4-.3.5-.3.6-.4.9-.6 1.2-.4.6-.6 1.8-1.6.4-.3-.6-1.1-.3-1.2.2 0 .9-.3 1.8-.6 2.6l-.9.6v.1c2.7-1.9 5.6-3.5 8.7-4.8l-.2-.1c-.1-.1 0-.3.1-.3 0 0 .1.1.2.1.1.1 0 .2-.1.3 14.7-6.5 32.4-8.8 35.9-29.7zm-5.5 5.6c.6.5.8 1.3.7 2-.1.7-.8.4-1.4.5.4-.7.4-1.4.3-2.1 0-.2.1-.7.4-.4zm-1.8 2.3c.4-.4.7 0 1 .1h.1c-.3.3-.7.5-1.1.1v-.2zm.3 2.3c.7-.3 1.4-.5 2.1-.9.1-.1.3-.1.4 0 .2.1.1.3.1.3-.7.6-1.3 1.2-2.2 1.4-.3.1-.6.2-.8-.1-.1-.3.2-.6.4-.7zm-2-.3c.1-.1.2 0 .4 0 .2.2.3.4.2.7-.1.3-.3.1-.4 0-.2-.2-.3-.4-.2-.7zm-2.1 7.6c.3-.1.5-.2.7.1.2.3-.2.4-.4.5-.4.2-.6.8-1.2.7-.2 0-.3-.2-.3-.4.1-.7.8-.6 1.2-.9zM937 158.8c.2-.3.4-.5.8-.5-.3.2-.5.3-.8.5zm5.5-8.6c-.1-.1-.2-.1-.2-.1s.1-.1 0-.2c.1.1.2 0 .2.1.1 0 0 .1 0 .2zm.2-1.5c-.6.3-.9.9-1.5 1.2-.5.2-.9-.2-1.1-.6-.2-.5.2-.8.6-.9.6-.2 1.3-.2 1.9-.2.2 0 .3.1.1.5zm8.8-7.7c.2 0 .3.1.3.3-.1.2-.2.3-.4.3s-.3-.1-.3-.3.2-.3.4-.3zM513.9 268.9c8.1-4.2 11.4-13.7 7.2-21.8-4.2-8.1-14-11.2-22.1-7-8.1 4.2-11 13.8-6.8 22 4.1 8 13.6 11 21.7 6.8z"/><path class="st0" d="M935.4 158.7c.2-1.1.5-2.2.7-3.2-.3 1-.5 2.1-.7 3.2zM890.7 134.6c0-.1 0-.1.1-.2s.2-.1.2 0c2.6-1.4 5.2-2.6 7.9-3.4-5.9-3.8-12.9-8.6-17.6-7-13.6 4.8-26.3 12.2-41.3 19.5 22.2 14.1 35.6-.6 50.7-8.9zm-2.3-.3c-.5.7-1.1 1.2-2 1.4-.1 0-.3-.1-.3-.1.2-.8.8-1.1 1.3-1.6.1-.1.2-.2.4-.3.2-.1.3-.1.5 0 .2.2.2.3.1.6zm1-1.3c-.2 0-.2-.3-.2-.5.1-.2.2-.3.3-.4 0 .2.1.3.1.4.1.3.1.5-.2.5zm1.4-.9c-.4.3-.8.2-1.3-.1-.2-.4 0-.6.3-.7 0-.2.1-.3.4-.4.2 0 .2 0 .3.1.2-.2.5-.5.7 0 .2.4 0 .8-.4 1.1zm2.1-4.1c.4.1.8.3 1.2.4.2.1.5.2.6.5.1.2 0 .4-.2.4-.7-.1-1.4.3-2.1-.1-.6-.3-.7-.9-.5-1.4s.7.1 1 .2zm-7.4 1.1c.4-.1.6.4.7.7 0 .1.1.2.1.3 0 0 0-.1.1-.3.7-1.2 1.5-2.3 2.6-3.1.2-.2 1.9-.1.3-.9-.2 0-.1-.3 0-.4.8.4 1.7.8 2.5 1.3.2.6-.1 1.3-.9 1.4-1.3.1-2.1.8-2.7 1.8-.4.5-.6 1.1-1.3.4-.2 0-.6.1-.6-.1.1.2.1.5-.2.6-.5.2-.6-.3-.7-.6-.1-.4-.4-.9.1-1.1zm-.6 5.5c.2-.2.5-.5.8-.3.3.1.1.4-.1.5-.3.2-.5.3-.8.2-.2-.2 0-.3.1-.4zm-4.6 6.2l-.9.6c-.1-.1-.1-.3 0-.5.2-.2.4-.4.7-.3.2.1.3.2.2.2zm-.5-.4s0-.1.1-.2c.1 0 .2.1.2.1.1 0 0 .2 0 .2-.1.1-.3.1-.3-.1zm-.2-2.5c.3-.1.6 0 .8.4.1.2 0 .4-.3.5-.3.1-.7.1-.9-.3-.1-.3.1-.4.4-.6zm-11.8 7.9c.2-.2.5-.2.6 0 .2.5-.2.8-.4 1.2-.1.1-.3.1-.6 0-.2-.5.1-.9.4-1.2zm-2.8-9.6c.1 0 .2.2.2.3 0 .1 0 .3-.2.3-.1 0-.2-.2-.2-.3 0-.1 0-.3.2-.3zm-2.2-3c.1.1.2.1.2.3l-.2.1c-.1 0-.3-.1-.3-.2 0-.2.2-.2.3-.2zm-6.7 11.1c0-.1-.1-.1-.1-.2 0-.2.2-.2.2 0 .1 0 .1.1.1.2h-.2zM690.8 142.9l3.2 7c.4.8.9 1.5 1.5 2s1.2.8 1.9 1c.7.2 1.5.2 2.2 0 .8-.1 1.6-.4 2.4-.8.8-.4 1.5-.9 2.1-1.4.6-.6 1-1.2 1.4-1.9.3-.7.5-1.4.5-2.1s-.2-1.5-.5-2.2l-3.5-7.4c-.3-.6-.7-1.1-1.3-1.5-.6-.4-1.2-.7-1.9-.9s-1.5-.2-2.3-.2c-.8.1-1.6.3-2.4.7-.8.4-1.5.9-2.1 1.4s-1 1.1-1.4 1.8c-.4.7-.5 1.4-.4 2.1 0 .8.2 1.6.6 2.4zm3.7-3.2c.1-.5.5-.9 1.1-1.1.6-.3 1.2-.3 1.6-.1.4.2.8.5 1 .9l3.4 7c.2.4.2.8.1 1.3s-.5.9-1.1 1.2-1.1.3-1.6.1c-.5-.2-.8-.5-.9-.8l-3.5-7.2c-.2-.4-.3-.8-.1-1.3zM96.3 438.1l-.4-.8c.2 0 .4-.1.7-.2.2.1.6-1 .9.1.1.4.5.8 0 1.2-.4.4-.8.2-1.1 0l.6 1.3c.4.8.9 1.5 1.5 2.1.6.5 1.3.9 2 1.1s1.5.3 2.3.2c.8-.1 1.6-.3 2.5-.7.8-.4 1.5-.8 2.1-1.3.6-.5 1.1-1.1 1.4-1.7.3-.6.5-1.3.5-2s-.1-1.4-.5-2.1l-1-2.2-2.2 1c-.6.3-.9.7-1 1.2-.1.5 0 1 .2 1.5l.2.4c.1.2 0 .5-.2.9s-.6.8-1.1 1-1 .3-1.4.2c-.5-.1-.8-.4-1-.8l-1.4-3 5.7-2.7c1.1-.5 1.4-1.4.9-2.5l-1-2.2c-.4-.8-.9-1.5-1.5-2.1-.6-.6-1.2-.9-2-1.1-.7-.2-1.5-.3-2.3-.2-.8.1-1.6.3-2.4.7s-1.5.9-2.1 1.4c-.6.6-1 1.2-1.3 1.9-.3.7-.4 1.4-.4 2.2s.2 1.6.6 2.5l2.2 4.7zm12.1-2c.1-.1.3-.2.4 0 0 .1-.1.2-.1.3-.2.2-.3.2-.4.1-.1-.2 0-.3.1-.4zm-3.5-8.9c.2.2.4.6.5.9-.2 0-.3-.3-.5-.5-.1-.1-.2-.3 0-.4zm-1 1.4c.4-.1.7-.1.9.2.2.2.1.4-.1.5-.3.1-.6.2-.8-.2-.1-.2-.1-.4 0-.5zm-5.8-.4c.7-.9 1.6-.9 2.5-.9.3 0 .8-.1.8.4 0 .4-.5.4-.8.4-.4 0-.9 0-1.1.4h-.3c-.2.1-.4.1-.5.2-.1.1-.2.2-.4.3l-.2.2-.2-.2c-.2-.3 0-.5.2-.8zm-.2 1.4c.1-.2.3-.4.4-.5.2-.1.3-.2.4-.3s.3-.1.5-.2h.7c.3.1.5.2.8.4.2.2.5.5.7.9l.6 1.3-3.4 1.6-.6-1.3c-.2-.4-.3-.8-.3-1.1 0-.4.1-.6.2-.8zm-1.9 3.5c.3-.6.6-1.2 1.1-1.5.3-.1.5-.1.8-.2l.5 1c-.8-.1-1.2.5-1.6 1.2-.1.3-.6.6-.9.4-.4-.2-.1-.6.1-.9zM82.9 532.4c-2-.5-4-1.3-6.1-2 .1.4-.1.7-.4.8-.3.2-.6.1-.8-.2-.2-.4 0-.8.4-1-5.4-2.1-10.9-4.3-15.1-2.8-4.7 1.7-9.4 3.6-14 5.7.3.1.4.5.3.8-.1.7-.7 1.1-1.3 1.2-.4 0-.4-.3-.4-.7.1-.2.2-.6.5-.9-10.9 5-21.6 10.9-32.5 16.2.1 1.5.1 3 .2 4.4 8.1 1.4 17.2 6 24 3.7 15.6-5.3 30.2-14 45.1-21.3.1-1.2.1-2.6.1-3.9zm-51.1 8.3c.1.1.2.1.2.1.1.1 0 .2-.1.3h-.2c-.1-.2 0-.3.1-.4zm-11.2 7.6c-.2.1-.3.1-.4 0-.2-.1-.1-.3.1-.4.1 0 .3 0 .4.1.1.1 0 .2-.1.3zm1.6 4.6c-.2.1-.4.2-.5 0-.1-.2 0-.3.2-.4.1-.1.3-.1.5.1 0 .1-.1.2-.2.3zm.1-1.5c-.2 0-.3 0-.4-.2-.1-.1.1-.2.2-.2.1.1.2.1.3.2.1.1.1.2-.1.2zm.1-3.5c-.4.4-.5 1-1.2 1-.2-.1-.3-.2-.3-.4 0-.6.7-.7 1-1 .1-.1.3-.5.6-.2.1.1 0 .4-.1.6zm9.3 8.3h-.2v-.2h.2v.2zm.8-1.9c-.2.4-2.5.9-2.8.7-.2-.2-.3-.5 0-.7.7-.4 1.3-.6 2-.9.2-.1.5 0 .7.2.2.2.2.4.1.7zm1.4 3.1c0 .1-.2.1-.3 0-.2-.1-.4-.3-.2-.5 0-.2.2-.2.4 0 .1.1.2.3.1.5zm.4-2.4c0 .2-.3.2-.5.1-.3-.3-.5-.6-.4-1 .1-.3.3-.2.5-.1.3.3.5.6.4 1zm1.4-8.5c-.1 0-.2 0-.3-.1-.1-.1 0-.2.1-.3h.4c.1.1 0 .3-.2.4zm5.4 5.9c-.1.1-.2.2-.3.2-.1 0-.2-.1-.2-.3.1-.1.2-.2.3-.1.2-.1.3.1.2.2zm2.4-1.3c0 .2-.2.3-.4.2-.2 0-.2-.2-.2-.3.1-.2.2-.3.4-.3.2.1.3.2.2.4zm1.6-4.9c-.3.2-.6.1-.7-.2-.1-.4-.4-.9.1-1.2.3-.2.5.2.7.3.1.4.4.8-.1 1.1zm2.4-12.8c.1-.2.3-.3.5-.2.3.2.1.4.1.7-.1.2-.2.4-.4.2s-.3-.4-.2-.7zm1 19.9c-.2.1-.5.2-.7.3-.1-.2 0-.5.2-.7s.4 0 .5.2v.2zm.1-20.9c.1-.2.3-.3.5-.4v.2c0 .2-.4.3-.5.2zm.9 3c-.1.1-.2.2-.4.1-.1 0-.1-.2-.1-.3 0-.1.1-.2.3-.2.3 0 .3.2.2.4zm0-1.3c-.1.1-.2.2-.2.1-.2 0-.1-.2-.1-.3.1-.1.1-.2.3-.2.1.2.1.3 0 .4zm4.4 6.7c-.3-.1-.4-.3-.4-.6-.1-.1 0-.4.2-.3s.3.4.4.6c0 .2-.1.3-.2.3zm1.2.2c-.2.3-.4.6-.8.4-.4-.2-.2-.5 0-.8.2-.2.4-.4.7-.3.3.2.3.5.1.7zm1.6 3c-.1.1-.2.2-.3.1-.1-.1-.1-.2 0-.3.1-.1.3-.2.3-.1.1.1.1.2 0 .3zm3.1-3c-.3.3-.7.4-1.2.3-.2-.1-.3-.3-.2-.5.4-.3.8-.3 1.3-.2.2 0 .3.2.1.4zm5.2-10.5c-.4-.1-.7-.3-.7-.7 0-.5.4-.7.9-.5.3.1.8.1.7.7-.1.4-.5.6-.9.5zm5 9.5c-.2-.1-.6-.2-.7-.5 0-.3.2-.2.4-.2.3.1.6.2.7.5 0 .3-.2.2-.4.2zM788.1 182.4c0-.2 0-.3.1-.4.2-.1.3-.1.4 0 .1.2 0 .4-.1.5 2.7.3 5.2.2 7.6-.6 6.4-2 12.5-4.9 18.6-8 .2-.4.4-.9.6-1.3.3-.4.5-.2.6.1.1.1.1.4 0 .6 5.1-2.6 10.2-5.4 15.4-7.9.1-1.4.3-2.7.4-4.1-6-1.7-13-6.2-17.7-4.5-13.8 5-26.8 12.4-40.1 18.9 0 1.4-.1 2.7-.1 4.1 4.6.6 9.6 2.1 14.3 2.6zm42.2-20.3c.2.6.5 1.1.7 1.6.2.7.1 1.2-.5 1.5-.4.2-.8 0-.7-.4.3-.9-.2-1.4-.7-2-.4-.4-.1-.8.3-1s.8-.1.9.3zm-3.3-1.7c0-.2.1-.4.3-.6.8.3 1.5.5 2.2.8-.1 0-.1.1-.2.1-.7.3-1.4.5-2.2.5-.3 0-.5-.2-.1-.8zm-.6 3.5c.2 0 .3.1.3.2.1.2 0 .4-.1.4-.2 0-.3-.2-.3-.3-.1-.1-.1-.3.1-.3zm-9.3-5.1c.1.1.1.2.1.3-.1.2-.1.3-.2.2s-.1-.3-.1-.4c0-.1.1-.2.2-.1zm-4.7 9c-.1.1-.2 0-.2-.2.1 0 .2-.1.2-.2.1 0 .2 0 .2.2 0 .1-.1.2-.2.2zm-.2-9.6c.2-.2.4-.3.6-.1.3.2.4.5.2.9-.1.1-.3.2-.5.1-.3-.2-.4-.5-.3-.9zm-.6 2.2c0-.2.2-.2.3-.1s.1.3.1.4c-.1.2-.2.2-.4.1v-.4zm-1-2.2h.2v.2h-.2v-.2zm-9.7 6.4c.1 0 .1.1.2.1v.1c-.1.1-.2.1-.2 0-.1 0 0-.1 0-.2zm-3.9 16c.3-.1.5 0 .6.2.1.1 0 .3-.2.4-.2.1-.4 0-.6-.2-.1-.2 0-.3.2-.4zm-1.2.1c.2-.2.4-.2.6-.1.3.2.4.4.2.7-.2.2-.4.2-.6.1-.2-.2-.4-.4-.2-.7zm-5.1-6.3v.2c-.1 0-.2 0-.2.1 0 0-.1-.1-.1-.2.1-.2.2-.2.3-.1zm-15.1 1c-.2.1-.4.2-.7.1-.1 0-.1-.1-.1-.2l.6-.3c.1.1.1.1.2.1s.1.2 0 .3zm2.5.7c-.1.1-.3.1-.4-.1 0-.2.1-.3.3-.4.2-.1.4-.1.4.1s-.1.3-.3.4zm5 5.5c-.1 0-.3-.1-.4-.1-.1-.2.1-.3.2-.4.2 0 .3 0 .4.1.1.2 0 .4-.2.4zm.5-3.2c-.2.2-.3.3-.5.2-.1 0-.1-.2 0-.3.1 0 .2-.1.4-.2.2 0 .2.2.1.3zm1.3 1.2c0 .2-.2.3-.4.2-.2-.3-.3-.7-.1-1 .1-.2.3-.3.4-.2.4.3.2.7.1 1zM105.9 633.4c.2-.1.5-.2.5.1 0 .2-.1.3-.3.4l-.1.1v.2c14.5-8.4 32.5-12.8 44.8-23.7-.1 0-.1-.1-.1-.1-.2-.4.2-.5.5-.7.2-.1.4-.2.6-.1 7.4-6.9 12.4-16.5 13-31.1-45.2 16.7-61 31.5-58.9 54.9zm56.2-45c.3 0 .7 0 .9.4.1.2-.1.3-.3.3-.3 0-.6-.1-.8-.4 0-.2.1-.3.2-.3zm-9 15.2c.3 0 .7.1.7.5-.1.5-.5.5-.7.3-.3.1-.6-.1-.6-.4.1-.3.3-.4.6-.4zm-2-7.2c0-.1.2-.1.3-.1.1 0 .2.1.2.2 0 .2-.1.3-.3.3-.2 0-.3-.2-.2-.4zm-1.1 11.7c.2-.4.4-.8.9-.9.2.1.4.2.3.4-.2.4-.5.7-1 .8-.2.1-.3-.1-.2-.3zm-9.9 5.2c.7-.3 1 .7 1.3 1.1.3.2.5.5.7.8.3.5 0 1-.3 1.4-.2.2-.5.2-.6 0-.2-.5-.8-.8-1-1.3-.1-.6-.7-1.7-.1-2zm-3-2.3c.4-.5.8-.8 1.2-1 .4.5.8.9.5 1.2-.4.4-1 .6-1.6.6-.4 0-.3-.5-.1-.8zm-3 8.6c-.2-.6.6-1 .8-1.5 0-.1.2-.1.2-.1.4.7.8 1.2 1.6.6l.1.1c.1.3 0 .5-.2.7l-.6.6c-.7.4-1.5.7-2.1 1 .2-.4.5-.8.2-1.4zm-1.3-11.3c0-.1.1-.1.2-.1.1.1.2.2.1.3h-.2c-.1 0-.2-.2-.1-.2zm-2.3-.6c.1.1.2.2.1.3-.1 0-.2.1-.2.1-.1-.1-.2-.2-.1-.3 0-.1.1-.1.2-.1zm-.5-11.9h.2c.1 0 .1.2 0 .2h-.2v-.2zm-2.6 20.8c.1.1.2.2.2.3 0 .2-.1.3-.2.3s-.2-.2-.2-.3c0-.2.1-.3.2-.3zm-3.6 7c0 .2 0 .4.1.6.1.2.6.4.2.7-.2.2-.5-.1-.7-.2-.3-.2-.5-.5-.7-.8-.1-.3-.1-.6.3-.7.4 0 .8-.2.8.4zm-1.9-2c.1-.2.3-.2.6-.1.2.3.6.5.4.9-.1.3-.5.3-.7.1-.3-.2-.5-.5-.3-.9zM790.3 271.8c-.2.1-.5.2-.8.4.3-.1.6-.3.8-.4zM799.2 149.4c13-3.1 24.7-11.2 40-18.6-.7-.3-1.5-.6-2.2-1 .1.1.2.1.3.2l-.3.6c-.1.1-.2 0-.2-.2-.1-.2 0-.4.2-.6-9.4-4.5-17.6-10.9-23.4-9.2-14.9 4.3-28.6 13-42.7 19.9.2 1.1.3 2.3.5 3.4 9.2 2 19.4 7.5 27.8 5.5zm29.1-21.9c0-.2.3-.3.4-.1.3.3.5.7.3 1.2-.1.1-.3.2-.5.2-.3-.4-.2-.9-.2-1.3zm-.3 4.6c.2-.2.5-.2.7 0 .2.2.5.5.3.8-.2.3-.5.1-.8-.1-.2-.2-.4-.4-.2-.7zm-5.3 5.2c.1.1.2.2.1.4 0 .1-.2.2-.3.1-.1 0-.2-.2-.2-.3.1-.3.3-.3.4-.2zm-3.3-3.9c.3.1.5.4.7.7.1.3 0 .4-.3.4-.4.1-.7-.2-.7-.6 0-.2 0-.6.3-.5zm-.7-7.7c.1-.1.2 0 .2.1s-.1.2-.1.2c-.1 0-.1-.1-.2-.1 0-.1 0-.2.1-.2zm-.5 8.9h.2c.4.1.9.3.9.8 0 .7-.3 1.5-.8 1.8-.5.3-.2-.6-.5-.8-.1-.1-.3-.3-.4-.6-.1-.5.1-1 .6-1.2zm-1-5.3c.2 0 .4 0 .5.2 0 .1-.1.2-.1.2-.2 0-.4 0-.5-.2l.1-.2zm-.2 1.1c.2-.1.3.1.3.3.1.3 0 .5-.2.6-.3.1-.4 0-.4-.3.1-.2 0-.5.3-.6zm-3-7.1c.2 0 .5 0 .6.2.1.1.1.3-.1.3-.2.1-.4 0-.6-.2-.1-.1-.1-.3.1-.3zm-2.4 20.9c-.2.2-.5.3-.6 0-.2-.3 0-.5.2-.7.2-.1.4-.2.6 0 .2.3 0 .5-.2.7zm-.8-5.6c.4-.3.8-.3 1.2.1.1.4.1.7-.3.9-.4.2-.8.4-1.1-.1-.3-.3-.1-.6.2-.9zM486.6 524.8c-5 0-9.5 2.2-12.5 5.6-3.8-4.2-5.7-10.5-5.7-15.2l-.5-82.8c-.2-30.1-10.9-46.2-29.3-51.7 75.7-45.2 25.9-176.6-65.7-123.1-58.9 34.4-33.1 99.9-33.1 99.9l22.3-8.7s-18.3-46.2 23-70.4c27.1-15.9 63.1-6.1 65.7 33.1 2.5 33.1-15.4 63.1-51.1 66l-.5-82.2-24.1 14.1.5 100c.1 0 .1-.1.1-.1.7-.9 1.7-.8 2.6-.8.3 0 .8-.2.8.4 0 .4-.5.4-.8.4-.5.1-1.2.1-1.2.8 0 .5.3 1.2-.3 1.4-.7.2-.5-.9-1-1.1l-.2-.2.5 101.1c.2 0 .3.1.4.1.1 0 .3.2.3.3.1.2 0 .3-.1.3h-.6v6.8l24.4-14.2-.6-109.6 2.3-.4c26.5-3.7 41.5 8.7 41.6 38.2l.5 82.8c.1 8.9 2.3 17.6 6.5 24.8 0 0 .1.1.1.2 5.9 10.1 15.8 17.3 29.3 17.7 1.8.2 3.6.2 5.6.1h.9c9.3 0 16.8-7.5 16.8-16.8s-7.6-16.8-16.9-16.8zM340.8 348.3c.2-.2.4-.1.4.1 0 .5.1.9-.2 1.3-.3.1-.4.1-.5-.2-.2-.4 0-.8.3-1.2zm.5 5.5c-.2.2-.6.4-.8.1-.2-.4.1-.6.3-.8.2-.2.5-.3.7 0s0 .5-.2.7zm41.2 54.4c.4-.1.7.2.9.5.2.2.2.4 0 .5-.5.2-.6-.2-.9-.6-.1-.1-.2-.3 0-.4zm-1 1.5c.4-.1.7-.1.9.2.2.2.1.4-.1.5-.3.2-.6.2-.9-.2-.1-.2-.1-.4.1-.5zm-2.1-14.8c.1-.1.2-.1.3 0 0 .1 0 .2-.1.2 0 .1-.1 0-.2 0v-.2zm-.6 10.2c-.1-.2-.1-.4.1-.5.4-.1.6.1.8.3.1.2.1.4-.1.5-.4.1-.6 0-.8-.3zm1 80.1v.4c-.1 0-.3.1-.3.1-.1-.2-.1-.3 0-.5.1-.1.2-.2.3 0zm-1.1.6c.1-.2.2-.2.4-.2 0 .1.2.2.2.3.3.6.5 1.3.7 2 .1.4-.2.4-.5.3-.5-.2-1.1-1.9-.8-2.4zm-.7-9.2c.6.1.1.6.1 1s-.1.8-.2 1.2c0 .3 0 .6-.3.8-.2.1-.5.1-.5-.1-.1-.7-.7-1.3-.4-2.1.2-.6.8-.9 1.3-.8zm-.6 9.8s.1.1.2.1v.2h-.2c-.1-.1-.1-.2 0-.3zm-.3 3.3c-.1 0-.2-.1-.2-.2-.1-.2 0-.3.2-.3.1 0 .2.1.2.2.1.3 0 .3-.2.3zm-1.3-76.1v-1.1c.3 0 .6-.1.9-.2.3-.1.6-.3.8.1.1.4-.2.6-.4.8-.2.1-.5.4-.7.4-.3 0-.5-.1-.6 0zm.4 96.1v-.7l.3.6c-.1.1-.2.1-.3.1zm1.7.5c-.6.5-1-.2-1.3-.5-.1.1-.1 0 0 0 .6-.3 1.1-.8 1.5-1.4.1-.2.6-.6.6-.1 0 .8-.2 1.5-.8 2zm2-7.5c-.3.1-.5 0-.6-.2-.2-.2-.2-.4 0-.6.2-.2.5-.1.6.2.2.2.2.4 0 .6zm1.1 1.3c-.1.1-.2.1-.3 0-.2-.2-.1-.5.1-.7.1-.2.3-.2.4 0s0 .5-.2.7zm.4-2.9c-.2.3-.4 0-.5-.2-.2-.2-.4-.5-.2-.8.2-.1.4 0 .5.2.1.3.3.6.2.8zm-.1-17.9c-.1.2-.2.3-.4.2-.3-.2-.2-.4-.1-.7.1-.2.2-.3.4-.2.3.2.3.5.1.7zm.4-9.6c-.2-.2-.1-.4 0-.5.1-.2.2-.3.4-.2.2.2.1.4 0 .5-.1.1-.2.3-.4.2zm1.9 6.4c-.6.3-1.1 0-1.3-.5-.3-.3-.3-.7.1-.9.6-.3.8.3 1.1.6.1.3.5.6.1.8zm1.5-66.5c-.3.1-.5.2-.7-.1-.1-.2 0-.3.2-.4.3-.1.5-.1.6.1.1.1.1.3-.1.4zm0-13.4c-.1-.4-.3-.7.1-1 .1-.1.3 0 .4.2.2.4.2.7-.1 1-.2.1-.3 0-.4-.2zm.6 53.7c-.1.2-.3.2-.3 0v-.3c0-.1.2-.2.3-.1.1.2.1.3 0 .4zm.6-36.2c-.2.2-.3.2-.4.1-.1-.2 0-.3.1-.4.1-.2.3-.3.4 0 0 .1-.1.2-.1.3zm.7-18.4c-.2.1-.4 0-.5-.2 0-.1-.1-.3.1-.3s.3.1.4.2c.1.1.1.2 0 .3zm.6 104.2c-.1.2-.2.1-.3 0-.1 0 0-.2 0-.2.1-.1.2-.1.3 0v.2zm3.5-6.5c-.5.3-.9.6-.6 1.1 0 .2-.1.4-.3.4-1 0-1.2.6-1.3 1.3-.1.2-.2.3-.3.3s-.2-.1-.3-.2c-.4-.9.4-1.8 0-2.7l.1-.1c1 .3 1.3-.6 1.9-1 .3-.2.7-.2.9.1.3.3.2.6-.1.8zm.2-11.3c-.5 0-1.1.2-.5-.6.4-.4 0-.7-.3-1-.3-.2-.5-.4-.1-.7.3-.2.6-.2.8.1s.5.7.7 1c.6 1.1.6 1.3-.6 1.2zm1.1-77.2c0-.2.2-.4.3-.6.1-.1.2 0 .3.1 0 .3-.1.5-.3.6-.1.1-.3.1-.3-.1zm.7 79.2h-.3c0-.3 0-.6.3-.7.1-.1.4-.1.4.1s-.2.4-.4.6zm1.1-28.6c-.3 0-.4-.2-.4-.5.1-.2.2-.4.5-.3.2.1.3.2.3.4 0 .3-.1.4-.4.4zm.9-63.1c-.2.2-.5.1-.7-.1-.1-.1-.1-.2 0-.3.2-.1.5-.1.7.1.1.1.1.2 0 .3zm1.9 101.8c-.1-.1-.2-.1-.2-.3 0-.2.2-.2.3-.1.1.1.2.2.2.3 0 .1-.2.1-.3.1zm1.4-17.8c-.3.1-.6-.1-.8-.3-.2-.2-.1-.4.1-.4.3 0 .6.2.8.4.1.1 0 .2-.1.3zm1.2-9.7c-.1 0-.3-.1-.3-.2-.1-.1 0-.2.2-.2.2.1.3.2.4.3-.1.1-.2.1-.3.1zm.3-70.7c-.2 0-.4-.1-.5-.3-.1-.2 0-.4.2-.4.1-.1.2 0 .3 0v.7zM453.8 523c-.1 0-.1-.1-.2-.1.1-.1.1-.2.2-.2s.2 0 .2.1 0 .2-.2.2zM119.9 522.1c15.5-5 29.8-13.8 44-20.7-2-4.2-4-8.2-7.4-15.2-13.3 5.5-27.6 11.4-42.1 17.3.5.9.3 1-.8 1.1-.4 0-.9.2-.6-.5-6.7 2.7-13.4 5.5-20.1 8.3.2 2.1.5 4.1.7 6.2 5.2.8 10.8 2.7 16.1 3.7v-.2c.1-.2.2-.1.3 0v.2c3.5.6 6.9.8 9.9-.2zm17.1-18.6c-.1 0-.2 0-.3-.1 0 0 0-.2.1-.2s.2 0 .3.1c-.1 0-.1.1-.1.2zm2.8 10.2c-.1 0-.1-.1 0 0 .2-.2.5-.4.8-.4-.3.1-.5.3-.8.4zm2.4-7.4c-.3.1-.5 0-.6-.2-.1-.3.1-.4.3-.5.3-.1.5 0 .7.3 0 .2-.2.4-.4.4zm5.5.4c-.3.1-.6.1-.8-.1-.2-.2-.1-.3.1-.4.2-.1.5-.1.8.2.1.1 0 .2-.1.3zm10.7-3.3c-.1.4-.4.5-.7.4-.2-.1-.6-.2-.5-.5.1-.3.5-.4.8-.4.3.1.5.2.4.5zm-.4-14.1l.3.6-.3-.3c-.1-.1-.1-.2 0-.3zm-.3 8.6c.8-.2.6.6.8 1 .1.4.7 1 0 1.2-.6.2-.8-.5-1-.9-.2-.5-.4-1.1.2-1.3zm-.8-1.1c.1-.1.3-.1.4.1 0 0 0 .1-.1.2s-.2.1-.3 0c-.1-.1-.1-.2 0-.3zm0 .5c.1 0 .4.1.3.3-.1.2-.4.2-.6.2-.2.1-.4.1-.3-.2 0-.3.3-.3.6-.3zm-.8-.8c.1 0 .2 0 .2.1.1.2.1.3 0 .5 0 0-.2 0-.2-.1-.1-.2-.1-.3 0-.5zm-2.6-1.5c.1 0 .2 0 .2.1.1.1 0 .2-.1.3-.1 0-.2-.1-.2-.2s.1-.1.1-.2zm-2.7-.4c.5-.4 1.2-.7 1.8-1.1.1-.1.3-.1.4-.1.2.1.2.3.2.4-.1.5-1.6 1.5-2.2 1.3-.3 0-.6-.2-.2-.5zm-2.2 14.6h.1c-.1 0-.1.1-.2.1.1-.1.1-.2.1-.1zm-2.2-12.1c0-.3.2-.5.6-.5.5 0 .5-.4.7-.7 0-.4-.1-.7-.1-1.1 0-.2 0-.3.1-.4.1-.1.2 0 .3.1 1 1.3.7 2.6-.8 3.3-.4 0-.7.6-.9.4-.3-.2.1-.7.1-1.1zm-3.8 6.6c0 .4-.4.4-.7.5-.2.1-.5.2-.5-.1 0-.4.3-.5.6-.6s.5-.1.6.2zm-1.4-4.6c.3-.2.7-.4.9 0 .4.3 0 .6-.2.9-.2.3-.5.5-.7.7-.2.1-.3.5-.6.2-.1-.1-.1-.3-.1-.5.1-.5.2-1 .7-1.3zm-1 6.6c.2-.1.3.1.3.3 0 .3-.1.5-.3.6-.2 0-.3-.1-.3-.2 0-.3 0-.6.3-.7zm-.2 1.9c.5-.5.8-.3.8 0 .1.8 0 1.6-.2 2.3 0 .3-.3.5-.6.4-.2-.1-.3-.4-.2-.6 0-.3.1-.5-.1-.7-.7-.9 0-1.3.3-1.4zm-.7 4c-.1.7 0 1.4.3 2.1-.5-.1-1.2.3-1.3-.5-.2-.7.1-1.5.6-2 .3-.3.4.2.4.4zm-3-15.7c.5-.4.4-.8.2-1.2v-.2c.3-.1.7-.3 1-.4.1.1.2.2.2.3.2.7-.1 1.6.8 2v.1c-.4.2-.6.7-.9 1.2.1 0 .2 0 .3.1.1.2-.1.2-.2.3-.1-.1-.2-.1-.3-.1-.2.2-.3.5-.6.6-.1 0-.2.1-.3 0v-.4c.3-.7.6-1.3-.2-1.8-.2-.1-.2-.4 0-.5zm-1.1 5.7c.2 0 .3 0 .3.2 0 .1-.1.2-.1.2-.2 0-.3 0-.3-.2 0-.1.1-.1.1-.2zm-6.8 16.6c.1-.3.3-.5.7-.4.2.2.2.5.2.7-.3.2-.7.3-1.1.5-.1-.2.1-.5.2-.8zm-8.9-2.1c.1.1.2.2.2.3s-.2.1-.3.1c-.1-.1-.2-.1-.2-.3 0-.1.2-.1.3-.1zm-4-10.4c.1-.1.4-.1.4.1s-.2.4-.4.6c-.1.1-.3.1-.3 0 0-.3 0-.6.3-.7zm-20.2 9.8c-.1.1-.3 0-.4-.2-.1-.3-.1-.5.2-.7.2-.2.3 0 .3.2.1.2.2.5-.1.7zm1.2 2.3s-.2-.1-.3-.2c.1-.2 0-.3.1-.4.1-.1.3 0 .2.1.1.2.2.4 0 .5zm7.2 2.2c-.2.3-.4 0-.5-.2-.2-.2-.4-.5-.2-.8.3-.2.5 0 .6.2.2.2.3.5.1.8zm7-4c1.1.2 1.4-.7 2-1.1.3-.2.7-.2.9.1.3.3.2.6-.1.8-.5.3-.9.6-.6 1.1 0 .2-.1.4-.3.4-1 0-1.2.6-1.3 1.3-.1.2-.2.3-.3.3s-.2-.1-.3-.2c-.4-.9.4-1.8 0-2.7zM844.1 189.9c-7.8 6.5-18 9.1-27 13.4 0 .1 0 .1-.1.2-.2.2-.3.2-.4 0-3 1.5-5.8 3.1-8.3 5.2v.2h-.2c-4.7 3.9-8.4 9.3-10.2 17.4 33-9.6 47.4-20.5 46.2-36.4zm-40 29.5c-.1.1-.4.1-.4-.1-.1-.3.2-.5.3-.7.1 0 .3 0 .3.1.1.3.1.5-.2.7zm2.9 3.2c-.2.3-.5.3-.8 0-.3-.3-.6-.6-.9-1-.7-1-.6-1.2.6-1.3.5 0 1.1-.2.5.6-.3.4 0 .8.4 1 .3.2.6.4.2.7zm8.8-17.2c-.3.1-.5 0-.6-.2-.1-.2-.3-.5-.1-.8.2-.2.4 0 .5.2.2.2.4.5.2.8zm1.4 12c-.3 0-.6-.1-.8-.4 0-.2 0-.3.2-.3.3-.1.6 0 .8.3.1.2 0 .4-.2.4zm3.1-9.9c0-.2 0-.3.2-.3.1 0 .1.1.2.1 0 .1-.1.3-.2.3-.1.1-.2 0-.2-.1zm.6 9.8c-.2 0-.4 0-.5-.2 0-.3.2-.4.4-.5.2-.1.4-.1.5.1.1.3-.1.5-.4.6zm.9-11c-.1 0-.2-.1-.3-.1.1 0 .1-.1.1-.2.1 0 .3.1.4.1l-.2.2zm.8.4c0-.1.1-.1.2-.1.1.1.1.2.1.3-.1.1-.1.1-.2.1-.1-.1-.2-.2-.1-.3zm.8 6.8c-.1-.1-.2-.1-.3-.1v-.2c.1-.1.2 0 .3.1v.2zm-.1-2.4c-.3.1-.3-.2-.4-.4s-.3-.4 0-.6c.4 0 .5.2.6.5 0 .2 0 .4-.2.5zm1.2-6c-.2-.1-.2-.2-.1-.3 0-.1.1-.1.2-.1s.1.2.1.3c-.1 0-.1.1-.2.1zm1.8 6.1c0 .1-.1.2-.3.1-.2-.2-.2-.4-.1-.7.1-.1.2-.1.3 0 .2.2.2.4.1.6zm.2-4.1c0 .1-.1.1-.2.1v-.2s.1 0 .2.1c0-.1 0 0 0 0zm1.5 5.9c-.2.2-.3.2-.5.1-.1-.1-.1-.2 0-.3.1-.2.3-.2.5-.1.1.1.1.2 0 .3zm2.8-2.1c0-.1-.1-.2-.1-.2 0-.1.1-.1.2-.1.1.1.1.1.1.2 0 0-.1.1-.2.1zm5-7.4c-.2 0-.3.1-.4 0-.1-.1 0-.2.1-.3.1 0 .3 0 .4.1 0 0 0 .2-.1.2zm4.6 0c-.3-.2-.7-.5-1.1-.7-.4-.2-.4-.6-.1-.9.3-.3.8-.5 1.1-.1.3.3.5.6.7.7-.2.4-.4.7-.6 1zm2-3.7c0 .1-.2.1-.4 0 0-.1-.2-.2-.1-.4 0-.1.2-.1.3 0 .1.1.3.2.2.4zM122.2 412.3l.6 1.3c-.6.3-1 .6-1.1 1-.1.4 0 .9.3 1.6l.7 1.5 1.7-.8 4.6 9.8c.2.5.6 1 1.1 1.4.5.4 1 .7 1.7.8.6.1 1.3.1 2.1 0 .7-.2 1.5-.6 2.3-1.2.4-.3.4-.8.1-1.4l-.3-.7c-.2-.3-.3-.6-.4-.7-.1-.2-.2-.3-.3-.3-.1-.1-.2-.1-.3 0-.1 0-.2.1-.4.1-.5.3-1 .4-1.3.1-.3-.2-.6-.6-.8-1l-4.1-8.7c.3-.1.6-.3.8-.5s.3-.3.4-.6c.1-.2.1-.5 0-.8-.1-.3-.2-.7-.4-1.2l-.5-1.1-1.7.8-.6-1.3-1-2.2-1.7-3.6c-1.4.6-2.3 1.4-2.6 2.2-.4.8-.2 2 .5 3.5l.6 2zM109.2 425.3l.4.9 2-1c.6-.3 1-.6 1.1-.9.1-.3.1-.6 0-.9-.1-.2-.1-.4 0-.6.1-.2.2-.4.3-.5.1-.2.3-.3.4-.4.2-.1.3-.2.5-.3.2-.1.3-.1.5-.2s.4-.1.6-.1.4.1.6.2c.2.1.3.3.4.5l.4.8c0 .2-.1.4-.2.6s-.3.4-.5.7-.5.6-.8 1l-1.2 1.2c-.5.5-.9 1-1.2 1.6-.4.6-.6 1.3-.7 2-.1.7.1 1.6.5 2.4l.1.3c.3.7.7 1.4 1.2 1.9.5.6 1 1 1.6 1.3s1.3.4 2.2.4c.8 0 1.7-.3 2.7-.8.2-.1.5-.2.7-.4.3-.2.5-.3.7-.5s.4-.4.5-.6.2-.5.2-.7c.1.2.3.3.6.4.3.1.5.1.8 0l3.3-1.5-.8-1.6c-.2-.4-.5-.8-.8-1s-.6-.4-.9-.4c-.1 0-.2-.1-.3-.2-.1-.1-.2-.3-.2-.5l-3.8-8.2c-.6-1.4-1.6-2.2-2.8-2.6-1.2-.4-2.8-.1-4.8.8-1 .4-1.7.9-2.3 1.5-.6.5-1 1.1-1.2 1.7-.3.6-.4 1.2-.3 1.8 0 .6.2 1.2.5 1.9zm5.9 2.1c-.1.1-.3.1-.3-.1s.2-.4.3-.6c.1-.2.2 0 .3.1 0 .3-.1.5-.3.6zm2.1-.6c.1-.2.3-.3.4-.5l.4-.5 2.5 5.3c-.1.2-.2.3-.3.5-.3.3-.6.6-1 .7-.5.2-1 .3-1.4.1-.5-.2-.8-.6-1.1-1.2l-.4-.8c-.4-.8-.4-1.4-.2-1.9s.5-1 .8-1.3c0 0 .1-.2.3-.4zM898.1 97.1c-4.8-2.2-9.3-4.7-14-6.3-4.1-1.4-9.3-3.9-12.6-2.5-12.9 5.3-25.3 11.9-39.5 18.9 0 .1 0 .2-.1.3-.1-.1-.1-.1-.2-.1h-.1c25.1 12.9 43.3 9.7 66.5-10.3zm-2.9.5c0 .1 0 .2.1.2-.1 0-.1.1-.2.1 0-.1-.1-.1-.1-.2.1-.1.1-.1.2-.1zm-13.7 1.6c.8-.5.7-1.2.6-1.9 0-.5.4-.7.9-.6.4.1.7.4.5.8-.2.5-.3 1.1-.4 1.6-.3.6-.7.9-1.3.8-.3-.1-.6-.5-.3-.7zm-2.4-2.7c.1-.1.2-.2.3-.2.1.1.1.3.1.4-.1.3-.2.4-.3.3-.2-.1-.2-.3-.1-.5zm-16.9-.5c.3 0 .4.2.5.4.1.1.1.4-.1.4-.3 0-.4-.3-.5-.4-.1-.2-.2-.4.1-.4zm-26 11.1c-.2.1-.3 0-.4-.2-.1-.1-.1-.3.1-.4.1 0 .2.2.3.2.1.2.1.3 0 .4zm15.5-.1c-.1.1-.2.2-.3 0-.1 0 0-.1 0-.2.1-.1.2-.1.3 0 .1 0 0 .1 0 .2zm.6 3.4c-.1.1-.3.1-.3 0v-.2c.1-.2.2-.1.3 0v.2zm2.7-5.8c0 .1-.1.2-.3.1-.1-.2-.1-.4 0-.5.1-.1.2-.2.3 0 .1.1 0 .3 0 .4zm4.3-3.6c-.1.2-.3.2-.4.2-.2-.1-.3-.2-.2-.3.1-.2.3-.3.4-.3.2 0 .3.2.2.4zM221.4 360.5c.3.2.5.3.8.3.1 0 .3.1.4.1.1.1.3.2.4.3l11.6 18.9c.2.4.6.7 1 .8.4.1.8.1 1.1-.1l4.4-2.1c.2-.1.4-.2.4-.4.1-.2 0-.5-.1-.9l-4.2-16 9.7 13.4c.3.3.5.5.7.6.2.1.4.1.6 0l4.8-2.2c.7-.3.9-.9.7-1.6l-7.7-21.1v-.5c0-.1.1-.3.2-.4.1-.2.2-.5.3-.8.1-.3 0-.7-.2-1.1l-.7-1.4-6.1 2.9.7 1.4c.2.4.4.7.7.9.3.2.5.3.8.3.3 0 .5.2.6.6l6.6 18.3c-2.4-3.3-4.5-6.3-6.4-8.9l-2.4-3.3c-.8-1.1-1.5-2.1-2.1-2.9-.6-.9-1.2-1.6-1.6-2.2-.4-.6-.6-.9-.7-1-.2-.2-.4-.4-.6-.5-.2-.1-.5-.1-.7-.1-.3 0-.5.1-.8.2-.3.1-.5.2-.7.3-.6.3-1 .6-1.3.9-.3.4-.4.7-.3 1.1 0 .1.1.5.3 1.2.2.7.4 1.5.7 2.6.3 1 .6 2.2.9 3.5.4 1.3.7 2.6 1 3.9.8 3.1 1.8 6.7 2.8 10.6l-10-16.7c-.2-.4-.2-.6 0-.8.1-.2.2-.5.3-.8 0-.3 0-.7-.2-1.1l-.7-1.4-6.1 2.9.7 1.4c-.2.4.1.7.4.9zm30.2 11.1c.3 0 .7.1.6.4-.1.6-.6.6-1 .6-.3.1-.5-.2-.5-.5.1-.5.5-.4.9-.5zM256.5 365.2c.4.8.9 1.5 1.5 2.1.6.5 1.3.9 2 1.1s1.5.3 2.3.2c.8-.1 1.6-.3 2.5-.7.8-.4 1.5-.8 2.1-1.3.6-.5 1.1-1.1 1.4-1.7.3-.6.5-1.3.5-2s-.1-1.4-.5-2.1l-1-2.2-2.2 1c-.6.3-1 .7-1 1.2-.1.5 0 1 .2 1.5l.2.4c.1.2 0 .5-.2.9s-.6.8-1.1 1-1 .3-1.4.2c-.5-.1-.8-.4-1-.8l-1.4-3 5.7-2.7c1.1-.5 1.4-1.4.9-2.5l-1-2.2c-.4-.8-.9-1.5-1.5-2.1-.6-.5-1.2-.9-2-1.1-.7-.2-1.5-.3-2.3-.2-.8.1-1.6.3-2.4.7s-1.5.9-2.1 1.4c-.6.6-1 1.2-1.3 1.9-.3.7-.4 1.4-.4 2.2s.2 1.6.6 2.5l2.9 6.3zm.9-10.1c.1-.2.3-.4.4-.5.2-.1.3-.3.4-.3.1-.1.3-.1.5-.2h.7c.3.1.5.2.8.4.2.2.5.5.7.9l.6 1.3-3.4 1.6-.6-1.3c-.2-.4-.3-.8-.3-1.1 0-.3.1-.6.2-.8zM902 164c-.3.9-.3 1.7-.3 2.6 0 .2-.1.5-.4.6h-.1c-.1-1-.8-1-1.5-.8 0 0-.1-.2-.2-.2.2-.4.1-1 .2-1.3-5.3 2-10.8 3.8-15.8 6.5-.1.2-.4.2-.5.3h-.1c-8.2 4.4-15.1 11.1-17.7 24.7 4.4-3.9 9.4-6.6 14.5-8.8h-.1c-.1-.1-.2-.2-.4-.3-.1-.1-.1-.5-.1-.8s-.1-.7.3-.8c.4-.1.5.2.7.6.1.3.3.6.5.9 2.2-.9 4.4-1.8 6.5-2.7 0-.2.2-.2.3-.2h.3c11.2-4.7 21.4-9.8 23.8-25.3-3 2-6.4 3.6-9.9 5zm-32.2 25.5c-.1-.1-.2-.1-.2-.2 0-.2.2-.2.3-.2.1.1.2.1.2.2 0 .2-.2.2-.3.2zm3.9-6.9c-.1.2-.3.3-.4.1-.1-.3.1-.5.2-.7s.3-.3.3-.1c.2.2.1.5-.1.7zm.6-1.3c-.4.1-.5-.1-.6-.4 0-.2.1-.4.3-.4.3 0 .4.2.5.4 0 .2 0 .4-.2.4zm4.3 0c-.4.1-.6-.2-.7-.5 0-.2.1-.4.3-.4.3 0 .6.2.7.5 0 .2-.1.4-.3.4zm.4-1.8c-.3 0-.8.2-.9-.2-.1-.2.1-.4.3-.4.3-.1.7-.1.9.3.2.2-.1.3-.3.3zm1.7-.3c-.1-.4.3-.4.6-.5.2-.1.4-.1.5.2-.1.2-.4.3-.6.4s-.5.2-.5-.1zm.6 7.8v-.4c.1-.3.3-.3.5-.2.1.1.2.2.2.3-.2.1-.5.2-.7.3zm2-2.1c0 .3-.1.6-.5.7-.1-.1-.3 0-.4-.1-.5-.3-1.1.6-1.3.1-.3-.6.4-.8.8-1.2.5-.5 0-1-.3-1.4-.2-.2-.6-.5-.3-.8.3-.4.6.1.8.3.7.6 1.4 1.3 1.2 2.4zm.9-5.3c-.3.1-.6 0-.8-.3 0-.3.1-.4.3-.4.4-.1.7-.1.8.3 0 .2-.1.4-.3.4zm3 .5c-.2.1-.3.1-.4 0-.1 0-.2-.2-.1-.3.1-.1.3-.1.4 0 .1.1.2.2.1.3zm3 1.3c-.3.1-.4 0-.5-.3 0-.2 0-.5.3-.6.3-.1.5.1.5.3.1.3 0 .5-.3.6zm.9-9.2c0 .1-.1.1-.1.2-.1 0-.2 0-.2-.1 0 0 0-.2.1-.2.2-.1.3 0 .2.1zm3.7-3.2c-.1 0-.2 0-.3-.1-.1-.1-.1-.3.1-.4.2 0 .3 0 .4.2 0 .2-.1.3-.2.3zm.1-1.5c-.2.1-.4.1-.4-.1 0-.1.1-.2.2-.3.2-.1.4-.2.5 0 .1.2 0 .4-.3.4zm6.4 0c.1 0 .1.2.1.3 0 .1-.2.1-.3.1-.2-.1-.2-.2-.2-.3 0-.2.2-.3.4-.1zm1.3 6.1c-.4.1-.7.1-1 .1-.6-.1-1.6.4-1.9-.2-.1-.7 1-1 1.6-1.3.5-.3 1.1 0 1.7-.2.2-.1.4.2.4.4-.1.6-.2 1.1-.8 1.2zm.7-8.5c-.1-.2 0-.4.2-.4.5.1.7.3.8.7 0 .2 0 .5-.2.5-.5 0-.6-.5-.8-.8zm1.2 5.3c-.3.1-.4-.3-.4-.6-.1-.2-.1-.5.2-.7.3 0 .3.3.4.6 0 .3.1.6-.2.7zm2.3-1.2c-.5-.2-.4-.7-.1-1 .4-.5.9-.9 1.4-1.3.2-.2.3-.1.4.3-.3.5-.2 1.2-.5 1.8-.2.5-.8.4-1.2.2zM80.8 436.6c.3.2.5.3.8.3.1 0 .2.1.4.1l.3.3 4.1 8.9c.1.2.2.4.1.5-.1.1-.1.3-.1.4-.1.2-.2.5-.3.8-.1.3 0 .7.2 1.1l.8 1.7 6.2-2.9-.7-1.7c-.2-.4-.4-.7-.7-.9s-.5-.3-.8-.3c-.2 0-.3-.1-.4-.2-.1-.1-.2-.2-.3-.4l-3.1-6.7c-.2-.5-.3-1-.2-1.5.1-.5.3-.9.6-1.3s.6-.7 1-1 .8-.5 1.3-.7c.2-.1.3-.2.5-.4.1-.2.1-.4 0-.7l-.9-1.9c-.2-.4-.3-.6-.4-.6h-.6c-.2.1-.5.2-.8.3-.3.1-.5.3-.7.5-.3.2-.6.5-.8.8s-.4.6-.6.8c-.2.3-.4.6-.5.9l-.3-.6c-.2-.5-.6-.6-1.2-.3l-4.3 2 .8 1.8c.1.5.3.8.6.9zm4.9 5.7c.2-.2.5-.1.7.1.1.1.1.2-.1.3-.2-.1-.5-.1-.7-.2-.1-.1 0-.2.1-.2zM323.6 460.9c.1 0 .1.1.1.1s-.1.1-.2.1-.2 0-.2-.1c-17.2 6.6-36.4 10.4-40.4 34.4 17.8-14.1 47.9-11 53.9-41.1-4 2.8-8.6 4.8-13.2 6.6-.1 0 0 0 0 0zm-35 25.3c0 .1-.1.1-.2.1-.1-.1-.1-.1-.1-.2l.2-.2c.2.1.2.2.1.3zm5.2-.2c0 .2-.2.2-.3.1-.1-.1-.2-.2-.2-.3 0-.2.1-.2.3-.2.2.1.3.2.2.4zm.8-.9c-.2-.1-.3-.2-.2-.4 0 0 .2-.1.3-.1s.3.1.3.3c-.1.2-.2.2-.4.2zm4.8 1.6c.3-.3.6-.7 1-.6.1.1.1.1.2.1-.4.2-.8.3-1.2.5zm6-5.4c-.1 0-.3-.1-.3-.2 0-.2 0-.3.2-.4.1-.1.3 0 .3.3 0 .1 0 .2-.2.3zm3.5-1.2c-.7.2-.6-.6-.9-.9-.1-.3-.5-.8-.3-.8.6 0 1 .4 1.3.9.2.3.3.7-.1.8zm1.8 1.4c-.1.1-.2 0-.3-.1 0-.1.1-.2.1-.3.1 0 .2.1.3.1 0 .1 0 .2-.1.3zm3.9-11.2c-.2.4-.5.6-.9.5-.2-.1-.3-.3-.2-.5.2-.4.5-.5.9-.5.3 0 .3.3.2.5zm4.8-5.4c-.2.5-.4 1.1-1 .9-.8-.3-.1-.8 0-1.2.3-.4.1-1.2.8-1 .7.2.4.9.2 1.3zm1.5-2.2c0 .1-.2.1-.2.1-.2-.2-.1-.3 0-.5 0-.1.1-.1.2-.1.1.2.1.3 0 .5zM301.5 413.1c-16.9 6.1-32.7 15.1-48.9 23.1.2 1.7.5 3.3.7 5 8.6.8 18.1 4.3 25.7 1.9 14.4-4.7 27.6-12.8 45.8-21.7-10.1-3.9-18.2-10.1-23.3-8.3zM260 440.5c0-.1-.1-.1-.1-.2.1-.1.1-.1.2-.1s.1.1.1.2-.1.1-.2.1zm1.4-5.6s-.1-.1-.1-.2c.1 0 .1-.1.2-.1 0 0 .1.1.1.2-.1 0-.1.1-.2.1zm.3-2.6c.1-.4.4-.4.7-.4.4.1.9.1.9.7 0 .3-.4.4-.7.4-.4-.1-.8-.1-.9-.7zm2.1 8c-.2-.1-.3-.2-.2-.3.1-.1.2-.2.4-.2.2.1.2.2.2.3-.1.1-.2.2-.4.2zm.2-2.4c-.2-.1-.2-.2-.3-.3-.4 0-.6-.2-.6-.6 0-.2.2-.2.4-.2.2.1.4.2.5.4.2.2.3.4.3.6-.1.2-.2.2-.3.1zm.9 4.2c-.1 0-.2-.1-.2-.2-.1-.1 0-.2.2-.2.1 0 .2.2.2.3-.1.2-.2.2-.2.1zm10.9-14.9c-.3.1-.5-.1-.7-.3-.1-.1-.1-.3.1-.4.2-.1.4.1.6.2.1.2.2.3 0 .5zm3.7 1.4h-.2v-.3c0-.1.2-.1.2 0 .1 0 .1.2 0 .3zm.5 13.8c-.1 0-.1-.1-.2-.1v-.2c.1-.2.2 0 .3.1 0 0-.1.1-.1.2zm2.1-14.5c-.2.1-.4.2-.5 0-.1-.3.1-.4.3-.5.2-.1.4-.3.6-.2 0 .4-.2.5-.4.7zm2.7-3.4c-.1.1-.2 0-.3-.1-.1 0 0-.1.1-.2s.2 0 .3.1c0 0-.1.1-.1.2zm1.3.8v.4l-.2-.2c0-.2.1-.3.1-.4.1.1.2.1.1.2zm8.5-1.6c-.5.1-.9-.2-1.2-.6-.2-.2-.2-.5.1-.6.5-.2.7.3 1 .7.1.2.5.4.1.5zm2.3 2c-.2.1-.3.1-.4 0-.1-.2 0-.3.1-.4.1-.1.2 0 .3 0 .2.2.1.3 0 .4zM280.6 335.6l1 2.2.6 1.3c-.6.3-1 .6-1.1 1-.1.4 0 .9.3 1.6l.7 1.5 1.7-.8 4.6 9.8c.2.5.6 1 1.1 1.4.5.4 1 .7 1.7.8.6.1 1.3.1 2.1-.1.7-.2 1.5-.6 2.4-1.2.4-.3.4-.8.1-1.4l-.3-.7c-.2-.3-.3-.6-.4-.7-.1-.2-.2-.3-.3-.3-.1-.1-.2-.1-.3 0-.1 0-.2.1-.4.1-.5.3-1 .4-1.3.1-.3-.2-.6-.6-.8-1l-4.1-8.7c.3-.1.6-.3.8-.5s.3-.3.4-.6c.1-.2.1-.5 0-.8-.1-.3-.2-.7-.4-1.2l-.5-1.1-1.7.8-.6-1.3-1-2.2-1.7-3.6c-1.4.6-2.3 1.4-2.6 2.2-.4.8-.2 2 .5 3.5l-.5-.1zM598.5 462h-38.6c-5.1 0-7.6 1.9-7.6 5.8V479.5c0 .4.1 1 .2 1.8.2.8.5 1.5.9 2.3.4.7 1.1 1.4 2 2 .9.6 2 .9 3.5.9h10.3v-5.3c0-.9.3-1.6.9-2.2.6-.5 1.3-.8 2.2-.8h9.6c.2 0 .4.1.9.2.4.1.5.4.4.8-3 5.6-5.6 10.6-7.6 14.9-2 4.4-3.6 8.6-4.8 12.6s-2 8.1-2.6 12.1c-.5 4.1-.9 8.6-1 13.6l-.2 1.6c0 .6 0 1.1-.1 1.7 0 .6-.1 1.1-.1 1.7-.2.5-.7 1-1.2 1.5-.3.2-.7.7-1 1.3s-.6 1.3-.9 2c-.3.7-.5 1.5-.7 2.3s-.2 1.6-.2 2.3v7H589.1v-7c0-1.5-.3-3.1-.9-4.8-.6-1.7-1.2-2.8-1.8-3.2-.4-.3-.8-.7-1-1-.3-.3-.4-.9-.4-1.6-.1-5.5.1-10.3.6-14.3.4-4.1 1.3-7.9 2.5-11.7 1.2-3.7 2.8-7.6 4.9-11.6 2-4 4.6-8.8 7.7-14.4.2-.2.3-.5.6-1 .2-.5.3-1.1.3-1.7v-16.8c0-.9-.3-1.6-.9-2.1-.7-.3-1.4-.6-2.2-.6zM565 482.5c-.5.1-.8-.1-.9-.6 0-.4.1-.7.5-.8.5-.1.7.3.8.6.2.4-.1.7-.4.8zm1.6-6.8c-.1.1-.2.2-.4.1s-.2-.3-.1-.5c0-.2.2-.3.5-.1.1.1.1.3 0 .5zm1.6 3.4c-.2 0-.3-.2-.4-.4 0-.3 0-.6.3-.7.3-.1.4.2.4.5.1.3 0 .6-.3.6zm5.2-16.7c.1 0 .1.1.2.2l-.2.2-.2-.2.2-.2zm-2.6.3c-.2.1-.3-.1-.4-.3 0-.2 0-.3.1-.3h.7c0 .2-.2.5-.4.6zm2.8 2.4c-.7-.2-1.3-.4-2-.7-.3-.1-.4-.4-.4-.7 0-.2.1-.4.3-.5.4-.2 2.4 1 2.5 1.4.1.3-.1.6-.4.5zm2.4 10.5c-.4.4-.9 0-1.4 0-.2 0-.6.1-.6-.3 0-.3.3-.3.5-.4.5 0 1-.4 1.5.2.1.1.1.4 0 .5zm.7-8.2c-.3.2-.5.2-.7-.1s-.1-.6.2-.8c.2-.2.4-.1.6.1.2.3.2.6-.1.8zm6.2 4s-.1.1-.2.1c0 .2 0 .5-.1.8-.1.1-.2.2-.3.2-.1.1-.3-.1-.3-.2-.2-.7-.4-1.3-1.3-1.2-.2 0-.3-.2-.3-.4.1-.7-.3-.9-.7-1.2-.3-.2-.3-.5-.1-.8.3-.3.6-.3.9-.1.6.4.9 1.3 1.9 1-.1.6 0 1.1.2 1.6 0 0 .1-.1.2-.1.2 0 .2.2.1.3zM572 533.2c-.2 0-.2-.2-.2-.3l.1-.2c.2 0 .2.2.2.3 0 .1 0 .2-.1.2zm.8 3.8c0 .1-.1.3-.2.3-.1.1-.2-.1-.2-.2 0-.2.1-.3.3-.4.1.1.2.2.1.3zm.7 5.6c-.1.2-.2.3-.4.1-.1-.1-.1-.3-.1-.5 0-.1.2-.1.3 0 .2.1.3.2.2.4zm1.2-11.5c-.2 0-.3 0-.3-.2 0-.1.1-.1.2-.1.2 0 .3 0 .3.2 0 0-.1.1-.2.1zm9-15.4c.1 0 .1.2.1.3-.1 0-.1.1-.2.1s-.2-.2-.1-.3.2-.2.2-.1zm-.4-39.9c.1-.2.2-.2.3 0v.2c0 .1-.2.1-.3 0v-.2zm-1.6 43.7h.2v.2h-.2c0-.1-.1-.2 0-.2zm-2.2-1.1c0-.2.2-.2.3-.1.2.1.4.3.2.6-.1.1-.2.1-.4 0-.1-.1-.2-.3-.1-.5zm.1 3.2c-.2-.2-.5-.5-.4-.9 0-.2.2-.2.4-.1.3.3.5.6.5.9-.1.2-.3.2-.5.1zm1.6.3c-.2-.2-.2-.4-.1-.6.2-.3 2.4-1 2.7-.8.2.2.3.5 0 .7-.6.4-1.2.7-1.9 1-.3.1-.6 0-.7-.3zm2.4 3.8c-.4-.2-.9-.3-.7-.9 0-.3.3-.3.5-.2.4.3.8.6.7 1.1-.1.4-.3 0-.5 0zm1.1-8.4l-.2-.2c.2 0 .3-.1.4-.1.1 0 .1.1.2.2-.2.1-.3.1-.4.1zm.3-10.6c-.1-.1-.4-.2-.3-.5 0-.2.2-.2.4-.1.3.1.4.3.4.6-.2.2-.4.1-.5 0zm.8-30.6c0 .1-.2.2-.3.2v-.2c0-.1.1-.2.3-.2v.2zm1.2 36.8c-.1.3-.3.5-.6.4-.3-.2-.1-.4 0-.6s.2-.4.5-.3c.2.1.2.3.1.5zm.2-2.6c-.1.1-.2.1-.3 0v-.2h.3v.2zm7.4-28.2c.1-.4.1-.8.7-.8 0 0 .1.1.1.2-.1.5-.5.6-.8.6zm-3.6-7.5c.1-.3.3-.4.7-.2.2.2.2.4 0 .6-.2.2-.4.3-.6.2-.2-.2-.2-.4-.1-.6zm-1.6 19.1c-.5.1-.6-.4-.7-.8-.1-.3-.1-.7.3-.8.5 0 .6.4.8.8 0 .4 0 .8-.4.8zm.8-17.3c-.1.2-.2.1-.3 0-.2-.2-.3-.4-.2-.7.1-.2.3-.1.4 0 .2.2.3.4.1.7zm-.1-2.9c-.1.1-.3.4-.5.2-.2-.3-.1-.6.1-.9.1-.2.2-.3.5-.2.3.3.1.6-.1.9zm1.9 5.5c-.1-.2-.3-.5-.5-.5-1.1-.2-.9-.9-.7-1.3.2-.7.5-.7.7-.5.6.5 1 1.2 1.3 1.9.1.3 0 .6-.3.7-.2.1-.4-.1-.5-.3zm1 3.7c-.6-.4-.9-1.2-.8-1.9.1-.5.5-.2.6 0 .4.7.9 1.1 1.6 1.4-.4.3-.7 1-1.4.5zm1.3 11.2c-.3-.1-.5-.3-.6-.5-.1-.3-.1-.4.1-.4.4 0 .6.2.7.5 0 .2 0 .5-.2.4zm2.5-9.8c-.8.4-1.7.4-2.7.4 0 0-.1-.1-.1-.2.1-.1.2-.3.3-.3.8-.1 1.5-.4 2.2-.7.2-.1.6-.1.7.2s-.2.5-.4.6zm1.1-1.5c-.3-.1-.3-.4-.3-.7 0-.1.1-.2.3-.3.2.2.3.4.3.7 0 .2-.1.4-.3.3zM269.1 351.3c.3.7.8 1.2 1.4 1.6.6.3 1.2.6 1.9.7.7.1 1.4.2 2.1.2s1.4 0 2.1.1c.6 0 1.2.1 1.7.3.5.2.8.4 1 .8l.2.4c.2.5.2.9 0 1.3s-.6.7-1.1.9-1 .3-1.5.1c-.5-.2-.8-.4-.9-.8-.3-.6-.7-1-1.2-1.2s-1.1-.1-1.7.2l-1.8.8.9 1.9c.3.7.8 1.3 1.3 1.8.6.4 1.2.7 1.9.9.7.2 1.5.2 2.3.1.8-.1 1.6-.4 2.4-.7.8-.4 1.5-.8 2-1.3.6-.5 1-1.1 1.3-1.7.3-.6.5-1.3.5-2s-.2-1.5-.5-2.2l-.5-1c-.3-.7-.8-1.2-1.4-1.6-.6-.3-1.2-.6-2-.7-.7-.1-1.4-.2-2.2-.2s-1.5 0-2.1-.1c-.6-.1-1.2-.1-1.7-.2s-.8-.3-1-.7-.2-.7 0-1.1c.2-.3.4-.6.9-.8.4-.2.8-.2 1.3-.2.5.1.8.4 1.1.9.2.5.6.7 1.1.8s1.1 0 1.8-.4l1.6-.7-.7-1.6c-.3-.6-.7-1.1-1.2-1.6-.5-.4-1.1-.8-1.7-1-.7-.2-1.4-.3-2.1-.2-.8 0-1.5.3-2.4.6-.8.4-1.5.8-2.1 1.3-.6.5-1 1-1.3 1.6-.3.6-.5 1.2-.5 1.8 0 .6.1 1.2.3 1.7l.5 1.2zm7.6-1.2c.1 0 .2 0 .3.1.1.1 0 .2-.1.3-.1 0-.2 0-.3-.1-.1-.1 0-.2.1-.3zM879.4 153.2h-.2l.2-.2-26.1 12.4v.2c-.1.1-.3.2-.5.1l.1-.1-50.7 24.2c-1.9.9-2.8 3.2-2.1 5.2 0-.1-.1-.2-.1-.3.2-.1.5-.2.9-.2.1 0 .3-.1.3.1 0 .1-.1.2-.2.3-.2.2-.5.4-.7.6 1 2.1 3.6 3 5.7 2l243.7-116.2c2.1-1 3-3.6 2-5.7s-3.6-3-5.7-2L879.4 153c.1.1.1.1 0 .2zm-68.8 36.1s-.1-.1-.1-.2 0-.2.2-.2c0 0 .1.1.1.2s0 .3-.2.2zm4-2.4c-.1.2-.3.2-.4.2-.2-.3-.5-.5-.5-.9 0-.3.3-.2.5-.1.4.1.6.4.4.8zm2.9-.7c-.4.4-1.2.6-2 .4-.5-.1-.6-.6-.6-1.1 0-.1.1-.1.1-.2.3-.4.8-.5 1.3-.3.2.1.4.3.5.5.2.3 1.1.3.7.7zm17.3-5.2c-.1.1-.2.1-.3 0-.1-.1-.1-.2 0-.3 0-.1.1 0 .2 0 .1.1.2.2.1.3zm11.7-5.4c-.1.2-.3.1-.4-.2 0-.7-.2-1.3.3-1.9.1-.1.4 0 .5.2.1.7-.1 1.3-.4 1.9zm.8-3.5c-.1.1-.2.1-.3 0 0-.2.1-.2.2-.3h.2c.1.1 0 .2-.1.3zm.7 2.7l-.2-.2h.2c.1.1.1.2 0 .2zm.3-1.3c-.2.1-.4.1-.5-.1-.2-.4.1-.5.3-.7.1-.1.3-.2.4.1s.1.5-.2.7zm7.9-5.5c.1.1 0 .3-.1.3s-.2-.1-.3-.2c-.1-.1 0-.2.1-.3.2 0 .3.1.3.2zm-.7-3.2s.2-.1.3-.1c.2.1.2.2.1.3-.1 0-.2.1-.3.1-.2 0-.2-.2-.1-.3zm.5 6.2c-.4 0-.9.1-1.3.1-.1 0-.3 0-.4-.1 0-.1.1-.3.2-.3.3-.1.5-.1.8-.2.2-.1.3-.1.5-.2.3-.1.6-.3.7.1 0 .4-.2.6-.5.6zm5.3 0c0-.1.1-.1.2-.1l-.2.1zm13.1-10.5c-.3.1-.5 0-.6-.2-.1-.1 0-.2.1-.3.2-.1.5 0 .7.1.1.2 0 .3-.2.4zm51.3-21c-.1.1-.2 0-.3-.1 0 0 0-.1.1-.2s.2 0 .3.1l-.1.2zM961 118s-.1 0-.2-.1c-.2 0-.2-.2-.1-.3.1-.1.3 0 .3 0 .2.2.1.3 0 .4zm61.8-30.1c.3 0 .6.1.9.4.2.2.2.4-.1.5-.4.2-.7-.1-.9-.4-.1-.2-.2-.3.1-.5zm-41.5 22.9c.1 0 .2 0 .3.1.1.2 0 .3-.1.3s-.2 0-.3-.1c-.1-.1 0-.2.1-.3zm-6.8 5.5c1-.4.6-1.3.8-2 .1-.4.3-.6.7-.5.4.1.6.4.5.7-.2.5-.3 1 .2 1.3.1 0 .1.1.1.1l-1.8.9c-.2-.2-.3-.3-.5-.4v-.1zm-13.4-2.2c.3.2.7.4 1.1.7.4.2.1.4-.2.5-.4.1-1.3-.4-1.7-.8l.8-.4zm-1.8 1.1c.1 0 .2-.1.2-.2 0 .1.1.1.1.2s-.1.2-.2.2c-.1.1-.2-.1-.1-.2zm-2.6 1.6c0-.1.1-.1.2-.1.1.1.1.3 0 .5 0 .1-.2.1-.2.1-.1-.2-.1-.3 0-.5zm-.6.2c.1.1.1.2 0 .3 0 .1-.2.1-.3 0-.1-.1-.1-.2-.1-.2.2-.2.3-.2.4-.1zm-1.5 2.1c.2-.4 0-1.2.9-1 .6.2.4.8.2 1.3-.2.4-.4 1.1-1 .9-.8-.3-.2-.8-.1-1.2zm-4.7 6c.2-.4.5-.6.9-.5.2 0 .3.3.2.5-.1.3-.4.5-.9.5-.2-.1-.3-.3-.2-.5zm-10 5.1c.1-.5.3-.5.7-.4.3.2.7.3.9.6.2.2.5.4.3.7-.3.5-.5 0-.8-.1-.2 0-.5 0-.6-.1-.7.1-.5-.4-.5-.7zm-1.6-.9c.3-.3.7-.1.9.2.1.2.2.5-.1.7-.4.3-.7-.1-.9-.3-.1-.2-.1-.5.1-.6zm-12.3 7.2c.2 0 .2.2.3.2-.1 1-.3 1.8-.9 2.5-.2.2-.4.5-.7.3-.2-.2-.2-.6-.1-.8.4-.6.8-1.3 1.1-2 0-.1.2-.2.3-.2zm-3-2.4c.7.1 1.4.6 1.7 1.2.3.7-.4.9-.8 1.2-.1.5-.2.9-.8.8-.1 0-.2-.1-.2-.2.1-.5.6-.5.9-.6h.1c-.1-.7-.4-1.3-1-1.8-.1-.2-.3-.7.1-.6zm-9.5 6.3h.2v.2h-.2v-.2zm-13.1 2.7c.3-.1.4 0 .5.3 0 .4 0 .7-.4.9-.3 0-.5 0-.5-.3-.1-.4.1-.7.4-.9zm-20.6 18.1c.3.1.5.2.6.5.1.1 0 .2 0 0l-.1.1h-.1c-.3 0-.5-.1-.6-.4-.1-.1.1-.2.2-.2zM910.2 190.6c.1.1.1.1 0 0 .4.6.3 1.1-.2 1.5-.2.1-.5 0-.4-.1.1-.2 0-.4-.1-.6-5.4 5.6-8.9 13.2-9 24.4 34-9.5 48.9-23.6 48-45.7-12.6 7.1-28.3 10.8-38.3 20.5zm11.2-3.9c.4-.1.7.1.8.5.1.6-.3.7-.7.8-.5.1-.7-.1-.8-.4 0-.6.2-.9.7-.9zm-16.7 26.8c-.1 0-.3-.1-.3-.4-.1-.1.1-.3.2-.2l.3.3c0 .2 0 .3-.2.3zm1.3-8.4c-.1.1-.3.1-.5-.2.4-.5-.5-1.2.1-1.8.4-.3 1.2-.2 1.3.3.2.7-.6 1.1-.9 1.7zm1.8 5.9c-.3.1-.7 0-.7-.4 0-.5.5-.6.9-.6.3 0 .7 0 .7.3-.1.6-.5.6-.9.7zm2.5-16.4c-.3.1-.5-.1-.7-.4 0-.2-.2-.5.1-.7.4-.2.6.1.8.4.1.3.1.6-.2.7zm2.3 5.9c-.2.1-.4.1-.6-.1-.2-.2-.1-.5.1-.6.2-.1.4-.1.6.1.2.2.1.4-.1.6zm2.8 8c-.1 0-.2 0-.3-.1 0-.2.1-.2.2-.3.2-.1.3-.1.3.1s-.1.2-.2.3zm1 1.8c-.1 0-.1.1-.2.1 0 0 0-.1.2-.1-.1 0-.1 0 0 0 0 .1 0 0 0 0zm2.9-6.3c0 .1-.1.3-.4.3-.1-.2-.1-.4 0-.7.1-.2.2-.4.3-.4.4.2.2.5.1.8zm2.9-1.4c-.7.2-1.1-.6-1.6-1-.2-.1-.2-.3.2-.6.5.4 1.3-.4 1.8.3.3.5.1 1.2-.4 1.3zm2.3-11.1c-.3 0-.6-.1-.6-.4 0-.3.2-.4.5-.4.2.1.6.1.6.4.1.3-.2.4-.5.4zm2.6 7.7c-.2.1-.4.1-.5-.1-.4-.5.1-.9.2-1.4 0-.2-.1-.6.3-.6.2.1.3.4.3.6-.1.5.2 1.1-.3 1.5zm2.6 1.3c-.2.1-.3.2-.5.1-.1-.1-.1-.3.1-.3 0-.1.2-.1.3-.1s.2.2.1.3zm.4-14.5c.2 0 .3.2.2.3 0 .1-.1.1-.2.1s-.2-.1-.2-.3c.1 0 .1-.1.2-.1zm0 16c-.2-.1-.2-.3-.1-.5.1-.1.2-.2.4-.1.1 0 .1.2.1.3-.1.2-.2.3-.4.3zm6.7-13.9c0 .1-.2.1-.3.1-.2 0-.3-.2-.2-.3.1-.2.2-.2.4-.2.1 0 .2.1.1.4zm.4 9.9v-.2c.2-.6.6-1.3.9-1.9.1-.2.4-.4.7-.3.2 0 .3.1.4.3-.6.8-1.3 1.4-2 2.1zm2.7-2.8c0-.1.1-.2.2-.2l-.2.2zm3.8-13.4c0 .3-.3.5-.6.3-.4-.2-.8-.5-.7-1 .1-.3.4-.2.7-.2.3.2.8.4.6.9zm.5 7.4c0-.1.1-.1.1-.2 0 0 0 .1-.1.2zm1.2-2.3c-.1.1-.2 0-.3-.1 0-.1 0-.3.2-.4.1-.1.2 0 .3 0-.1.2-.1.3-.2.5zm1.5-14.9c-.3.2-.5 0-.7-.2-.1-.1-.3-.3 0-.4.3-.1.5.1.6.2.2.2.2.3.1.4zm.7.2c-.4 0-.5-.4-.5-.7 0-.2.1-.5.4-.6.4 0 .5.3.4.5.1.3.1.7-.3.8zM837.5 80.4c.4.8.9 1.5 1.5 2.1.6.5 1.3.9 2 1.1.7.2 1.5.3 2.3.2.8-.1 1.6-.3 2.5-.7.8-.4 1.5-.8 2.1-1.4.6-.5 1-1.1 1.4-1.7.3-.6.5-1.3.5-2s-.1-1.4-.5-2.1l-1.1-2.2-2.2 1c-.6.3-.9.7-1 1.2s0 1 .2 1.5l.2.4c.1.2 0 .5-.2.9s-.6.8-1.1 1-1 .3-1.4.2c-.5-.1-.8-.4-1-.8l-1.5-3 5.7-2.7c1.1-.5 1.4-1.4.9-2.5l-1-2.2c-.4-.8-.9-1.5-1.5-2.1-.6-.5-1.3-.9-2-1.1s-1.5-.3-2.3-.2c-.8.1-1.6.3-2.4.7-.8.4-1.5.9-2.1 1.4-.6.6-1 1.2-1.3 1.9s-.4 1.4-.4 2.2.2 1.6.7 2.5l3 6.4zm.8-10.1c.1-.2.3-.4.4-.6.2-.2.3-.3.4-.3.1-.1.3-.1.5-.2s.5-.1.7 0c.3.1.5.2.8.3.3.2.5.5.7.9l.6 1.3-3.4 1.6-.6-1.3c-.2-.4-.3-.8-.3-1.1 0-.1.1-.4.2-.6zM898.4 43.4l2-1c.6-.3.9-.6 1.1-1 .1-.4.1-.6 0-.9-.1-.2-.1-.4-.1-.6.1-.2.2-.4.3-.5.1-.2.3-.3.4-.4.2-.1.3-.2.5-.3.2-.1.3-.1.5-.2s.4-.1.6-.1c.2 0 .4 0 .6.1.2.1.3.3.4.5l.4.8c0 .2-.1.4-.2.6-.1.2-.3.4-.5.7s-.5.6-.8 1c-.3.4-.8.8-1.2 1.2-.5.5-.9 1-1.2 1.6-.3.6-.6 1.3-.7 2-.1.7.1 1.6.5 2.4l.1.3c.3.7.7 1.3 1.2 1.9.5.6 1 1 1.7 1.3.6.3 1.4.4 2.2.4s1.7-.3 2.7-.8c.2-.1.5-.2.7-.4s.5-.3.7-.6c.2-.2.4-.4.5-.6s.2-.5.2-.7c.1.2.3.3.6.4s.5.1.8 0l3.3-1.6-.8-1.6c-.2-.4-.5-.7-.8-1s-.6-.4-.9-.4c-.1 0-.2-.1-.3-.2-.1-.1-.2-.3-.2-.5l-3.9-8.2c-.6-1.4-1.6-2.2-2.9-2.6-1.3-.4-2.8-.1-4.8.8-1 .5-1.7 1-2.3 1.5s-1 1.1-1.2 1.7c-.2.6-.3 1.2-.3 1.9.2 1 .4 1.6.7 2.2l.4.9zm3.8.6c0 .1-.1.1-.2.1V44c.1 0 .1-.1.2-.2v.2zm6.6 7.9c-.2.3-.5.3-.8.2-.2-.1-.3-.2-.2-.4.2-.4.5-.4.8-.2.1 0 .3.2.2.4zm1-9.8c.1-.1.3-.1.4-.1.2 0 .3.1.2.2-.1.2-.3.2-.5.2-.1-.1-.2-.2-.1-.3zm-.3 1.2c.4.1.6.4.6.9-.1.2-.2.2-.4.1-.3-.2-.7-.4-.6-.8 0-.2.2-.3.4-.2zm-3.5.7c.1-.2.3-.3.4-.5l.4-.5 2.6 5.3c-.1.2-.2.3-.3.5-.3.3-.6.6-1 .8-.5.2-1 .3-1.4.1-.5-.2-.8-.6-1.2-1.2l-.4-.8c-.4-.8-.4-1.4-.2-1.9s.5-1 .8-1.3c0-.1.2-.3.3-.5zM882 48.3c.2.2.4.3.7.3.2 0 .3.1.4.1.1 0 .3.2.4.4.1.1.2.2.4.6.2.3.5.7.9 1.2s.8 1.1 1.3 1.7c.5.6.9 1.3 1.4 1.9 1.1 1.5 2.4 3.2 3.8 5.1.2.2.3.4.5.5.1.1.2.2.4.2.1.1.2.1.4 0 .1 0 .3-.1.5-.2l3.5-1.7c.5-.2.7-.7.6-1.5l-3.5-13.1v-.2c0-.2 0-.3.1-.4.1-.2.2-.4.2-.7s-.1-.6-.3-1.1l-.8-1.6-3.2 1.5c-.3.1-.5.4-.6.6-.1.3-.1.8.1 1.5 0 .1.1.3.2.7.1.4.3.9.5 1.5s.4 1.3.7 2c.3.8.5 1.5.8 2.3.6 1.8 1.3 3.9 2.1 6.1-1.4-2.1-2.6-3.9-3.7-5.5-.5-.7-.9-1.4-1.4-2.1-.5-.7-.9-1.3-1.2-1.8-.4-.5-.7-1-.9-1.3s-.4-.5-.4-.6c-.3-.4-.6-.6-.8-.8-.2-.2-.5-.1-.9 0l-3.4 1.6.9 1.8c-.1.5.1.8.3 1zm12 8.3c.2.1.4.2.4.5 0 .2-.2.3-.3.2-.2-.1-.3-.3-.3-.5.1-.2.2-.3.2-.2zM164.5 408.6c.4.8.9 1.5 1.5 2s1.2.8 1.9 1c.7.2 1.4.2 2.2.1.8-.1 1.6-.4 2.4-.8.8-.4 1.5-.8 2.1-1.4.6-.6 1.1-1.2 1.4-1.8.3-.7.5-1.4.5-2.1s-.2-1.5-.5-2.2l-3.5-7.4c-.3-.6-.7-1.1-1.3-1.6-.6-.4-1.2-.7-1.9-.9s-1.5-.3-2.3-.2c-.8.1-1.6.3-2.4.7s-1.5.8-2.1 1.4c-.6.5-1.1 1.1-1.4 1.8s-.5 1.4-.5 2.1c0 .8.2 1.6.6 2.4l3.3 6.9zm.6-10.2c.1-.5.5-.8 1.1-1.1.6-.3 1.2-.3 1.6-.1.2.1.3.1.4.2 0-.3.1-.4.4-.3.5.1 1.2.2 1.3.9.1.3-.3.5-.7.6-.1 0-.1 0-.2-.1l3.1 6.7c.2.4.2.8.1 1.3s-.5.9-1.1 1.1c-.6.3-1.1.3-1.6.1s-.8-.5-.9-.8l-3.4-7.2c-.2-.4-.3-.8-.1-1.3zm-.4 2.4c.1 0 .1.1.1.2-.1.1-.1.1-.2.1l-.2-.2c.1-.2.2-.2.3-.1zM177.2 535c-.1.4-.3.8-.4 1.2-.2-.3-.8-.4-1.1 0-.9 1.4-1.2.2-1.6-.4-.2-.3-.4-.6-.6-1.1 0 0-.1-.2-.2-.3 0 0 .1 0 .1-.1-1.7.9-3.5 1.7-5.3 2.5.2.4-.2.5-.5.6-.3.1-.4 0-.5-.2-15 6.1-32.2 9.2-40.4 24.7.3-.1.6-.1.7.2.2.3.1.5-.2.7-.3.1-.6.1-.7-.2-.1-.1-.1-.1-.1-.2-1.6 3-2.8 6.5-3.6 10.6 0-.1.1 0 .1 0 9.3-6.6 21.3-9.4 31.8-14.2v-.2c0-.2.2-.2.2-.1.1 0 .1.1.1.1-.1.1-.2.1-.2.2 10.7-4.9 19.9-11.9 23.2-27.2l-3 1.8c.7.6 1.5 1.1 2.2 1.6zm-47.6 24.1c0-.2.1-.3.3-.4.1-.1.3-.1.3.1 0 .1-.2.2-.2.4-.2 0-.4 0-.4-.1zm.9 3.7c-.3-.1-.5-.4-.7-.4-.1-.2-.1-.4.1-.4.3-.1.6.1.7.4.1.1.1.4-.1.4zm-.4-1.7c-.2-.5-.3-1.1.1-1.6.1-.1.3.5.5.7.1.5.8.8.2 1.3-.3.2-.6-.1-.8-.4zm1 2.7c-.1 0-.2-.1-.3-.1.1-.2.1-.2.1-.3.1 0 .2 0 .3.1.1.1.1.3-.1.3zm1.4-5.6c-.2.1-.4.1-.5-.1-.1-.3.1-.5.3-.7.2-.1.4-.1.5.1.1.3 0 .5-.3.7zm1 .6c.1-.1.3-.1.5.1.1.1.1.2 0 .3-.2.1-.3.1-.4 0-.2-.2-.2-.3-.1-.4zm1.5 5.3c0 .2-.3.1-.4 0-.2-.2-.3-.4-.3-.7-.1 0-.2.1-.4 0-.3-.1-.1-.5 0-.7.1-.3.3-.6.7-.4.4.2.1.5.1.7 0 .1-.1.1-.1.2h.1c.2.2.4.5.3.9zm2.2-3.2c-.1.1-.3 0-.4-.2 0-.1-.1-.3 0-.4.1-.1.3 0 .4.1.1.2.2.4 0 .5zm1.6-.4c-.1.1-.2.1-.3 0v-.2c.1-.1.2-.1.3 0v.2zm.3-9.7c-.2.1-.4.1-.4-.1 0-.3.1-.3.3-.4.1-.1.3-.1.4.1.1.2-.1.4-.3.4zm5 7.8h-.3c-.2-.1-.1-.3.1-.4.1-.1.2 0 .3.1 0 .1 0 .3-.1.3zm3.2-10.7c-.2 0-.3 0-.2-.2 0-.1.1-.1.2-.1s.2.1.2.2-.1.2-.2.1zm.9 1.6c-.1 0-.2-.1-.2-.1-.1-.2-.1-.3 0-.4.2 0 .3.1.3.2.1.1.1.3-.1.3zm.1-2.1c0-.8.5-1.2.9-1.7.3-.1.5 0 .4.2-.1.6-.3 1.3-.8 1.7-.1.1-.5.1-.5-.2zm1.4 1.9c-.2.2-.3 0-.4-.2 0-.2-.2-.5.2-.7.1-.1.3 0 .4.2.1.3 0 .5-.2.7zm5.1-5.9c-.1 0-.2-.2-.2-.3 0 0 .1-.1.2-.1s.2.2.2.3c0 .1-.1.1-.2.1zm1 2.9c-.3 0-.4-.1-.4-.4 0-.3.3-.4.6-.4s.4.1.4.4c-.1.3-.3.4-.6.4zm5.3-2.8c-.6-.4-.8-.1-.9.4-.1.5-.4.6-.8.4-.4-.2-.7-.5-.7-1 .2-.6.8-.7 1.2-1 .8-.6 1.6-.2 1.7.7.1.5 0 .9-.5.5zm.6 9.4c-.2 0-.3-.1-.2-.3 0-.3.1-.5.4-.5.1.1.2.1.2.3 0 .3-.2.5-.4.5zm4-3.2c-.1-.1-.2-.1-.2-.2-.1-.1.1-.2.3-.1 0 0 .1.1.1.2 0 0-.1.1-.2.1zm2.4-10.6c-.2.2-.4.3-.6.2-.3-.2-.4-.5-.2-.9.1-.3.4-.5.6-.3.4.3.2.7.2 1zm5.7-2.3h-.2c-.1-.1 0-.2.1-.3 0-.1.2 0 .2 0 .1.1 0 .2-.1.3zm2 2c0-.1-.1-.2-.1-.3-.1-.2-.2-.6 0-.6s.3.1.4.1c-.1.3-.2.6-.3.8zm1.3-4.6c0 .1.1.2.2.3 0 .1-.1.3-.1.4-.2-.1-.3-.3-.4-.5 0-.2 0-.3.3-.2zM139.3 398.9c.2.2.4.3.7.4.2.1.5.1.7.1l8.4 18c.1.2.1.3.1.4 0 .1 0 .2-.1.4-.2.3-.2.6-.3 1 0 .3 0 .7.2 1l.7 1.4 6.2-2.9-.7-1.4c-.2-.4-.4-.6-.7-.8-.3-.2-.6-.3-.8-.3-.1 0-.3-.1-.4-.2-.1-.1-.2-.2-.3-.4l-4.4-9.3c-.1-.1-.1-.2 0-.2s.1 0 .1.1c0 0 .2.3.7.7.5.4 1 1 1.7 1.7s1.5 1.4 2.3 2.2c.8.8 1.6 1.5 2.3 2.2s1.4 1.3 1.9 1.8.9.8 1 .9c.3.3.6.5.9.7s.6.2.9.1l1.9-.9c.2-.1.4-.3.4-.5s0-.4-.1-.6l-9.6-20.6c-.1-.2-.1-.4-.1-.5 0-.1.1-.2.1-.4.2-.3.2-.6.1-.9l-.3-.9-.7-1.4-5.9 2.7.7 1.4c.2.4.4.7.7.8.3.2.6.3.8.3.1 0 .3.1.4.2.1.1.2.2.3.4l4.7 10c0 .1 0 .1.1.2 0 .1 0 .1-.1 0-.2-.2-.6-.7-1.2-1.3-.6-.6-1.3-1.3-2.1-2-.8-.8-1.6-1.5-2.5-2.4-.9-.8-1.6-1.6-2.4-2.3-.7-.7-1.3-1.3-1.8-1.7-.5-.5-.7-.7-.8-.7-.4-.4-.8-.6-1.2-.6-.4 0-.7.1-1 .2l-2.9 1.4.7 1.5c.3.5.5.8.7 1zm11.7 21.8c.1-.3.4-.3.5-.1l-.6.3s.1-.1.1-.2zm9.9-7.4c.1 0 .2.2.1.3 0 .1-.1.2-.3.2-.1 0-.1-.2-.1-.3 0-.2.2-.3.3-.2zM850 66.3c.3.7.8 1.2 1.4 1.6.6.3 1.2.6 1.9.7.7.1 1.4.2 2.1.2.7 0 1.4 0 2.1.1.6 0 1.2.1 1.7.3.5.1.8.4 1 .8l.2.4c.2.5.2.9 0 1.3s-.6.7-1.1.9c-.5.3-1 .3-1.5.2-.5-.1-.8-.4-.9-.8-.3-.6-.7-1-1.2-1.2s-1.1-.1-1.7.2l-1.8.8.9 1.9c.4.7.8 1.3 1.4 1.7.6.4 1.2.7 1.9.9s1.5.2 2.3 0c.8-.1 1.6-.4 2.4-.8.8-.4 1.5-.8 2-1.3.6-.5 1-1.1 1.3-1.7s.5-1.3.5-2-.2-1.5-.6-2.2l-.5-1c-.3-.7-.8-1.2-1.4-1.6-.6-.4-1.3-.6-2-.7s-1.4-.2-2.2-.2h-2.1c-.6 0-1.2-.1-1.7-.2s-.8-.3-1-.7c-.2-.4-.2-.7 0-1.1.2-.3.4-.6.9-.8.4-.2.8-.2 1.3-.2.5.1.8.4 1.1.9.2.5.6.7 1.1.8.5.1 1.1-.1 1.8-.4l1.6-.8-.8-1.6c-.3-.6-.7-1.1-1.2-1.6-.5-.4-1.1-.8-1.7-1-.7-.2-1.4-.3-2.1-.2-.8.1-1.5.3-2.3.7-.8.4-1.5.8-2.1 1.4-.6.5-1 1.1-1.3 1.6-.3.6-.5 1.2-.5 1.8 0 .6.1 1.2.4 1.7l.4 1.2zm10.8 7.8c.1.3-.1.4-.3.5-.4.1-.7 0-.7-.4-.1-.3 0-.5.3-.6.4 0 .6.2.7.5zM239.9 541.7c.2.2.3.4.4.6.1.1 0 .4.1.4-.7 0-1.1-.4-1.5-.7l-3.9 1.5c0 .2 0 .3-.5.2-36.7 14.3-51.1 29.5-48.7 50.9 1.3-.4 2.7-.8 3.9-1.3 11.8-5.7 23.5-11.3 35.2-17.1 12.1-6 18.9-20.2 16.8-35.2-.6.2-1.2.5-1.8.7zm-7.2 12.3c.6-.2.4.4.4.7.1.4.7.9-.1 1.2-.3-.2-.7-.4-.8-.9 0-.5.1-.9.5-1zm.4 2c0 .2 0 .4-.1.5-.1.2-.2.3-.4.2-.3-.3 0-.4.2-.5.1-.1.2-.1.3-.2zm-18 2.1c.2 0 .3.1.3.3s.1.5-.1.7c-.2.1-.3-.1-.4-.3 0-.2-.1-.5.2-.7zm-.5 6.3c.2.1.4.3.4.6 0 .2-.1.3-.3.3-.4 0-.3-.4-.4-.6 0-.2 0-.4.3-.3zm-5.1 2c.6-.1 1.2.1 1.6.7.2.3.2.8-.2.9-.7.1-1.1-.5-1.5-.8-.1-.4-.2-.7.1-.8zm-20.4 21.8c-.2-.2-.3-.4-.2-.6.2-.3.4-.3.6-.2.2.2.2.4.2.6-.2.3-.4.4-.6.2zm4.3-7.2c-.5.3-.9 1.1-1.6 1-.4 0-.7-.7-.4-1.2.5-.7 1.3.1 1.8-.3.3.2.3.4.2.5zm.4.7c-.1 0-.1-.1-.2-.1.1 0 .1-.1.2-.2l.1.1c.1.1 0 .2-.1.2zm2.2-3c-.1-.1-.1-.3-.1-.4s.1-.1.2 0c0 .1.1.2.1.3s-.1.2-.2.1zm1.4 5.2c-.2-.2-.6-.2-.6-.6 0-.3.3-.3.4-.1.3.1.6.2.6.6-.1.2-.2.2-.4.1zm6.9-10.4c-.2.4-.4.5-.7.4-.3-.2-.3-.4-.2-.7.2-.3.4-.6.8-.4.3.2.1.5.1.7zm0-2.3c.1.1-.2.2-.4.1-.4-.4-.6-.9-.3-1.4.1-.2.4-.4.8-.3.4.6-.3 1.1-.1 1.6zm5.8.7c0-.1-.1-.3-.1-.4-.3 0-.5 0-.8-.4 0-.3.3-.5.6-.7 0-.2 0-.4.1-.6.1-.4.4-.6.8-.5.5.1.3.5.2.8-.3.6-.2 1.1 0 1.6.1.2.3.6-.1.7-.4.2-.5-.2-.7-.5zm1.7 8.8c-.2.4-.5.3-.8.1-.2-.1-.5-.2-.5-.6.2-.4.6-.2.9-.1.2.1.6.3.4.6zm-.6-11.9c-.1-.3.2-.4.3-.6.4-.2.6-.2.8.1.2.3.1.6-.3.7-.3.1-.6.2-.8-.2zm1.4 8.4c-.1-.1-.3-.2-.4-.3-.1-.3.1-.4.3-.3.2.1.3.2.3.4 0 .1-.1.3-.2.2zm.6-11.9c-.2 0-.2-.2-.2-.3 0-.1 0-.2.1-.2.2-.1.2.1.3.2 0 .1 0 .3-.2.3zM215 581c-.1 0-.1.1-.2.1h-.1c-.1 0-.2-.2-.2-.3 0-.2.1-.4.3-.4.3 0 .3.2.3.4 0 .1-.1.1-.1.2zm.4-13.1c-.6-.3-1.2-.6-1.4-1.3-.1-.2.2-.4.5-.4.6.3 1 .9 1.3 1.4.1.2-.1.3-.4.3zm.8 12.3c0-.1-.1-.1-.1-.2.1-.2.2-.2.3-.2 0 0 .1.1.1.2-.1.2-.2.2-.3.2zm5.9-18.7c-.1.1-.2 0-.3-.1-.2-.2-.3-.4-.2-.7.1-.2.3-.1.4.1.1.2.2.4.1.7zm4.2 8.6c-.8.2-1-.9-1.6-.9-.2-.3-.1-.5.1-.5.7.1 1.4-.4 1.9.2.3.3.1 1-.4 1.2zm.6-10.9c-.1 0-.2.1-.3 0-.1-.1 0-.2.1-.3.1-.1.2-.1.3 0s0 .2-.1.3zm1.3 10.4c-.1.1-.2 0-.3-.1l.1-.2c.1-.1.2 0 .3.1 0 .1 0 .2-.1.2zm1.6-4.2c-.5.2-.9.1-1.1-.3s.1-.7.4-.9c.3-.2.8-.2 1.1.3s-.2.7-.4.9zm.7-11.2c-.1.1-.4.3-.4-.1-.1-.3.3-.5.5-.7.1 0 .4-.2.4.1.1.3-.3.5-.5.7zm1.8 12c-.2.1-.4.1-.5-.2-.1-.3 0-.5.2-.6s.4-.1.5.2c.1.3 0 .5-.2.6zm.4-5.5c-.3-.6-.4-1.3-.3-1.9h-.2c-.1 0-.2-.1-.3-.2 0-.2.1-.2.2-.2s.1 0 .2.1c0-.1 0-.1.2-.1v-.1c-.1-.1-.3-.2-.4-.3.1-.3.3-.3.5-.2s.6.1.6.5v.1c.1.1.1.3.1.5 0 .7.2 1.4-.3 2 0 0-.3-.1-.3-.2zm1 8.6c-.2.3-.4.4-.7.3-.2-.2-.3-.4-.2-.7.2-.3.4-.5.7-.3.3.1.3.4.2.7zm4.3-22.2c.1 0 .2.1.2.2-.1.1-.2.1-.3.1-.1 0-.2 0-.2-.2.1-.1.2-.1.3-.1zm-2.1-1.7c.1-.1.2-.1.3 0 .2.2.3.4.2.6-.1.1-.3.1-.3 0-.2-.2-.3-.4-.2-.6zm2.3 5.9c0 .3-.2.6-.4.5-1.6-.6-.4.6-.3.9.1 1.4-.1 2.7-.5 4-.3.7-.5.1-.7-.1-1.1 0-.8-.6-.6-1.2.4-1.1.3-2.2-.5-3.2-.5-.7-.1-1.4.5-1.7.6-.3.6-.5.4-1.1-.2-.5.1-1 .6-1.2.6-.3.7.3 1 .5 1 .8.5 1.7.5 2.6zm3.1-6.1c-.1.1-.3 0-.3-.1-.1-.1 0-.2 0-.3.1-.2.2-.2.4 0 .1.1 0 .3-.1.4zM175.2 392.6c.3.2.5.3.8.3.1 0 .2.1.4.1l.3.3 4.1 8.9c.1.2.2.4.1.5-.1.1-.1.3-.1.4-.1.2-.2.5-.3.8-.1.3 0 .7.2 1.1l.8 1.7 6.2-2.9-.7-1.7c-.2-.4-.4-.7-.7-.9-.3-.2-.5-.3-.8-.3-.2 0-.3-.1-.4-.2-.1-.1-.2-.2-.3-.4l-3.1-6.7c-.2-.5-.3-1-.2-1.5.1-.5.3-.9.6-1.3s.6-.7 1-1c.4-.3.8-.5 1.3-.7.2-.1.3-.2.5-.4.1-.2.1-.4 0-.7l-.9-1.9c-.2-.4-.3-.6-.4-.6h-.6c-.2.1-.5.2-.8.3-.3.1-.5.3-.7.5-.3.2-.6.5-.8.8s-.4.6-.6.8c-.2.3-.4.6-.5.9l-.3-.6c-.2-.5-.6-.6-1.2-.3l-4.3 2 .8 1.8c.1.4.3.7.6.9zM331.9 432.6l-124.8 60.6c-.1.2-.3.5-.6.6-.3.1-.5.1-.8.1L53.1 568c-2.1 1-3 3.6-2 5.7s3.6 3 5.7 2l60.4-29.3c-.1 0-.1-.1-.1-.1-.1-.1-.1-.3.1-.3.1 0 .2.1.3.2l116.3-56.5-.1-.1c-.2-.3-.8-.6-.4-1 .2-.2.9-.2 1.1.1.1.1.2.3.4.4l77.6-37.7v-.2c-.1-.2-.5-.3-.4-.5-.1.2-.3.4-.6.3-.5-.1-.4-.6-.2-.9s.3-.9.8-.7c.4.2.2.7.1 1 0 .1 0 .2-.1.3 0-.1.1-.1.3-.1 1-.4 2-.7 3.1-.7l20.2-9.8c2.1-1 3-3.6 2-5.7-1-1.9-3.6-2.8-5.7-1.8zM70 565.3c0-.1 0-.2.1-.2s.2.1.2.2c-.1.1-.1.2-.2.2-.2 0-.3-.1-.1-.2zm-11.7 7.3c0 .2-.2.2-.5.1-.2-.1-.3-.2-.3-.4.2-.2.3-.1.5-.1.2.1.4.2.3.4zm11.9-6.7c-.1 0-.2.1-.3.1.1.2.2.8 0 .7-.9-.6-1.4 1.1-1.9.4-.4-.5-.2-1.4-.3-2.2.6.1 1.2-.3 1.8-.2.5.1-.1.7.1 1l.3.3c.1-.1.1-.2.2-.3.1-.1.3-.2.3-.2.2.2 0 .3-.2.4zm1.1.9c-.2.1-.4 0-.5-.2-.1-.2.1-.2.3-.3.2-.1.4 0 .4.2 0 .1-.1.3-.2.3zm3.1-1.6c-.1.1-.3 0-.3-.1s0-.2.1-.3c0-.1.2-.1.3-.1.1.2 0 .4-.1.5zm8.7-2.4l-.2.1h-.1c-.4-.3-.4-.8-.5-1.2 0-.2.2-.3.4-.3.5.2.5.7.5 1.1 0 .1 0 .2-.1.3zm16.2-7.9c-.2-.1-.2-.2-.3-.4-.1-.4 0-.7.4-.9.5-.2.7.2.9.6.1.1.1.2.1.2l-1.1.5zm3.5-3.7c-.3 0-.4-.2-.5-.4-.1-.3-.1-.6.2-.7s.4.2.6.5c.1.3 0 .5-.3.6zm1.3-7.7c-.1 0-.2 0-.3-.1l.5-.2c0 .1-.1.3-.2.3zm5.8 3.2c-.4.5-.9.1-1.4.2-.2 0-.5.2-.6-.2 0-.2.3-.3.5-.4.5-.1 1-.5 1.4-.1.2.1.2.3.1.5zm86.2-42.9s.1.1.2.1c-.1.1-.1.2-.1.2s-.1-.1-.2-.1c0-.1 0-.2.1-.2zm-62.7 29c-.2-.1-.3-.3-.2-.5 0-.2.2-.2.3-.2.2.1.3.3.3.5s-.2.3-.4.2zm7.6-4.8c-.1 0-.2 0-.2-.1v-.2c.2-.1.3-.1.3.1 0 .1-.1.1-.1.2zm4 1.4c-.2.2-.4.3-.6.3-.1 0-.2-.2-.1-.3.1-.2.3-.3.6-.3.1.1.2.2.1.3zm.9 0c-.4.1-.5-.1-.6-.4 0-.3-.1-.7.3-.8.3-.1.4.2.5.5.1.3.1.6-.2.7zm8.1-3c-.1.1-.2.2-.3.1v-.2c0-.1.1-.3.3-.3.1.1.1.3 0 .4zm1.5.9c-.2.3-.4.4-.7.3-.3 0-.2-.2-.1-.4.2-.2.3-.6.7-.4.1.1.2.3.1.5zm2-2c-.6.3-1.1.7-1.8.6.1 0 .1 0 .1.1s-.2.2-.3.2c-.2 0-.4-.1-.4-.3.1-.1.2-.2.3-.2h.1c-.1 0-.2-.2-.1-.4.5-.5 1.2-.5 1.8-.5.3.1.4.3.3.5zm4.4-3.8c-.2 0-.3-.1-.4-.3 0-.3.1-.4.3-.3.2 0 .4.1.4.3s-.1.3-.3.3zm8.9-7c-.2.1-.4.1-.5-.1-.2-.2-.1-.3.1-.4s.4-.1.5.2c.1.1 0 .2-.1.3zm25.8-7.3c0 .3-.3.3-.5.2-.3-.3-.3-.6-.2-1 .1-.3.3-.4.5-.2.3.3.3.6.2 1zm1.2-7.4c-.3.3-.2 1.1-.9.7-.5-.2-.2-.9 0-1.3.2-.5.5-1 1.1-.7.7.4-.1.9-.2 1.3zm4.8-1c0 .3-.2.7-.6.7-.3 0-.4-.3-.4-.6.1-.3.3-.5.7-.6.3 0 .4.3.3.5zm1.4 1s-.1-.1-.1-.2l.1-.1c.1 0 .2 0 .2.1s0 .2-.2.2zm.7-2.2c0 .1-.2.2-.3.1-.1-.1-.1-.2 0-.3.1-.1.2 0 .3 0v.2zm.3 5.5c0 .1-.2.2-.2 0 0-.1.1-.2.1-.3s.1-.1.2 0c0 .1 0 .2-.1.3zm2.3-3.4c-.1.1-.2.3-.4.1-.2-.1-.1-.3 0-.5.1-.1.2-.3.4-.1.2.1.1.3 0 .5zm1.3-3c-.1.2-.2.4-.4.3-.2-.2-.4-.5-.3-.8.1-.2.2-.3.4-.3.4.2.3.5.3.8zm.6 2.6c-.1 0-.2-.1-.1-.2 0-.1.1-.1.2-.1 0 0 .1.1.1.2-.1 0-.1.1-.2.1zm3.9-.3c-.6.6-1.6.7-2.3.3-.2-.1-.5-.3-.4-.6.1-.4.4-.4.7-.3.5.2 1 .2 1.5-.2.2-.1.4-.1.6.1s.1.5-.1.7zm-.7-2.2c0-.1 0-.2.1-.3.2 0 .3.1.3.2s0 .3-.1.3c-.1.1-.3 0-.3-.2zm.9-.8c-.1.3-.4.7-.8.4-.4-.3-.1-.7 0-1 .2-.3.4-.7.8-.5.5.3.1.7 0 1.1zm2.3 2.4c-.3.2-.7.4-1 .6l-.3.2c-.2.1-.4 0-.5-.2-.1-.4.3-.4.5-.5.2-.1.3-.1.5-.2s.4-.2.7-.3c.1-.1.3 0 .3.1s-.1.2-.2.3zm2.1-2.3c-.1.1-.2.2-.3.1-.2-.2-.1-.3 0-.5.1-.1.2-.2.3-.1.2.2.1.3 0 .5zm19.5-8.1l-.9.4h-.1c-.2.1-.3-.1-.2-.3.2-.4.5-.5.9-.4.1.1.4.2.3.3zm1-4.3c-.4-.4-.5-.9-.6-1.5-.1-.3.1-.8.4-.6.5.3 1 .7 1.1 1.3.1.4-.4.6-.9.8zm2 2.8c-.2-.5-.3-1.1-.5-1.7 0-.2.1-.3.4-.2.4.5 1.1.7 1.4 1.1.1 0 .1.1.1.1l-1.4.7zm3-3.4c-.2.3-.4.4-.7.3-.3-.2-.4-.4-.2-.7.2-.3.4-.5.7-.3.3.1.3.4.2.7zm5.3-9.1c-.1 0-.1-.1-.2-.2.1 0 .1-.1.2-.2.1 0 .1.1.2.2-.1.1-.1.2-.2.2zm3 2.5c-.4.7-1.1 1.1-2 1.4-.1 0-.3-.1-.3-.1.2-.8.9-1.2 1.4-1.6.1-.1.2-.2.4-.3.2-.1.4-.1.5 0 .1.2.1.3 0 .6zm.1-4.5c-.4.6-.6 1.2-1.3.4h-.1l1.9-1c-.2.2-.4.4-.5.6zm1.8 3.9c-.1 0-.2-.2-.2-.3 0-.1.1-.1.2-.2.1.1.2.2.2.3 0 0-.2.1-.2.2zm.7 3.9l-.2.1c-.2 0-.3-.1-.4-.2-.1-.2 0-.4.2-.4.1.1.3.2.4.3.1.1.1.2 0 .2zm0-5.4c-.5.3-.9.1-1.3 0 .1.2.1.3.1.4 0 .3 0 .6-.3.5-.2-.1-.2-.3-.1-.5s.2-.3.3-.4c-.2-.8.6-.7.9-.9.2-.1.6-.7.8-.1.2.3 0 .7-.4 1zm.2-4.1l.8-.4c-.1.2-.4.4-.8.4zm2.9 3c-.5 0-.7-.4-.7-.9.1-.3 0-.8.6-.8.4.1.6.5.6.9 0 .3-.1.7-.5.8zm9.1-6.1c-.3.1-.2-.1-.2-.3 0-.3.1-.7.4-.8.2-.1.2.1.2.3-.1.3-.1.7-.4.8zm3.4 5.1c0-.1.1-.1 0 0zm30.8-17.4c.2.3.1.5-.2.7-.3.1-.5.1-.7-.2-.2-.3-.1-.6.2-.7.2 0 .4-.1.6.1v-.2c0-.1.1-.1.2-.1 0 .1.1.1.1.2 0 0-.1.1-.2.1h-.1s.1 0 .1.1zm1.7-1.6c-.1.3-.3.3-.5.1-.3-.2-.6-.4-.5-.8.1-.3.4-.3.7-.2.2.2.4.5.3.9zm5.5.5c0-.1-.1-.1-.1-.2 0-.3.2-.3.4-.3s.4 0 .5.1l-.8.4zM872.5 45.8c.6.2 1.1.2 1.7-.1.5-.3.9-.7 1.1-1.2.2-.6.2-1.1-.1-1.7-.3-.5-.7-.9-1.2-1.1-.6-.2-1.1-.2-1.7.1-.6.3-.9.7-1.1 1.3-.2.6-.2 1.1.1 1.7.2.4.6.8 1.2 1zm.8-2.1c0-.2.3-.3.5-.2.3.2.5.5.4.9-.2.2-.4.3-.6.2-.4-.2-.6-.5-.3-.9zM862.4 52.8l.6 1.3c-.6.3-1 .7-1.1 1-.1.4 0 .9.4 1.6l.7 1.5 1.7-.8 4.7 9.8c.3.5.6 1 1.1 1.4.5.4 1 .7 1.7.8.6.1 1.3.1 2.1-.1.7-.2 1.5-.6 2.3-1.2.4-.3.4-.8.1-1.4l-.3-.7c-.2-.3-.3-.6-.4-.7-.1-.2-.2-.3-.3-.3-.1-.1-.2-.1-.3 0-.1 0-.2.1-.4.2-.5.3-1 .4-1.3.2-.3-.2-.6-.6-.8-1l-4.2-8.7c.3-.1.6-.3.8-.5s.3-.4.4-.6c.1-.2 0-.5 0-.8-.1-.3-.2-.7-.5-1.2l-.5-1.1-1.7.8-.6-1.3-1.1-2.2-1.7-3.6c-1.4.7-2.2 1.4-2.6 2.3-.4.8-.2 2 .5 3.5l.7 1.8zM242.6 457.4c-7.4-1.9-16-7.3-22-5.2-16.4 5.9-31.7 14.8-47.4 22.4.1 1.5.1 3 .2 4.4 3.6.6 7.5 1.9 11.2 2.9v-.1c0-.2.2-.3.4-.3.6.1.8-.3 1.1-.8.2-.4.5-.4.8-.2.3.3.3.6.1.9-.2.4-.5.6-.7.9 4 1 7.8 1.5 11.1.4l.9-.3.6-.6c.2-.2.4-.4.7-.4.2 0 .4.2.3.3v.1c-.2.1-.5.2-.7.3 14.9-5.3 29-13.6 43.3-20.7 0-1.3.1-2.7.1-4zm-59.3 12.2c.2-.1.3-.1.4-.2 0 .1-.2.3-.4.2zm3 8c-.1.1-.2 0-.3-.1-.1-.1-.1-.2 0-.3.1-.1.2 0 .3.1.1.1.1.2 0 .3zm5-11.7c.2-.3.5-.2.7-.3.2.1.3.2.2.3-.1.3-.3.4-.6.4-.2 0-.4-.1-.3-.4zm1.1 3.1c-.5.1-.4.6-.3 1 .1.4.1.7-.4.7-.3 0-.6-.2-.6-.6v-1.2c.1-1.2.3-1.3 1.3-.6.4.2 1 .4 0 .7zm3.7 9.1c-.1.1-.1.2-.2.1v.4c0 .4-.3.8-.7.7-.6-.1-.4-.8-.5-1.2.1-.3 0-.8.4-.7.2.1.4.2.5.4.1 0 .2-.1.3-.1.3 0 .3.2.2.4zm3.6 2.5c-.3.4-.6.2-.8-.1-.3-.3-.6-.6-1-.3-.8.7-.6.1-.6-.4 0-1.2.2-1.3 1.3-.7.3.3.7.5 1 .7.3.2.3.5.1.8zm16.3-22.8c.4-.6 1.1-1.1 1.8-1.1.8 0 .7.7.8 1.2-.7-.2-1.4-.1-2.1.2-.2.1-.7.1-.5-.3zm2.9 1.2c0 .1-.2.1-.2.1-.5-.3-.2-.7-.1-1.1v-.1c.3.3.6.6.3 1.1zm-4.8 9.6c.1.1 0 .2-.1.3-.1-.1-.2-.1-.2-.1-.1-.1 0-.3.1-.3s.2 0 .2.1zm-12.5-7.7h-.1c-.2-.2-.3-.2-.4-.3.4-.2.7-.3 1.1-.5-.3.2-.5.4-.6.8zm1.3 12.3c-.2-.2-.4-.5-.3-.8.1-.2.2-.2.3-.1.2.2.4.5.4.8 0 .2-.2.2-.4.1zm1 2.8c-.1 0-.2-.1-.2-.2.1-.1.1-.2.2-.1.1 0 .2 0 .2.1 0 .2-.1.2-.2.2zm2 2.2s-.1-.1-.1-.2c.1-.2.3-.2.5-.1l.1.2c-.1.1-.3.1-.5.1zm.6-2.9c-.2.3-.4.3-.7.2-.2-.1-.3-.2-.2-.4.1-.2.4-.1.6-.1s.4 0 .3.3zm3.4-13c0 .3 0 .7-.4.8-.3-.1-.3-.3-.3-.5.1-.3.1-.6.4-.8.4 0 .3.3.3.5zm.3 12c-.1-.1-.1-.2-.2-.3 0 0 .1-.2.2-.2s.2.2.2.3l-.2.2zm.7-14c.1-.3.3-.4.6-.5.2 0 .3.1.3.2 0 .3-.2.5-.6.6-.1 0-.3-.1-.3-.3zm.3 1.7c0-.3.1-.5.4-.5.3.1.4.3.4.5.1.3 0 .5-.3.5s-.4-.2-.5-.5zm.8 5.7c-.1.1-.2.2-.3.1v-.2c.1-.1.2-.2.2-.1.1 0 .1.1.1.2zm.1 4.3c-.1.2-.2.4-.4.3-.3-.1-.2-.4-.1-.6.1-.1.1-.4.4-.4.2.2.2.4.1.7zm1.6-4.6c.1.1.1.2.2.3h-.3c-.1-.1-.1-.2-.2-.3h.3zm.2 6.9c-.2.1-.3.1-.4-.1 0-.3.1-.5.4-.6.2-.1.3 0 .3.2s-.1.4-.3.5zm2.1-12.4c-.1-.2-.1-.4.1-.4s.4.1.4.3c0 .1 0 .2-.1.3-.2.1-.3-.1-.4-.2zm.6 9.5c-.1 0-.1-.1-.2-.1 0-.1 0-.1.1-.2.1 0 .1.1.2.1 0 .1 0 .2-.1.2zm0-2.9c-.1-.1-.2-.1-.2-.1-.1-.1 0-.2.1-.3l.2.1c.1.1 0 .2-.1.3zm2.7-7.4c-.3.3-.8.3-1.3.2-.2 0-.4-.3-.2-.5.3-.4.7-.1 1.1 0 .2.1.6 0 .4.3zm2.2-2.7c-.2.2-.6 0-.7-.2-.5-.6-.8-1.3-1.4-1.8v-.4c.1-.1.2-.1.3-.1.9.5 1.6 1 1.8 1.8.1.2.3.5 0 .7zm.7 3.1c-.2 0-.2-.2-.2-.3 0-.1.1-.2.3-.2.2 0 .2.2.2.3 0 .2-.1.2-.3.2zm6.7.9c-.2 0-.3-.1-.4-.3-.1-.2 0-.3.2-.2.1 0 .2.1.3.2s.1.3-.1.3zm5.2-2.2c0-.4.4-.4.7-.4.3 0 .6.1.5.5 0 .3-.3.4-.6.3-.3 0-.6-.1-.6-.4zm1.4 4.7c.1 0 .1-.1.2-.2s.2-.1.3-.1c-.2.1-.3.2-.5.3zm.3-1.6c-.1-.1-.1-.2-.1-.3.1.1.2.1.3.2 0 .1.1.3.1.3-.3.1-.3-.1-.3-.2zm1.1-.6c-.1.5-.6-.2-1.1 0-.1 0-.2.1-.3.2-.2.2-.8.2-.7 0 .7-.9-.9-1.5-.2-2 .5-.3 1.4 0 2.2 0 0 .6.2 1.2.1 1.8zm2.7-6.1c.1 0 .2 0 .2.1-.1 0-.1 0-.2-.1zM1056.6 116.9c-17.2 5.3-18.6 18.8-21.2 34.9 21.7-12.4 49.1-15.3 50-48.6-10.2 4.9-19 10.7-28.8 13.7zm-14.6 12c-.1 0-.1-.1-.1-.2 0-.2.2-.2.3-.2 0 .1.1.1.1.2-.1.2-.2.3-.3.2zm7 5.6c-.1.1-.2 0-.3-.1 0-.1 0-.2.1-.3h.3c.1.1.1.3-.1.4zm10.4-1.1c-.2.1-.3 0-.5-.1-.1-.1-.1-.2 0-.3.2-.1.3 0 .4 0 .2.2.2.3.1.4zm2.1-5.1c.1 0 .2.1.3.1-.1.1-.1.1-.1.3-.1 0-.2 0-.3-.1-.1-.1-.1-.3.1-.3zm1.1 4.2c-.1.1-.3-.5-.5-.7-.2-.5-.9-.8-.3-1.3.2-.2.6 0 .8.4.2.5.3 1.1 0 1.6zM876.9 47.6s-.1-.1 0 0l-4.5 2 .8 2c.2.4.4.7.7.8.3.2.5.3.8.3s.5.2.7.4l4.3 8.9c.1.2.1.3.1.4 0 .1-.1.2-.1.3-.1.2-.2.5-.3.8 0 .3 0 .7.2 1.1l.8 1.7 6.2-3-.8-1.6c-.2-.4-.4-.7-.7-.9s-.5-.3-.8-.3c-.2 0-.3-.1-.4-.1-.1-.1-.2-.2-.3-.4l-5.8-12.1c-.1-.2-.2-.3-.3-.4-.1-.1-.2-.1-.4 0 0 .1-.1.1-.2.1zM194.8 373.3c.3.2.5.3.8.3.3 0 .5.2.7.5l8 17.1c.1.2.1.4.1.5 0 .1-.1.2-.2.4s-.2.5-.3.8c-.1.3 0 .7.2 1.1l.8 1.7 6.2-2.9-.7-1.7c-.2-.4-.4-.7-.7-.9s-.5-.3-.8-.3c-.1 0-.3-.1-.4-.1-.1-.1-.2-.2-.3-.4l-4-8.6s.1-.1.2-.4.3-.5.7-.8c.2-.1.5-.3.8-.4.3-.1.6-.2.9-.1.3 0 .6.1.9.3.3.2.5.5.8 1l4.3 9.1c.6 1.4 1.4 1.8 2.4 1.4l3.7-1.7-.8-1.6c-.4-.8-.8-1.2-1.3-1.3h-.5c-.2 0-.4-.1-.5-.3l-3.5-7.5c-.8-1.7-1.8-2.9-3-3.4-1.2-.6-2.7-.5-4.4.3-.5.2-.9.4-1.2.7-.3.2-.5.4-.7.6s-.4.4-.5.6l-3.8-8.1c-.2-.5-.6-.7-1.1-.5l-4.4 2.1.8 1.8c.3.3.5.5.8.7zM245.9 413.6h-.1c-.3 0-.6-.1-.5-.4-9-5.2-19.3-12-27.2-9.9-16.5 4.5-31.6 14.3-47.6 22.2 11.7 9.8 22.2 11.9 32.1 10.2-.1-.3-.4-.6-.6-.8-.2-.2-.6-.5-.4-.8.4-.5.6 0 .9.2.5.4.9.7 1.2 1.2 1.2-.2 2.3-.5 3.5-.9-.1-.1-.1-.2 0-.4.2-.4.5-.7 1-.5.2.1.3.3.4.4 12.9-4.3 24.9-14 37.7-20.3-.1-.1-.2-.1-.4-.2zm-54.2 11.7c-.1.1-.2 0-.3-.1-.1-.2 0-.4.1-.6.1 0 .3-.1.3.1s0 .4-.1.6zm2.9 8.9c-.3.1-.5-.1-.6-.3-.1-.2 0-.4.2-.4s.4.1.5.3.1.3-.1.4zm2.9-20.2c0-.2.1-.3.2-.3.3 0 .5.1.6.4.1.2-.1.3-.2.3-.2-.1-.5-.1-.6-.4zm1.5 19.6c-.4.1-.6-.1-.8-.4 0-.2 0-.4.2-.4.3 0 .6.1.8.4.1.2 0 .3-.2.4zm0-1.7c-.3 0-.7.3-.9-.2-.1-.2.1-.4.3-.4.4-.1.8-.1.9.3.1.2-.1.2-.3.3zm.7-5c-.3 0-.4-.1-.3-.5 0-.1.1-.3.3-.3s.4.1.4.4c0 .2-.1.4-.4.4zm.1-2.9c-.1-.1-.2-.2-.2-.3 0-.3.2-.3.4-.2.1.1.2.2.2.3 0 .2-.2.3-.4.2zm-.1-7.5c-.2-.1-.4-.2-.3-.4.1-.2.3-.2.5-.1.1.1.3.1.3.4-.2.2-.3.2-.5.1zm2.2 4.9c.2 0 .3 0 .4.1.1.1 0 .2-.1.3-.2.1-.4.1-.5-.1-.1-.2 0-.3.2-.3zm.4 6.3c-.1.3-.2.6-.6.6-.3 0-.1-.3 0-.4.1-.3.1-.6.5-.7.2.2.2.4.1.5zm.2-4.2c-.1.1-.3.1-.4-.2.1-.4.2-.7.6-.8.1 0 .4 0 .4.2.1.5-.3.6-.6.8zm.7 4.2c.1-.2.2-.3.3-.3.2 0 .3.2.4.3-.1.2-.2.3-.4.3s-.4-.1-.3-.3zm1.1 3.6c-.3.1-.6.1-.8-.2-.1-.2 0-.3.2-.4.3-.1.6-.1.8.2.1.2 0 .3-.2.4zm5.7-8.2c.2-.1.3 0 .3.1 0 0-.1.1-.1.2-.1 0-.2 0-.2-.1-.1 0 0-.2 0-.2zm-.8-8.5c-.2 0-.4-.1-.3-.3.1-.3.4-.3.7-.3.2.1.3.2.3.4-.1.4-.4.3-.7.2zm1.2 17.8c-.2.1-.4-.1-.5-.3 0-.3 0-.6.3-.7.2-.1.4.1.5.3.1.3 0 .6-.3.7zm1.1.2c-.1.2-.2.3-.4.2-.2-.1-.3-.3-.3-.5s.2-.2.4-.2c.2.1.4.2.3.5zm.5-17.4c-.1-.1-.2-.2-.1-.3 0 0 .2 0 .3-.1.1.1.2.2.2.3-.1.2-.3.2-.4.1zm4.8 1.3c0 .1 0 .2-.1.2-.1.1-.2.1-.3-.1 0-.2 0-.3.1-.3.3-.1.4 0 .3.2zm7.7 6.1c-.2 0-.2-.1-.2-.1 0-.1.1-.1.2-.2 0 .1.1.1 0 .3zm3.7-2.5c-.1 0-.2-.1-.2-.2 0-.3.2-.4.4-.4.2.1.3.2.3.3-.1.3-.3.3-.5.3zm.8-1.8c-.2 0-.4-.1-.4-.3-.1-.1.1-.2.2-.2s.2.1.3.2c.1.1 0 .3-.1.3zm.4-.2c-.2 0-.4-.1-.3-.3.2-.4.6-.4.9-.5.2 0 .4.1.3.3-.2.3-.5.5-.9.5zm1.1 2.3l-.2-.2c0-.1.1-.1.1-.2l.2.2c0 .1-.1.1-.1.2zm2.1.2c-.4 0-1.8-1.9-1.7-2.3.1-.2.3-.4.5-.4.3 0 .6.1.6.3.4.6.7 1.2 1 1.9.2.3-.1.5-.4.5zM186.5 379.6l1 2.2.6 1.3c-.6.3-1 .6-1.1 1-.1.4 0 .9.3 1.6l.7 1.5 1.7-.8 4.6 9.8c.2.5.6 1 1.1 1.4.5.4 1 .7 1.7.8.6.1 1.3.1 2.1 0 .7-.2 1.5-.6 2.4-1.2.4-.3.4-.8.1-1.4l-.3-.7c-.2-.3-.3-.6-.4-.7-.1-.2-.2-.3-.3-.3-.1-.1-.2-.1-.3 0-.1 0-.2.1-.4.1-.5.3-1 .4-1.3.1-.3-.2-.6-.6-.8-1l-4.1-8.7c.3-.1.6-.3.8-.5.2-.2.3-.3.4-.6.1-.2.1-.5 0-.8-.1-.3-.2-.7-.4-1.2l-.5-1.1-1.7.8-.6-1.3-1-2.2-1.7-3.6c-1.4.6-2.3 1.4-2.6 2.2-.4.8-.2 2 .5 3.5l-.5-.2zM969 183.7c11.4-6.1 24.8-9.8 34.6-17.5 0-.1 0-.2.1-.3.1-.2.3-.2.5-.2 7.5-6.1 12.9-14.8 13.3-28.8-42.3 17.7-48.6 23.8-48.5 46.8zm2.6-13.9c-.1 0-.2-.1-.2-.2s.1-.2.2-.2l.2.2c0 .1-.1.2-.2.2zm3.6 10.6c-.1.1-.2.1-.3 0v-.2c.1-.1.2-.1.3 0v.2zm39.2-39.6c.1 0 .2.1.2.2.1.2 0 .3-.2.3-.1 0-.2-.1-.2-.2-.1-.1 0-.2.2-.3zm-4.5 12.4c.1-.2.2-.4.4-.2.4.3.3.7.3 1-.1.2-.2.3-.4.2-.3-.3-.4-.6-.3-1zm-1.7-1.7c.1-.1.2-.2.3-.2.2.1.2.3.2.4-.1.3-.2.3-.3.3-.3-.1-.3-.3-.2-.5zm-.6 2.1s.1.1.1.2c-.1 0-.1.1-.2.1 0-.1-.1-.1-.1-.2.1 0 .2-.1.2-.1zm-.9 2.2c.1-.3 2.2-1.3 2.6-1.1.2.1.3.3.3.5 0 .3-.1.5-.4.6-.7.2-1.4.4-2.1.5-.4.1-.5-.2-.4-.5zm-24.4 13.4c.5-.2.8.2 1.1.5.1.2.2.5-.1.6-.5.1-.8-.3-1.1-.6-.1-.1-.1-.3.1-.5zm-4.1 7.9c.2.1.2.2.2.4 0 .1-.2.2-.3.1-.1 0-.2-.2-.2-.3 0-.1.1-.2.3-.2zM1050.1 90.3c-12.9 6.3-23.2 12.2-34.2 16.4-9.8 3.8-13.4 10.1-12.7 21.8 2.5-2 5.1-3.6 7.9-5h-.1c-.2 0-.2-.2-.1-.4 0-.1.2-.2.3-.2.3 0 .2.2.1.4l-.1.1v.1c14.9-7.7 33-10.3 38.9-33.2zm-43.7 35.7c-.2 0-.2-.2-.2-.4s.1-.3.3-.2c.2.1.2.3.2.4 0 .2-.2.2-.3.2zm.2-1.5c-.2-.2-.5-.4-.4-.7.1-.2.3 0 .4.1.2.2.5.3.5.7-.1.2-.3.1-.5-.1zm14.6-19.3c-.1.1-.2.1-.3 0v-.3c0-.2.1-.2.3-.1.1.2.1.3 0 .4zm4.7 3.8c-.1.1-.2 0-.3-.1 0 0 0-.2.1-.2.1-.1.2 0 .3.1 0 0-.1.1-.1.2zM901.4 77c8.8 2.6 18.5 8.8 26.2 6.9 13.7-3.4 26.1-11.8 39.1-18.1-9.2-5.5-19.2-11.8-27.3-9.9-13.3 3.1-25.5 11.5-38.1 17.6 0 1.1 0 2.3.1 3.5zm52.3-13.1c.2 0 .2.1.2.2 0 0-.1.1-.2.1 0-.1-.1-.1-.1-.2 0 0 0-.2.1-.1zm-5 .4c0-.2 0-.5.3-.3.2.1.2.4.1.6 0 .2-.1.4-.3.3-.2-.1-.1-.4-.1-.6zm-40.9 11.8c.2-.3.4-.4.7-.4.1 0 .2.1.1.3-.1.1-.4.2-.7.4-.1 0-.2-.2-.1-.3zm-3 1.8c.1-.2.3-.2.4-.2.2 0 .2.2.2.3s-.1.2-.2.2c-.2 0-.3-.1-.4-.1v-.2zM776.2 110c.8 1.7 2 2.8 3.4 3.2 1.5.4 3 .2 4.7-.5.8-.4 1.5-.9 2-1.4.6-.6 1-1.2 1.3-1.8.3-.7.4-1.3.4-2.1s-.2-1.4-.5-2.2l-.9-1.9-2.1 1c-.6.3-1 .7-1.1 1.2s-.1 1 .2 1.5l.1.3c.2.4.2.8-.1 1.1-.3.3-.6.6-.9.8-.2.1-.4.2-.6.2-.2.1-.4.1-.6 0-.2 0-.4-.1-.6-.3-.2-.2-.4-.4-.6-.8l-3.4-7.1c-.1-.3-.2-.5-.1-.7 0-.2.1-.4.2-.6.1-.2.3-.3.4-.5.2-.1.3-.2.5-.3.3-.1.7-.2 1.1-.2.4 0 .8.3 1 .8s.6.8 1 1c.5.2 1 .2 1.6-.1l2.2-1-.8-1.7c-.3-.6-.7-1.1-1.2-1.6-.5-.4-1.2-.8-1.8-1-.7-.2-1.4-.3-2.2-.2-.8.1-1.6.3-2.4.7-1.6.8-2.8 1.9-3.3 3.3-.6 1.4-.5 3 .4 4.7l2.7 6.2zM202.9 533.9c8.8-6.3 20-9.1 30.1-13.5l-.1-.1c-.1-.3-.1-.6.2-.7.3-.1.6 0 .7.3.1 0 .1.1.1.1 11-4.9 20.4-11.8 23.6-27.3-18.6 13.3-49.4 10.3-54.6 41.2zm52.1-34.7c0 .1 0 .3-.2.3s-.3 0-.3-.2c0-.1 0-.3.3-.3.1 0 .2 0 .2.2zm-.2-4.7c0 .2-.2.3-.5.3.2-.1.3-.2.5-.3zm-14.2 8.3c.1 0 .2.1.2.2.1.1 0 .3-.1.3s-.2-.1-.3-.2c0-.1 0-.2.2-.3zm-36.3 27.3c-.1-.1-.2-.2-.2-.3 0-.2.2-.3.5-.3 0 .1.1.2.1.3 0 .2-.2.3-.4.3zm5.7-2.9c0 .1-.1.1-.2.1s-.3-.1-.2-.3l.2-.1c.1.1.3.1.2.3zm13.9-15.1c-.4 0-.3-.3-.3-.4 0-.2.1-.3.1-.4.1.1.2.3.3.4.1.1.1.4-.1.4zm.7-1.1c-.3 0-.5-.3-.6-.5-.1-.2-.2-.5.1-.5.3 0 .4.3.6.6.1.1.1.3-.1.4zm7.9-5.8c.1 0 .1.2.1.3-.1.1-.1.2-.3.2-.1 0-.1-.2-.1-.3 0-.1.1-.2.3-.2zm-5.7 9.6c-.8-.2-1.5-.7-2-1.4 0-.3-.1-.5.1-.6s.3-.1.5 0c.1.1.3.2.4.3.5.5 1.2.8 1.3 1.6 0 0-.2.1-.3.1zm-1.5-8.1c.6.6 1.1 1.3 1.5 2.1.4.8-.2.5-.5.5-.7.7-1 .1-1.3-.4-.4-.7-.8-1.1-1.3-1.5.5-.2 1.1-.5 1.6-.7zm-3.3 3.5c.3-.6.6 0 .8.1.4.2 1.1.1.9.9-.5.2-.9.3-1.3 0-.4-.2-.6-.6-.4-1zm0 13.7c.3-.2.5.2.7.3 0 .1.1.1.1.2-.3.1-.5.2-.8.3-.2-.3-.3-.6 0-.8zm-2-7.6h.3v.2c-.1.1-.2.1-.3 0v-.2zm-1.8-.4c.1-.1.3-.2.5-.1.2.2.1.4 0 .5-.1.2-.3.3-.5 0-.1-.1-.1-.3 0-.4zm-2.6-2.7c.3-.1.5.2.7.5 0 .2.3.5-.1.7-.4.2-.6-.1-.7-.5-.1-.2-.2-.6.1-.7zm-2.1 9.3c.2 0 .4 0 .4.2 0 .4-.4.6-.7.6-.2.1-.3 0-.3-.2 0-.3.3-.5.6-.6zm-1.1 4.7c-.5.2-.8-.2-1.1-.5-.2-.2-.2-.5.1-.6.5-.1.8.3 1.1.6.1.2.1.4-.1.5zM782.5 86c.3.2.5.3.8.3s.5.2.7.4l8.3 17.2c.1.2.1.3.1.4 0 .1-.1.2-.1.3-.1.2-.2.5-.3.8 0 .3 0 .7.2 1.1l.8 1.7 6.1-2.9-.8-1.6c-.2-.4-.4-.7-.7-.9-.3-.2-.5-.3-.7-.3s-.3-.1-.4-.1c-.1-.1-.2-.2-.3-.4l-9.7-20.2c-.3-.5-.7-.7-1.2-.4l-4.2 2 .8 1.8c.1.4.3.7.6.8zM247.6 392.2c10.9 9.1 20.7 11.6 29.9 10.5l.3-.3c.2-.2.3-.6.7-.4.3.1.3.3.2.5-.2 0-.3.1-.5.1 15.7-2.2 29.9-14.6 45.2-22.1-9.2-5.3-20-12.7-28.2-10.5-16.5 4.6-31.6 14.4-47.6 22.2zm13.5 7.6c-.2-.1-.3-.3-.3-.5 0-.1.2-.2.3-.1.2.1.3.2.3.5 0 .2-.1.2-.3.1zm8.4-3.8c-.1.2-.3.3-.5.2-.2-.2-.3-.4-.2-.7.1-.3.3-.4.5-.3.3.1.3.4.2.8zm0-9.1c0-.1.1-.2.3-.1v.2c0 .1-.1.1-.2.1 0-.1-.1-.1-.1-.2zm.8 15.1c-.5-.1-.8-.3-.3-.7.7-.4.4-.7 0-.8-.4-.3-.5-.6-.2-.9.3-.3.6-.5 1.1-.4.5.3.4.9.6 1.4.3.8-.3 1.5-1.2 1.4zm6.3-15.3c.1-.1.3-.2.5-.1.4.2.5.5.5.8-.2.2-.3.2-.5.1-.3-.2-.6-.4-.5-.8zm-1.6 8.2c.2-.4.5-.3.8-.2.2.1.3.2.2.4-.2.3-.5.3-.8.2-.2 0-.3-.2-.2-.4zm2.4 4c-.4.4-.9.8-.5 1.4.3.4 1 .8.6 1.3s-.9-.5-1.4-.3h-.4c-.4-.2-.4-.5-.4-.8 0-1.1.7-1.6 1.6-2.2.3-.2.6-.6.9-.2.2.3-.2.6-.4.8zm.7-13.2c-.1.2-.3.2-.5.1-.1-.1-.2-.2-.1-.3.1-.1.3-.1.4-.1.2 0 .3.2.2.3zm2.3 12.1c-.2 0-.3-.2-.2-.4.2-.3.5-.5.8-.4.2.1.2.3.2.4-.2.4-.4.6-.8.4zm.8-1.9c-.2.4-.6.1-.9.1-.2 0-.4-.1-.3-.3.3-.4.6-.3 1-.2.2 0 .4.2.2.4zm1.4-17.7c-.1.3-.4.3-.7.3-.2-.1-.3-.2-.2-.3.2-.2.4-.3.7-.3.2 0 .3.2.2.3zm2.7 20c-.1.2-.3.4-.6.3-.2 0-.2-.2-.1-.4s.3-.3.5-.3.3.2.2.4zm3-8.6c-.1.2-.2.2-.3.1-.1-.1-.1-.4-.1-.6s.2-.2.3-.1c.2.2.2.4.1.6zm-.3-11.5c-.2-.1-.3-.2-.1-.4s.4-.2.6-.1c.1.1.1.2.1.4-.2.2-.4.2-.6.1zm10.1 16.7c.3-.2.5-.1.6 0-.2.2-.5.3-.7.4-.1-.1-.1-.3.1-.4zm-2.8-18.1c.2-.1.3 0 .3.4 0 .1-.2.2-.3.2-.1-.1-.2-.2-.2-.3s.1-.3.2-.3zM746.4 124.4c.8 1.7 2 2.8 3.4 3.2 1.5.4 3 .2 4.7-.5.8-.4 1.5-.9 2-1.4.6-.6 1-1.2 1.3-1.8.3-.7.4-1.3.4-2.1 0-.7-.2-1.4-.5-2.2l-.9-1.9-2.1 1c-.6.3-1 .7-1.1 1.2s-.1 1 .2 1.5l.1.3c.2.4.2.8-.1 1.1-.3.4-.6.6-.9.8-.2.1-.4.2-.6.2-.2.1-.4.1-.6 0-.2 0-.4-.1-.6-.3-.2-.2-.4-.4-.6-.8l-3.4-7.1c-.1-.3-.2-.5-.1-.7 0-.2.1-.4.2-.6.1-.2.3-.3.4-.5.2-.1.3-.2.5-.3.3-.1.7-.2 1.1-.2.4 0 .8.3 1 .8s.6.8 1 1c.5.2 1 .2 1.6-.1l2.2-1-.8-1.7c-.3-.6-.7-1.1-1.2-1.6-.5-.4-1.2-.8-1.8-1-.7-.2-1.4-.3-2.2-.2s-1.6.3-2.4.7c-1.6.8-2.8 1.9-3.3 3.3-.6 1.4-.5 3 .4 4.7l2.7 6.2zM729.7 121.6c.3.2.5.3.8.3.1 0 .2.1.4.1.1.1.2.1.3.3l4.3 8.8c.1.2.2.4.1.5 0 .1-.1.3-.1.4-.1.2-.2.5-.3.8 0 .3 0 .7.2 1.1l.8 1.7 6.1-3-.8-1.6c-.2-.4-.4-.7-.7-.9-.3-.2-.5-.3-.8-.3-.2 0-.3-.1-.4-.1-.1-.1-.2-.2-.3-.4l-3.2-6.7c-.2-.5-.3-1-.2-1.5s.3-.9.5-1.3c.3-.4.6-.7 1-1s.8-.5 1.3-.7c.2-.1.3-.2.5-.4.1-.2.1-.4 0-.7l-.9-1.9c-.2-.4-.3-.6-.5-.6h-.6c-.2.1-.5.2-.8.3-.3.1-.5.3-.7.5-.3.2-.6.5-.8.8l-.6.9c-.2.3-.3.6-.5.9l-.3-.6c-.2-.5-.6-.6-1.2-.3l-4.3 2 .9 1.8c.3.4.5.6.8.8zM909.1 113.1c7.7 1.5 15.2 5.4 20.7 3.5 5.1-1.8 10.1-3.9 15.2-6.4 0-.1.1-.2.2-.2 0 0 .1 0 .1.1 7.5-3.6 15.1-7.8 23.5-11.9-17.7-8.9-43.6-2.2-59.7 14.9zm14.3-5.3c-.2.1-.4.1-.5-.1s0-.4.2-.4.4.1.5.2c.1.2-.1.2-.2.3zm12.9 2.4c-.2 0-.3-.1-.2-.2 0-.1.1-.1.2-.1 0 .1.1.1.1.2s-.1.1-.1.1zm1.6-1.5c-.1.2-.3.3-.5.2-.4-.2-.7-.4-.6-.8.1-.4.4-.4.7-.3.3.2.5.5.4.9zm6.9.6c-.3 0-.7 0-.8-.3 0-.3.3-.2.4-.2.3 0 .6-.1.8.2 0 .3-.2.3-.4.3zm2.9-3.5c-.1 0-.1 0 0 0-.2.3-.4.5-.7.4-.5-.1-.4-.6-.2-.9.1-.4.2-1 .7-.8.3.1.3.5.3.9.1 0 .1 0 .1.1s-.1.3-.2.3zm6.5-3.9c.2 0 .3.2.3.4 0 .1 0 .3-.2.4-.2 0-.3-.2-.3-.4s0-.4.2-.4zM716 130.8l3.2 7c.4.8.9 1.5 1.5 2s1.2.8 1.9 1 1.5.2 2.2 0c.8-.1 1.6-.4 2.4-.8.8-.4 1.5-.9 2.1-1.4.6-.6 1-1.2 1.4-1.9.3-.7.5-1.4.5-2.1s-.2-1.5-.5-2.2l-3.5-7.4c-.3-.6-.7-1.1-1.3-1.5s-1.2-.7-1.9-.9c-.7-.2-1.5-.2-2.3-.2-.8.1-1.6.3-2.4.7-.8.4-1.5.9-2.1 1.4s-1 1.1-1.4 1.8c-.3.7-.5 1.4-.4 2.1 0 .8.2 1.6.6 2.4zm3.7-3.2c.1-.5.5-.9 1.1-1.1.6-.3 1.2-.3 1.6-.1.5.2.8.5 1 .9l3.4 7c.2.4.2.8.1 1.3s-.5.9-1.1 1.2-1.1.3-1.6.1c-.5-.2-.8-.5-.9-.8l-3.5-7.2c-.2-.4-.3-.8-.1-1.3zM799.6 98.7c.4.8.9 1.5 1.5 2.1.6.5 1.3.9 2 1.1.7.2 1.5.3 2.3.2.8-.1 1.6-.3 2.5-.7.8-.4 1.5-.8 2.1-1.4.6-.5 1-1.1 1.4-1.7.3-.6.5-1.3.5-2s-.1-1.4-.5-2.1l-1.1-2.2-2.2 1c-.6.3-.9.7-1 1.2s0 1 .2 1.5l.2.4c.1.2 0 .5-.2.9s-.6.8-1.1 1-1 .3-1.4.2c-.5-.1-.8-.4-1-.8l-1.5-3 5.7-2.7c1.1-.5 1.4-1.4.9-2.5l-1-2.2c-.4-.8-.9-1.5-1.5-2.1-.6-.5-1.3-.9-2-1.1s-1.5-.3-2.3-.2c-.8.1-1.6.3-2.4.7-.8.4-1.5.9-2.1 1.4-.6.6-1 1.2-1.3 1.9-.3.7-.4 1.4-.4 2.2s.3 1.6.7 2.5l3 6.4zm1.4-13.4c.1-.1.3-.1.4 0 .1.1.1.3 0 .4-.1.1-.3.2-.4.1-.1-.2-.2-.3 0-.5zm-.6 3.3c.1-.2.3-.4.4-.6.2-.2.3-.3.4-.3.1-.1.3-.1.5-.2s.5-.1.7 0c.3.1.5.2.8.3.3.2.5.5.7.9l.6 1.3-3.4 1.6-.6-1.3c-.2-.4-.3-.8-.3-1.1s.1-.4.2-.6zM91.1 468.2c11.2 2.5 23.2 8.8 33.3 6.5 15.3-3.6 29.1-13.2 43.6-20.2.2-1.5.4-3 .6-4.6-9.2-2.5-19.2-8.3-27.7-8.2.1.1.1.2 0 .3-.1.1-.2 0-.4-.1-.1 0-.1-.1-.1-.1-1.1.1-2.1.2-3.1.4-16.1 4.1-30.7 13.9-46 21.4-.1 1.5-.2 3.1-.2 4.6zm75.9-13.3c-.2.1-.5.3-.7.4.1-.3.4-.4.7-.4zm-5.4-1.3c.3.1.9-.2 1 .3.1.4-.5.5-.8.8-.2.2-.5.3-.8 0-.4-.3-.7 0-.9.3l-.6.9c-.1.1-.2.2-.3.2-.2 0-.2-.2-.2-.3 0-1.7 1-2.5 2.6-2.2zm-12 3.6c0-.2.1-.3.4-.2.2 0 .2.2.1.4 0 .1-.1.3-.3.3-.3-.1-.2-.3-.2-.5zm-.8-8.1c.3 0 .5.2.4.4-.2.5-.4 1.1-1.1 1.2-.3 0-.5-.4-.5-.8.3-.3.6-.7 1.2-.8zm-3.3 3.1c.3-.1.5-.1.7.2.1.4 0 .6-.3.8-.2.2-.4 0-.6-.2-.1-.3-.1-.6.2-.8zm-.6 1.3c.1-.1.2-.2.4-.2.2.1.3.3.2.5 0 .2-.2.3-.4.2-.2-.1-.3-.3-.2-.5zm-2.3 10.7c.1-.2.3-.4.6-.3.2 0 .2.2.1.4-.1.3-.3.5-.6.4-.2-.1-.2-.3-.1-.5zm-.4 2.3c.1 0 .1.2.1.3-.1.2-.2.3-.4.3-.1 0-.1-.2-.1-.3.1-.1.2-.2.4-.3zm-8.5 3.6c.2-.1.3 0 .3.2 0 .1 0 .2-.1.2-.2 0-.3 0-.3-.2 0-.1 0-.2.1-.2zm-5.3-7.7c0-.1.2-.1.2-.1.1.1.1.2 0 .3 0 .1-.1 0-.2 0v-.2zm-2.8 1.7c.2.5 0 1-.3 1.4-.1.1-.3.3-.4.3-.3 0-.2-.3-.3-.6 0-.3-.1-.6-.1-1 0-.3-.1-.8.3-.8.5 0 .7.4.8.7zm-1.1-4.7c.1-.1.3-.2.4-.1.1.3-.1.5-.3.6-.1.1-.3.2-.4 0-.1-.2.1-.4.3-.5zm-1.1-3c.1 0 .3-.1.3.1.1.1 0 .2-.1.3l-.8.8c-.3.3-.5.6-.1.9.4.2.4.5.2.8-.2.4-.2 1-.6 1-.3 0-.2-.7-.4-.9-.7-1.5-.1-2.7 1.5-3zm-2 5c.1-.1.2-.1.3 0 .1.1.2.2.1.3-.1.1-.2.1-.3 0-.1-.1-.2-.2-.1-.3zm-5.3 4c.3 0 .5.2.7.4.1.2 0 .4-.2.4-.3 0-.5-.1-.7-.5 0-.1.1-.2.2-.3zm-2.7 1.7h.2v.2h-.2v-.2zm-3.8-10.6c.2-.3.5-.3.7-.1.2.2.5.5.3.8-.1.3-.5.1-.7.1-.3-.2-.5-.4-.3-.8zm-1.9 15.9c0-.1.2-.2.3-.1.1.2.1.3 0 .4 0 .1-.2.1-.3 0v-.3zM703.6 129.1l.6 1.3c-.6.3-1 .7-1.1 1-.1.3 0 .9.4 1.6l.7 1.5 1.7-.8 4.7 9.8c.3.5.6 1 1.1 1.4.5.4 1 .7 1.7.8.6.1 1.3.1 2.1-.1.7-.2 1.5-.6 2.3-1.2.4-.3.4-.8.1-1.4l-.3-.7c-.2-.3-.3-.6-.4-.7-.1-.2-.2-.3-.3-.3-.1-.1-.2-.1-.3 0-.1 0-.2.1-.4.2-.5.3-1 .4-1.3.2s-.6-.6-.8-1l-4.2-8.7c.3-.1.6-.3.8-.5s.3-.4.4-.6 0-.5 0-.8c-.1-.3-.2-.7-.5-1.2l-.5-1.1-1.7.8-.6-1.3-1.1-2.2-1.7-3.6c-1.4.7-2.2 1.4-2.6 2.3-.4.8-.2 2 .5 3.5l.7 1.8zM816 69.6c.2.2.5.3.8.3s.6.2.7.5l8.4 17.5c.1.2.1.4.1.5 0 .1-.1.2-.1.4-.1.2-.2.5-.3.8-.1.3 0 .7.2 1.1l.7 1.4 6.1-3-.7-1.4c-.2-.4-.4-.6-.7-.8-.3-.2-.6-.3-.8-.3s-.3-.1-.4-.1c-.1-.1-.2-.2-.3-.4l-3.4-7c-.1-.2-.1-.3 0-.4.1-.1.1-.2.3-.3l3.6-1.7c.1-.1.2-.2.2-.3V76l-1-2.1c-.1-.2-.2-.3-.3-.5-.1-.1-.3-.1-.5-.1L825 75c-.2.1-.3.1-.4.1-.1 0-.2-.1-.3-.3l-.3-.6c0 .1 0 .2-.1.3 0 .1-.2.1-.3 0-.2-.2-.1-.3-.1-.4.2-.2.3-.2.4-.1v.1l-1.4-3c-.2.1-.4.2-.5.4-.4.2-.6.9-1.2.4-.2-.2 0-.6.2-.9.4-.3.9-.4 1.3-.2l-1-2.2c-.1-.1-.1-.3 0-.4 0-.1.1-.3.3-.3l2.3-1.1c.2-.1.4-.2.6-.1.1 0 .3.1.4.2.2.1.5.3.9.4s.8 0 1.2-.2l1.3-.6-1.7-3.6c-.1-.3-.3-.5-.6-.6s-.5-.1-.7 0l-10.7 5.1.6 1.3c.3.4.6.7.8.9zm9.8 14.5c.1-.2.3-.2.4 0 .1.2 0 .3-.1.4s-.2.1-.3 0-.1-.3 0-.4zm-7.2-12h.3c0 .2.1.3 0 .4-.1.1-.2.1-.4-.1 0-.1.1-.2.1-.3zM908.1 25.6c.3.2.5.3.8.3s.5.2.7.4l8.3 17.2c.1.2.1.3.1.4 0 .1-.1.2-.1.3-.1.2-.2.5-.3.8 0 .3 0 .7.2 1.1l.8 1.7 6.1-2.9-.8-1.6c-.2-.4-.4-.7-.7-.9-.3-.2-.5-.3-.7-.3s-.3-.1-.4-.1c-.1-.1-.2-.2-.3-.4L912 21.4c-.3-.5-.7-.7-1.2-.4l-4.2 2 .8 1.8c.2.4.4.6.7.8zm12.6 19.5c.1.2.2.4.1.6-.1.2-.2.2-.3.1s-.1-.4-.1-.6c0-.1.2-.1.3-.1zm-6.9-10.4c.1-.3.3-.4.6-.4.2 0 .3.2.2.3-.1.3-.3.4-.6.4-.2-.1-.3-.2-.2-.3zM544.9 539c-.2-.2-.6-.4-1-.9-.5-.4-.7-.8-.7-1.2v-75h-8.4c-.7 0-1.4.1-2.1.4-.7.3-1.4.6-2.1 1-.7.4-1.2.7-1.7 1.1-.5.4-.8.7-.9.9-.9 2.4-2.4 4.1-4.6 5.1-2.2 1-4.5 1.6-7.1 1.8v2.3c0 3 .4 5.4 1.1 7.3.7 1.9 1.6 3 2.5 3.4.9.5 2 .8 3.4 1 .7.1 1.4.1 2.1.1 1 0 1.5.4 1.5 1.2v49.3c0 .7-.4 1.4-1.1 2.1-.6.6-1.2 1.3-1.8 2.2s-.9 2-.9 3.4v9.5h24.4v-9.5c0-1.5-.3-2.7-.9-3.6-.5-.9-1.1-1.5-1.7-1.9zm-18.6.2c-.2 0-.4-.1-.5-.2l.5-.5c0 .3.1.7 0 .7zm.7-58.8c0-.4.2-.7.4-.9.3 0 .4.1.4.3 0 .4 0 .7-.4.9-.3.2-.5 0-.4-.3zm1 9.2c-.4.1-.4-.3-.5-.5 0-.4-.1-.9.4-1 .3-.1.6.1.6.4 0 .4 0 1-.5 1.1zm.5 61.8c-.2 0-.2-.2-.1-.3 0-.1.1-.1.2-.1s.1.1.1.2c-.1.1-.1.2-.2.2zm.7-13.5c-.1 0-.2-.1-.2-.4 0-.1.1-.2.3-.2.1 0 .2.2.2.3 0 .2-.1.3-.3.3zm5.2-38.8c-.1 0-.2-.2-.1-.3 0-.1.1-.2.3-.1.1 0 .1.1.1.3-.1 0-.2.1-.3.1zm2.5-7.8c-.1 0-.3-.1-.3-.2 0-.2 0-.3.3-.3 0 0 .2.1.2.2 0 .2 0 .3-.2.3zm.9 40.9c-.2 0-.3-.1-.3-.3 0-.1.1-.3.2-.3.2-.1.3.1.3.3 0 .1-.1.3-.2.3zm.9-35c.1 0 .2 0 .2.1 0 .2 0 .3-.2.3-.1 0-.2 0-.2-.1s.1-.3.2-.3zm.2 15.9c-.1.1-.2.2-.3.2-.1-.2 0-.4.1-.5.1-.2.3-.1.3 0s0 .2-.1.3zm.5 10c-.1.2-.2.2-.3.1v-.2c.1-.1.3-.1.3-.1v.2zm.3-31.5c-.1 0-.2-.1-.2-.3.1-.2.2-.2.2-.1.1 0 .2.1.2.2.1.2 0 .2-.2.2zM839.6 227.9s.1.1.1.2c.1.4.2.8-.3.9-.2 0-.3-.1-.4-.2-4.1 6.1-6.1 13.2-6.5 21.7 7-3.4 13.6-7.4 20.4-10.4-.1 0-.3.1-.4.1 0-.1-.1-.2 0-.3.2-.3.6-.2.9-.1-.1.1-.2.1-.3.2 2.4-1.1 4.9-2.1 7.4-2.9 16.7-5.3 19.6-18.2 21.1-33-21.4 6.4-34.7 13.7-42 23.8zm38.9-11.3c.1-.1.2-.2.3-.1 0 0 0 .2-.1.3 0 0-.1 0-.2.1-.1 0-.1-.2 0-.3zm-38.6 12.5c0 .1.1.2.1.3 0 .1-.2.1-.3.1s-.1-.2-.1-.3c.1-.2.2-.2.3-.1zM834 248c-.4 0-.7-.2-.8-.6-.1-.3 0-.5.3-.5.4 0 .7.2.8.6.1.3 0 .4-.3.5zm1.2-11c-.1.1-.2 0-.2 0 0-.1.1-.2.1-.3h.1c.1.1.1.2 0 .3zm2.2-1.7c-.2 0-.2-.2-.3-.4 0-.2-.1-.4.2-.4.2 0 .2.2.3.4.1.2.1.4-.2.4zm.5 3.8c-.1-.1-.1-.3-.1-.4 0-.1.1-.1.2 0 0 .1.1.2.1.3 0 .1 0 .2-.2.1zm.9-5.8c-.1.1-.3.1-.2-.1 0-.1 0-.2.1-.2 0 0 .1.1.2.1-.1 0 0 .2-.1.2zm.8 10.9c-.3-.2-.7-.2-.7-.5s.3-.3.5-.2c.3.1.6.2.6.6-.1.2-.2.2-.4.1zm.4-11.9c-.2 0-.5.1-.7-.2-.2-.3 0-.5.3-.6.5-.3.9-.6 1.1-1.2 0-.2.2-.4.5-.3.3 0 .4.3.4.6 0 .8-.7 1.5-1.6 1.7zm2.7-2.4c-.1.2-.3.4-.6.3-.4-.2-.1-.5-.1-.7.1-.2.2-.3.3-.5.1-.2.3-.5.4-.7 0-.1.2-.2.3-.1.1.1.1.3.1.4-.1.5-.2.9-.4 1.3zm10.6 4.8c-.1.1-.2.2-.3.2-.2 0-.2-.1-.1-.2s.2-.2.3-.2c.3 0 .2.1.1.2zm4.9-1c-.2.2-.3 0-.5-.2-.1-.1-.1-.2-.2-.3-.3.4-.5.7-.9.7-.5.1-.9-.1-1-.5-.2-.6.4-.4.8-.5.4 0 .9-.6 1.2.2 0 0 0 .1-.1.1.2 0 .4 0 .5.1.2.1.3.2.2.4zm-1.2-1.9c.3-.2.6 0 .9.1.1.1.3.2.2.4-.2.3-.5.2-.9 0-.1-.1-.4-.3-.2-.5zm8.1-16s.2-.1.3 0c.2 0 .2.2.1.3h-.3c-.2 0-.2-.1-.1-.3zm-4.7 7.1c.1 0 .2.1.3.2 0 .1.1.2-.1.3-.1.1-.2 0-.3-.2 0-.1-.1-.2.1-.3zm-.4 10.3h.5c.7 0 1.4-.1 2 .4 0 0-.1.3-.2.3-.9.3-1.7.4-2.4.1-.2-.2-.3-.3-.3-.5s.2-.3.4-.3zm-9.5-5c.8-1 1.7-.5 2.6-.4.3 0 .6.2.5.4-.6 1.7.6.5.8.5 1.3-.1 2.6.1 3.9.6.7.3.1.5-.1.7 0 1-.6.7-1.2.5-1.1-.4-2.2-.4-3.3.4-.8.5-1.4 0-1.7-.6-.2-.6-.4-.6-1-.4-.5.2-.9-.1-1.1-.7-.2-.6.3-.7.6-1zm-1 5.8c.1 0 .2 0 .2.1s0 .2-.2.2c0 0-.1-.1 0-.3zm-.4-6.4c.1 0 .1.2.1.3 0 .2-.1.3-.3.2-.1-.1-.1-.2-.1-.3.1-.1.2-.2.3-.2zm-.5 4.1c.4-.1.7 0 .7.3 0 .2-.1.4-.2.5.1 0 .2 0 .2.2-.1.1-.1.2-.2.3-.1.1-.3 0-.3-.2 0-.1 0-.1.1-.2-.1.1-.2.2-.3.2-.3.1-.5 0-.5-.3 0-.4.2-.7.5-.8zm-1.5-2.2c.2-.1.4-.2.6-.1.2.1.1.2 0 .2-.2.2-.4.3-.6.2-.1-.1-.1-.2 0-.3zm.3 5c.1 0 .2.1.2.2 0 .2-.1.4-.3.4s-.3-.1-.3-.3.1-.3.4-.3zm-4.2-9c0 .1 0 .2-.2.3-.2 0-.3-.2-.3-.4s.1-.3.2-.3c.2 0 .3.2.3.4z"/></svg>