<svg id="Layer_1" xmlns="http://www.w3.org/2000/svg" viewBox="0 0 1120.1 659.7"><style>.st0{fill:#fff}</style><path d="M513.9 268.9c8.1-4.2 11.4-13.7 7.2-21.8s-14-11.2-22.1-7-11 13.8-6.8 22c4.1 8 13.6 11 21.7 6.8zM486.6 524.8c-5 0-9.5 2.2-12.5 5.6-3.8-4.2-5.7-10.5-5.7-15.2l-.5-82.8c-.2-30.1-10.9-46.2-29.3-51.7 75.7-45.2 25.9-176.6-65.7-123.1-58.9 34.4-33.1 99.9-33.1 99.9l22.3-8.7s-18.3-46.2 23-70.4c27.1-15.9 63.1-6.1 65.7 33.1 2.5 33.1-15.4 63.1-51.1 66l-.5-82.2-24.1 14.1 1.1 209.4 24.4-14.2-.7-109.6 2.3-.4c26.5-3.7 41.5 8.7 41.6 38.2l.5 82.8c.2 21.4 12.7 42 35.9 42.7 1.8.2 3.6.2 5.6.1h.9c9.3 0 16.8-7.5 16.8-16.8s-7.6-16.8-16.9-16.8z"/><path d="M757.2 223c-6.2 0-11.2 5-11.2 11.2 0 4.2 2.3 7.9 5.7 9.8-7.7 26.8-21 50.9-36.8 59.1-15.3 7.9-29.3 3-28.2-22.9l.2-5.5c19.4-1.6 47.9-20.2 49.9-62.1l.4-8.1c1.5-29.8-20.2-40.3-40.5-29.9-20 10.4-30.6 29.1-31.7 52.7l-3 58.1c-.2 3.9 0 7.5.4 10.9-6.9 26.8-15.2 48.8-25.3 54-5.5 2.8-10.6.6-9.9-12.1l8.9-188.8-24.8 12.8-4 81.9c-7.9-4.7-19.1-6.5-29.3-1.2-13.4 6.9-26.6 27-27.7 50.6l-3.4 69.6c-6.8 26.2-15 47.5-24.9 52.6-5.5 2.8-10.6.6-9.9-12.1l5.3-120.3-24.9 12.7-5.3 112.2c-1 23.8 15.1 36.9 35.2 26.6 12.7-6.6 22.3-22.2 29.6-41.3 6.3 8.5 17.2 11.1 29.6 4.7 10-5.2 19.1-18 26-34 6.1 8.9 17.2 11.7 29.9 5.1 15.1-7.8 25.7-28.3 33.5-52.3 9.8 11.4 26.4 14.3 44.3 5.1 28.2-14.5 44.7-50.9 52.9-85.4l-.1-.1c.2-.8.3-1.6.3-2.5 0-6.1-5-11.1-11.2-11.1zm-67.9-.4c1.6-32 29-41 27.5-7.6l-.4 8.1c-1.5 26.5-17.7 34.2-28.7 35.7l1.6-36.2zm-86.1 99.2c-2.3 32.4-11.6 51.9-22.1 57.4-5.5 2.8-10.6.6-9.9-12.1l3.4-78.3c1.4-30.1 31-37.8 30.4-9.1l.2-.1-2 42.2zM832.5 250.5c9.6-4.7 18.4-10.3 28-13.4 16.7-5.3 19.6-18.2 21.1-33-34.6 10.4-48 23-49.1 46.4zM1056.6 116.9c-17.2 5.3-18.6 18.8-21.2 34.9 21.7-12.4 49.1-15.3 50-48.6-10.2 4.9-19 10.7-28.8 13.7zM884.1 90.8c-4.1-1.4-9.3-3.9-12.6-2.5-13 5.3-25.5 12-39.9 19.1 25.1 12.9 43.3 9.7 66.5-10.3-4.8-2.2-9.3-4.7-14-6.3zM799.2 149.4c13-3.1 24.7-11.2 40-18.6-10.3-4.4-19.3-12-25.6-10.2-14.9 4.3-28.6 13-42.7 19.9.2 1.1.3 2.3.5 3.4 9.2 2 19.4 7.5 27.8 5.5zM969 183.7c20.6-10.9 47.4-14.4 48.5-46.8-42.3 17.7-48.6 23.8-48.5 46.8zM901.4 77c8.8 2.6 18.5 8.8 26.2 6.9 13.7-3.4 26.1-11.8 39.1-18.1-9.2-5.5-19.2-11.8-27.3-9.9-13.3 3.1-25.5 11.5-38.1 17.6 0 1.1 0 2.3.1 3.5zM995.2 50.8c13.7-3.5 26.1-11.9 39.1-18.2v-3.4c-9.5-2.3-19.8-8-28.5-6.1-12.7 2.8-24.2 10.9-36.2 16.8-.1 1.4-.1 2.8-.2 4.3 8.7 2.5 18.3 8.6 25.8 6.6zM900.5 215.8c34-9.5 48.9-23.6 48-45.7-20 11.2-47.7 13.9-48 45.7zM796.1 181.9c12.2-3.9 23.5-10.9 35.2-16.5.1-1.4.3-2.7.4-4.1-6-1.7-13-6.2-17.7-4.5-13.8 5-26.8 12.4-40.1 18.9 0 1.4-.1 2.7-.1 4.1 7.4 1 15.7 4.2 22.3 2.1zM898.9 131c-5.9-3.8-12.9-8.6-17.6-7-13.6 4.8-26.3 12.2-41.3 19.5 26.1 16.6 40-6.7 58.9-12.5zM978.7 77.7c9 10 18.6 8.2 29.1 1.7 8.4-5.2 17.7-8.9 27.8-13.8-15.8-10.7-36-5.9-56.9 12.1zM909.1 113.1c7.7 1.5 15.2 5.4 20.7 3.5 12.9-4.4 24.9-11.5 39-18.4-17.7-8.9-43.6-2.2-59.7 14.9zM797.8 226.3c33.1-9.6 47.5-20.5 46.3-36.4-15.4 12.8-40.5 10.4-46.3 36.4zM1003.2 128.5c15.7-12.5 39.9-11 46.9-38.2-12.9 6.3-23.2 12.2-34.2 16.4-9.8 3.8-13.4 10.1-12.7 21.8zM911.9 158.9c-15.5 10.8-40.8 8.5-46.3 37.5 16.4-14.8 42.2-11.4 46.3-37.5zM979.7 125.6c-15 11.3-40.6 8.3-44.6 34.5 15.3-11.1 40.4-9.2 44.6-34.5zM106 634.2c23.9-13.9 57.3-16.8 58.8-55.7-45.7 16.9-61.4 31.8-58.8 55.7zM45 513.4c15.8-3.9 30.2-13.7 45.2-21 0-1.2-.1-2.3-.1-3.5-10.5-3.1-22.2-10.7-31.2-8.4-16.9 4.4-32.2 14.6-48.2 22.4.1 1.5.3 3 .4 4.6 11.4 2.2 23.7 8.4 33.9 5.9zM91.1 468.2c11.2 2.5 23.2 8.8 33.3 6.5 15.3-3.6 29.1-13.2 43.6-20.2.2-1.5.4-3 .6-4.6-10.5-2.9-22.1-10.1-31.3-7.7-16.1 4.1-30.7 13.9-46 21.4-.1 1.5-.2 3.1-.2 4.6zM185.8 594.6c1.3-.4 2.7-.8 3.9-1.3 11.8-5.7 23.5-11.3 35.2-17.1 12.1-6 18.9-20.2 16.8-35.2-42 15.1-58.4 30.8-55.9 53.6zM218.1 403.3c-16.5 4.5-31.6 14.3-47.6 22.2 29.8 24.9 51.4.3 75.8-11.7-9.2-5.2-20-12.7-28.2-10.5zM265.3 556.5c10.2-5 19.8-11.1 30.3-14.5 19.6-6.2 25.4-20.7 26.7-40.3-44.1 16.3-58.5 30.1-57 54.8zM93.6 518.6c8.8 1.4 18.7 5.9 26.3 3.5 15.5-5 29.8-13.8 44-20.7-2-4.2-4-8.2-7.4-15.2-19.9 8.2-41.7 17.2-63.6 26.2.2 2.1.5 4.1.7 6.2zM173.2 474.6c.1 1.5.1 3 .2 4.4 8.1 1.4 17.2 6 24 3.7 15.6-5.3 30.2-14 45.1-21.3 0-1.3.1-2.7.1-4-7.4-1.9-16-7.3-22-5.2-16.4 5.9-31.7 14.8-47.4 22.4zM301.5 413.1c-16.9 6.1-32.7 15.1-48.9 23.1.2 1.7.5 3.3.7 5 8.6.8 18.1 4.3 25.7 1.9 14.4-4.7 27.6-12.8 45.8-21.7-10.1-3.9-18.2-10.1-23.3-8.3zM282.9 495.4c17.8-14.1 47.9-11 53.9-41.1-18.7 12.8-48.8 10.4-53.9 41.1zM122.8 573.1c18.8-13.4 48.7-11.2 55.3-41.5-19.2 12.8-49.3 10.5-55.3 41.5zM202.9 533.9c18.6-13.3 48.4-11.1 54.6-41.2-18.6 13.3-49.4 10.3-54.6 41.2zM82.9 532.4c-7.4-1.9-16-7.3-22-5.2-16.4 5.8-31.6 14.7-47.4 22.3.1 1.5.1 3 .2 4.4 8.1 1.4 17.2 6 24 3.7 15.6-5.3 30.2-14 45.1-21.3.1-1.2.1-2.6.1-3.9zM43.3 608.9c18.6-13.3 48.4-11.1 54.6-41.2-18.6 13.2-49.4 10.2-54.6 41.2zM331.9 432.6L53.1 568c-2.1 1-3 3.6-2 5.7s3.6 3 5.7 2l278.8-135.4c2.1-1 3-3.6 2-5.7s-3.6-3-5.7-2zM800.3 195.5c1 2.1 3.6 3 5.7 2l243.7-116.2c2.1-1 3-3.6 2-5.7s-3.6-3-5.7-2L802.2 189.8c-2.1 1-3 3.6-1.9 5.7zM247.6 392.2c29.8 24.9 51.4.3 75.8-11.7-9.2-5.3-20-12.7-28.2-10.5-16.5 4.6-31.6 14.4-47.6 22.2zM786.5 273.7c15.9-8.4 36.7-11.2 37.5-36.2-32.7 13.7-37.6 18.4-37.5 36.2zM507.9 475.4c-.8-.3-2.2-.4-4.1-.4-1 0-1.8-.3-2.6-.8-.7-.5-1.3-1.2-1.5-2.2-.3-.9-.2-1.9.1-3.1.4-1.2 1.2-2.4 2.4-3.6.8-.8 1.2-1.4 1.3-1.7 0-.3-.3-.7-.9-1.2-.5-.4-.9-.7-1.2-.8-.3-.1-.8.1-1.4.8-1.2 1.2-2.2 2.3-3 3.2-.8.9-1.4 1.8-1.8 2.6-.5.8-.8 1.7-.9 2.7-.2 1-.2 2.1-.2 3.4V488c0 .6.8 1 2.3 1.3 1.5.3 3.2.4 5.1.4 1.9 0 3.6-.1 5.3-.4 1.6-.3 2.5-.8 2.5-1.4v-11.2c-.2-.6-.6-1.1-1.4-1.3zM544.9 539c-.2-.2-.6-.4-1-.9-.5-.4-.7-.8-.7-1.2v-75h-8.4c-.7 0-1.4.1-2.1.4-.7.3-1.4.6-2.1 1-.7.4-1.2.7-1.7 1.1-.5.4-.8.7-.9.9-.9 2.4-2.4 4.1-4.6 5.1-2.2 1-4.5 1.6-7.1 1.8v2.3c0 3 .4 5.4 1.1 7.3.7 1.9 1.6 3 2.5 3.4.9.5 2 .8 3.4 1 .7.1 1.4.1 2.1.1 1 0 1.5.4 1.5 1.2v49.3c0 .7-.4 1.4-1.1 2.1-.6.6-1.2 1.3-1.8 2.2-.6.9-.9 2-.9 3.4v9.5h24.4v-9.5c0-1.5-.3-2.7-.9-3.6-.5-.9-1.1-1.5-1.7-1.9zM598.5 462h-38.6c-5.1 0-7.6 1.9-7.6 5.8V479.5c0 .4.1 1 .2 1.8.2.8.5 1.5.9 2.3.4.7 1.1 1.4 2 2 .9.6 2 .9 3.5.9h10.3v-5.3c0-.9.3-1.6.9-2.2.6-.5 1.3-.8 2.2-.8h9.6c.2 0 .4.1.9.2.4.1.5.4.4.8-3 5.6-5.6 10.6-7.6 14.9-2 4.4-3.6 8.6-4.8 12.6-1.2 4-2 8.1-2.6 12.1-.5 4.1-.9 8.6-1 13.6l-.2 1.6c0 .6 0 1.1-.1 1.7 0 .6-.1 1.1-.1 1.7-.2.5-.7 1-1.2 1.5-.3.2-.7.7-1 1.3-.3.6-.6 1.3-.9 2-.3.7-.5 1.5-.7 2.3-.2.8-.2 1.6-.2 2.3v7H589.1v-7c0-1.5-.3-3.1-.9-4.8-.6-1.7-1.2-2.8-1.8-3.2-.4-.3-.8-.7-1-1-.3-.3-.4-.9-.4-1.6-.1-5.5.1-10.3.6-14.3.4-4.1 1.3-7.9 2.5-11.7 1.2-3.7 2.8-7.6 4.9-11.6 2-4 4.6-8.8 7.7-14.4.2-.2.3-.5.6-1 .2-.5.3-1.1.3-1.7v-16.8c0-.9-.3-1.6-.9-2.1-.7-.3-1.4-.6-2.2-.6zM69 452.9c.4.8.9 1.5 1.6 2 .7.5 1.4.9 2.2 1 .8.2 1.6.2 2.4.1.8-.1 1.7-.3 2.4-.7.7-.3 1.2-.7 1.7-1.1.5-.4.9-.9 1.2-1.3.1-.2.3-.3.5-.4.2-.1.5 0 .8.3 0 0 .1.1.2.1h.3l.8-.4c.2-.1.3-.3.2-.5l-5.4-11.5c-.1-.3-.4-.6-.7-.7-.3-.2-.6-.2-.9 0l-4.2 2 .6 1.3c.3.6.6 1 .8 1.2.2.2.5.2.9.2.4-.1.7.1.9.6l1.7 3.7c.4.9.5 1.6.3 2.2-.2.6-.7 1-1.3 1.3-.6.3-1.2.3-1.8.1-.6-.2-1.1-.8-1.5-1.6l-6.6-14c-.4-.9-.5-1.6-.3-2.2s.6-1 1.2-1.3c.6-.3 1.2-.3 1.8-.1s1 .8 1.4 1.7l.2.4c.3.6.7 1 1.2 1.1.5.1 1 0 1.4-.1l2.3-1.1-1.2-2.6c-.4-.8-.9-1.5-1.5-2s-1.3-.9-2.1-1.1c-.8-.2-1.6-.2-2.4-.1-.9.1-1.7.3-2.5.7s-1.5.9-2.2 1.5c-.6.6-1.1 1.2-1.4 1.9-.3.7-.5 1.5-.5 2.3 0 .8.2 1.6.6 2.5l6.9 14.6zM80.8 436.6c.3.2.5.3.8.3.1 0 .2.1.4.1l.3.3 4.1 8.9c.1.2.2.4.1.5s-.1.3-.1.4c-.1.2-.2.5-.3.8-.1.3 0 .7.2 1.1l.8 1.7 6.2-2.9-.7-1.7c-.2-.4-.4-.7-.7-.9-.3-.2-.5-.3-.8-.3-.2 0-.3-.1-.4-.2-.1-.1-.2-.2-.3-.4l-3.1-6.7c-.2-.5-.3-1-.2-1.5.1-.5.3-.9.6-1.3s.6-.7 1-1 .8-.5 1.3-.7c.2-.1.3-.2.5-.4.1-.2.1-.4 0-.7l-.9-1.9c-.2-.4-.3-.6-.4-.6h-.6c-.2.1-.5.2-.8.3-.3.1-.5.3-.7.5-.3.2-.6.5-.8.8s-.4.6-.6.8c-.2.3-.4.6-.5.9l-.3-.6c-.2-.5-.6-.6-1.2-.3l-4.3 2 .8 1.8c.1.5.3.8.6.9zM97 439.7c.4.8.9 1.5 1.5 2.1.6.5 1.3.9 2 1.1.7.2 1.5.3 2.3.2s1.6-.3 2.5-.7c.8-.4 1.5-.8 2.1-1.3s1.1-1.1 1.4-1.7c.3-.6.5-1.3.5-2s-.1-1.4-.5-2.1l-1-2.2-2.2 1c-.6.3-.9.7-1 1.2-.1.5 0 1 .2 1.5l.2.4c.1.2 0 .5-.2.9s-.6.8-1.1 1-1 .3-1.4.2c-.5-.1-.8-.4-1-.8l-1.4-3 5.7-2.7c1.1-.5 1.4-1.4.9-2.5l-1-2.2c-.4-.8-.9-1.5-1.5-2.1s-1.2-.9-2-1.1c-.7-.2-1.5-.3-2.3-.2-.8.1-1.6.3-2.4.7s-1.5.9-2.1 1.4c-.6.6-1 1.2-1.3 1.9-.3.7-.4 1.4-.4 2.2 0 .8.2 1.6.6 2.5l2.9 6.3zm.9-10.1c.1-.2.3-.4.4-.5.2-.1.3-.2.4-.3.1-.1.3-.1.5-.2h.7c.3.1.5.2.8.4.2.2.5.5.7.9l.6 1.3-3.4 1.6-.6-1.3c-.2-.4-.3-.8-.3-1.1 0-.4.1-.6.2-.8zM109.2 425.3l.4.9 2-1c.6-.3 1-.6 1.1-.9.1-.3.1-.6 0-.9-.1-.2-.1-.4 0-.6.1-.2.2-.4.3-.5.1-.2.3-.3.4-.4.2-.1.3-.2.5-.3.2-.1.3-.1.5-.2s.4-.1.6-.1c.2 0 .4.1.6.2.2.1.3.3.4.5l.4.8c0 .2-.1.4-.2.6-.1.2-.3.4-.5.7-.2.3-.5.6-.8 1l-1.2 1.2c-.5.5-.9 1-1.2 1.6-.4.6-.6 1.3-.7 2-.1.7.1 1.6.5 2.4l.1.3c.3.7.7 1.4 1.2 1.9.5.6 1 1 1.6 1.3.6.3 1.3.4 2.2.4.8 0 1.7-.3 2.7-.8.2-.1.5-.2.7-.4.3-.2.5-.3.7-.5.2-.2.4-.4.5-.6.1-.2.2-.5.2-.7.1.2.3.3.6.4.3.1.5.1.8 0l3.3-1.5-.8-1.6c-.2-.4-.5-.8-.8-1-.3-.2-.6-.4-.9-.4-.1 0-.2-.1-.3-.2-.1-.1-.2-.3-.2-.5l-3.8-8.2c-.6-1.4-1.6-2.2-2.8-2.6-1.2-.4-2.8-.1-4.8.8-1 .4-1.7.9-2.3 1.5-.6.5-1 1.1-1.2 1.7-.3.6-.4 1.2-.3 1.8 0 .6.2 1.2.5 1.9zm8 1.5c.1-.2.3-.3.4-.5l.4-.5 2.5 5.3c-.1.2-.2.3-.3.5-.3.3-.6.6-1 .7-.5.2-1 .3-1.4.1-.5-.2-.8-.6-1.1-1.2l-.4-.8c-.4-.8-.4-1.4-.2-1.9s.5-1 .8-1.3c0 0 .1-.2.3-.4zM121.3 410.2l-.1-.2zM122.2 412.3l.6 1.3c-.6.3-1 .6-1.1 1-.1.4 0 .9.3 1.6l.7 1.5 1.7-.8 4.6 9.8c.2.5.6 1 1.1 1.4.5.4 1 .7 1.7.8.6.1 1.3.1 2.1 0 .7-.2 1.5-.6 2.3-1.2.4-.3.4-.8.1-1.4l-.3-.7c-.2-.3-.3-.6-.4-.7-.1-.2-.2-.3-.3-.3-.1-.1-.2-.1-.3 0-.1 0-.2.1-.4.1-.5.3-1 .4-1.3.1-.3-.2-.6-.6-.8-1l-4.1-8.7c.3-.1.6-.3.8-.5.2-.2.3-.3.4-.6.1-.2.1-.5 0-.8-.1-.3-.2-.7-.4-1.2l-.5-1.1-1.7.8-.6-1.3-1-2.2-1.7-3.6c-1.4.6-2.3 1.4-2.6 2.2-.4.8-.2 2 .5 3.5l.6 2zM139.3 398.9c.2.2.4.3.7.4.2.1.5.1.7.1l8.4 18c.1.2.1.3.1.4 0 .1 0 .2-.1.4-.2.3-.2.6-.3 1 0 .3 0 .7.2 1l.7 1.4 6.2-2.9-.7-1.4c-.2-.4-.4-.6-.7-.8-.3-.2-.6-.3-.8-.3-.1 0-.3-.1-.4-.2-.1-.1-.2-.2-.3-.4l-4.4-9.3c-.1-.1-.1-.2 0-.2s.1 0 .1.1c0 0 .2.3.7.7.5.4 1 1 1.7 1.7s1.5 1.4 2.3 2.2c.8.8 1.6 1.5 2.3 2.2.7.7 1.4 1.3 1.9 1.8s.9.8 1 .9c.3.3.6.5.9.7.3.2.6.2.9.1l1.9-.9c.2-.1.4-.3.4-.5s0-.4-.1-.6l-9.6-20.6c-.1-.2-.1-.4-.1-.5 0-.1.1-.2.1-.4.2-.3.2-.6.1-.9l-.3-.9-.7-1.4-5.9 2.7.7 1.4c.2.4.4.7.7.8.3.2.6.3.8.3.1 0 .3.1.4.2.1.1.2.2.3.4l4.7 10c0 .1 0 .1.1.2 0 .1 0 .1-.1 0-.2-.2-.6-.7-1.2-1.3-.6-.6-1.3-1.3-2.1-2-.8-.8-1.6-1.5-2.5-2.4-.9-.8-1.6-1.6-2.4-2.3-.7-.7-1.3-1.3-1.8-1.7-.5-.5-.7-.7-.8-.7-.4-.4-.8-.6-1.2-.6-.4 0-.7.1-1 .2l-2.9 1.4.7 1.5c.3.5.5.8.7 1zM164.5 408.6c.4.8.9 1.5 1.5 2s1.2.8 1.9 1 1.4.2 2.2.1c.8-.1 1.6-.4 2.4-.8.8-.4 1.5-.8 2.1-1.4.6-.6 1.1-1.2 1.4-1.8.3-.7.5-1.4.5-2.1 0-.7-.2-1.5-.5-2.2l-3.5-7.4c-.3-.6-.7-1.1-1.3-1.6-.6-.4-1.2-.7-1.9-.9-.7-.2-1.5-.3-2.3-.2-.8.1-1.6.3-2.4.7-.8.4-1.5.8-2.1 1.4-.6.5-1.1 1.1-1.4 1.8-.3.7-.5 1.4-.5 2.1 0 .8.2 1.6.6 2.4l3.3 6.9zm.6-10.2c.1-.5.5-.8 1.1-1.1.6-.3 1.2-.3 1.6-.1.5.2.8.6 1 .9l3.3 7.1c.2.4.2.8.1 1.3s-.5.9-1.1 1.1c-.6.3-1.1.3-1.6.1-.5-.2-.8-.5-.9-.8l-3.4-7.2c-.2-.4-.3-.8-.1-1.3zM175.2 392.6c.3.2.5.3.8.3.1 0 .2.1.4.1l.3.3 4.1 8.9c.1.2.2.4.1.5s-.1.3-.1.4c-.1.2-.2.5-.3.8s0 .7.2 1.1l.8 1.7 6.2-2.9-.7-1.7c-.2-.4-.4-.7-.7-.9-.3-.2-.5-.3-.8-.3-.2 0-.3-.1-.4-.2-.1-.1-.2-.2-.3-.4l-3.1-6.7c-.2-.5-.3-1-.2-1.5.1-.5.3-.9.6-1.3s.6-.7 1-1 .8-.5 1.3-.7c.2-.1.3-.2.5-.4.1-.2.1-.4 0-.7l-.9-1.9c-.2-.4-.3-.6-.4-.6h-.6c-.2.1-.5.2-.8.3-.3.1-.5.3-.7.5-.3.2-.6.5-.8.8s-.4.6-.6.8c-.2.3-.4.6-.5.9l-.3-.6c-.2-.5-.6-.6-1.2-.3l-4.3 2 .8 1.8c.1.4.3.7.6.9zM186.5 379.6l1 2.2.6 1.3c-.6.3-1 .6-1.1 1-.1.4 0 .9.3 1.6l.7 1.5 1.7-.8 4.6 9.8c.2.5.6 1 1.1 1.4.5.4 1 .7 1.7.8.6.1 1.3.1 2.1 0 .7-.2 1.5-.6 2.4-1.2.4-.3.4-.8.1-1.4l-.3-.7c-.2-.3-.3-.6-.4-.7-.1-.2-.2-.3-.3-.3-.1-.1-.2-.1-.3 0-.1 0-.2.1-.4.1-.5.3-1 .4-1.3.1-.3-.2-.6-.6-.8-1l-4.1-8.7c.3-.1.6-.3.8-.5.2-.2.3-.3.4-.6.1-.2.1-.5 0-.8-.1-.3-.2-.7-.4-1.2l-.5-1.1-1.7.8-.6-1.3-1-2.2-1.7-3.6c-1.4.6-2.3 1.4-2.6 2.2-.4.8-.2 2 .5 3.5l-.5-.2zM194.8 373.3c.3.2.5.3.8.3.3 0 .5.2.7.5l8 17.1c.1.2.1.4.1.5s-.1.2-.2.4-.2.5-.3.8 0 .7.2 1.1l.8 1.7 6.2-2.9-.7-1.7c-.2-.4-.4-.7-.7-.9-.3-.2-.5-.3-.8-.3-.1 0-.3-.1-.4-.1-.1-.1-.2-.2-.3-.4l-4-8.6s.1-.1.2-.4c.1-.3.3-.5.7-.8.2-.1.5-.3.8-.4.3-.1.6-.2.9-.1.3 0 .6.1.9.3.3.2.5.5.8 1l4.3 9.1c.6 1.4 1.4 1.8 2.4 1.4l3.7-1.7-.8-1.6c-.4-.8-.8-1.2-1.3-1.3h-.5c-.2 0-.4-.1-.5-.3l-3.5-7.5c-.8-1.7-1.8-2.9-3-3.4-1.2-.6-2.7-.5-4.4.3-.5.2-.9.4-1.2.7-.3.2-.5.4-.7.6-.2.2-.4.4-.5.6l-3.8-8.1c-.2-.5-.6-.7-1.1-.5l-4.4 2.1.8 1.8c.3.3.5.5.8.7zM221.4 360.5c.3.2.5.3.8.3.1 0 .3.1.4.1.1.1.3.2.4.3l11.6 18.9c.2.4.6.7 1 .8.4.1.8.1 1.1-.1l4.4-2.1c.2-.1.4-.2.4-.4.1-.2 0-.5-.1-.9l-4.2-16 9.7 13.4c.3.3.5.5.7.6.2.1.4.1.6 0l4.8-2.2c.7-.3.9-.9.7-1.6l-7.7-21.1v-.5c0-.1.1-.3.2-.4.1-.2.2-.5.3-.8.1-.3 0-.7-.2-1.1l-.7-1.4-6.1 2.9.7 1.4c.2.4.4.7.7.9.3.2.5.3.8.3.3 0 .5.2.6.6l6.6 18.3c-2.4-3.3-4.5-6.3-6.4-8.9l-2.4-3.3c-.8-1.1-1.5-2.1-2.1-2.9-.6-.9-1.2-1.6-1.6-2.2-.4-.6-.6-.9-.7-1-.2-.2-.4-.4-.6-.5-.2-.1-.5-.1-.7-.1-.3 0-.5.1-.8.2-.3.1-.5.2-.7.3-.6.3-1 .6-1.3.9-.3.4-.4.7-.3 1.1 0 .1.1.5.3 1.2.2.7.4 1.5.7 2.6.3 1 .6 2.2.9 3.5.4 1.3.7 2.6 1 3.9.8 3.1 1.8 6.7 2.8 10.6l-10-16.7c-.2-.4-.2-.6 0-.8.1-.2.2-.5.3-.8 0-.3 0-.7-.2-1.1l-.7-1.4-6.1 2.9.7 1.4c-.2.4.1.7.4.9zM256.5 365.2c.4.8.9 1.5 1.5 2.1.6.5 1.3.9 2 1.1.7.2 1.5.3 2.3.2.8-.1 1.6-.3 2.5-.7.8-.4 1.5-.8 2.1-1.3.6-.5 1.1-1.1 1.4-1.7.3-.6.5-1.3.5-2s-.1-1.4-.5-2.1l-1-2.2-2.2 1c-.6.3-1 .7-1 1.2-.1.5 0 1 .2 1.5l.2.4c.1.2 0 .5-.2.9s-.6.8-1.1 1c-.5.2-1 .3-1.4.2-.5-.1-.8-.4-1-.8l-1.4-3 5.7-2.7c1.1-.5 1.4-1.4.9-2.5l-1-2.2c-.4-.8-.9-1.5-1.5-2.1-.6-.5-1.2-.9-2-1.1-.7-.2-1.5-.3-2.3-.2-.8.1-1.6.3-2.4.7-.8.4-1.5.9-2.1 1.4-.6.6-1 1.2-1.3 1.9-.3.7-.4 1.4-.4 2.2 0 .8.2 1.6.6 2.5l2.9 6.3zm.9-10.1c.1-.2.3-.4.4-.5.2-.1.3-.3.4-.3.1-.1.3-.1.5-.2h.7c.3.1.5.2.8.4.2.2.5.5.7.9l.6 1.3-3.4 1.6-.6-1.3c-.2-.4-.3-.8-.3-1.1 0-.3.1-.6.2-.8zM269.1 351.3c.3.7.8 1.2 1.4 1.6.6.3 1.2.6 1.9.7.7.1 1.4.2 2.1.2.7 0 1.4 0 2.1.1.6 0 1.2.1 1.7.3s.8.4 1 .8l.2.4c.2.5.2.9 0 1.3s-.6.7-1.1.9c-.5.2-1 .3-1.5.1s-.8-.4-.9-.8c-.3-.6-.7-1-1.2-1.2-.5-.2-1.1-.1-1.7.2l-1.8.8.9 1.9c.3.7.8 1.3 1.3 1.8.6.4 1.2.7 1.9.9.7.2 1.5.2 2.3.1.8-.1 1.6-.4 2.4-.7.8-.4 1.5-.8 2-1.3.6-.5 1-1.1 1.3-1.7.3-.6.5-1.3.5-2s-.2-1.5-.5-2.2l-.5-1c-.3-.7-.8-1.2-1.4-1.6-.6-.3-1.2-.6-2-.7-.7-.1-1.4-.2-2.2-.2-.8 0-1.5 0-2.1-.1s-1.2-.1-1.7-.2-.8-.3-1-.7c-.2-.4-.2-.7 0-1.1.2-.3.4-.6.9-.8.4-.2.8-.2 1.3-.2.5.1.8.4 1.1.9.2.5.6.7 1.1.8.5.1 1.1 0 1.8-.4l1.6-.7-.7-1.6c-.3-.6-.7-1.1-1.2-1.6-.5-.4-1.1-.8-1.7-1-.7-.2-1.4-.3-2.1-.2-.8 0-1.5.3-2.4.6-.8.4-1.5.8-2.1 1.3-.6.5-1 1-1.3 1.6-.3.6-.5 1.2-.5 1.8 0 .6.1 1.2.3 1.7l.5 1.2zM280.6 335.6l1 2.2.6 1.3c-.6.3-1 .6-1.1 1-.1.4 0 .9.3 1.6l.7 1.5 1.7-.8 4.6 9.8c.2.5.6 1 1.1 1.4.5.4 1 .7 1.7.8.6.1 1.3.1 2.1-.1.7-.2 1.5-.6 2.4-1.2.4-.3.4-.8.1-1.4l-.3-.7c-.2-.3-.3-.6-.4-.7-.1-.2-.2-.3-.3-.3-.1-.1-.2-.1-.3 0-.1 0-.2.1-.4.1-.5.3-1 .4-1.3.1-.3-.2-.6-.6-.8-1l-4.1-8.7c.3-.1.6-.3.8-.5.2-.2.3-.3.4-.6.1-.2.1-.5 0-.8-.1-.3-.2-.7-.4-1.2l-.5-1.1-1.7.8-.6-1.3-1-2.2-1.7-3.6c-1.4.6-2.3 1.4-2.6 2.2-.4.8-.2 2 .5 3.5l-.5-.1z"/><path d="M661.7 143.8c.2.2.4.3.7.3.2.1.5.1.7 0l8.7 18c.1.2.1.3.1.5 0 .1 0 .2-.1.3-.1.2-.2.5-.3.8-.1.3 0 .7.2 1.1l.7 1.4 6.1-3-.7-1.4c-.2-.4-.4-.6-.7-.8-.3-.2-.6-.3-.8-.3-.1 0-.3-.1-.4-.2-.1-.1-.2-.2-.3-.4l-5.8-12.1c-.1-.1-.1-.2 0-.2h.1c1.4 1.1 2.6 2.1 3.7 3 .5.4.9.8 1.4 1.2.5.4.9.7 1.3 1 .4.3.7.6 1 .8.3.2.4.4.5.4.1.1.4.1.7.1.3-.1.6-.2 1-.3.3-.2.6-.3.9-.6.2-.2.4-.4.4-.6v-.6-1.3-1.7-1.9c0-1.5 0-3.1-.1-4.9v-.1.1l6 12.5c.1.2.2.4.1.5 0 .1-.1.2-.1.4-.1.2-.2.5-.3.8-.1.3 0 .7.2 1.1l.7 1.4 6.1-3-.7-1.4c-.2-.4-.4-.6-.7-.8-.3-.2-.6-.3-.8-.3-.1 0-.2-.1-.3-.1-.1-.1-.2-.2-.3-.4l-8.7-18c.2-.1.3-.3.4-.6.1-.2.1-.4.1-.7 0-.3-.1-.6-.3-1l-.7-1.5-4.2 2c-.2.1-.4.2-.6.4-.2.2-.3.4-.3.6l.4 14-10.8-9c-.3-.3-.6-.3-.9-.2l-4.5 2.2.7 1.5c.1.6.3.8.5 1zM694 149.9c.4.8.9 1.5 1.5 2s1.2.8 1.9 1 1.5.2 2.2 0c.8-.1 1.6-.4 2.4-.8.8-.4 1.5-.9 2.1-1.4.6-.6 1-1.2 1.4-1.9.3-.7.5-1.4.5-2.1s-.2-1.5-.5-2.2l-3.5-7.4c-.3-.6-.7-1.1-1.3-1.5-.6-.4-1.2-.7-1.9-.9-.7-.2-1.5-.2-2.3-.2-.8.1-1.6.3-2.4.7-.8.4-1.5.9-2.1 1.4-.6.5-1 1.1-1.4 1.8s-.5 1.4-.4 2.1c0 .8.2 1.6.6 2.4l3.2 7zm.5-10.2c.1-.5.5-.9 1.1-1.1.6-.3 1.2-.3 1.6-.1s.8.5 1 .9l3.4 7c.2.4.2.8.1 1.3s-.5.9-1.1 1.2c-.6.3-1.1.3-1.6.1-.5-.2-.8-.5-.9-.8l-3.5-7.2c-.2-.4-.3-.8-.1-1.3zM703.6 129.1l.6 1.3c-.6.3-1 .7-1.1 1s0 .9.4 1.6l.7 1.5 1.7-.8 4.7 9.8c.3.5.6 1 1.1 1.4.5.4 1 .7 1.7.8.6.1 1.3.1 2.1-.1.7-.2 1.5-.6 2.3-1.2.4-.3.4-.8.1-1.4l-.3-.7c-.2-.3-.3-.6-.4-.7-.1-.2-.2-.3-.3-.3-.1-.1-.2-.1-.3 0-.1 0-.2.1-.4.2-.5.3-1 .4-1.3.2s-.6-.6-.8-1l-4.2-8.7c.3-.1.6-.3.8-.5.2-.2.3-.4.4-.6s0-.5 0-.8c-.1-.3-.2-.7-.5-1.2l-.5-1.1-1.7.8-.6-1.3-1.1-2.2-1.7-3.6c-1.4.7-2.2 1.4-2.6 2.3-.4.8-.2 2 .5 3.5l.7 1.8zM702.7 127.1l-.1-.2zM719.2 137.8c.4.8.9 1.5 1.5 2s1.2.8 1.9 1c.7.2 1.5.2 2.2 0 .8-.1 1.6-.4 2.4-.8.8-.4 1.5-.9 2.1-1.4.6-.6 1-1.2 1.4-1.9.3-.7.5-1.4.5-2.1s-.2-1.5-.5-2.2l-3.5-7.4c-.3-.6-.7-1.1-1.3-1.5-.6-.4-1.2-.7-1.9-.9-.7-.2-1.5-.2-2.3-.2-.8.1-1.6.3-2.4.7-.8.4-1.5.9-2.1 1.4-.6.5-1 1.1-1.4 1.8-.3.7-.5 1.4-.4 2.1 0 .8.2 1.6.6 2.4l3.2 7zm.5-10.2c.1-.5.5-.9 1.1-1.1.6-.3 1.2-.3 1.6-.1.5.2.8.5 1 .9l3.4 7c.2.4.2.8.1 1.3s-.5.9-1.1 1.2c-.6.3-1.1.3-1.6.1-.5-.2-.8-.5-.9-.8l-3.5-7.2c-.2-.4-.3-.8-.1-1.3zM729.7 121.6c.3.2.5.3.8.3.1 0 .2.1.4.1.1.1.2.1.3.3l4.3 8.8c.1.2.2.4.1.5 0 .1-.1.3-.1.4-.1.2-.2.5-.3.8 0 .3 0 .7.2 1.1l.8 1.7 6.1-3-.8-1.6c-.2-.4-.4-.7-.7-.9-.3-.2-.5-.3-.8-.3-.2 0-.3-.1-.4-.1-.1-.1-.2-.2-.3-.4l-3.2-6.7c-.2-.5-.3-1-.2-1.5.1-.5.3-.9.5-1.3.3-.4.6-.7 1-1 .4-.3.8-.5 1.3-.7.2-.1.3-.2.5-.4.1-.2.1-.4 0-.7l-.9-1.9c-.2-.4-.3-.6-.5-.6h-.6c-.2.1-.5.2-.8.3-.3.1-.5.3-.7.5-.3.2-.6.5-.8.8l-.6.9c-.2.3-.3.6-.5.9l-.3-.6c-.2-.5-.6-.6-1.2-.3l-4.3 2 .9 1.8c.3.4.5.6.8.8zM746.4 124.4c.8 1.7 2 2.8 3.4 3.2 1.5.4 3 .2 4.7-.5.8-.4 1.5-.9 2-1.4.6-.6 1-1.2 1.3-1.8.3-.7.4-1.3.4-2.1 0-.7-.2-1.4-.5-2.2l-.9-1.9-2.1 1c-.6.3-1 .7-1.1 1.2-.1.5-.1 1 .2 1.5l.1.3c.2.4.2.8-.1 1.1-.3.4-.6.6-.9.8-.2.1-.4.2-.6.2-.2.1-.4.1-.6 0-.2 0-.4-.1-.6-.3-.2-.2-.4-.4-.6-.8l-3.4-7.1c-.1-.3-.2-.5-.1-.7 0-.2.1-.4.2-.6.1-.2.3-.3.4-.5.2-.1.3-.2.5-.3.3-.1.7-.2 1.1-.2.4 0 .8.3 1 .8.2.5.6.8 1 1 .5.2 1 .2 1.6-.1l2.2-1-.8-1.7c-.3-.6-.7-1.1-1.2-1.6-.5-.4-1.2-.8-1.8-1-.7-.2-1.4-.3-2.2-.2-.8.1-1.6.3-2.4.7-1.6.8-2.8 1.9-3.3 3.3-.6 1.4-.5 3 .4 4.7l2.7 6.2zM773.3 128.1c.4-.2.6-.5.7-.8.1-.4.1-.8 0-1.2-.2-.9-.4-2-.7-3.2-.3-1.2-.6-2.5-1-3.9l-1.2-4.2c-.4-1.4-.8-2.8-1.1-4.1-.4-1.3-.7-2.5-1-3.6-.3-1.1-.5-2-.6-2.6v-.3c0-.2 0-.4.1-.4.1-.2.2-.4.2-.7s-.1-.7-.3-1.1l-.8-1.8-2.8 1.4c-.6.3-.8.6-.9.9 0 .3 0 .8.2 1.5 0 .1.1.3.2.7.1.4.2.8.4 1.4.2.6.3 1.2.5 1.9s.4 1.4.6 2.2c.5 1.7 1.1 3.7 1.7 5.8-1.3-1.9-2.5-3.7-3.5-5.2-.5-.7-.9-1.3-1.3-1.9-.4-.6-.8-1.2-1.2-1.7-.3-.5-.6-.9-.8-1.2-.2-.3-.3-.5-.3-.5-.3-.4-.6-.7-.9-.8-.3-.1-.6-.1-1 0l-3.3 1.6.9 1.9c.2.4.4.7.6.8.2.2.5.3.7.3.3 0 .6.3 1 .8.1.1.2.3.5.7.3.4.7 1 1.2 1.6.5.6 1 1.3 1.5 2.1s1.1 1.5 1.6 2.3c.5.7 1.1 1.4 1.5 2.1.5.7.9 1.2 1.2 1.6.4.5.8.6 1.3.4l1.4-.7 1.1 4.8c0 .2 0 .3-.1.4-.1.1-.2.2-.3.4-.4.6-.5 1.2-.1 1.9l1 2.1.6-.3 2.5-1.4zM776.2 110c.8 1.7 2 2.8 3.4 3.2 1.5.4 3 .2 4.7-.5.8-.4 1.5-.9 2-1.4.6-.6 1-1.2 1.3-1.8.3-.7.4-1.3.4-2.1s-.2-1.4-.5-2.2l-.9-1.9-2.1 1c-.6.3-1 .7-1.1 1.2-.1.5-.1 1 .2 1.5l.1.3c.2.4.2.8-.1 1.1s-.6.6-.9.8c-.2.1-.4.2-.6.2-.2.1-.4.1-.6 0-.2 0-.4-.1-.6-.3-.2-.2-.4-.4-.6-.8l-3.4-7.1c-.1-.3-.2-.5-.1-.7 0-.2.1-.4.2-.6.1-.2.3-.3.4-.5.2-.1.3-.2.5-.3.3-.1.7-.2 1.1-.2.4 0 .8.3 1 .8.2.5.6.8 1 1 .5.2 1 .2 1.6-.1l2.2-1-.8-1.7c-.3-.6-.7-1.1-1.2-1.6-.5-.4-1.2-.8-1.8-1-.7-.2-1.4-.3-2.2-.2-.8.1-1.6.3-2.4.7-1.6.8-2.8 1.9-3.3 3.3-.6 1.4-.5 3 .4 4.7l2.7 6.2zM782.5 86c.3.2.5.3.8.3.3 0 .5.2.7.4l8.3 17.2c.1.2.1.3.1.4 0 .1-.1.2-.1.3-.1.2-.2.5-.3.8 0 .3 0 .7.2 1.1l.8 1.7 6.1-2.9-.8-1.6c-.2-.4-.4-.7-.7-.9-.3-.2-.5-.3-.7-.3-.2 0-.3-.1-.4-.1-.1-.1-.2-.2-.3-.4l-9.7-20.2c-.3-.5-.7-.7-1.2-.4l-4.2 2 .8 1.8c.1.4.3.7.6.8zM799.6 98.7c.4.8.9 1.5 1.5 2.1.6.5 1.3.9 2 1.1.7.2 1.5.3 2.3.2.8-.1 1.6-.3 2.5-.7.8-.4 1.5-.8 2.1-1.4.6-.5 1-1.1 1.4-1.7.3-.6.5-1.3.5-2s-.1-1.4-.5-2.1l-1.1-2.2-2.2 1c-.6.3-.9.7-1 1.2-.1.5 0 1 .2 1.5l.2.4c.1.2 0 .5-.2.9s-.6.8-1.1 1c-.5.2-1 .3-1.4.2-.5-.1-.8-.4-1-.8l-1.5-3 5.7-2.7c1.1-.5 1.4-1.4.9-2.5l-1-2.2c-.4-.8-.9-1.5-1.5-2.1-.6-.5-1.3-.9-2-1.1-.7-.2-1.5-.3-2.3-.2-.8.1-1.6.3-2.4.7-.8.4-1.5.9-2.1 1.4-.6.6-1 1.2-1.3 1.9-.3.7-.4 1.4-.4 2.2 0 .8.3 1.6.7 2.5l3 6.4zm.8-10.1c.1-.2.3-.4.4-.6.2-.2.3-.3.4-.3.1-.1.3-.1.5-.2s.5-.1.7 0c.3.1.5.2.8.3.3.2.5.5.7.9l.6 1.3-3.4 1.6-.6-1.3c-.2-.4-.3-.8-.3-1.1s.1-.4.2-.6zM816 69.6c.2.2.5.3.8.3.3 0 .6.2.7.5l8.4 17.5c.1.2.1.4.1.5 0 .1-.1.2-.1.4-.1.2-.2.5-.3.8-.1.3 0 .7.2 1.1l.7 1.4 6.1-3-.7-1.4c-.2-.4-.4-.6-.7-.8-.3-.2-.6-.3-.8-.3-.2 0-.3-.1-.4-.1-.1-.1-.2-.2-.3-.4l-3.4-7c-.1-.2-.1-.3 0-.4.1-.1.1-.2.3-.3l3.6-1.7c.1-.1.2-.2.2-.3V76l-1-2.1c-.1-.2-.2-.3-.3-.5-.1-.1-.3-.1-.5-.1L825 75c-.2.1-.3.1-.4.1-.1 0-.2-.1-.3-.3l-3-6.2c-.1-.1-.1-.3 0-.4 0-.1.1-.3.3-.3l2.3-1.1c.2-.1.4-.2.6-.1.1 0 .3.1.4.2.2.1.5.3.9.4.4.1.8 0 1.2-.2l1.3-.6-1.7-3.6c-.1-.3-.3-.5-.6-.6-.3-.1-.5-.1-.7 0l-10.7 5.1.6 1.3c.3.4.6.7.8.9zM837.5 80.4c.4.8.9 1.5 1.5 2.1.6.5 1.3.9 2 1.1.7.2 1.5.3 2.3.2.8-.1 1.6-.3 2.5-.7.8-.4 1.5-.8 2.1-1.4.6-.5 1-1.1 1.4-1.7.3-.6.5-1.3.5-2s-.1-1.4-.5-2.1l-1.1-2.2-2.2 1c-.6.3-.9.7-1 1.2-.1.5 0 1 .2 1.5l.2.4c.1.2 0 .5-.2.9s-.6.8-1.1 1c-.5.2-1 .3-1.4.2-.5-.1-.8-.4-1-.8l-1.5-3 5.7-2.7c1.1-.5 1.4-1.4.9-2.5l-1-2.2c-.4-.8-.9-1.5-1.5-2.1-.6-.5-1.3-.9-2-1.1-.7-.2-1.5-.3-2.3-.2-.8.1-1.6.3-2.4.7-.8.4-1.5.9-2.1 1.4-.6.6-1 1.2-1.3 1.9-.3.7-.4 1.4-.4 2.2 0 .8.2 1.6.7 2.5l3 6.4zm.8-10.1c.1-.2.3-.4.4-.6.2-.2.3-.3.4-.3.1-.1.3-.1.5-.2s.5-.1.7 0c.3.1.5.2.8.3.3.2.5.5.7.9l.6 1.3-3.4 1.6-.6-1.3c-.2-.4-.3-.8-.3-1.1 0-.1.1-.4.2-.6zM850 66.3c.3.7.8 1.2 1.4 1.6.6.3 1.2.6 1.9.7.7.1 1.4.2 2.1.2.7 0 1.4 0 2.1.1.6 0 1.2.1 1.7.3.5.1.8.4 1 .8l.2.4c.2.5.2.9 0 1.3s-.6.7-1.1.9c-.5.3-1 .3-1.5.2-.5-.1-.8-.4-.9-.8-.3-.6-.7-1-1.2-1.2-.5-.2-1.1-.1-1.7.2l-1.8.8.9 1.9c.4.7.8 1.3 1.4 1.7.6.4 1.2.7 1.9.9.7.2 1.5.2 2.3 0 .8-.1 1.6-.4 2.4-.8.8-.4 1.5-.8 2-1.3.6-.5 1-1.1 1.3-1.7.3-.6.5-1.3.5-2s-.2-1.5-.6-2.2l-.5-1c-.3-.7-.8-1.2-1.4-1.6s-1.3-.6-2-.7c-.7-.1-1.4-.2-2.2-.2h-2.1c-.6 0-1.2-.1-1.7-.2s-.8-.3-1-.7c-.2-.4-.2-.7 0-1.1.2-.3.4-.6.9-.8.4-.2.8-.2 1.3-.2.5.1.8.4 1.1.9.2.5.6.7 1.1.8.5.1 1.1-.1 1.8-.4l1.6-.8-.8-1.6c-.3-.6-.7-1.1-1.2-1.6-.5-.4-1.1-.8-1.7-1-.7-.2-1.4-.3-2.1-.2-.8.1-1.5.3-2.3.7-.8.4-1.5.8-2.1 1.4-.6.5-1 1.1-1.3 1.6-.3.6-.5 1.2-.5 1.8 0 .6.1 1.2.4 1.7l.4 1.2zM862.4 52.8l.6 1.3c-.6.3-1 .7-1.1 1-.1.4 0 .9.4 1.6l.7 1.5 1.7-.8 4.7 9.8c.3.5.6 1 1.1 1.4s1 .7 1.7.8c.6.1 1.3.1 2.1-.1.7-.2 1.5-.6 2.3-1.2.4-.3.4-.8.1-1.4l-.3-.7c-.2-.3-.3-.6-.4-.7-.1-.2-.2-.3-.3-.3-.1-.1-.2-.1-.3 0-.1 0-.2.1-.4.2-.5.3-1 .4-1.3.2-.3-.2-.6-.6-.8-1l-4.2-8.7c.3-.1.6-.3.8-.5.2-.2.3-.4.4-.6.1-.2 0-.5 0-.8-.1-.3-.2-.7-.5-1.2l-.5-1.1-1.7.8-.6-1.3-1.1-2.2-1.7-3.6c-1.4.7-2.2 1.4-2.6 2.3-.4.8-.2 2 .5 3.5l.7 1.8zM861.4 50.7l-.1-.2zM873.2 51.6c.2.4.4.7.7.8.3.2.5.3.8.3.3 0 .5.2.7.4l4.3 8.9c.1.2.1.3.1.4 0 .1-.1.2-.1.3-.1.2-.2.5-.3.8 0 .3 0 .7.2 1.1l.8 1.7 6.2-3-.8-1.6c-.2-.4-.4-.7-.7-.9-.3-.2-.5-.3-.8-.3-.2 0-.3-.1-.4-.1-.1-.1-.2-.2-.3-.4l-5.8-12.1c-.1-.2-.2-.3-.3-.4-.1-.1-.3-.1-.6 0l-4.5 2.1.8 2zM872.5 45.8c.6.2 1.1.2 1.7-.1.5-.3.9-.7 1.1-1.2.2-.6.2-1.1-.1-1.7-.3-.5-.7-.9-1.2-1.1-.6-.2-1.1-.2-1.7.1-.6.3-.9.7-1.1 1.3-.2.6-.2 1.1.1 1.7.2.4.6.8 1.2 1zM882 48.3c.2.2.4.3.7.3.2 0 .3.1.4.1.1 0 .3.2.4.4.1.1.2.2.4.6.2.3.5.7.9 1.2s.8 1.1 1.3 1.7c.5.6.9 1.3 1.4 1.9 1.1 1.5 2.4 3.2 3.8 5.1.2.2.3.4.5.5.1.1.2.2.4.2.1.1.2.1.4 0 .1 0 .3-.1.5-.2l3.5-1.7c.5-.2.7-.7.6-1.5l-3.5-13.1v-.2c0-.2 0-.3.1-.4.1-.2.2-.4.2-.7 0-.3-.1-.6-.3-1.1l-.8-1.6-3.2 1.5c-.3.1-.5.4-.6.6-.1.3-.1.8.1 1.5 0 .1.1.3.2.7.1.4.3.9.5 1.5s.4 1.3.7 2c.3.8.5 1.5.8 2.3.6 1.8 1.3 3.9 2.1 6.1-1.4-2.1-2.6-3.9-3.7-5.5-.5-.7-.9-1.4-1.4-2.1-.5-.7-.9-1.3-1.2-1.8-.4-.5-.7-1-.9-1.3-.2-.3-.4-.5-.4-.6-.3-.4-.6-.6-.8-.8-.2-.2-.5-.1-.9 0l-3.4 1.6.9 1.8c-.1.5.1.8.3 1zM898 42.5l.4.9 2-1c.6-.3.9-.6 1.1-1 .1-.4.1-.6 0-.9-.1-.2-.1-.4-.1-.6.1-.2.2-.4.3-.5.1-.2.3-.3.4-.4.2-.1.3-.2.5-.3.2-.1.3-.1.5-.2s.4-.1.6-.1c.2 0 .4 0 .6.1.2.1.3.3.4.5l.4.8c0 .2-.1.4-.2.6-.1.2-.3.4-.5.7s-.5.6-.8 1c-.3.4-.8.8-1.2 1.2-.5.5-.9 1-1.2 1.6s-.6 1.3-.7 2c-.1.7.1 1.6.5 2.4l.1.3c.3.7.7 1.3 1.2 1.9s1 1 1.7 1.3c.6.3 1.4.4 2.2.4.8 0 1.7-.3 2.7-.8.2-.1.5-.2.7-.4.2-.2.5-.3.7-.6.2-.2.4-.4.5-.6.1-.2.2-.5.2-.7.1.2.3.3.6.4.3.1.5.1.8 0l3.3-1.6-.8-1.6c-.2-.4-.5-.7-.8-1s-.6-.4-.9-.4c-.1 0-.2-.1-.3-.2s-.2-.3-.2-.5l-3.9-8.2c-.6-1.4-1.6-2.2-2.9-2.6-1.3-.4-2.8-.1-4.8.8-1 .5-1.7 1-2.3 1.5-.6.5-1 1.1-1.2 1.7-.2.6-.3 1.2-.3 1.9.2 1 .4 1.6.7 2.2zm8 1.5c.1-.2.3-.3.4-.5l.4-.5 2.6 5.3c-.1.2-.2.3-.3.5-.3.3-.6.6-1 .8-.5.2-1 .3-1.4.1-.5-.2-.8-.6-1.2-1.2l-.4-.8c-.4-.8-.4-1.4-.2-1.9s.5-1 .8-1.3c0-.1.2-.3.3-.5zM908.1 25.6c.3.2.5.3.8.3.3 0 .5.2.7.4l8.3 17.2c.1.2.1.3.1.4 0 .1-.1.2-.1.3-.1.2-.2.5-.3.8 0 .3 0 .7.2 1.1l.8 1.7 6.1-2.9-.8-1.6c-.2-.4-.4-.7-.7-.9-.3-.2-.5-.3-.7-.3-.2 0-.3-.1-.4-.1-.1-.1-.2-.2-.3-.4L912 21.4c-.3-.5-.7-.7-1.2-.4l-4.2 2 .8 1.8c.2.4.4.6.7.8z"/><g><path class="st0" d="M797.5 255.1c.1-.2-.1-.3-.3-.4-.3-.1-.6-.1-.8.3-.1.2 0 .3.2.4.4 0 .7-.1.9-.3zM797.6 266c.1-.2.4-.3.3-.6-.1-.2-.3-.1-.4 0-.2.2-.3.3-.2.6 0 .3.1.2.3 0zM797.2 265c0 .1 0 .2.2.3.1 0 .2-.1.3-.2v-.2c-.4-.1-.5 0-.5.1zM796.4 265.4c0 .2.2.3.3.4.1 0 .2 0 .2-.1 0-.2-.1-.3-.3-.4-.1 0-.2 0-.2.1zM790.7 174.6v-.2c-.1-.1-.2-.1-.3.1 0 .1.1.2.1.2 0-.1.1-.1.2-.1zM827 160.4c-.4.6-.2.8.1.8.8 0 1.5-.2 2.2-.5.1 0 .1-.1.2-.1-.7-.3-1.4-.5-2.2-.8-.2.2-.3.4-.3.6zM822.4 157.9h-.1.1zM839.6 244.2c.2.1.3.1.4-.1 0-.4-.3-.5-.6-.6-.2-.1-.5-.1-.5.2 0 .3.4.3.7.5zM797.1 250.9c.1-.1.1-.1.1-.2-.2.1-.4.2-.5.4.1 0 .2-.1.4-.2zM843.2 225.5c0-.2-.1-.4-.3-.4-.1 0-.2.1-.2.3 0 .2.1.4.3.4.2-.1.2-.2.2-.3zM839.4 229c.5-.1.4-.5.3-.9 0-.1 0-.2-.1-.2l-.6.9c.1.1.2.2.4.2zM842.1 230.2c.3.1.5-.1.6-.3.2-.4.3-.8.4-1.3 0-.1 0-.3-.1-.4-.1-.1-.3 0-.3.1-.1.2-.3.5-.4.7-.1.2-.2.3-.3.5 0 .2-.3.5.1.7zM853.3 165.6c0-.1.1-.1 0-.2l-.5.3c.2.1.4 0 .5-.1zM841.6 230.6c0-.3-.1-.6-.4-.6-.3-.1-.5.1-.5.3-.2.6-.6.9-1.1 1.2-.3.1-.5.3-.3.6s.5.2.7.2c.9-.2 1.6-.9 1.6-1.7zM840 229.4c0-.1-.1-.2-.1-.3-.1-.1-.2-.1-.3.1 0 .1 0 .3.1.3s.3 0 .3-.1zM951 125.1c.1-.2 0-.5-.2-.5-.4-.1-.7.1-.9.5-.1.2 0 .4.2.5.5 0 .8-.2.9-.5zM923.9 136.5c.1 0 .1 0 0 0 .1 0 .1 0 0 0 .1 0 .1 0 0 0zM923 134.1c-.4-.1-.2.4-.1.6.6.5.9 1.1 1 1.8.4-.3 1.1-.5.8-1.2-.3-.6-1-1.1-1.7-1.2zM939.1 130.2c.3-.2.2-.5.1-.7-.2-.3-.6-.5-.9-.2-.2.1-.2.4-.1.6.2.2.5.6.9.3z"/><path class="st0" d="M922.9 137.1c0 .1.1.2.2.2.6.1.7-.3.8-.8h-.1c-.3.1-.8.1-.9.6zM926 136.5c-.1 0-.3.1-.3.2-.3.7-.7 1.4-1.1 2-.1.2-.1.6.1.8.3.2.5-.1.7-.3.6-.7.8-1.5.9-2.5-.1 0-.1-.2-.3-.2zM900.5 144.3c.4-.2.4-.5.4-.9-.1-.3-.2-.4-.5-.3-.3.2-.5.5-.4.9 0 .3.2.3.5.3zM925.4 139.4c.1.1.2.2.3.1l.1-.2c-.1-.1-.2-.2-.3-.1-.1.1-.1.2-.1.2zM959.3 115.2c-.1.1 0 .3.1.2.1 0 .2-.1.2-.2s-.1-.1-.1-.2c0 .1-.1.2-.2.2zM956.9 116.7c-.1 0-.2 0-.2.1-.1.2-.1.3 0 .5 0 0 .2 0 .2-.1.1-.2.1-.4 0-.5zM956.1 117.3c.1-.1.1-.2 0-.3-.1-.1-.2-.1-.4.1 0 0 0 .1.1.2s.3.1.3 0zM879.2 153.2h.2c.1-.1.1-.1 0-.2l-.2.2c0-.1 0 0 0 0zM954.6 119.1c-.1.4-.7.9.1 1.2.6.2.8-.5 1-.9.2-.5.4-1.1-.2-1.3-.9-.2-.7.6-.9 1zM878.7 216.8c.1-.1.1-.3.1-.3-.1-.1-.2 0-.3.1-.1.1-.1.3 0 .3.1-.1.2-.1.2-.1zM913.7 140.6v-.2h-.2v.2h.2zM941 131c.3.1.5.6.8.1.2-.3-.1-.5-.3-.7-.2-.3-.6-.4-.9-.6-.4-.1-.6-.1-.7.4 0 .3-.2.8.5.7.1.1.4.1.6.1zM976.5 114.5c.1-.3-.1-.6-.5-.7-.4-.1-.6.1-.7.5-.2.7.2 1.6-.8 2v.1c.2.1.3.2.5.4l1.8-.9s0-.1-.1-.1c-.5-.3-.4-.8-.2-1.3zM962 115.3c.3-.1.6-.3.2-.5-.4-.3-.8-.5-1.1-.7l-.8.4c.4.4 1.3.9 1.7.8zM1022.8 87.9c-.3.2-.2.3-.1.5.2.3.5.6.9.4.3-.1.3-.3.1-.5-.3-.3-.6-.4-.9-.4zM981.6 110.9c-.1-.1-.2-.1-.3-.1-.1.1-.2.2-.1.3.1.1.2.1.3.1.1 0 .2-.1.1-.3zM973.1 136.6c.9-.2 1.5-.8 2.2-1.4 0 0 .1-.2-.1-.3-.1-.1-.3-.1-.4 0-.7.4-1.4.6-2.1.9-.2.1-.5.4-.4.7.2.3.5.2.8.1zM1006.2 125.6c0 .2 0 .4.2.4.1 0 .3 0 .3-.2 0-.1 0-.3-.2-.4-.2-.1-.3 0-.3.2zM1007.1 124.6c0-.4-.3-.5-.5-.7-.1-.1-.3-.3-.4-.1-.1.3.2.5.4.7.2.2.4.3.5.1zM1006.7 70s0 .2.1.3c.1.1.3.1.4 0 .1-.1 0-.3-.1-.3-.1-.1-.3-.2-.4 0zM987.7 83.2c-.4 0-.6.2-.7.5.4.1.7.3 1.1.4V84c.1-.3.1-.8-.4-.8zM945 110.3c.1-.1.3-.1.4-.2-.1 0-.2-.1-.2-.1-.2.1-.3.2-.2.3zM881.8 186.4c-.2-.1-.4-.1-.5.2v.4c.2-.1.5-.2.7-.3 0-.1-.1-.2-.2-.3zM973.6 133.7s0-.1 0 0c0-.1 0-.1 0 0 0-.1 0-.1 0 0zM989.8 78.2c-.3.2-.3.5-.1.8.2.3.2.9.6 1 .3 0 .2-.6.4-.9.7-1.5.1-2.7-1.5-3-.1 0-.3-.1-.3.1 0 .1.1.3.1.3.2.3.5.5.8.8.2.3.4.6 0 .9zM1002.7 76.9c.3-.2.5-.4.3-.8-.2-.2-.5-.3-.7-.1-.3.2-.5.5-.3.8.1.3.4.2.7.1zM954.2 101.9c-.2 0-.2.2-.2.4s.1.4.3.4c.2-.1.2-.3.2-.4 0-.2-.1-.4-.3-.4zM900.9 167.6c0 .1 0 .2.2.3.1 0 .3 0 .3-.1s0-.3-.1-.3c-.2-.2-.4-.1-.4.1zM899.7 166.4c.7-.2 1.4-.2 1.5.8h.1c.3-.1.4-.4.4-.6 0-.9 0-1.8.3-2.7-.7.3-1.5.6-2.2.9-.3.3-.1 1-.3 1.4.1 0 .2.2.2.2zM901.6 173.7c.3 0 .6 0 1-.1.6-.1.7-.6.8-1.2 0-.2-.2-.5-.4-.4-.6.2-1.2-.1-1.7.2-.6.3-1.7.6-1.6 1.3.3.6 1.3.1 1.9.2zM883.4 171.7c.2-.1.5-.2.6-.4-.3.1-.6.3-.9.4h.3zM904.1 165.9c.2 0 .2-.3.2-.5-.1-.4-.3-.6-.8-.7-.2 0-.3.2-.2.4.2.3.3.8.8.8zM826.6 164.5c.1 0 .2-.2.1-.4 0-.1-.1-.2-.3-.2-.2 0-.2.2-.1.3 0 .1.1.3.3.3zM886.7 179.8c-.1.1 0 .3.1.3.1.1.2.1.4 0 .1-.1 0-.2-.1-.3-.1-.1-.3-.1-.4 0zM964.4 134.3c.5-.5.9-1.1 1.4-1.7 0 0 0-.1.1-.1l-1.8.6c-.2.4-.3.8-.3 1 .1.3.3.4.6.2zM972.4 133.5v.2c.4.4.8.2 1.1-.1h-.1c-.3-.1-.6-.5-1-.1zM904.5 170.4c.3-.1.2-.4.2-.7-.1-.3-.1-.6-.4-.6-.3.2-.3.5-.2.7 0 .3.1.7.4.6zM974.9 133.2c.1-.7-.1-1.5-.7-2-.3-.3-.4.2-.4.4.1.7.1 1.4-.3 2.1.6-.1 1.3.2 1.4-.5zM937.3 152.4c.1 0 .2 0 .3-.2 0-.2 0-.3-.2-.3-.1.2-.1.4-.1.5-.1 0-.1 0 0 0zM909.7 193.5c-.3.2-.1.5-.1.7.2.3.4.5.7.4.3-.1.3-.4.2-.7-.2-.3-.4-.6-.8-.4zM937.8 156.6c1 1.4 1.2.2 1.6-.4.2-.3.3-.6.6-1.2 0-.1.2-.3.3-.5.3-.5 0-.9-.4-1.2-.4-.4-.8-.3-1.1 0-.8.9-1.8 1.5-2.7 2.2-.4 1.4-.7 2.9-1 4.5l.9-.6c.3-.8.6-1.7.6-2.6.1-.5.9-.8 1.2-.2zM817 203.5c.1-.1.1-.2.1-.3l-.6.3c.2.2.3.2.5 0zM804 218.6c-.1.2-.4.4-.3.7 0 .2.3.2.4.1.3-.2.3-.4.2-.7 0-.1-.2-.1-.3-.1zM801 194.9c.1-.1.2-.2.2-.3 0-.2-.2-.1-.3-.1-.4 0-.7.1-.9.2.1.3.2.6.3.8.2-.2.5-.4.7-.6zM806.2 222.6c.3.3.6.3.8 0 .4-.3.1-.5-.2-.7-.4-.2-.7-.6-.4-1 .6-.8 0-.6-.5-.6-1.2.1-1.3.3-.6 1.3.3.4.6.7.9 1zM815.1 204.4c-.2.3 0 .6.1.8.1.2.3.3.6.2.2-.3 0-.6-.2-.8-.1-.2-.3-.4-.5-.2zM920.4 45.2c0 .2 0 .5.1.6.1.1.2.1.3-.1.1-.2 0-.4-.1-.6-.1 0-.3 0-.3.1zM796.4 180.6c-.2-.1-.4-.1-.6.1-.2.3 0 .5.2.7.2.1.4.1.6-.1.2-.3.1-.5-.2-.7zM808.2 208.9s.1 0 0 0c.1-.1.1-.2 0-.2-.1.1-.2.1-.2.2h.2zM846.5 175.6c.3-.6.5-1.2.4-1.9-.1-.2-.4-.3-.5-.2-.5.6-.3 1.2-.3 1.9.1.3.3.4.4.2zM817.5 186.2c.4-.4-.5-.4-.7-.7-.1-.2-.3-.4-.5-.5-.5-.2-1-.1-1.3.3 0 .1-.1.1-.1.2 0 .5.1 1 .6 1.1.8.2 1.6 0 2-.4zM834.8 181c.1-.1 0-.2-.1-.3-.1 0-.2-.1-.2 0-.1.1-.1.2 0 .3.1.1.2.1.3 0zM819.5 218.6s0 .1 0 0h.2-.2zM816.6 216.7c-.2 0-.2.1-.2.3.2.3.5.4.8.4.2 0 .3-.2.2-.4-.2-.3-.5-.4-.8-.3zM810.8 189.1c0-.1-.1-.2-.1-.2-.2 0-.2.1-.2.2s.1.2.1.2c.2.1.2-.1.2-.2zM814.6 186.9c.2-.4 0-.7-.4-.8-.2-.1-.5-.2-.5.1 0 .4.3.6.5.9.1 0 .3 0 .4-.2zM825.9 210.6c-.1.3-.1.5.1.7.2.1.3 0 .3-.1.1-.2.1-.4-.1-.6-.1-.1-.2-.1-.3 0zM830.8 210.9c.1 0 .2-.1.2-.1 0-.1 0-.1-.1-.2-.1 0-.2 0-.2.1 0 0 .1.1.1.2zM827.5 212.8c-.1.1-.1.2 0 .3.2.1.3.1.5-.1.1-.1.1-.2 0-.3-.2-.1-.4-.1-.5.1zM826.5 207h-.2v.2c.1 0 .2 0 .2-.1v-.1zM830.5 165.2c.6-.3.7-.8.5-1.5-.2-.5-.5-1-.7-1.6-.1-.4-.5-.5-.9-.3s-.7.6-.3 1c.5.6 1 1.1.7 2-.1.4.3.6.7.4zM835.5 203.2c-.1.1-.2.2-.1.3.1.1.2 0 .4 0 .1 0 .1-.2.1-.2-.1-.1-.3-.1-.4-.1zM847.3 172.1c.1-.1.2-.2.1-.3h-.2c-.1.1-.2.1-.2.3.1.1.2.1.3 0zM820.7 207.3c-.1 0-.1-.1-.2-.1-.2 0-.2.1-.2.3 0 .1.1.2.2.1.1 0 .2-.2.2-.3zM841.9 199.4c-.1.2.1.3.1.4.2.1.4.1.4 0 .1-.2-.1-.3-.2-.4-.1-.1-.3-.1-.3 0zM822.8 206.6c-.1 0-.2 0-.2.1-.1.1 0 .2.1.3.1 0 .1 0 .2-.1 0-.1 0-.2-.1-.3zM821.5 206.2c.1 0 .2.1.3.1l.2-.2c-.1 0-.3-.1-.4-.1 0 .1 0 .2-.1.2zM820.9 217.3c.3-.1.5-.3.4-.6-.1-.2-.3-.2-.5-.1s-.4.2-.4.5c.1.2.3.2.5.2zM880.4 161.7c-.1-.3-.3-.4-.6-.5-.1 0-.3.1-.2.2.1.3.3.4.6.4h.1l.1-.1c0 .2.1.1 0 0zM824.5 205.1c.1 0 .1-.1.2-.1 0-.1 0-.3-.1-.3s-.2 0-.2.1c-.1.1-.1.2.1.3zM823.1 213.2v.2c.1 0 .2 0 .3.1v-.2c-.1-.1-.2-.2-.3-.1zM823.5 210.6c-.1-.3-.2-.5-.6-.5-.3.2-.1.4 0 .6.1.2.1.5.4.4.2-.1.2-.3.2-.5zM873.9 160c-.1.1-.2.2-.1.3.1.2.3.3.6.2.2-.1.3-.2.2-.4-.2-.1-.5-.2-.7-.1zM856.1 168.3c.1 0 .2-.2.1-.3 0-.1-.1-.2-.3-.2-.1.1-.2.2-.1.3.1.1.2.2.3.2zM869.6 189.3c0 .1.1.1.2.2.1 0 .3 0 .3-.2 0-.1-.1-.1-.2-.2-.1 0-.3 0-.3.2zM873.5 182c-.1.2-.3.4-.2.7.1.2.3.1.4-.1.2-.2.3-.5.1-.7 0-.2-.2-.1-.3.1zM856 144.1c0 .1.1.1.1.2h.2c0-.1 0-.2-.1-.2 0-.2-.2-.2-.2 0zM848.5 172.8c-.1-.3-.3-.2-.4-.1-.2.2-.5.3-.3.7.1.2.3.2.5.1.3-.2.3-.4.2-.7zM874.5 180.9c-.1-.2-.2-.4-.5-.4-.2 0-.3.2-.3.4.1.3.2.5.6.4.2 0 .2-.2.2-.4zM881.2 179.3c.2-.1.5-.2.6-.4-.1-.3-.3-.3-.5-.2-.3.1-.7.1-.6.5 0 .3.3.2.5.1zM889.3 125.8c1.6.8-.1.7-.3.9-1.1.8-1.9 1.9-2.6 3.1-.1.2-.1.3-.1.3 0-.1-.1-.2-.1-.3-.1-.3-.3-.8-.7-.7-.5.2-.2.7-.1 1.1.1.3.2.8.7.6.3-.1.3-.4.2-.6 0 .2.4.1.6.1.7.7.9.1 1.3-.4.6-1 1.4-1.7 2.7-1.8.8-.1 1.1-.8.9-1.4-.8-.5-1.7-.9-2.5-1.3-.1.1-.2.4 0 .4zM854.7 171.1c.4 0 .9-.1 1.3-.1.3 0 .5-.2.5-.6-.1-.4-.4-.2-.7-.1-.2.1-.3.1-.5.2-.3.1-.5.1-.8.2-.1 0-.2.2-.2.3.1.1.3.1.4.1zM879 179.5c.2 0 .5-.1.3-.3-.2-.4-.6-.4-.9-.3-.2 0-.4.2-.3.4.1.4.6.2.9.2zM882.4 185.5c.1.1.3 0 .4.1.4-.1.5-.4.5-.7.2-1.1-.5-1.8-1.2-2.4-.2-.2-.5-.7-.8-.3-.3.3.1.6.3.8.3.4.8.9.3 1.4-.4.4-1.1.6-.8 1.2.2.5.8-.4 1.3-.1zM861.3 171l.2-.1c-.1 0-.2 0-.2.1zM877.9 180.8c.1.3.3.6.7.5.2 0 .3-.2.3-.4-.1-.3-.4-.5-.7-.5-.2 0-.3.2-.3.4zM855.8 164.7c-.1 0-.3.1-.3.1-.1.1-.1.3.1.3.1 0 .2-.1.3-.1.1-.1.1-.2-.1-.3zM879.8 140.4c0 .2.2.2.3.1 0 0 .1-.2 0-.2 0 0-.1-.1-.2-.1-.1.1-.1.2-.1.2zM865.2 136.5c0-.1-.1-.3-.2-.3-.2 0-.2.2-.2.3 0 .1.1.3.2.3.2 0 .2-.2.2-.3zM880.4 138.3c-.2-.4-.5-.5-.8-.4-.3.2-.5.3-.4.6.2.4.6.4.9.3.3-.1.4-.3.3-.5zM868 147c.2-.4.6-.7.4-1.2-.1-.2-.4-.2-.6 0-.3.3-.6.7-.4 1.2.3.1.5.1.6 0zM847.9 174.8h.1c.1 0 .1-.1 0-.2h-.2c.1.1.1.1.1.2zM890.8 134.4c-.1.1-.1.2-.1.3.1-.1.3-.2.4-.2-.1-.2-.2-.2-.3-.1zM863 133.5c0-.2-.1-.2-.2-.3-.1 0-.3 0-.3.2 0 .1.2.2.3.2l.2-.1z"/><path class="st0" d="M880.1 140.6c-.3-.1-.5.1-.7.3-.1.2-.1.4 0 .5l.9-.6c.1 0 0-.1-.2-.2zM889.5 132.2zM894.5 129.3c.2 0 .3-.2.2-.4-.1-.3-.4-.4-.6-.5-.4-.1-.8-.3-1.2-.4-.3-.1-.8-.7-1-.2-.2.5-.1 1.1.5 1.4.7.4 1.4 0 2.1.1zM889.4 133c.3 0 .3-.2.2-.5 0-.1-.1-.2-.1-.4-.1.1-.2.2-.3.4 0 .2 0 .5.2.5zM890.8 132.1c.4-.3.6-.7.4-1.1-.2-.5-.5-.2-.7 0-.1-.1-.1-.1-.3-.1-.3.1-.4.2-.4.4-.3.1-.5.3-.3.7.5.3.9.4 1.3.1zM885.6 134.8c.2-.1.4-.4.1-.5-.3-.2-.6.1-.8.3-.1.1-.3.2-.1.4.3.1.5 0 .8-.2zM888.4 134.3c.1-.3.1-.4-.1-.6-.2-.1-.3-.1-.5 0s-.3.2-.4.3c-.5.5-1.1.8-1.3 1.6 0 0 .2.1.3.1.9-.2 1.5-.7 2-1.4zM884.2 179.6c.2 0 .3-.2.3-.4-.1-.4-.4-.4-.8-.3-.2 0-.3.1-.3.4.2.3.5.4.8.3zM655.6 337.2c0 .1.1.1.1.2h.2c0-.1 0-.2-.1-.2 0-.2-.1-.2-.2 0zM914 35c.3 0 .5-.1.6-.4.1-.1 0-.3-.2-.3-.3 0-.5.1-.6.4-.1.1 0 .2.2.3zM657.7 313.6c0 .1 0 .3.2.3s.3-.1.3-.2 0-.3-.3-.3c-.1-.1-.2 0-.2.2zM746.6 267.6c.2-.2.1-.3-.1-.4-.3-.1-.5-.1-.7.1-.1.1-.1.3.1.3.2.2.5.2.7 0zM702.7 310.3c.7.8.6.2.7-.3.2-1.2.1-1.3-1.1-.9-.4.2-.7.3-1.1.5-.4.2-.4.5-.3.8.2.4.5.3.8.1.3-.4.7-.7 1-.2zM752.2 261.6c.3.1.4.5.6.2.1-.1.1-.3.1-.5-.1-.5-.2-1-.7-1.3-.3-.2-.7-.3-1 0-.4.4 0 .7.2.9.3.3.6.6.8.7zM646.8 352.2c.1 0 .1-.1.2-.2 0-.1-.1-.2-.1-.2-.1 0-.2 0-.2.1-.1.2 0 .3.1.3zM749.5 233.2c-.2 0-.3.1-.4.2 0 .2.1.2.3.2.1 0 .2-.1.3-.2 0-.1-.1-.2-.2-.2zM626.7 354.3c.8 0 1.5-.2 2.2-.5.3-.1.4-.4.3-.7-.1-.3-.4-.2-.6-.2-.2.1-.5.1-.7 0-1-.6-1.2 0-1.4.5-.3.7-.1.9.2.9zM632.2 359.7c-.3.1-.4.4-.4.8 0 .3.3.3.5.3.3-.1.5-.3.5-.7-.1-.4-.3-.5-.6-.4zM630.1 358.2c.6-.3.7-.8.5-1.5-.2-.5-.5-1-.7-1.6-.1-.4-.5-.5-.9-.3s-.7.6-.3 1c.5.6 1 1.1.7 2-.1.5.4.6.7.4zM634.8 354.7c-.1.1-.1.2 0 .3.3.1.5-.1.7-.2.1-.1.2-.3 0-.4-.3-.1-.5.1-.7.3zM639.5 348.6s-.1.1 0 0c-.1.1-.1.1 0 0 0 .1 0 0 0 0zM642.3 346.2c.1-.1.2-.3.2-.4l-.4.4h.2zM642 350.5c-.1.1-.1.2.1.3.1.1.3 0 .3-.1v-.2h-.4zM644 346.8c.1 0 .2.1.2 0 .1 0 .2-.1.1-.3-.1-.1-.2-.1-.4-.1 0 .2-.1.3.1.4zM699.9 310.6c0 .1 0 .3.1.3.1.1.2 0 .3-.2 0-.1 0-.3-.1-.3-.2 0-.3.1-.3.2zM719.5 226.9c-.1.2-.1.3.1.4.2.1.4 0 .6-.2.1-.1 0-.3-.1-.3-.2-.2-.5-.1-.6.1zM688.9 263.5c.6.1 1.3-.4 1.7-.9.3-.4.1-.9-.3-1.2 0 0-.1 0-.2-.1-.5-.1-.9.1-1.2.6-.1.2-.1.5 0 .7.1.3-.6.8 0 .9zM717.9 247.5c0-.2 0-.4-.2-.4s-.4.1-.5.3c-.1.2-.1.4.1.4.3.2.5 0 .6-.3zM710.3 247.8c-.3-.4-.6.1-.9.3-.8.6-1.5 1.2-1.4 2.3 0 .3 0 .7.4.8h.4c.5-.2 1 .8 1.4.2.3-.5-.3-.9-.7-1.3-.5-.5 0-1 .4-1.4.3-.3.7-.6.4-.9zM697 261c0 .2.2.3.4.3.3 0 .4-.2.4-.5 0-.2-.2-.3-.4-.3-.3.1-.5.2-.4.5zM691.4 261.2c-.2.4-.2.7.2.9.2.1.3.1.5-.2 0-.3.1-.7-.2-1-.2-.2-.4.1-.5.3zM703.9 251.8s.1 0 0 0c.1 0 0 0 0 0zM694.9 316c0-.2-.1-.3-.2-.3-.2 0-.5 0-.5.3-.1.2.1.2.2.2.2 0 .4 0 .5-.2zM695.3 310.1c.1-.1.1-.3 0-.5-.1-.1-.2-.2-.3-.1-.1.2 0 .3 0 .5.1.2.2.3.3.1zM695.3 317.4c.5-.2.9-.6.8-1.2-.1-.4-.5-.1-.8-.1-.4.2-1 .3-.9 1 .1.4.6.5.9.3zM721.4 249.8c0-.1 0-.3-.1-.3-.2-.1-.3.1-.3.3 0 .1 0 .3.2.3.1.1.2-.1.2-.3zM692 322.2c.7.4 1.4.1 2.1.1.2 0 .3-.2.2-.4-.1-.3-.4-.4-.6-.5-.4-.1-.8-.3-1.2-.4-.3-.1-.8-.7-1-.2-.2.5 0 1.1.5 1.4zM711.3 253.2c.2-.1.2-.5.2-.8.1-.3.1-.7-.2-.8-.4-.2-.5.2-.7.5-.4.5-.7 1-1.1 1.5-.2.7-.1 1.3 0 1.9.1.3.1.8.6.8.4-.1.5-.6.5-.9-.2-.9-.3-1.7.7-2.2zM720 238.3c0 .2 0 .5.1.6.1.1.2.1.3-.1.1-.2 0-.4-.1-.6-.1-.1-.3-.1-.3.1zM906 205.1c.3-.6 1.1-1 .9-1.7-.1-.5-.9-.6-1.3-.3-.6.6.3 1.3-.1 1.8.2.3.4.3.5.2zM904.7 213.5c.2 0 .2-.1.2-.3l-.3-.3c-.1-.1-.3.1-.2.2 0 .3.2.4.3.4zM939.2 195.9c-.1-.2-.2-.3-.4-.3-.3-.1-.6.1-.7.3-.3.6-.7 1.3-.9 1.9v.2c.7-.7 1.4-1.3 2-2.1zM916.3 210.3c-.1 0-.1.1-.1.1.1 0 .1-.1.2-.1 0 .1 0 0-.1 0zM908 210c-.4 0-.9.1-.9.6 0 .4.4.5.7.4.4-.1.8-.1.9-.7 0-.3-.4-.3-.7-.3zM887.5 184.5c.2-.1.5-.2.7-.3h-.4c-.1 0-.3.1-.3.3zM909.6 192c-.1.1.2.2.4.1.5-.4.6-.9.3-1.4 0 0 0-.1-.1-.1l-.7.7c.1.2.2.5.1.7zM974.9 180.2v.2c.1.1.2.1.3 0v-.2c-.1-.1-.2-.1-.3 0zM937 158.8c.3-.2.5-.3.8-.5-.4 0-.6.2-.8.5zM853.4 239.8c-.3-.1-.7-.2-.9.1-.1.1 0 .2 0 .3.4-.1.7-.2.9-.4.1 0 .1 0 0 0zM971.6 169.8c.1 0 .2-.1.2-.2l-.2-.2c-.1 0-.2.1-.2.2s.1.2.2.2zM945.3 186.4c-.2.1-.2.3-.2.4.1.1.2.2.3.1.1-.2.1-.3.2-.5-.1 0-.2-.1-.3 0zM944.3 189c0 .1-.1.1-.1.2.1-.1.1-.2.1-.2zM939.9 195.2l.2-.2c-.1 0-.2.1-.2.2zM627.9 291.2c-.2 0-.3.1-.2.2.1.2.3.3.5.4.1.1.2-.1.2-.2-.1-.3-.2-.4-.5-.4zM625.4 277.1c-.1.1-.1.3 0 .4.1.1.2.1.3 0 .1-.1.2-.2.1-.4-.1-.1-.3-.2-.4 0zM628.5 307.9v-.4.4zM823.9 238.8c0-.1 0-.1 0 0 0-.1 0-.1 0 0zM627.9 320.5v.5-.5c.1 0 0 0 0 0zM627.2 302.7c0 .2.3.3.4.2.4-.1.4-.4.4-.8-.1-.2-.2-.3-.4-.2-.3.2-.5.5-.4.8zM627.6 325.1c-.1.3 0 .4.1.6v-.7c0 .1-.1.1-.1.1zM626.1 356.9c-.2 0-.2.2-.1.3.1.2.2.3.3.3.1 0 .2-.2.1-.4-.1 0-.2-.2-.3-.2zM626.6 300.7c-.3.2-.7.4-.6.8 0 .2.3.1.4.1.3-.2.7-.2.6-.7 0-.3-.2-.3-.4-.2zM788.5 182.5c.1-.1.2-.3.1-.5-.1-.1-.2-.1-.4 0-.1.1-.1.2-.1.4.1.1.2.1.4.1zM783.3 181.2c-.1-.1-.2-.1-.4-.1-.1.1-.3.2-.2.4.1 0 .3.1.4.1.2 0 .3-.2.2-.4zM626.2 308.6c.1-.1.2-.1.3-.2.3-.5 1.3 0 1.2-.7-.1-.6-.8-.5-1.3-.6-.7-.2-.6-.8-.5-1.3 0-.3.2-.7-.2-.8-.5-.1-.5.4-.5.7-.3.9-.5 1.8.2 2.7.3.1.4.4.8.2zM788.8 269.2c-.1 0-.3-.1-.3.1 0 .1.1.3.1.3.2.3.5.5.8.8.3.3.5.6.1.9-.3.2-.3.5-.1.8 0 0 0 .1.1.1.4-.2.8-.4 1.1-.5.2-1.3-.4-2.2-1.8-2.5zM655.2 351.9c-.1.1-.2.2-.1.4.1-.1.2-.3.3-.4-.1-.1-.2 0-.2 0zM687.4 326.8s0 .1 0 0c.1.1.4.2.6.2 0-.1 0-.2-.1-.2-.1-.1-.3-.1-.5 0zM652.1 345.9c-.1.1-.2.2-.1.3.1.2.2.3.4.2.1 0 .2-.2.2-.2-.2-.3-.3-.4-.5-.3zM737.3 298.2c.2 0 .2-.1.2-.3 0-.1-.2-.2-.2-.2-.3 0-.3.2-.3.3 0 .2.1.2.3.2zM739.9 298.2c0 .2.1.3.2.3.2 0 .3 0 .2-.2 0-.1-.1-.2-.2-.2 0 0-.2 0-.2.1zM736.4 301.1c-.1.4.2.6.6.8.2.1.5.1.5-.2.1-.4-.1-.7-.4-.9-.3 0-.6 0-.7.3zM743.8 278.1c0 .1.1.2.2.2.2.1.3 0 .3-.2 0-.1-.1-.3-.2-.3-.3 0-.3.1-.3.3zM744.7 270.3c0 .1.1.1.1.2.1 0 .1-.1.2-.1 0-.1-.1-.2-.1-.2-.1 0-.1.1-.2.1zM747.2 260.8c0 .2.1.2.3.2.1 0 .2-.1.2-.2 0-.2-.2-.2-.3-.2-.1 0-.2.1-.2.2zM747.2 259.3c.3-.3-.1-.7-.2-1.1-.1.3-.2.6-.4.9.3.2.4.3.6.2zM748.3 257.3c0 .2-.1.5.1.6.2.1.3-.1.4-.3.1-.2.1-.5-.1-.6-.3-.1-.4.1-.4.3zM719.6 317.7c0 .1.2.1.2.1.1 0 .2-.2.1-.3 0-.1-.2-.1-.2-.1-.2 0-.2.1-.1.3zM717.5 303c-.1.1 0 .2.2.2.1 0 .1-.1.2-.1 0-.1-.1-.2-.1-.2-.1 0-.3.1-.3.1zM713.9 315.3c.9-.2 1.6.8 2.6.6.1 0 .2-.1.2-.2s-.1-.3-.2-.3c-.7-.3-1.2-.6-1-1.5.1-.2-.1-.4-.3-.4-.6 0-.8-.4-1-.9-.1-.3-.4-.5-.8-.3-.3.2-.4.5-.3.8.3.7 1.1 1.2.6 2.1.1 0 .2.1.2.1zM722.6 300.8c.1.2.3.2.5.1.1-.1.3-.1.2-.3-.1-.1-.3-.2-.5-.2s-.4.2-.2.4zM734.6 305.8c-.1.1 0 .3.1.3s.2-.1.3-.1c0-.2 0-.3-.1-.3-.1-.1-.2 0-.3.1zM728.3 296.5c.5-.1.5-.7.5-1.1 0-.3-.3-.5-.6-.4-.5.1-.4.6-.4 1 .1.2.2.6.5.5zM709.4 323.3c-.1.1 0 .3.1.3.1.1.3 0 .3-.2.1-.1 0-.3-.1-.3s-.2.1-.3.2zM735.9 303.3c.1 0 .2-.1.2-.2s-.1-.1-.1-.2c-.1 0-.2 0-.2.1-.2.2-.1.3.1.3zM814.5 123.8c.2 0 .2-.2.1-.3-.1-.2-.4-.2-.6-.2-.2 0-.2.2-.1.3.2.2.4.3.6.2zM811.6 144.2c.2-.2.4-.4.2-.7-.2-.2-.4-.1-.6 0-.2.2-.4.4-.2.7.1.3.4.2.6 0zM753.3 256.9c-.1 0-.1.1-.1.2s.1.1.1.2c.1 0 .2-.1.2-.1.1-.2 0-.3-.2-.3zM860.5 74.6c.2-.1.4-.2.3-.5-.1-.3-.3-.5-.7-.5-.3.1-.4.3-.3.6 0 .4.3.5.7.4zM893.8 56.8c0 .2.1.4.3.5.1.1.3 0 .3-.2 0-.3-.2-.4-.4-.5 0-.1-.1 0-.2.2zM810.8 138.6c-.3.3-.5.6-.2.9.3.5.7.3 1.1.1.4-.2.4-.5.3-.9-.4-.4-.8-.4-1.2-.1zM877.1 47.4c-.1 0-.2 0-.3.1l.1.1c.1 0 .2 0 .2-.2zM831.9 107.5c.1-.1.1-.3.1-.4-.2.1-.3.2-.5.2.2.1.3.1.4.2zM801 85.3c-.2.2-.1.3 0 .5.1.1.3 0 .4-.1.1-.1.1-.3 0-.4-.1-.1-.3-.1-.4 0zM760.7 238.8c.1-.3 0-.6-.3-.8-.3-.1-.5 0-.6.3-.1.4.1.6.4.7.2.1.4 0 .5-.2zM754.1 276.5c.2-.2.2-.4 0-.6-.1-.1-.3-.2-.5-.1s-.3.3-.2.5c.3.3.5.3.7.2zM760.8 233.8c-.1-.2-.4-.2-.6 0-.4.4-.4 1-.4 1.4.3.3.7.5.9.3.5-.5.3-1.1.1-1.7zM760.6 239.9c.2-.1.3-.3.2-.4-.1-.2-.3-.3-.5-.3-.2.1-.2.3-.1.5 0 .2.2.3.4.2zM766.1 239c-.2.1-.1.3-.1.5.1.2.2.3.4.3.2-.1.1-.3 0-.5 0-.2-.1-.4-.3-.3zM664.4 329.6c0 .1.1.3.2.3.2 0 .2-.2.2-.3 0-.1-.1-.3-.2-.3-.2.1-.2.2-.2.3zM711.8 259.8c.2.2.5 0 .7-.1.2-.1.4-.3.6-.3.5 0 .9-.1 1-.7.1-.6-.5-.7-.8-.9-.9-.7-.6.4-.7.5-.3.4-.4.7-.6 1-.1 0-.5.2-.2.5zM674.1 239.1c0 .4.1.7.5.8.2.1.4-.1.4-.3.1-.4 0-.7-.4-.9-.3.1-.5.2-.5.4zM671.9 317.2c-.1.1 0 .3.1.3s.2-.1.3-.2c.1-.1 0-.2-.2-.3l-.2.2zM672.8 236.8c-.1.4.1.7.4.9.2.1.4 0 .6-.2.1-.4-.1-.7-.4-.9-.3-.2-.5-.1-.6.2zM676.3 240.3c0 .1.1.3.2.3.1.1.2 0 .3-.2-.1-.1-.1-.2-.2-.3-.2-.1-.3 0-.3.2zM676.1 237.9c-.1-.1-.1-.2-.2-.2s-.1.1-.2.2c.1.1.1.2.2.2s.2-.1.2-.2zM676.9 235.2c-.4.1-.6.4-.7.8-.1.2 0 .5.2.4.4-.1.6-.5.8-.8 0-.1-.1-.3-.3-.4zM677.6 275c-.5-.3-1.5 0-2.2 0 .1.6-.2 1.3 0 1.8.1.5.7-.2 1.1 0 .1 0 .2.2.3.2.3.1.9.1.7-.1-.8-.8.9-1.5.1-1.9zM713.5 245c-.4-.1-.8-.1-1 .2-.1.2.1.3.3.3.3 0 .7.3.9-.2.2-.1 0-.3-.2-.3zM692 315.5c-.1.1 0 .2.1.3.1.1.2.1.3 0 .1-.1 0-.2-.1-.3-.1 0-.2-.1-.3 0zM713.5 246.5c-.3 0-.6.1-.8.4-.1.2 0 .4.2.4.4.1.6-.1.8-.4.1-.1.1-.3-.2-.4zM662.3 289.4c-.1-.2-.2-.4-.5-.4v.5c.1.2.2.3.4.3s.2-.2.1-.4zM683.8 276.1c0-.1-.1-.3-.2-.2-.1 0-.2.1-.3.2-.1.1 0 .2.1.3.2 0 .4-.1.4-.3zM662.2 326.4c0 .1.2.2.3.2 0 0 .2 0 .2-.1 0-.2-.1-.2-.2-.3-.2 0-.4 0-.3.2zM689 326.1c.3 0 .3-.2.2-.5 0-.1-.1-.2-.1-.4-.1.1-.2.2-.3.4 0 .2 0 .5.2.5zM690.4 325.2c.4-.3.6-.7.4-1.1-.2-.5-.5-.2-.7 0-.1-.1-.1-.1-.3-.1-.3.1-.4.2-.4.4-.3.1-.5.3-.3.7.5.2.9.4 1.3.1z"/><path class="st0" d="M676.2 277.6c.2.2.3 0 .4-.2 0-.1.1-.2.1-.4-.1.1-.2.1-.3.2l-.2.4zM689.2 325.2zM697.3 311.9c-.1 0-.3 0-.3.1s.1.2.2.3c.4.2.7.5 1.1.7.3.1.6.1.7-.2.2-.4-.2-.4-.5-.5-.2-.1-.3-.1-.5-.2-.2 0-.5-.1-.7-.2zM699.9 326.3c0 .2.1.3.3.4 0 0 .1-.1.1-.2 0-.2-.1-.3-.3-.4 0 .1-.1.2-.1.2zM702.3 312.6c-.1-.3-.4-.4-.7-.3-.5.1-1.1.2-1.6-.2-.2-.1-.5-.1-.6.1-.2.3-.1.5.1.7.5.6 1.5.7 2.3.2.3-.1.6-.2.5-.5zM701.1 323.5c0 .1.1.2.3.1 0 0 .1-.2 0-.2 0-.1-.1-.1-.2-.1 0 .1-.1.2-.1.2zM704.8 308.4c.1.3.3.4.6.4.2 0 .2-.1.2-.3-.2-.2-.3-.5-.5-.5-.3 0-.3.2-.3.4zM680.5 246c-.1.1-.1.2 0 .3h.2c.1-.1.1-.2 0-.3h-.2zM678.7 289.6c-.1.2-.1.4.1.5.1.1.2 0 .3-.3 0-.1 0-.3-.1-.4-.1 0-.2.1-.3.2zM676.7 277c0 .1 0 0 0 0zM682.8 232.3c.2 0 .3-.1.4-.3 0-.1-.1-.2-.2-.2s-.2.1-.3.2c-.1.2 0 .3.1.3zM691.4 319.5c-.2-.7-.1-.8.5-1 .5-.2.6-.7.4-1.3-.2-.6-.7-.3-1.1-.4-1.3-.2-1.6.8-2.2 1.4-.2.2-.3.5-.1.6 1.6.8-.1.7-.3.9-1.1.8-1.9 1.9-2.6 3.1-.1.2-.1.3-.1.3 0-.1-.1-.2-.1-.3-.1-.3-.3-.8-.7-.7-.5.2-.2.7-.1 1.1.1.3.2.8.7.6.3-.1.3-.4.2-.6 0 .2.4.1.6.1.7.7.9.1 1.3-.4.6-1 1.4-1.7 2.7-1.8.9-.1 1.1-.9.9-1.6zM681.1 292.3c-.3.2 0 .6.3.7.6.1 1-.2 1.3-.8.1-.5.2-1.1.4-1.6.2-.4-.1-.7-.5-.8-.5-.1-.9.1-.9.6.1.6.2 1.3-.6 1.9zM908.1 166.9c-.5.4-1 .8-1.4 1.3-.3.3-.4.8.1 1 .4.2 1 .3 1.2-.2.3-.6.2-1.3.5-1.8-.1-.4-.2-.5-.4-.3zM595.4 481.5c0-.1-.1-.2-.1-.2-.6 0-.6.4-.7.8v.1c.3-.1.7-.2.8-.7zM594.4 482.2c-.7-.3-1.2-.7-1.6-1.4-.1-.2-.5-.5-.6 0-.1.7.2 1.5.8 1.9.7.5 1-.2 1.4-.5zM873.6 44.6c.2.1.4 0 .6-.2.1-.4-.1-.7-.4-.9-.2-.1-.5 0-.5.2-.3.4-.1.7.3.9zM594.5 482.1s-.1 0 0 0c-.1 0-.1 0 0 0-.1.1-.1.1 0 0 0 .1 0 0 0 0zM583.6 525.7c.2 0 .4.4.5 0 .1-.5-.3-.8-.7-1.1-.2-.1-.5-.1-.5.2-.2.6.3.7.7.9zM591 474.6c-.1.2-.1.4.1.6.2.1.4 0 .6-.2.2-.2.2-.4 0-.6-.4-.2-.6-.1-.7.2zM570.4 462.4c.1.2.2.4.4.3.2-.1.4-.4.4-.6h-.7c-.1 0-.1.1-.1.3zM583.5 515.8c-.1.1 0 .3.1.3s.1-.1.2-.1c0-.1 0-.3-.1-.3 0-.1-.1 0-.2.1zM561.2 361.4c-.1.2 0 .3.1.5.1.1.3.1.3-.1 0-.1 0-.2-.1-.3-.1-.2-.2-.2-.3-.1zM594.3 493.9c.2.1.2-.2.2-.4-.1-.3-.3-.5-.7-.5-.2 0-.2.1-.1.4.1.2.3.4.6.5zM561.1 351.3v.2c.1.1.2.1.3 0v-.2c0-.1-.2-.1-.3 0zM559.5 329.5c.2 0 .3-.2.2-.4-.3-.3-.8-.4-1.2-.5-.2 0-.3.2-.2.4.3.4.7.6 1.2.5zM604 352.3v-.2h-.2v.2h.2zM596.8 484.1c.2-.1.5-.3.4-.6-.1-.3-.5-.3-.7-.2-.7.3-1.4.6-2.2.7-.1 0-.2.2-.3.3 0 .1.1.2.1.2 1 0 1.9 0 2.7-.4zM595.1 385.1c-.6-.1-1.2-.3-1.8-.4-.3-.1-.6-.3-.8.1-.2.4.1.6.4.8.2.2.5.5.7.4.7-.2 1.1 0 1.5.4.2-.3.5-.6.7-.9-.4-.1-.5-.2-.7-.4zM587.5 382.9c.3.1.6.2.8-.2.1-.2.1-.4-.1-.5-.3-.1-.6 0-.9.2 0 .2.1.4.2.5zM596.1 373.7c-.2-.1-.4-.1-.6.1-.2.3 0 .5.2.7.2.1.4.1.6-.1.1-.3 0-.6-.2-.7zM576.8 380.6c0 .2.1.4.3.5.1.1.3 0 .3-.1 0-.2-.2-.4-.3-.6-.1-.1-.2 0-.3.2zM595.7 378.3c.4-.2.6-.6.5-1-.1-.4-.4-.5-.7-.4-.5.2-.6.6-.5 1 0 .3.3.4.7.4zM583.3 475.8v.2c.1.1.3.1.3 0v-.2c-.1-.2-.2-.2-.3 0zM588.1 375.5c.1-.1.2-.3.1-.5-.1-.1-.2-.1-.4 0-.1.1-.1.2-.1.4.1.3.3.3.4.1zM571.2 463.7c0 .3.1.6.4.7.7.3 1.3.5 2 .7.3.1.5-.2.4-.5-.1-.4-2.1-1.6-2.5-1.4-.2.1-.3.3-.3.5zM594.6 381c.3-.1.4-.4.5-.7-.1-.2-.3-.2-.4-.2-.3.1-.6.3-.5.7 0 .2.2.3.4.2zM590.9 377.5c.1-.2.1-.4-.1-.5-.4-.2-.6.1-.8.3-.1.2-.1.3.1.5.4.2.6 0 .8-.3zM574.5 474.9c-.2.1-.5.1-.5.4 0 .4.4.3.6.3.5 0 1 .4 1.4 0 .1-.1.1-.4 0-.5-.5-.6-1-.2-1.5-.2zM573.4 462.4l-.2.2.2.2.2-.2c-.1-.1-.1-.2-.2-.2zM581.9 522.2c.7-.3 1.3-.6 1.9-1 .3-.2.2-.5 0-.7-.3-.2-2.5.5-2.7.8-.1.2-.1.4.1.6.1.3.4.4.7.3zM581.7 519.7h.2v-.2h-.2c-.1 0 0 .1 0 .2zM582.4 469.6c-1 .3-1.3-.6-1.9-1-.3-.2-.6-.2-.9.1-.2.3-.2.6.1.8.4.3.8.5.7 1.2 0 .2.1.4.3.4.9-.1 1.1.5 1.3 1.2 0 .1.2.3.3.2.1 0 .2-.1.3-.2.1-.3.1-.6.1-.8.1 0 .2-.1.2-.1.1-.1.1-.3-.1-.3-.1 0-.2.1-.2.1-.2-.5-.3-1-.2-1.6.1.1 0 0 0 0zM576.2 466.5c-.3.2-.4.5-.2.8.2.3.4.3.7.1.3-.2.3-.5.1-.8-.2-.2-.4-.3-.6-.1zM605.8 350.4c-.6-.3-1.3-.6-2-.8-.3-.1-.5 0-.7.2-.2.2-.2.4-.1.6.2.4 2.5.9 2.8.6.2-.1.3-.4 0-.6zM615 365.6c-.4.6-.6 1.3-.9 1.9v.4c.1.1.2.2.4.1.5-.2 1.3-1.8 1.1-2.3-.2-.2-.4-.4-.6-.1zM622.5 330.8c.1-.2 0-.3-.1-.4-.2-.1-.4-.1-.4.2 0 .1.1.3.2.3s.2 0 .3-.1zM616.5 352c0 .1 0 .3.1.4.2.1.2 0 .3-.2 0-.1 0-.2-.1-.3-.2-.1-.3 0-.3.1zM563.1 329.3c-.3.2-.3.5-.2.7.1.3.3.7.7.5.4-.2.3-.5.1-.8-.1-.3-.2-.5-.6-.4zM621.9 350.6c0 .1-.1.3.1.3.1 0 .2-.1.2-.1.1-.1 0-.3-.1-.3s-.2.1-.2.1zM616.7 348.5zM616.7 349.2c.3 0 .2-.2.2-.4 0-.1-.1-.2-.1-.3 0 .1-.1.2-.1.4-.1.1-.1.3 0 .3zM616.4 286.3c-.2.2-.3.4-.3.7 0 .2.2.2.3.1.2-.2.4-.4.3-.7-.1-.1-.2-.2-.3-.1zM620.7 264.2c-.3.2-.5.5-.2.8.6.5.8-.2 1.2-.4.2-.2.8-.5.6-.6-.5-.3-1.1-.1-1.6.2zM623.1 267.2c0 .1-.1.2.1.4.1.1.3.1.3 0 .1-.2.2-.3 0-.5-.1-.2-.2-.2-.4.1zM622.6 310.7c-.4-.3-.8-.7-1.4-.7-.4.2-.6.6-.6 1 0 .5.2.6.7.6.5-.1.9-.1.7.7-.2.6.3.6.6.3.7-.5.7-1.4 0-1.9zM622.1 303.5c-.3.1-.6.3-.5.7 0 .2.2.2.4.2.3-.1.5-.3.5-.7-.1-.3-.2-.3-.4-.2zM621.5 343.4c-.1.1-.1.2-.1.4s.1.2.3.2c.1-.1.2-.3.2-.5-.1-.2-.3-.2-.4-.1zM621.1 282.4c0-.1-.1-.2-.3-.2-.2 0-.4.2-.4.4s.1.3.3.3c.2-.1.4-.2.4-.5zM615.5 349.1c.4.3.4-.6.8-.7h.4c.3-.1.7-.4.6-.5-1.1-.2-.2-1.8-1-1.7-.6.1-1.2.9-1.8 1.4.4.5.5 1.2 1 1.5zM616.4 324.1c0 .3.1.4.4.3.2-.1.3-.3.2-.6 0-.2-.1-.4-.3-.3-.4.1-.3.4-.3.6zM618.5 265.6c.1-.1 0-.2 0-.4h-.3c0 .1-.1.2-.1.3.2.2.4.2.4.1zM619 328.5c0-.5-.5-.7-.9-.8h-.2c-.5.2-.7.7-.6 1.2 0 .2.2.4.4.5.3.2 0 1.1.5.8.5-.2.8-1 .8-1.7zM614.3 316.6c-.1-.2-.4-.2-.6-.2-.2 0-.2.2-.1.3.1.2.4.3.6.2.1-.1.2-.2.1-.3zM563.6 383.1c.1.2.2.2.3.1.1 0 .1-.1.1-.2 0-.2-.1-.2-.3-.2-.1.1-.1.2-.1.3zM613 343.3c-.2.2 0 .4.1.6.4.3.5 1 1.2.9.2 0 .4-.2.3-.4 0-.6-.7-.6-1-1-.1-.1-.3-.4-.6-.1zM566.1 325.5c-.1-.1-.3 0-.3.1-.1.1-.1.2.1.4 0 0 .2 0 .3-.1.1-.2.1-.3-.1-.4zM617.9 296.4c-.2.1-.3.2-.3.4.2.4.6.3.9.3.2 0 .3-.1.3-.4-.2-.3-.5-.4-.9-.3zM617.8 371.4c-.1.1-.1.2.2.4 0 0 .1 0 .2-.1s.1-.3-.1-.3c-.1-.1-.2-.1-.3 0zM616.8 322.6c.1.2.3.2.5.2 0-.1.1-.2.1-.2-.1-.2-.3-.2-.5-.2-.1 0-.1.1-.1.2zM617.7 295c-.1.1-.2.2-.2.3 0 .2.1.2.3.2.2-.1.3-.2.3-.4-.1-.2-.3-.2-.4-.1zM617.2 308.6c.1.3.3.4.6.4.3-.1.3-.3.2-.5-.1-.2-.3-.5-.6-.4-.2 0-.3.2-.2.5zM618.5 318.9c0-.1-.1-.2-.2-.1-.1 0-.1.1-.1.2.1 0 .1.1.2.1 0-.1.1-.2.1-.2zM619.8 327.2c-.2-.3-.4-.6-.7-.7-.3-.1-.3.3-.3.5 0 .4.3.7.7.6.2 0 .3-.2.3-.4zM591.5 478.5c.2 0 .4.3.5.5.1.2.3.4.5.3.3-.1.4-.4.3-.7-.3-.7-.7-1.4-1.3-1.9-.2-.2-.5-.2-.7.5-.2.4-.4 1.1.7 1.3zM611.9 360.7c0 .2.1.3.2.2.1 0 .2-.1.2-.2 0-.2-.1-.2-.2-.2-.1.1-.2.1-.2.2zM611.6 353.8c0-.1 0-.3-.1-.4-.1-.1-.3-.1-.3.1v.4c.2.1.4.1.4-.1zM611.9 348.5c-.2-.1-.5-.1-.6.2-.1.4-.1.7.2.9.3.1.5.1.6-.2.2-.4.2-.7-.2-.9zM612.4 301.3c-.2 0-.2.1-.1.3 0 .1.1.1.2.1 0-.1.1-.2.1-.2l-.2-.2zM612.6 352c.2-.4.1-.7-.2-.9-.2-.2-.4-.1-.6.1-.1.4 0 .7.3.9.2.1.4.1.5-.1zM546.4 391.8c0-.1-.2-.2-.3-.2-.1 0-.2.2-.1.3 0 .1.2.2.3.2.1-.1.1-.2.1-.3zM546.3 406.5v.3c.1-.2.2-.3.2-.5-.1.1-.2.1-.2.2zM590.2 476.4c.2-.3.1-.5-.1-.7-.1-.1-.3-.2-.4 0-.1.3 0 .5.2.7.1.1.2.2.3 0zM544.4 404.9c.3 0 .5-.3.5-.8-.3-.4-.6-.8-1.2-.8-.3 0-.5.2-.4.4.2.5.4 1.1 1.1 1.2zM597.6 481.9c0 .3 0 .6.3.7.2.1.3-.1.3-.3 0-.3-.1-.5-.3-.7-.2.1-.3.2-.3.3zM589 492.1c-.4.1-.4.5-.3.8.1.4.2.9.7.8.4 0 .4-.4.4-.8-.2-.4-.3-.8-.8-.8zM610.5 331.7c-.3.3-.5.6-.2.9.3.5.7.3 1.1.1.4-.2.4-.5.3-.9-.5-.4-.8-.4-1.2-.1zM611.4 336.6c-.2-.2-.4-.1-.6 0-.2.2-.4.4-.2.7.2.3.5.1.7 0 .2-.2.4-.4.1-.7zM609 350.5c.1-.1 0-.3-.2-.4-.3-.2-.7-.4-1.1-.1-.1.2 0 .4.1.4.5.1.9.4 1.2.1zM610.2 351.3v.2h.2v-.2c-.1 0-.2-.1-.2 0zM529 537.5c0 .3.1.4.2.4.2 0 .3-.1.3-.3 0-.1-.1-.3-.2-.3-.2 0-.3.1-.3.2zM528.5 551.4c.1 0 .1-.1.2-.2 0-.1 0-.2-.1-.2s-.2 0-.2.1c-.1.1-.1.3.1.3zM538.9 497.3c0-.1-.1-.1-.2-.1s-.2.2-.2.3c0 .1.1.1.2.1.2 0 .2-.1.2-.3zM538.9 513.1c.1-.1.1-.2.1-.3 0-.1-.2-.2-.3 0-.1.1-.2.3-.1.5.1 0 .2-.1.3-.2zM539.5 491.3c0 .2.1.3.2.3.2 0 .3 0 .2-.2 0-.1-.1-.2-.2-.2 0-.1-.1-.1-.2.1zM690.4 327.4h.2s-.1-.1-.2 0zM546.9 399.5c0-.1.1-.2 0-.2 0-.1-.1-.1-.2-.1-.1.1-.2.2-.1.3h.3zM525.8 539c.1.1.3.2.5.2.1 0 0-.4 0-.7l-.5.5zM539.1 523v.2c.1.1.2.1.3-.1v-.2s-.2 0-.3.1zM527.4 480.7c.4-.2.4-.5.4-.9 0-.2-.1-.3-.4-.3-.2.2-.4.5-.4.9-.1.3.1.5.4.3zM590.2 472.6c-.3-.1-.4 0-.5.2-.2.3-.3.6-.1.9.2.2.4-.1.5-.2.2-.3.4-.6.1-.9zM537.7 531.6c-.1 0-.2.2-.2.3 0 .2.1.3.3.3.1 0 .2-.2.2-.3 0-.2-.1-.4-.3-.3zM817.2 159.1c0-.1 0-.2-.1-.3-.1-.1-.2 0-.2.1s0 .3.1.4c.1.1.1 0 .2-.2zM534.3 498.8c-.1.1 0 .3.1.3s.2-.1.3-.1c0-.2 0-.3-.1-.3-.2-.1-.3 0-.3.1zM536.6 491.1c0 .1.2.2.3.2.2 0 .2-.1.2-.3 0-.1-.2-.2-.2-.2-.3 0-.3.1-.3.3zM566.1 475.3c-.1.2-.1.4.1.5.2.1.3 0 .4-.1.1-.2.1-.4 0-.5-.3-.2-.5-.1-.5.1zM602 350.3c-.1-.2-.3-.2-.5-.1-.2.3-.5.6-.3 1 .1.2.3.2.5.1.3-.3.4-.6.3-1z"/><path class="st0" d="M601 351.4c-.1.1-.2.2 0 .3.1.1.3.1.5 0 .1-.1.1-.3-.1-.3-.2-.1-.3-.1-.4 0zM602 353.5c.2-.1.3-.3.2-.5-.1-.1-.2-.1-.4 0-.1.1-.2.3-.1.5.1.1.2.1.3 0zM585.1 506.1c-.2-.1-.4-.1-.4.1-.1.3.2.4.3.5.1.1.3.2.5 0 0-.3-.1-.5-.4-.6zM600.5 357.8c0 .1.1.1.2 0v-.1c-.1 0-.1-.1-.2-.1v.2zM572.4 329c-.2.2-.2.5 0 .7.1.2.3.3.5.3v-1c-.1-.1-.3-.1-.5 0zM569.6 324.9c-.2 0-.3.2-.2.4 0 .1.2.2.4.2.1 0 .1-.1.1-.3-.1-.2-.2-.3-.3-.3zM584.6 377.1c.1-.1.2-.3.1-.4-.2.2-.4.3-.6.5.2 0 .3 0 .5-.1zM585.4 385.9c.1-.2 0-.3-.2-.4-.2-.1-.4-.1-.6.1-.1.2-.1.3.1.4.3.2.5.2.7-.1zM598.9 379.8c.3-.3.4-.7-.2-.7-.8 0-.7-.3-.5-.8.2-.4.1-.7-.4-.8-.4-.1-.8 0-1.1.4-.1.6.2 1 .4 1.5.3.9 1.2 1 1.8.4zM586.4 381.3c-.1.2-.1.4 0 .5.5.2.6-.3.8-.5.1-.2.3-.4 0-.4-.3-.2-.6.1-.8.4zM584 390.1c.1-.1 0-.3-.1-.4-.1-.1-.3-.2-.4 0 0 .1.1.2.1.3.1.2.3.3.4.1zM593 383.9c.7.2.4-.9 1-1.1.1 0 .2-.2.3-.2.3-.4 0-.6-.2-.8-.7-.9-1.6-.8-2.6-.8-.3 0-.8-.2-.8.4 0 .4.5.3.8.4.5 0 1.2.1 1.2.8 0 .4-.3 1.1.3 1.3zM597.1 374.3c.2-.1.3-.3.2-.4-.1-.2-.3-.3-.6-.2-.2.1-.3.2-.2.4.1.2.3.3.6.2zM569.7 372c.3.1.4 0 .6-.3.1-.2 0-.4-.2-.4s-.4.1-.5.3c-.1.3 0 .4.1.4zM579.8 518.3c-.1-.1-.3-.1-.3.1-.1.2 0 .4.1.5.2.1.3.1.4 0 .2-.3 0-.5-.2-.6zM586.9 510.3c.1.1.2.1.3 0v-.2h-.3v.2zM579.6 520.6c-.2-.1-.4-.1-.4.1-.1.4.2.7.4.9.2.1.4.1.5-.1 0-.3-.2-.6-.5-.9zM574.4 530.9c0 .2.1.2.3.2.1 0 .2-.1.2-.1 0-.2-.1-.2-.3-.2-.1 0-.2 0-.2.1zM585.8 476.1v-.2c-.2 0-.3.1-.3.2v.2c.1 0 .3-.1.3-.2zM587 512.9c.1-.2.1-.4-.1-.5-.3-.1-.4.1-.5.3-.1.2-.3.4 0 .6.3.1.5-.1.6-.4zM584.7 517.3c.1 0 .2 0 .4-.1-.1-.1-.1-.2-.2-.2s-.2.1-.4.1l.2.2zM573 542.2c0 .2 0 .4.1.5.2.2.3.1.4-.1.1-.2 0-.3-.2-.4-.1-.1-.3-.1-.3 0zM587 376.9c.3-.2.1-.6.1-.8 0-.2-.1-.3-.3-.3-.2.3 0 .6 0 .9-.1 0 0 .3.2.2zM568.1 478c-.3.1-.3.4-.3.7.1.2.2.4.4.4.3 0 .4-.3.3-.6 0-.3-.1-.6-.4-.5zM564.6 481.1c-.4.1-.5.4-.5.8.1.5.4.7.9.6.3-.1.6-.4.4-.8-.1-.3-.3-.7-.8-.6zM569.2 359.4c-.1-.1-.1-.2-.2-.2-.2 0-.2.1-.1.3 0 .1.1.1.2.1 0-.1.1-.2.1-.2zM571.8 532.9c0 .1 0 .3.2.3.1 0 .1-.1.1-.2s0-.3-.2-.3l-.1.2zM572.4 537.1c0 .1.1.3.2.2.1 0 .2-.2.2-.3.1-.1 0-.2-.1-.3-.2.1-.3.2-.3.4zM528 489.6c.5-.1.5-.7.5-1.1 0-.3-.3-.5-.6-.4-.5.1-.4.6-.4 1 .1.2.1.6.5.5zM816.7 131c0 .3.1.4.4.3.2-.1.3-.3.2-.6 0-.2-.1-.4-.3-.3-.3.1-.2.4-.3.6zM818.9 125.8c0-.1-.1-.2-.2-.1-.1 0-.1.1-.1.2.1 0 .1.1.2.1 0 0 .1-.1.1-.2zM817.7 129.5c-.1-.2-.3-.2-.5-.2l-.1.2c.1.2.3.2.5.2 0 0 .1-.1.1-.2zM818 136.4c.3.2 0 1.1.5.8.5-.3.8-1.1.8-1.8 0-.5-.5-.7-.9-.8h-.2c-.5.2-.7.7-.6 1.2.1.3.3.5.4.6zM822.3 137.5c0 .1.1.3.2.3.1.1.3 0 .3-.1.1-.2 0-.3-.1-.4-.1-.1-.3-.1-.4.2zM828.2 132.8c.3.2.6.4.8.1.2-.3-.1-.6-.3-.8-.2-.2-.5-.2-.7 0-.2.3 0 .5.2.7zM809.8 253.3s.1 0 0 0c.1 0 .1 0 0 0zM825.8 84.1c-.1.1-.1.3 0 .4.1.1.2.1.3 0 .1-.1.2-.2.1-.4s-.3-.2-.4 0zM774.9 175.5c.3.1.5 0 .7-.1.1-.1.1-.3 0-.3s-.1 0-.2-.1l-.6.3c0 .1 0 .2.1.2zM837 130.6l.3-.6c-.1-.1-.2-.1-.3-.2-.2.2-.3.4-.2.6 0 .2.1.3.2.2zM820.1 134.1c-.2-.3-.4-.6-.7-.7-.3-.1-.3.3-.3.5 0 .4.3.7.7.6.3 0 .4-.1.3-.4zM836.2 107.1c.1-.1.1-.2 0-.4-.1 0-.2-.2-.3-.2-.2.1-.2.3-.1.4.1.2.2.3.4.2zM820.8 71.9c.6.5.8-.2 1.2-.4.1-.2.4-.3.6-.5l-.1-.2c-.5-.2-1-.1-1.5.2-.2.3-.4.7-.2.9zM818.9 72.5c.1-.1 0-.2 0-.4h-.3c0 .1-.1.2-.1.3.2.2.3.2.4.1zM823.5 74.1c0 .1-.1.2.1.4.1.1.3.1.3 0 .1-.2.2-.3 0-.5-.1-.1-.2-.1-.4.1zM793.4 265.9v.2h.2c.1-.1.1-.2 0-.3-.1 0-.2.1-.2.1zM798.5 265.5c-.4.6.2.9.6 1.1.4.2 1 .6 1.3.1.4-.7-.4-.7-.7-.9-.4-.3-.8-1-1.2-.3zM807.6 247h.2c.1-.1.1-.2 0-.3-.1 0-.1 0-.2.1v.2zM805.3 246c-.1.3 0 .6.3.9.2.2.4.1.5-.2.1-.3.2-.7-.1-1-.1 0-.1-.1-.2-.1-.1.1-.3.1-.4.2 0 .1 0 .1-.1.2zM806.3 263.1s0 .2.1.3c.1.1.3.1.4 0 .1-.1 0-.3-.1-.3-.1-.2-.2-.2-.4 0zM811.6 245.8c0-.2-.1-.4-.3-.3-.3.1-.4.4-.4.6 0 .2.1.3.2.2.4 0 .5-.2.5-.5zM811 253.3c-.3-.4-.7-.1-1.1 0h-.1c.3.3.7.6 1.1.2.1 0 .2-.1.1-.2zM810.4 255.6c-.7-.4-1.4-.7-2-1.2-.1-.1-.3-.1-.4 0-.1.1-.1.2-.1.3.6.8 1.2 1.4 2 1.7.3.1.6.2.7-.1.3-.3.1-.6-.2-.7zM851.7 107c0-.1.1-.2 0-.2-.1-.1-.2-.1-.3 0 0 .1-.1.2 0 .2.1.2.2.1.3 0zM784.4 178.8c-.2.3-.1.7.1 1 .2.1.4 0 .4-.2.1-.3.3-.7-.1-1-.1-.1-.3 0-.4.2zM792 265c-.1.1-.2.2-.2.3-.2.7-.5 1.3-.7 2-.1.4.2.4.5.3.5-.2 1-2 .8-2.4-.1-.2-.2-.2-.4-.2zM783.1 178.3c-.1.1-.1.3 0 .3.2.1.3 0 .5-.2.1-.1.1-.3-.1-.3-.2.1-.3.2-.4.2zM778 175.6c-.2.1-.3.2-.3.4.1.2.3.2.4.1.2-.1.3-.2.3-.4s-.2-.2-.4-.1zM794.1 255.9c-.2-.1-.4-.1-.6.1-.2-.1-.4-.1-.6-.1-.6.2 0 .7 0 1 0 .4.1.8.2 1.2 0 .3.1.5.3.7.2.1.4.1.5-.1.1-.7.6-1.3.4-2.1 0-.1-.1-.2-.1-.2.1 0 .1-.1.2-.1 0-.2-.1-.3-.3-.4zM800.2 256.6c.2-.2 0-.3-.1-.4-.2-.1-.3-.2-.5 0s0 .3.1.4c.2.1.4.2.5 0zM829 128.6c.2-.5 0-.9-.3-1.2-.1-.2-.4-.1-.4.1 0 .4-.1.9.2 1.3.2 0 .4-.1.5-.2zM1003.7 165.9c-.1.1-.1.2-.1.3.2-.2.4-.3.6-.5-.2 0-.4 0-.5.2zM879.8 185.7c-.4.1-.3.5-.3.8 0 .3 0 .7.1.8.2.1.3.2.4.3.3-.1.7-.3 1-.4-.2-.3-.4-.6-.5-.9-.2-.4-.3-.7-.7-.6zM840.3 201.8c-.3-.4-.8-.2-1.1.1-.3.3-.3.7.1.9.4.2.8.5 1.1.7.2-.3.4-.6.6-1-.2-.1-.4-.4-.7-.7zM961 118c.1-.1.2-.2 0-.4 0 0-.2-.1-.3 0-.1.1-.1.3.1.3.1.1.2.1.2.1zM909.5 43.3c-.2-.1-.4 0-.4.2-.1.4.3.6.6.8.2.1.3.1.4-.1 0-.5-.2-.8-.6-.9zM797.4 181.2c.2-.1.3-.3.2-.4-.1-.2-.3-.3-.6-.2-.2.1-.3.2-.2.4.2.2.4.3.6.2zM902.2 44v-.2c-.1.1-.1.2-.2.2v.1c.1 0 .2 0 .2-.1zM910.2 42c-.1 0-.3 0-.4.1-.1.1 0 .2.1.3.2 0 .4 0 .5-.2.1-.1 0-.2-.2-.2zM812.2 167.6c0 .2.1.3.2.2.1 0 .2-.1.2-.2 0-.2-.1-.2-.2-.2 0 .1-.1.2-.2.2zM813 159c.2-.4.1-.7-.2-.9-.2-.2-.4-.1-.6.1-.1.4 0 .7.3.9.2.1.4 0 .5-.1zM815.9 173.3c.1-.2.1-.5 0-.6-.1-.3-.3-.5-.6-.1-.2.4-.4.9-.6 1.3l1.2-.6zM812 160.7c0-.1 0-.3-.1-.4-.1-.1-.3-.1-.3.1v.4c.2.1.3.1.4-.1zM801.1 164.8v-.1c-.1 0-.1-.1-.2-.1 0 .1-.1.2 0 .2 0 .1.1.1.2 0zM810.8 158.2h-.2v.2h.2v-.2zM907.8 51.7c-.1.2 0 .3.2.4.3.1.6.1.8-.2.1-.2-.1-.4-.2-.4-.3-.2-.6-.2-.8.2zM879.1 96.5c-.1.2-.1.4.1.5.1.1.2 0 .3-.3 0-.1 0-.3-.1-.4-.1 0-.2.1-.3.2zM881.5 99.2c-.3.2 0 .6.3.7.6.1 1-.2 1.3-.8.1-.5.2-1.1.4-1.6.2-.4-.1-.7-.5-.8-.5-.1-.9.1-.9.6.1.7.2 1.4-.6 1.9zM895.2 97.6c-.1 0-.1 0-.2.1 0 .1.1.1.1.2.1 0 .1-.1.2-.1-.1 0-.1-.1-.1-.2zM862.6 96.8c.2 0 .2-.3.1-.4-.1-.2-.2-.4-.5-.4s-.2.2-.1.4c.1.1.2.4.5.4zM855 104.6c0-.1.1-.3 0-.4-.1-.2-.2-.1-.3 0-.1.1-.1.3 0 .5.2.1.3 0 .3-.1zM859.3 101c.1-.2 0-.4-.2-.4-.1 0-.3.1-.4.3-.1.1 0 .2.2.3.1 0 .3 0 .4-.2zM905.4 78c0-.1 0-.3-.2-.3-.1 0-.3 0-.4.2v.2c.1 0 .2.1.4.1.1 0 .2-.1.2-.2zM937.9 108.7c.1-.4-.1-.7-.4-.9-.3-.1-.6-.1-.7.3-.1.4.2.6.6.8.2.1.4 0 .5-.2zM936.4 110.1c0-.1-.1-.1-.1-.2-.1 0-.2 0-.2.1-.1.1 0 .2.2.2 0 0 .1 0 .1-.1zM908.6 76c.1-.2 0-.3-.1-.3-.3 0-.5.1-.7.4-.1.1 0 .3.1.3.3-.2.6-.3.7-.4zM945.2 109c-.2-.3-.5-.2-.8-.2-.1 0-.4-.1-.4.2.1.3.5.3.8.3.2 0 .4 0 .4-.3zM852.3 110.4v-.2c-.1-.1-.2-.2-.3 0v.2c0 .1.2.1.3 0zM923.4 107.8c.1-.1.3-.1.2-.3-.1-.1-.3-.2-.5-.2s-.3.2-.2.4c.1.2.3.2.5.1zM947.5 104.5c-.5-.2-.6.4-.7.8-.2.3-.3.8.2.9.3.1.5-.1.6-.4h.1c.1 0 .2-.2.2-.3 0-.1 0-.1-.1-.1 0-.4 0-.8-.3-.9zM1008.2 151.5c-.1.2-.1.4.2.5.1 0 .2 0 .3-.3 0-.1 0-.3-.2-.4-.1 0-.2.1-.3.2zM942.6 148.2c-.6 0-1.3 0-1.9.2-.4.1-.8.4-.6.9.2.4.6.8 1.1.6.6-.3.9-.9 1.5-1.2.2-.4.1-.5-.1-.5zM942.4 181.1c-.1.5.3.8.7 1 .3.2.6 0 .6-.3.2-.5-.3-.7-.6-.9-.3 0-.6-.1-.7.2zM930.1 202c.2 0 .3-.1.4-.3 0-.1 0-.3-.1-.3-.2-.1-.3 0-.4.1-.1.2-.1.4.1.5zM930.1 186.4c.1 0 .2 0 .2-.1.1-.1 0-.3-.2-.3-.1 0-.1.1-.2.1 0 .2.1.3.2.3zM942.3 150.1s.1 0 .2.1c0-.1.1-.2 0-.2 0-.1-.1 0-.2-.1.1.1 0 .2 0 .2zM947.5 170.9c-.3.1-.4.4-.4.6 0 .3.1.7.5.7.4-.1.4-.5.3-.8.1-.2 0-.5-.4-.5zM946.2 171.4c-.3.1-.1.3 0 .4.2.2.4.4.7.2.1-.1.1-.2-.1-.4-.1-.1-.3-.3-.6-.2zM912.1 199.8c-.2.1-.3.4-.1.6.2.2.4.2.6.1.2-.2.3-.4.1-.6-.2-.2-.4-.2-.6-.1zM921.5 188c.4-.1.8-.2.7-.8-.1-.4-.4-.6-.8-.5-.5 0-.7.3-.7.9.1.3.3.5.8.4zM929.2 200.6c.2.1.3 0 .5-.1.1-.1 0-.3-.1-.3s-.3 0-.3.1c-.2 0-.2.2-.1.3zM915.3 208.1c-.1.1-.2.1-.2.3.1.1.2.1.3.1.1-.1.2-.1.2-.3 0-.2-.1-.2-.3-.1zM918.9 203.6c-.1.3-.1.5 0 .7.3 0 .4-.2.4-.3.1-.3.3-.6-.1-.8-.1 0-.2.2-.3.4zM920.6 201.6c.5.4.9 1.2 1.6 1 .5-.1.7-.8.4-1.3-.5-.7-1.3.1-1.8-.3-.4.3-.4.5-.2.6zM926.6 199.1c.1.2.3.2.5.1.5-.4.2-1 .3-1.5 0-.2-.1-.5-.3-.6-.4 0-.3.4-.3.6-.1.5-.6.9-.2 1.4zM923.9 191.1c0 .3.3.4.6.4s.6-.1.5-.4c0-.3-.4-.3-.6-.4-.3 0-.5.1-.5.4zM936.3 187.9c-.1.1 0 .3.2.3.1 0 .3 0 .3-.1.1-.3 0-.4-.1-.4-.2 0-.3 0-.4.2zM1014.2 141.1c0 .1.1.2.2.2.2 0 .3-.1.2-.3 0-.1-.1-.2-.2-.2-.2.1-.3.2-.2.3zM1009.9 153.2c-.1.4 0 .7.3 1 .2.1.3 0 .4-.2 0-.3.1-.7-.3-1-.2-.2-.3 0-.4.2zM1020.9 104.9v.3c.1.1.2.1.3 0 .1-.1.1-.2 0-.4-.2-.1-.3-.1-.3.1zM1025.6 108.9c.1.1.2.2.3.1 0-.1.1-.2.1-.2-.1-.1-.2-.2-.3-.1-.1 0-.1.2-.1.2zM949.1 64.6c.1-.2.1-.5-.1-.6-.3-.2-.3.1-.3.3 0 .2-.1.5.1.6.2.1.3-.1.3-.3zM1048.8 134.1c-.1.1-.1.2-.1.3.1.1.2.2.3.1.2-.1.2-.3.1-.4h-.3zM953.6 64c0 .1.1.1.1.2.1 0 .2-.1.2-.1 0-.1 0-.2-.2-.2-.1-.1-.1.1-.1.1zM1007.4 153.7c0 .1.1.1.1.2.1 0 .1-.1.2-.1 0-.1-.1-.2-.1-.2s-.1.1-.2.1zM968.6 143.1c-.4.3-1.1.2-1.2.9 0 .2.1.4.3.4.6.1.8-.5 1.2-.7.2-.1.6-.2.4-.5-.2-.3-.4-.2-.7-.1zM951.1 141.3c0 .2.1.3.3.3.2 0 .3-.1.4-.3 0-.2-.1-.3-.3-.3-.2 0-.4.1-.4.3zM970.7 135.5c-.1.3 0 .5.2.7.1.1.3.3.4 0 .1-.3 0-.5-.2-.7-.2 0-.3-.1-.4 0zM977.9 177.3c0 .1.1.3.2.3.1.1.3 0 .3-.1 0-.2 0-.3-.2-.4-.2 0-.3.1-.3.2zM943.6 155.2l.2.1c.1-.1.2-.2.1-.3-.1 0-.2-.1-.2-.1-.1 0-.2.2-.1.3zM982.3 169.2c-.2.2-.2.4-.1.5.3.3.6.7 1.1.6.3-.1.2-.4.1-.6-.3-.3-.6-.7-1.1-.5zM858.2 233.7c.1-.2 0-.3-.2-.4-.1-.1-.3-.1-.5-.1.1.1.1.2.2.3.2.2.3.4.5.2zM837.3 234.5c-.3 0-.2.2-.2.4.1.2.1.4.3.4.3 0 .3-.2.2-.4-.1-.2-.1-.4-.3-.4zM835.2 237c.1-.1.1-.2 0-.3h-.1c0 .1-.1.2-.1.3 0 0 .1.1.2 0zM895.2 167.1c-.1-.2-.3-.1-.5 0-.1.1-.2.2-.2.3 0 .2.2.2.4.1.3 0 .4-.2.3-.4zM837.8 238.7c0 .1 0 .3.1.4.2.1.2 0 .2-.1s-.1-.2-.1-.3c-.1-.1-.2-.1-.2 0zM847.7 229.4c-.2-.1-.4 0-.6.1-.1.1-.1.2 0 .3.2.1.4 0 .6-.2.1 0 .2-.1 0-.2zM838.8 233.3c.1 0 0-.2.1-.2-.1 0-.2-.1-.2-.1-.1 0-.1.1-.1.2-.1.2.1.2.2.1zM847 234.8c0 .2.1.3.3.3.2 0 .3-.2.3-.4 0-.1-.1-.2-.2-.2-.3 0-.4.1-.4.3zM849.2 227.9c0-.1 0-.3-.1-.3s-.2.1-.3.2c0 .1 0 .2.1.3.2.1.3 0 .3-.2zM820.1 247.3c-.1-.1-.2 0-.3.1 0 .1.1.2.1.2.1.1.2 0 .3-.1l-.1-.2zM814.5 251.5c.1.1.2.2.3.2.2 0 .1-.1.1-.3-.1-.1-.2-.2-.3-.2-.2.1-.2.2-.1.3zM813 245.6c-.2.1-.4.2-.4.5.1.3.3.3.5.3.3 0 .4-.1.4-.4.1-.4-.2-.4-.5-.4zM814 243.7c-.1-.3-.3-.3-.5-.3-.3.1-.7.2-.7.5s.3.2.5.2c.3.1.6.1.7-.4zM818 247.2c0 .1.1.2.3.2 0-.1.1-.2.1-.2 0-.1-.1-.2-.3-.2-.1 0-.1.1-.1.2zM819.8 250.1c0 .1 0 .2.1.2.1.1.2 0 .3-.1 0-.1 0-.2-.1-.2-.2-.1-.3 0-.3.1zM833.5 246.9c-.3 0-.4.2-.3.5.1.4.4.6.8.6.3-.1.4-.2.3-.5-.1-.4-.4-.6-.8-.6zM857 230.5c.6.2 1.2.5 1.2-.5.2-.2.8-.4.1-.7-1.3-.5-2.6-.7-3.9-.6-.2 0-1.4 1.2-.8-.5.1-.2-.2-.4-.5-.4-.9-.1-1.8-.6-2.6.4-.3.3-.8.4-.6 1 .2.6.6.9 1.1.7.6-.2.8-.2 1 .4.3.6.9 1.1 1.7.6 1.1-.8 2.2-.8 3.3-.4zM852.9 234.7c-.1.1-.1.2.1.2.1 0 .2-.1.3-.2.1-.1.2-.2-.1-.2-.1 0-.2.1-.3.2zM857.6 233.1c-.1 0-.1 0 0 0-.1 0 0 0 0 0zM865.1 215.8c-.1.2-.1.3.1.3h.3c.1-.1.1-.3-.1-.3-.1-.1-.3 0-.3 0zM894.5 168.9c.1.1.2.1.3.1.1 0 .2-.1.2-.3-.1-.2-.2-.2-.4-.2-.2.1-.2.3-.1.4zM890.9 172.1c-.1 0-.1.2-.1.2 0 .1.1.1.2.1 0-.1.1-.1.1-.2.1-.1 0-.2-.2-.1zM890 180.5c-.3.1-.3.4-.3.6.1.3.2.4.5.3.3-.1.4-.3.3-.6 0-.2-.2-.4-.5-.3zM849.4 234.1c0 .1.1.2.1.2.2 0 .2-.1.2-.2s-.1-.1-.2-.1l-.1.1zM862.3 233.9c.1 0 .2-.3.2-.3-.6-.5-1.3-.4-2-.4h-.5c-.2 0-.4.1-.4.3 0 .2.1.3.3.5.7.3 1.5.2 2.4-.1zM860.6 223.4c.2-.1.1-.2.1-.3-.1-.1-.2-.2-.3-.2-.2.1-.1.2-.1.3.1.2.2.3.3.2zM849.1 233c.1-.1.1-.2.2-.3 0-.2-.1-.2-.2-.2.1-.1.2-.3.2-.5 0-.3-.3-.4-.7-.3-.3.1-.5.4-.5.8 0 .3.2.4.5.3.1 0 .2-.1.3-.2-.1.1-.1.1-.1.2 0 .2.2.3.3.2z"/><path class="st0" d="M809.8 251.2c.1-.2 0-.7-.3-.4-.6.5-.9 1.2-.9 1.9 0 .8.8.5 1.3.6-.3-.7-.3-1.4-.1-2.1zM855.6 233.4c.1.4.5.6 1 .5.5 0 .7-.4 1-.8-.3-.8-.8-.2-1.2-.2-.4.1-1-.1-.8.5zM858.1 232.3c.1-.2-.1-.3-.2-.4-.3-.1-.6-.3-.9-.1-.2.2.1.4.2.5.4.2.7.3.9 0zM279.3 428.3v.3h.2c.1-.1.1-.3 0-.3 0-.1-.2-.1-.2 0zM250.3 472.4c.7.8.9.2 1.3-.4.1-.2.3-.4.5-.6l-2 1s.1-.1.2 0zM261.5 434.6c-.1 0-.1.1-.2.1 0 .1.1.2.1.2.1 0 .1-.1.2-.1 0-.1-.1-.2-.1-.2zM260.1 440.2c-.1 0-.1 0-.2.1 0 .1.1.1.1.2.1 0 .2 0 .2-.1s0-.2-.1-.2zM253.7 473.5c-.3.2-1.1.1-.9.9.4.1.8.3 1.3 0 .4-.3.6-.7.4-1-.2-.6-.6 0-.8.1zM253.6 475.7c0-.1-.1-.2-.2-.3-.1.1-.2.1-.2.2s.1.3.2.3c0-.1.2-.2.2-.2zM270 401.3c-.5.4-.2.6.3.7.9.1 1.5-.6 1.2-1.4-.2-.5-.1-1.1-.6-1.4-.5-.1-.8.1-1.1.4-.3.3-.2.6.2.9.4.1.7.4 0 .8zM252.8 474.4zM254.1 479.6c-.1-.1-.3-.2-.4-.3-.2 0-.3.2-.2.4.1.1.2.2.4.2l.2-.1c.1 0 .1-.1 0-.2zM275.2 426.5c-.2.1-.2.3-.1.4.2.2.4.4.7.3.2-.2.1-.3 0-.5-.2-.1-.4-.3-.6-.2zM278.5 402c-.4-.2-.5.2-.7.4l-.3.3c.4 0 .8-.1 1.2-.2.1-.2.1-.4-.2-.5zM281 395.5c-.4-.1-.7-.2-1 .2-.1.2.1.3.3.3.3 0 .7.3.9-.1.2-.2 0-.4-.2-.4zM264 437.2c-.1-.2-.3-.3-.5-.4-.2 0-.4 0-.4.2 0 .4.2.6.6.6.1.1.1.2.3.3.1.1.2.1.3-.1 0-.2-.1-.4-.3-.6zM265.1 442c0-.1-.1-.3-.2-.3-.2 0-.3.1-.2.2 0 .1.1.2.2.2 0 .1.1.1.2-.1zM264 439.8c-.2 0-.3.1-.4.2-.1.1 0 .2.2.3.2 0 .3-.1.4-.2 0-.1 0-.2-.2-.3zM262.4 431.9c-.3 0-.6 0-.7.4.1.6.5.6.9.7.3 0 .7-.1.7-.4 0-.6-.5-.6-.9-.7zM269.5 386.9c0 .1.1.1.1.2.1 0 .2 0 .2-.1v-.2c-.2-.1-.3 0-.3.1zM251.5 476.5c.1-.3.1-.4 0-.6-.1-.1-.3-.1-.5 0s-.3.2-.4.3c-.5.4-1.2.8-1.4 1.6 0 0 .2.1.3.1.9-.3 1.6-.7 2-1.4zM275.3 400.5c0 .3 0 .6.4.8h.4c.5-.2 1 .8 1.4.3.4-.5-.3-.9-.6-1.3-.4-.6.1-1 .5-1.4.2-.2.6-.5.4-.8-.3-.4-.6 0-.9.2-.9.6-1.6 1.1-1.6 2.2zM275.8 394.7c-.3-.1-.6-.2-.8.2-.1.2 0 .4.2.4.3.1.6.1.8-.2.1-.2 0-.3-.2-.4zM240.1 484.6c-.3-.1-.4 0-.4.2.2.6.3 1.2.5 1.7l1.4-.7s0-.1-.1-.1c-.3-.4-1-.6-1.4-1.1zM281 397c-.3-.1-.6.1-.8.4-.1.2 0 .4.2.4.4.2.6 0 .8-.4 0-.1 0-.3-.2-.4zM277.1 386.6c-.2-.1-.4 0-.5.1-.1.4.2.6.5.8.2.1.3.1.5-.1 0-.3-.1-.6-.5-.8zM269.3 395.2c-.2-.1-.4 0-.5.3-.1.3 0 .5.2.7.2.1.4 0 .5-.2.1-.4.1-.7-.2-.8zM278.1 385.7c.1-.1 0-.3-.2-.3-.1 0-.3 0-.4.1-.1.1 0 .2.1.3.2.1.4.1.5-.1zM217.7 496.1c.1-.2.2-.3 0-.5-.1-.1-.2 0-.3.1-.1.2-.2.3 0 .5.1.1.2 0 .3-.1zM234.4 488.8c-.2-.3-.9-.3-1.1-.1-.4.4.2.7.4 1l.1.1 1.1-.5c-.3-.2-.4-.4-.5-.5zM236.9 487.7c-.4-.1-.7 0-.9.4-.1.2 0 .4.2.3h.1l.9-.4c.1-.1-.2-.2-.3-.3zM248.3 473.8c.1.1.1.2.2.2s.1-.1.2-.2c-.1-.1-.1-.2-.2-.2-.1.1-.1.2-.2.2zM242.3 482.7c-.2.3-.1.5.2.7.3.1.5 0 .7-.3.1-.3.1-.6-.2-.7-.3-.2-.5 0-.7.3zM237.6 482.2c.1.6.2 1.1.6 1.5.5-.2 1-.4.9-.8-.1-.6-.6-1-1.1-1.3-.3-.2-.5.3-.4.6zM252.6 475.3c.3.1.3-.2.3-.5 0-.1 0-.2-.1-.4-.1.1-.2.2-.3.4-.1.2-.1.4.1.5zM170.4 514c-.2.1-.3.2-.1.4.1.2.3.2.5.1.1-.1.2-.2.1-.3-.1-.3-.3-.3-.5-.2zM197.8 499.8c.1-.4.9-.9.2-1.3-.6-.3-.9.2-1.1.7-.2.4-.5 1.1 0 1.3.7.4.6-.4.9-.7zM157.2 524.8c-.6 0-1.3 0-1.8.5-.1.2 0 .4.1.4h-.1c-.1 0-.2.1-.3.2 0 .2.2.3.4.3.1 0 .3-.1.3-.2s0-.1-.1-.1c.7.1 1.2-.3 1.8-.6.1-.2 0-.4-.3-.5zM203.9 499.6c0 .1.1.2.1.2.2 0 .2-.1.2-.2s-.1-.1-.2-.1l-.1.1zM201.6 498.9c0 .3.1.6.4.6.4 0 .6-.4.6-.7.1-.2 0-.5-.3-.5-.4.1-.6.3-.7.6zM196.1 507.4c.2.1.5.1.5-.2.1-.4.1-.7-.2-1-.2-.2-.4-.1-.5.2-.1.4-.1.7.2 1zM196.3 503.9c-.1 0-.2-.1-.2-.1-.1 0-.1.1-.1.2.1 0 .2.1.2.1s0-.1.1-.2zM161.5 521.2c.1.2.2.3.4.3s.3-.1.3-.3c0-.2-.2-.3-.4-.3-.2-.1-.3 0-.3.3zM140.8 527.9c0 .1.1.1.2.1 0-.1.1-.1.1-.2 0-.2-.1-.2-.3-.1v.2zM220 516.3v.2c.1.1.2.1.3 0v-.2h-.3zM133.4 532.8c.2.1.4 0 .4-.2s-.1-.4-.3-.5c-.1 0-.3 0-.3.2-.1.2 0 .4.2.5zM154.7 527.2c-.1.2-.2.4.1.4.3.1.5 0 .7-.3.1-.2 0-.4-.1-.5-.4-.2-.5.2-.7.4zM145.6 528.2c-.4.1-.3.5-.3.8.1.3.2.5.6.4.3-.1.3-.4.2-.7-.1-.3-.2-.6-.5-.5zM153.7 526.3v.2c.1.1.2 0 .3-.1.1-.1.1-.3 0-.4-.2 0-.3.2-.3.3zM285.3 398.2c.1-.2 0-.4-.2-.4s-.4.1-.5.3c-.1.2-.1.4.1.4.3.1.5-.1.6-.3zM295.3 376.7c-.1 0-.2.2-.2.3 0 .1.1.2.2.3.1 0 .3-.1.3-.2 0-.4-.1-.5-.3-.4zM208.2 433.7c-.5-.2-.8.1-1 .5-.1.2-.1.3 0 .4.5-.1.9-.3 1.4-.4-.1-.2-.2-.4-.4-.5zM209.9 432.1c.1.2.3.4.5.3.3-.1.4-.4.3-.7-.1-.2-.3-.4-.5-.3-.3.1-.3.4-.3.7zM209.9 414.4c0-.2-.1-.3-.3-.4-.3 0-.6 0-.7.3-.1.2.1.3.3.3.3.1.6.2.7-.2zM282.6 378.2c.1-.1 0-.3-.2-.3-.3 0-.5.1-.7.3-.1.1 0 .2.2.3.3 0 .6 0 .7-.3zM287.9 389.1c0 .2 0 .5.1.6.1.1.2.1.3-.1.1-.2.1-.4-.1-.6-.1-.1-.3-.1-.3.1zM288.5 377.6c-.2-.1-.4-.1-.6.1-.2.2-.1.3.1.4.2.1.4.1.6-.1 0-.2 0-.3-.1-.4zM210.3 423.2c0-.1-.1-.2-.3-.1 0 0-.1.2 0 .2 0 .1.1.1.2.1 0-.1.1-.2.1-.2zM206.5 493.8c.3-.1.5-.4.6-.6l-1.5.7c.4 0 .6 0 .9-.1zM204.8 503.1c0 .2.2.1.2 0 .1-.1.1-.2.1-.3-.1-.1-.2-.1-.2 0s-.1.2-.1.3zM216.5 416.3c-.1 0-.1.1-.1.3.1.2.2.2.3.1.1 0 .1-.1.1-.2.1-.2 0-.3-.3-.2zM212.4 415.1c0-.1-.1-.2-.2-.3-.1.1-.3.1-.3.1-.1.1 0 .2.1.3.1.1.3.1.4-.1zM211.5 432.6c.1-.3-.1-.4-.3-.5-.2 0-.4 0-.4.2s.1.4.3.5c.2.1.3 0 .4-.2zM204.4 497.4c-.1.1-.1.2 0 .3.1.1.3 0 .3-.1v-.2c-.1 0-.2-.1-.3 0zM199.6 481.4c-.3 0-.5.2-.7.4l-.6.6c.5-.2 1.1-.4 1.6-.6v-.1c.1-.1-.1-.3-.3-.3zM236.9 462.7c.1-.6-.1-1.2-.1-1.8-.8 0-1.7-.3-2.2 0-.7.5.9 1.1.2 2-.1.2.5.2.7 0 .1-.1.2-.2.3-.2.5-.2 1 .5 1.1 0z"/><path class="st0" d="M236.1 463.5s-.1-.2-.1-.3c-.1-.1-.2-.1-.3-.2 0 .1 0 .2.1.3 0 .1 0 .3.3.2zM218.7 459.1s.2 0 .2-.1c.3-.5 0-.8-.3-1.1v.1c-.1.4-.4.8.1 1.1zM202.5 434.3c-.3-.2-.5-.7-.9-.2-.2.3.2.6.4.8.2.2.5.5.6.8.4-.1.7-.1 1.1-.2-.3-.5-.7-.8-1.2-1.2zM202.5 423.5c.3-.2.7-.3.6-.8 0-.2-.3-.2-.4-.2-.4.1-.5.4-.6.8.1.3.3.3.4.2zM201.7 428.3c.4 0 .5-.3.6-.6.1-.1.1-.3-.1-.5-.4.1-.4.4-.5.7-.1.1-.3.4 0 .4zM235.3 460.3c.1-.4-.2-.5-.5-.5s-.7 0-.7.4c0 .3.3.4.6.4.3.1.6 0 .6-.3zM235.6 462.9zM216.7 468.2l-.2-.1c-.1.1-.2.2-.1.3 0 0 .1 0 .2.1.1-.1.2-.2.1-.3zM216.4 471.3c.1 0 .1.1.2.1s.1-.1.1-.2c-.1 0-.1-.1-.2-.1-.1.1-.1.1-.1.2zM216.5 461.8c0-.2-.2-.3-.4-.3s-.2.2-.1.4c.1.1.2.3.4.2.1-.1.1-.2.1-.3zM239.8 456.7c.1 0 .1 0 0 0 0-.1-.1-.1-.2-.1.1.1.1.1.2.1zM228.5 462.1c.1.2.2.3.4.3s.2-.2.1-.3c-.1-.1-.2-.2-.3-.2-.2-.1-.3 0-.2.2zM219.7 455.9c-.1 0-.2 0-.3.1v.4c.6.5.9 1.2 1.4 1.8.1.2.5.4.7.2.3-.2.1-.5 0-.7-.2-.8-.9-1.3-1.8-1.8zM222 461.2c0 .1 0 .3.2.3s.3 0 .3-.2c0-.1 0-.3-.2-.3s-.3.1-.3.2zM201.9 421.4c-.2 0-.3.1-.2.3.1.2.3.2.5.1.1-.1.2-.2.1-.3-.1-.1-.2-.1-.4-.1zM209.2 499.3c.1 0 .1-.1.2-.1 0-.1-.1-.2-.1-.2-.1 0-.2 0-.2.1-.1.1 0 .2.1.2zM207.9 496.2c-.1.3.1.6.3.8.2.1.3-.1.4-.3 0-.3.1-.6-.3-.8-.2 0-.3.1-.4.3zM206.9 499.3c-.1.2-.2.4 0 .5.2.2.3 0 .4-.1.1-.2.2-.4 0-.5-.2-.2-.3 0-.4.1zM212.7 497c.1 0 .1-.2.1-.3 0-.1-.1-.2-.3-.2-.1.1-.1.2-.1.3 0 .2.2.3.3.2zM211.1 498.4c-.3-.1-.6-.1-.7.3-.1.3.2.5.4.6.7.4 1.7.3 2.3-.3.2-.2.3-.5.1-.7-.2-.2-.4-.2-.6-.1-.5.4-1 .4-1.5.2z"/><path class="st0" d="M213.3 494.9c-.4-.2-.6.2-.8.5-.1.3-.4.7 0 1 .4.3.7-.1.8-.4.1-.4.5-.8 0-1.1zM197.7 413.7c-.1 0-.2.1-.2.3.1.3.4.3.6.4.1 0 .3-.1.2-.3-.1-.3-.3-.4-.6-.4zM191.7 425.3c.1-.2.1-.4.1-.6 0-.2-.2-.1-.3-.1-.1.2-.2.4-.1.6.1.1.2.2.3.1zM198.4 431.3c-.2 0-.4.2-.3.4.2.5.6.2.9.2.2-.1.4-.1.3-.3-.1-.4-.5-.4-.9-.3zM198.4 432.8c-.2 0-.2.2-.2.4.2.3.4.5.8.4.2-.1.3-.2.2-.4-.2-.3-.5-.4-.8-.4zM199.7 426.9c.3 0 .4-.2.4-.4 0-.3-.2-.4-.4-.4s-.3.2-.3.3c-.1.4 0 .5.3.5zM194.6 434.2c.2-.1.2-.2.1-.4s-.3-.3-.5-.3-.3.2-.2.4c.1.2.3.4.6.3zM199.9 416c-.2-.1-.4-.1-.5.1-.1.2.1.3.3.4.2.1.3.1.5-.1 0-.3-.2-.3-.3-.4zM261.4 399.7c0-.3-.1-.4-.3-.5-.1-.1-.3 0-.3.1 0 .2.1.4.3.5.2.1.3.1.3-.1zM199.6 423.7c0 .1.1.2.2.3.2.1.4 0 .4-.2 0-.1-.1-.2-.2-.3-.2-.1-.4-.1-.4.2zM186 477.5c.1.1.2.2.3.1.1-.1.1-.2 0-.3-.1-.1-.2-.2-.3-.1-.1.1-.1.2 0 .3zM183.7 469.4c-.1.1-.2.1-.4.2.2.1.4-.1.4-.2zM191.6 466.3c.3 0 .5-.1.6-.4.1-.1 0-.2-.2-.3-.2.1-.5 0-.7.3-.1.3.1.4.3.4zM218.6 457.9zM192.4 469c1-.3.4-.5 0-.7-1-.7-1.2-.6-1.3.6v1.2c0 .4.3.6.6.6.5 0 .5-.3.4-.7-.1-.4-.2-.9.3-1zM201.5 460.9h.1c.1-.4.3-.6.6-.8-.4.2-.7.3-1.1.5.1.1.2.1.4.3zM196.1 478.1c.1-.2.1-.4-.2-.4-.1 0-.2.1-.3.1-.1-.2-.3-.3-.5-.4-.4-.1-.3.4-.4.7.1.4-.1 1.1.5 1.2.4.1.7-.3.7-.7v-.4c.1.1.1 0 .2-.1zM235.7 464.7c-.1.1-.1.2-.2.2.2-.1.3-.2.5-.3-.1 0-.2 0-.3.1zM215.6 498.4c.1-.1.2-.2.2-.3 0-.1-.2-.2-.3-.1-.3.1-.5.2-.7.3-.2.1-.3.1-.5.2s-.6.1-.5.5c.1.2.3.3.5.2l.3-.2c.3-.2.7-.4 1-.6zM186.9 480.5c-.3-.2-.6-.2-.8.2-.3.5-.5.9-1.1.8-.2 0-.4.1-.4.3v.2c.6.1 1.1.3 1.6.4.2-.4.6-.6.8-1 .2-.3.2-.6-.1-.9zM207.6 457.5c.1 0 .1 0 0 0 .1 0 0 0 0 0zM202.6 472.4c-.1.3.1.6.3.8.2.1.4.1.4-.1 0-.3-.2-.6-.4-.8-.1-.1-.2-.1-.3.1zM203.7 430.7c-.2.1-.3.2-.2.4.2.3.5.3.8.2.2-.1.3-.2.2-.4-.2-.3-.5-.3-.8-.2zM203.5 427.4c-.1 0-.2.1-.3.3-.1.2.1.3.3.3.2 0 .3-.1.4-.3-.1-.1-.2-.3-.4-.3zM198.9 480.5c.2.3.5.5.8.1.2-.3.2-.6-.1-.8-.3-.2-.7-.4-1-.7-1.1-.6-1.3-.5-1.3.7 0 .5-.2 1.1.6.4.4-.3.7 0 1 .3zM213.9 474.3c.2-.1.3-.3.3-.5s-.1-.3-.3-.2c-.3.1-.4.3-.4.6.1.2.2.2.4.1zM214 468.9c.1-.1.2-.2.1-.3 0-.1-.1-.1-.2-.1s-.2.2-.1.3c0 0 .1 0 .2.1zM211.7 462.5c.3 0 .4-.2.3-.5 0-.2-.1-.4-.4-.5-.3 0-.4.2-.4.5.1.3.2.5.5.5zM213.4 467.4c.1.1.1.2.2.3h.3c-.1-.1-.1-.2-.2-.3h-.3zM211.8 460c0-.1-.1-.2-.3-.2-.3.1-.5.2-.6.5 0 .2.2.3.3.3.4-.1.6-.3.6-.6zM218.6 457.9c-.1-.5 0-1.2-.8-1.2-.7 0-1.4.5-1.8 1.1-.2.4.3.4.5.3.7-.3 1.4-.4 2.1-.2zM218 461.3c.5.1 1 .1 1.3-.2.2-.3-.2-.2-.4-.3-.4-.1-.8-.4-1.1 0-.2.2 0 .5.2.5zM211.7 472.3c.2.1.3-.1.4-.3.1-.3.1-.5-.1-.7-.3 0-.3.3-.4.4-.1.2-.2.5.1.6zM209.2 462.6c0 .2 0 .4.3.5.4-.1.4-.5.4-.8 0-.2.1-.5-.3-.5-.3.2-.3.5-.4.8zM206.2 475c-.2 0-.5-.1-.6.1-.1.2 0 .3.2.4.3.1.5.1.7-.2.1-.3-.1-.3-.3-.3zM205.8 478c0 .1.1.2.1.2.2 0 .4 0 .5-.1l-.1-.2c-.2-.1-.4-.1-.5.1zM210 474c.1.1.1.2.2.3l.2-.2c0-.1-.1-.3-.2-.3s-.2.2-.2.2zM211.7 467.6v.2c.1.1.2 0 .3-.1 0-.1 0-.2-.1-.2 0-.1-.1 0-.2.1zM203.7 475.8c0 .1.1.2.2.2s.2 0 .2-.2c0-.1-.1-.1-.2-.1-.1-.1-.1 0-.2.1zM144.3 529.4c-.1.1 0 .3.1.3.2 0 .4-.1.6-.3.1-.1 0-.2-.1-.3-.3 0-.5.1-.6.3zM341 349.7c.3-.4.2-.8.2-1.3 0-.2-.2-.3-.4-.1-.3.4-.5.8-.3 1.2.1.3.2.3.5.2zM340.5 353.9c.2.3.6.1.8-.1.2-.2.4-.4.2-.7-.2-.3-.5-.2-.7 0-.2.2-.5.4-.3.8zM396.8 497.4c0 .2.1.2.2.3.1 0 .3 0 .3-.1s-.1-.2-.2-.3c-.1-.1-.3-.1-.3.1zM397.7 479.2c-.2 0-.3.2-.1.4.2.2.5.4.8.3.1-.1.2-.2.1-.3-.2-.2-.5-.4-.8-.4zM299.4 486.7c.4-.2.8-.3 1.2-.5-.1 0-.1 0-.2-.1-.4-.1-.7.3-1 .6zM296.6 537.5c.1-.1.1-.2.1-.4 0-.1-.1-.3-.2-.1-.1.1-.1.2-.1.3 0 .2 0 .4.2.2zM309.3 534.6c-.7.3-1.3.5-2 .9-.3.2-.2.5 0 .7h.1c.7-.5 1.4-1 2-1.6 0-.1 0 0-.1 0zM300.1 528.4c-.3-.3-.5.1-.6.2-.3.3-1 .4-1 1 0 .2.1.3.3.4.7 0 .8-.6 1.2-1 .1-.2.3-.4.1-.6zM391.9 484.4c-.2-.3-.5-.7-.7-1-.2-.3-.5-.3-.8-.1-.4.3-.2.5.1.7.3.3.7.6.3 1-.6.8 0 .6.5.6 1.2.1 1.2-.1.6-1.2zM387.3 503.2s-.1.2 0 .2c.1.1.2.2.3 0v-.2c-.1-.1-.2-.1-.3 0zM391.1 496.9c.3-.2.4-.5.1-.8-.2-.3-.6-.3-.9-.1-.6.4-.9 1.3-1.9 1l-.1.1c.4.9-.4 1.8 0 2.7.1.1.2.2.3.2.1 0 .2-.1.3-.3.1-.7.3-1.3 1.3-1.3.2 0 .3-.2.3-.4-.3-.5.1-.8.6-1.1zM393.1 487.6c.2-.2.4-.4.4-.6 0-.2-.3-.2-.4-.1-.3.1-.3.4-.3.7h.3zM392.7 407.8c-.1.2-.3.4-.3.6 0 .2.2.2.3.1.2-.1.3-.3.3-.6-.1-.1-.2-.2-.3-.1zM393.8 458.5c0 .3.1.5.4.5.3 0 .4-.1.4-.4 0-.2-.1-.3-.3-.4-.3-.1-.4.1-.5.3zM222 523.9c-.3.2-.2.5 0 .8.3-.1.5-.2.8-.3 0-.1-.1-.1-.1-.2-.2-.1-.4-.5-.7-.3zM289.7 528.7c.2-.2.7-.3.4-.7-.1-.2-.3 0-.5.1-.2.2-.4.3-.5.6.3.2.5.1.6 0zM386.5 399c.1.2.3.3.5.2.1-.1.1-.2 0-.3-.1-.1-.2-.2-.4-.2s-.1.2-.1.3zM291.5 535.6c.1-.3-.1-.5-.3-.5-.3 0-.4.1-.5.4 0 .2.1.4.2.4v.2c0 .1.1.1.2.1.1-.1.1-.2.1-.3.2-.1.3-.2.3-.3zM291.1 543.4c-.1 0-.2 0-.2.1v.1c.1 0 .1 0 .2-.1v-.1zM283.4 537.6c.2.2.2.7.6.5.2-.1 0-.3-.1-.5s-.3-.5-.5-.5c-.2.2-.1.4 0 .5zM292.7 527.4c-.4-.1-.5.1-.5.2.2.6-.1 1.5.6 1.8.4.2 1.1-.1 1.1-.7.1-.8-1-.7-1.2-1.3zM283.4 531.6c-.2 0-.2.1-.3.2 0 .1-.1.3.1.3.1.1.2 0 .3-.2 0-.1 0-.2-.1-.3zM289.1 544.5c.1-.1.3-.1.4-.2-.1 0-.3 0-.4.1v.1zM302.7 517.7c.2-.4.1-.7-.3-.9-.4-.3-.7-.3-1.1.2-.1.3-.1.7.3.9.4.1.8.3 1.1-.2zM301.5 521.7c-.2.3-.1.5.2.7.2.1.5.3.7 0 .2-.3-.1-.5-.3-.7-.2-.1-.4-.2-.6 0zM300 532.3c-.1-.1-.2-.1-.3-.2-.1 0-.3.1-.2.2.1.2.2.2.4.2.2.1.2-.1.1-.2zM299.5 533.6c-.2.1-.3.2-.2.4.1.2.3.1.5 0 .1-.1.2-.2.2-.3-.2-.2-.4-.2-.5-.1zM309.3 522.2l.2.1c.1-.1.2-.2.1-.3 0 0-.1 0-.2-.1-.2 0-.2.2-.1.3zM276.2 526.5l.2.2c.3.2.7.4 1.1.1.2-.4-.1-.6-.3-.8-.1-.1-.2-.1-.3-.2-.3.2-.5.4-.7.7zM313.1 527.3c-.1.1-.2.2-.1.3.1.1.2.1.3.1.2-.1.3-.3.2-.4-.1-.1-.3-.1-.4 0zM284.1 529.2c-.1 0-.3 0-.3.1 0 .2.1.2.2.3.1 0 .3 0 .3-.1 0-.2-.1-.3-.2-.3zM376.5 509.6l-.3-.6v.7c.1 0 .2 0 .3-.1 0 .1 0 .1 0 0zM377.9 510.2c.6-.5.8-1.2.8-2 0-.5-.5-.1-.6.1-.4.6-.9 1.1-1.5 1.4.3.3.7 1 1.3.5z"/><path class="st0" d="M376.6 509.7c-.1 0-.1 0 0 0-.1 0-.1 0 0 0-.1 0-.1 0 0 0-.1.1-.1 0 0 0zM376.9 489.5c0 .1.1.2.2.2.2 0 .3 0 .2-.3 0-.1-.1-.2-.2-.2-.2 0-.3.1-.2.3zM376.4 413.6c.2 0 .5-.3.7-.4.2-.2.5-.4.4-.8-.2-.4-.5-.2-.8-.1-.3.1-.6.2-.9.2v1.1c.1-.1.3 0 .6 0zM377.4 486.7h.2v-.2c-.1 0-.2-.1-.2-.1-.1.1-.1.2 0 .3zM386 417.3c-.1.1-.2.2-.1.4.1.1.2.1.4-.1 0-.1.1-.2.1-.3-.1-.3-.3-.2-.4 0zM453.6 522.9c.1 0 .1.1.2.1.2 0 .2-.1.2-.2s-.1-.1-.2-.1-.1.1-.2.2zM377.9 478.8c.1-.4.2-.8.2-1.2 0-.4.5-.9-.1-1-.5-.1-1.1.2-1.3.8-.3.8.3 1.4.4 2.1 0 .2.3.2.5.1.3-.2.3-.5.3-.8zM450.9 540.8c0-.1 0-.1 0 0 0-.3-.1-.4-.2-.4 0 .1.1.2.2.4zM379.9 502.7c.2-.2.2-.4 0-.6-.1-.3-.4-.4-.6-.2-.2.2-.2.4 0 .6.1.2.3.3.6.2zM399.9 398.8c-.1 0-.2-.1-.3 0-.2 0-.3.2-.2.4.1.2.3.3.5.3v-.7zM399.5 469.8c-.2 0-.3.1-.2.2 0 .1.2.2.3.2.1 0 .2 0 .3-.1-.1-.1-.2-.2-.4-.3zM376.8 512c.1 0 .2-.1.1-.3 0-.1-.2-.3-.3-.3-.2 0-.3-.1-.5-.1v.7h.7zM379.5 488.2c.3.1.6.1.5-.3-.2-.7-.4-1.4-.7-2 0-.1-.2-.2-.2-.3-.2 0-.3 0-.4.2-.3.5.3 2.2.8 2.4zM380.8 503.3c-.2.2-.3.5-.1.7.1.1.2.1.3 0 .2-.2.3-.5.2-.7-.1-.2-.3-.2-.4 0zM381.2 482.5c-.2-.1-.3 0-.4.2-.1.3-.2.5.1.7.2.1.3 0 .4-.2.2-.2.2-.5-.1-.7zM381.2 500.3c-.1-.2-.3-.3-.5-.2-.2.3 0 .6.2.8.1.2.3.5.5.2.1-.2-.1-.5-.2-.8zM378.3 408.5c-.9 0-1.9-.1-2.6.8 0 0 0 .1-.1.1v.8l.2.2c.5.2.3 1.3 1 1.1.6-.2.3-.9.3-1.4 0-.7.7-.7 1.2-.8.3 0 .8 0 .8-.4 0-.6-.5-.4-.8-.4zM385.7 453.8c.1-.1.1-.2 0-.4-.1-.1-.3 0-.3.1v.3c0 .2.2.2.3 0zM384.6 413c-.2.1-.3.2-.2.4.2.3.4.2.7.1.2-.1.2-.3.1-.4-.1-.2-.3-.2-.6-.1zM382.3 410.4c.2-.1.3-.3.1-.5-.2-.3-.5-.3-.9-.2-.2.1-.2.3-.1.5.3.4.6.4.9.2zM385.6 399.3c-.1-.2-.3-.3-.4-.2-.4.3-.2.6-.1 1 .1.2.2.3.4.2.3-.3.3-.6.1-1zM383.4 409.2c.2-.1.2-.3 0-.5-.2-.3-.5-.6-.9-.5-.2.1-.1.3 0 .4.3.4.4.8.9.6zM378.9 404.6c-.2.1-.2.3-.1.5.2.3.4.4.8.3.2-.1.2-.3.1-.5-.2-.2-.4-.4-.8-.3zM379.5 485.2c-.1.2-.1.3 0 .5 0 0 .2-.1.3-.1v-.4c-.1-.2-.2-.1-.3 0zM379.4 394.9v.2c.1 0 .2.1.2 0 .1 0 .1-.1.1-.2-.1-.1-.2-.1-.3 0zM382.1 473.4c.1-.1.2-.3 0-.5-.2-.1-.3 0-.4.2-.1.1-.2.3 0 .5.2.1.3-.1.4-.2zM383.6 480c.4-.2 0-.5-.1-.8-.3-.3-.5-.9-1.1-.6-.4.2-.4.6-.1.9.2.5.7.8 1.3.5zM395.1 395.9c.1-.1.1-.2 0-.3-.2-.2-.5-.2-.7-.1-.1.1-.1.2 0 .3.2.2.5.3.7.1zM37 489.2s0-.1 0 0c-.3.1-.6.3-.9.4h.1c.3.1.6-.1.8-.4zM108.4 436.1c-.1.1-.2.2-.1.4.1.1.2.1.4-.1 0-.1.1-.2.1-.3-.1-.2-.3-.1-.4 0zM115.1 426.7c-.1.2-.3.4-.3.6 0 .2.2.2.3.1.2-.1.3-.3.3-.6-.1-.1-.2-.3-.3-.1zM96.6 437.1c-.3.1-.5.2-.7.2l.5 1.1c.3.2.7.4 1.1 0 .5-.4.1-.8 0-1.2-.3-1.1-.7 0-.9-.1zM167 454.9c-.3 0-.6.1-.7.4.2-.1.5-.3.7-.4zM133.7 470.1c-.1 0-.1.1-.1.2 0 .2.1.2.3.2.1 0 .1-.1.1-.2 0-.2-.1-.3-.3-.2zM128.6 462.6c.1-.1.1-.2 0-.3 0 0-.2 0-.2.1v.2c.1 0 .2.1.2 0zM96 433.1c-.2.3-.5.7-.1.9.3.2.8-.1.9-.4.4-.7.8-1.3 1.6-1.2l-.5-1c-.3.1-.5.1-.8.2-.5.3-.8.9-1.1 1.5zM63 432.4c.1-.1.1-.2 0-.3h-.2l-.3.3c.2 0 .4.1.5 0zM77.1 442.2c0 .1.1.3.1.3.2.3.5.5.7.8.2.3.4.6 0 .9-.3.2-.4.5-.2.8.2.3.2 1 .6 1 .3 0 .2-.6.4-.9.7-1.5.2-2.7-1.4-3.1 0 .1-.2.1-.2.2zM60.9 481.5v.1c.8.5.7 1.6 1.6 2.2.1 0 .2.1.3 0 .1-.1.1-.3 0-.4-.3-.6-.6-1.3.2-1.8.2-.1.1-.3 0-.5-.4-.4-.4-.7-.2-1.2h-1.2c0 .8 0 1.4-.7 1.6zM103.9 429.1c.2.4.5.3.8.2.2-.1.3-.3.1-.5-.2-.3-.5-.3-.9-.2-.1.1-.1.3 0 .5zM140.9 442c.1-.1.2-.2 0-.3h-.5c0 .1 0 .2.1.2.2.1.3.2.4.1zM98.1 428.2c-.2.3-.4.5-.2.8l.2.2.2-.2c.2-.1.3-.2.4-.3.1-.1.3-.1.5-.2h.3c.2-.4.7-.4 1.1-.4.3 0 .8 0 .8-.4 0-.5-.5-.4-.8-.4-.9 0-1.8 0-2.5.9zM104.9 427.2c-.2.1-.1.3 0 .4.2.2.3.5.5.5-.1-.3-.3-.7-.5-.9zM299.8 454.7c-.3.1-.4.4-.2.7.2.3.4.3.7.2.3-.2.4-.4.2-.7 0-.1-.1-.1-.1-.1h.1c.1 0 .2-.1.2-.1 0-.1-.1-.1-.1-.2-.1 0-.2 0-.2.1v.2c-.2-.2-.4-.1-.6-.1zM269.7 472.3c.1-.1.1-.1 0 0 .1-.1 0-.1 0 0zM302.2 453.3c.1-.4-.1-.7-.3-.9-.3-.1-.6-.1-.7.2-.1.4.2.6.5.8.2.2.4.2.5-.1zM232.2 505.4c0 .1 0 .3.1.3.2 0 .2-.1.3-.2 0-.1 0-.3-.1-.3-.2 0-.3.1-.3.2zM225 508.9c.3.5.6 1.1 1.3.4.3 0 .9.3.5-.5s-.9-1.5-1.5-2.1c-.5.2-1.1.5-1.6.7.5.4.9.8 1.3 1.5zM226.8 514.8c.1 0 .3-.1.3-.1-.1-.8-.8-1.1-1.3-1.6-.1-.1-.3-.2-.4-.3-.2-.1-.3-.1-.5 0s-.1.3-.1.6c.5.7 1.2 1.2 2 1.4zM308 453.3c-.2 0-.4 0-.4.3 0 .1.1.1.1.2l.8-.4c-.1-.1-.3-.1-.5-.1zM293.8 486c.1-.2 0-.3-.2-.4-.2 0-.3 0-.3.2 0 .1.1.2.2.3.1.1.3.1.3-.1zM254.3 470.3c.4 0 .7-.2.8-.4l-.8.4zM288.3 486.1c0 .1 0 .1.1.2.1 0 .2 0 .2-.1.1-.1.1-.2-.1-.3l-.2.2zM312 450.9c.1-.1.1-.2.1-.3.1-.3.3-.8-.1-1-.5-.2-.6.4-.8.7-.2.3-.3.8.2.9.3.1.5-.1.6-.3-.1.2.3.3.4.5v.2l3.1-1.5c-1.1 0-2.2.3-3.2.7-.2 0-.3 0-.3.1zM298.1 394.8c-.2.1-.2.3-.1.4.2-.1.5-.2.7-.4-.1-.1-.3-.2-.6 0zM294.7 484.6c-.1 0-.3.1-.3.1-.1.2 0 .3.2.4.2 0 .3 0 .4-.2 0-.2-.2-.3-.3-.3zM164.6 401.1c.1 0 .1 0 .2-.1 0-.1 0-.2-.1-.2-.1-.1-.2-.1-.3.1l.2.2zM136 620l.6-.6c.2-.2.3-.4.2-.7l-.1-.1c-.8.6-1.2.1-1.6-.6 0 0-.2 0-.2.1-.2.5-1 .9-.8 1.5.3.6 0 1-.2 1.4.6-.3 1.4-.6 2.1-1zM175.7 537.9c-.2 0-.1.4 0 .6 0 .1.1.2.1.3.1-.2.2-.5.3-.8-.1 0-.2-.1-.4-.1zM287.2 521.3c0-.3-.2-.4-.4-.5-.3 0-.4.1-.4.4 0 .3.2.4.4.5.3-.1.4-.2.4-.4zM154.8 558.6v.2c.1-.1.2-.1.3-.2 0 0 0-.1-.1-.1 0-.1-.2-.1-.2.1zM151.2 609.7c-.3.2-.7.3-.5.7 0 0 0 .1.1.1.3-.3.7-.6 1-.9-.2-.1-.4 0-.6.1zM82.7 561.4c-.2 0-.4.1-.4.3.1.4.1.9.5 1.2h.1l.2-.1c.1-.1.1-.2.1-.3 0-.4 0-.9-.5-1.1zM106.1 633.9c.2-.1.3-.2.3-.4 0-.3-.3-.2-.4-.1h-.1v.5c.1.1.1.1.2 0zM117.2 546c-.2 0-.2.2-.1.3 0 0 0 .1.1.1l.3-.1c-.1-.2-.2-.3-.3-.3zM100.3 554.2c-.2-.4-.4-.8-.9-.6-.4.2-.5.5-.4.9.1.2.1.3.3.4l1.1-.5s0-.1-.1-.2zM233.8 519.9c-.1-.3-.4-.4-.7-.3-.3.1-.3.4-.2.7 0 .1.1.2.2.2.3-.1.5-.2.8-.4 0-.1 0-.2-.1-.2zM195.9 578.3c0 .1 0 .3.1.4.1.1.2 0 .2-.1s-.1-.2-.1-.3c-.1-.1-.2-.1-.2 0zM285.2 538.3c-.2.1-.4.1-.7 0-.2-.1-.5-.1-.6.2-.1.3 0 .6.3.7.7.3 1.4.5 2.2.5.3 0 .5-.2.1-.8-.1-.6-.4-1.3-1.3-.6zM265.4 552.1c.2.1.4.1.5-.1.2-.3-.1-.5-.3-.7-.1-.1-.2-.1-.3-.1v.7c0 .1 0 .1.1.2zM193.6 581.6c.1 0 .1.1.2.1s.2-.1.1-.2l-.1-.1c-.1.1-.1.2-.2.2zM191.4 580.8c-.3.5 0 1.2.4 1.2.7.1 1.1-.7 1.6-1 .1-.1.1-.3-.2-.5-.5.4-1.3-.4-1.8.3zM58.3 586s-.1.1-.2.1c.1.1.2.2.3.2.1 0 .1-.1.2-.1-.1-.1-.1-.2-.3-.2zM65.5 598.3c.1-.2.2-.4.2-.7 0-.2-.2-.2-.3-.1-.2.2-.3.4-.3.7.1.2.2.3.4.1zM70.9 585.6c.1-.1.3-.2.2-.4 0-.1-.2-.1-.3-.1-.2.1-.3.2-.3.4 0 .3.2.2.4.1zM67.2 594.9c.2-.1.3-.2.3-.4s-.2-.3-.4-.2c-.2.1-.2.3-.2.4 0 .2.1.3.3.2zM60.1 585.5c0-.1-.1-.2-.1-.2-.1 0-.2.1-.2.2s.1.2.1.2c.2 0 .2-.1.2-.2zM48.5 553.1c-.1-.2-.3-.4-.5-.2s-.3.5-.2.7c.2-.1.5-.2.7-.3v-.2zM54.3 598.2c-.1-.1-.1-.2-.2-.2s-.1.1-.2.1c.1.1.1.2.2.2 0 .1.1 0 .2-.1zM56 594.5c.4 0 .9.1 1-.5.1-.3-.2-.4-.4-.4-.5 0-1 .2-1.1.7-.1.3.4.1.5.2zM85.6 585.9c-.2.1-.2.2-.2.4 0 .1.1.2.3.1.2-.1.2-.2.2-.4-.1 0-.2-.1-.3-.1zM83.4 586.8c.1-.1.2-.2.1-.3-.1-.2-.3-.3-.6-.3-.2 0-.2.1-.2.3.2.2.4.4.7.3zM85.8 582.3c-.1 0-.1-.1-.2-.1 0 .1-.1.2 0 .2 0 0 .1.1.2.1-.1 0-.1-.1 0-.2zM80.1 584c0 .1-.1.1-.1.2.1 0 .1.1.2.1 0-.1.1-.2.1-.2l-.2-.1zM74.3 585.2c.1-.2-.1-.2-.2-.2s-.2.1-.3.2c0 .1 0 .2.2.2.1-.1.2-.1.3-.2zM72.3 586.6c0-.2-.1-.3-.2-.3s-.3 0-.3.2c0 .1.1.2.1.2.2 0 .4 0 .4-.1zM78.9 582.4c0-.2 0-.4-.2-.4-.3.1-.4.4-.5.7 0 .2 0 .5.3.5.3-.1.3-.5.4-.8zM1011.2 122.9c-.1 0-.3.1-.3.2-.1.2-.1.4.1.4h.1s.1 0 .1-.1l.1-.1c.1-.2.2-.4-.1-.4zM130.5 562.8c.2 0 .2-.3.1-.4-.1-.3-.4-.5-.7-.4-.2 0-.2.2-.1.4.2 0 .4.3.7.4zM130.2 558.8c0-.2-.2-.2-.3-.1-.2.1-.3.2-.3.4 0 .1.2.1.4.1 0-.2.2-.3.2-.4zM132 558.1c.1.2.3.2.5.1.3-.2.4-.4.3-.7-.1-.2-.3-.2-.5-.1-.2.2-.4.4-.3.7zM126.5 562.6c.1.3.4.3.7.2.3-.2.4-.4.2-.7-.1-.3-.4-.3-.7-.2-.1 0-.1.1-.2.1 0 .1-.1.1-.1.2 0 .2 0 .3.1.4zM122.9 622.4c.2-.4-.2-.6-.4-.9-.3-.1-.5-.1-.6.1-.2.4 0 .7.3.9.2.2.6.2.7-.1zM122.8 573.1c.1 0 .1-.1.2-.1-.1-.1-.2-.1-.2.1zM147.5 547.8c0-.1-.1-.2-.2-.2s-.2 0-.2.1c-.1.2 0 .2.2.2.1.1.2 0 .2-.1zM134.6 562.3c-.4-.2-.6.1-.7.4-.1.2-.3.6 0 .7.2.1.3 0 .4 0 0 .3.1.5.3.7.1.1.4.2.4 0 .1-.4-.1-.7-.3-.9h-.1c0-.1.1-.1.1-.2 0-.2.3-.5-.1-.7zM139.1 550.8c.2 0 .4-.2.3-.4-.1-.2-.3-.2-.4-.1-.2.1-.3.1-.3.4 0 .2.2.2.4.1zM138.5 560.5c.1.1.2.1.3 0v-.2c-.1-.1-.2-.1-.3 0v.2zM131.2 563.5c-.1-.1-.2-.1-.3-.1 0 .1 0 .1-.1.3.1 0 .2.1.3.1.2 0 .2-.2.1-.3zM144.1 558.6c.1 0 .1-.2.1-.3-.1-.1-.2-.2-.3-.1-.2.1-.3.3-.1.4h.3zM137.2 560.9c.2-.1.1-.3 0-.5-.1-.1-.3-.2-.4-.1-.1.1 0 .3 0 .4.1.2.3.3.4.2zM123.4 624.7c.2.1.5.4.7.2.4-.3-.1-.5-.2-.7-.1-.2-.1-.4-.1-.6 0-.6-.4-.4-.8-.4-.4.1-.4.4-.3.7.2.3.4.6.7.8zM133.5 558.8c-.1.1-.1.2.1.4.1.1.2.1.4 0 .1-.1.1-.2 0-.3-.2-.2-.4-.2-.5-.1zM130.9 561.5c.6-.5-.1-.8-.2-1.3-.2-.2-.4-.8-.5-.7-.4.5-.3 1.1-.1 1.6.2.3.5.6.8.4zM155.4 545.9c0 .3.1.4.4.4.3 0 .5-.1.6-.4 0-.3-.1-.4-.4-.4-.3 0-.6.1-.6.4zM162.1 588.4c-.1 0-.2.1-.2.3.2.3.5.4.8.4.2 0 .4-.1.3-.3-.2-.4-.6-.4-.9-.4zM127.2 616.9c0 .1.1.3.2.3s.2-.1.2-.3c0-.1-.1-.2-.2-.3-.1 0-.2.1-.2.3zM165.5 549.5c0 .1.1.1.2.2.1 0 .2-.1.2-.1 0-.1-.1-.2-.1-.2-.2-.1-.4 0-.3.1zM151.6 596.5c0-.1-.1-.2-.2-.2s-.3 0-.3.1c-.1.2 0 .4.2.4s.3-.1.3-.3zM161.6 543c-.1-.9-.9-1.3-1.7-.7-.4.3-1 .4-1.2 1 0 .5.3.8.7 1 .4.2.7.1.8-.4.1-.5.3-.8.9-.4.5.4.6 0 .5-.5zM161.7 552.9c.2 0 .4-.2.4-.5 0-.2-.1-.2-.2-.3-.3 0-.4.2-.4.5-.1.2 0 .3.2.3zM153.8 604.1c0-.4-.4-.5-.7-.5-.3 0-.5.1-.6.4 0 .3.3.5.6.4.2.2.6.2.7-.3zM132.9 608.5h.2c.1-.1 0-.2-.1-.3-.1 0-.2 0-.2.1-.1 0 0 .2.1.2zM150 608.1c-.1.2 0 .4.2.3.5-.1.8-.4 1-.8.1-.2-.1-.3-.3-.4-.5.1-.7.5-.9.9zM130.2 595.8h-.2v.2h.2c.1 0 .1-.2 0-.2zM130.6 608c.1-.1 0-.2-.1-.3-.1 0-.2 0-.2.1-.1.1 0 .2.1.3 0 0 .1-.1.2-.1zM137.1 611c-.2.3-.3.8.1.8.6 0 1.2-.2 1.6-.6.3-.3-.1-.7-.5-1.2-.4.2-.8.5-1.2 1zM140.1 613.3c-.6.3 0 1.4.1 2 .2.5.8.8 1 1.3.1.2.4.2.6 0 .3-.4.6-.9.3-1.4-.2-.3-.4-.6-.7-.8-.3-.4-.6-1.4-1.3-1.1zM44.5 544.8c-.5.3-.2.8-.1 1.2.1.3.4.4.7.2.5-.3.2-.7.1-1.1-.2-.1-.4-.5-.7-.3zM148.2 549.5c.2 0 .2-.2.1-.3 0-.1-.1-.2-.3-.2-.1.1-.1.2 0 .4 0 0 .1.1.2.1zM32.4 553.6c-.2-.2-.5-.3-.7-.2-.7.3-1.3.5-2 .9-.3.2-.2.5 0 .7.3.2 2.6-.3 2.8-.7.1-.3.1-.5-.1-.7zM31.9 541.1c.1-.1.2-.2.1-.3 0 0-.1 0-.2-.1-.1.1-.2.2-.1.4h.2zM22.4 551.2c-.1-.1-.2-.1-.3-.2-.1 0-.3.1-.2.2.1.2.2.2.4.2s.2-.1.1-.2zM35.5 546.1c-.1.1-.2.2-.1.3.1.1.2.1.3.1.2-.1.3-.3.2-.4h-.4zM40.6 552.3c0 .2.1.3.2.3s.2-.1.3-.2c.1-.1 0-.3-.2-.2-.1-.1-.2 0-.3.1zM33.4 556.9c-.2.2 0 .4.2.5.1.1.3.1.3 0 .1-.2 0-.4-.1-.5-.2-.2-.4-.2-.4 0zM34.3 555c.1-.4-.1-.7-.4-1-.2-.1-.4-.2-.5.1-.1.4.1.7.4 1 .2.1.5.1.5-.1zM16.2 504.9c.1-.2 0-.3-.2-.4-.2 0-.3 0-.3.2 0 .1.1.2.2.3.1.1.3 0 .3-.1zM10.9 504.9c-.1.1 0 .2 0 .3h.1c.1-.2.1-.3-.1-.3zM17.4 503.8c0-.2-.2-.3-.3-.3-.1 0-.3.1-.3.1-.1.2 0 .3.2.4.1 0 .3 0 .4-.2zM20.3 547.9c-.2.1-.3.3-.1.4.1.1.2.1.4 0 .1-.1.2-.2.1-.3-.1-.1-.3-.1-.4-.1zM21.9 552.5c-.2.1-.3.2-.2.4.1.2.3.1.5 0 .1-.1.2-.2.2-.3-.2-.2-.4-.2-.5-.1zM22.5 547.3c-.3-.3-.5.1-.6.2-.3.3-1 .4-1 1 0 .2.1.3.3.4.7 0 .8-.6 1.2-1 .1-.2.2-.5.1-.6zM31.5 556.2h.2v-.2h-.2v.2zM177.1 534.2c-.3-.1-.3 0-.3.2.1.2.2.4.4.5 0-.1.1-.3.1-.4-.1-.1-.2-.2-.2-.3zM108.4 546.3c-.2.1-.5.2-.5.4.1.4.4.2.6.2.5-.1 1 .3 1.4-.2.1-.2.1-.4-.1-.5-.4-.4-.9 0-1.4.1zM42.9 551c0 .1 0 .3.2.3.2.1.4 0 .4-.2.1-.2 0-.3-.2-.4-.2 0-.3.1-.4.3zM104.1 543.5c.1 0 .2-.2.2-.3l-.5.2c.1.1.2.1.3.1zM149.2 545.7c-.4.5-.9.9-.9 1.7 0 .3.4.3.5.2.5-.4.7-1.1.8-1.7.1-.2-.1-.3-.4-.2zM149.3 549.1c.1.2.2.4.4.2s.3-.4.2-.7c-.1-.2-.3-.3-.4-.2-.4.2-.2.5-.2.7zM155 543.3c0-.1-.1-.3-.2-.3s-.2.1-.2.1c0 .1.1.3.2.3s.2 0 .2-.1zM102.5 550.1c-.3.1-.3.4-.2.7.1.2.2.4.5.4.3-.1.4-.3.3-.6-.2-.3-.3-.6-.6-.5zM52.7 594.9c-.2 0-.2.1-.2.3 0 .1.1.3.4.2.1 0 .1-.1.1-.3 0-.1-.1-.2-.3-.2zM167.3 538.4c-.2.4-.1.7.2.9.2.1.4 0 .6-.2 0-.3.2-.7-.2-1-.2-.2-.5 0-.6.3zM47.5 533.4c-.1.3 0 .5.2.7.2.2.3 0 .4-.2 0-.3.2-.5-.1-.7-.2-.1-.4 0-.5.2zM45.5 534.2c0 .4 0 .7.4.7.6-.1 1.2-.5 1.3-1.2.1-.3 0-.7-.3-.8-.3.1-.6.3-.9.4-.3.3-.4.7-.5.9zM52.2 601.1c-.6-.1-1.3-.1-1.9.2-.4.4-.9.9-1.4 1.3-.2.2-.6.4-.4.8.2.3.6.2.9.1.3-.1.7-.1.7-.3.4-1.1 1.2-1.1 2-1 .3 0 .8-.2.8-.6.1-.5-.4-.5-.7-.5zM44.2 606.3c.3-.2.5-.4.3-.8-.1-.2-.3-.3-.4-.2-.1.3-.2.6-.2 1h.3zM210.9 568c.4-.1.4-.6.2-.9-.4-.6-1-.8-1.6-.7-.3.1-.2.4-.1.8.4.3.8.9 1.5.8zM277.7 532.7c.5-.3.8-.9 1.3-1.3-.5-.6-.9-1.5-1.5-1.6-.8-.2-.2 1.4-1.3 1.5-.2 0 .2.5.5.6h.4c.3.1.1 1 .6.8zM266.8 552.3c-.1.7.1 1.3.4 1.9.1.2.3.1.4-.2 0-.6.2-1.3-.3-1.9-.1-.1-.4 0-.5.2zM276.6 531.8c0 .1 0 .1 0 0 0 .1 0 .1 0 0zM270.8 536v.2c.1.1.2.1.3.1.2-.1.2-.2 0-.3 0-.1-.1 0-.3 0zM276.5 532.6s.1-.2.1-.3c0-.1 0-.2-.1-.4-.1.1-.2.2-.2.3.1.1 0 .3.2.4zM307.7 478.4c-.2 0 .2.5.3.8.3.3.2 1.1.9.9.4-.1.3-.5.1-.8-.3-.5-.7-.9-1.3-.9zM305.3 480.7c-.2.1-.2.2-.2.4 0 .1.2.2.3.2.2-.1.2-.2.2-.3 0-.3-.2-.4-.3-.3zM237.8 551.8c.2.1.4-.2.4-.5 0-.9.5-1.8-.5-2.6-.3-.2-.4-.8-1-.5-.5.2-.8.7-.6 1.2.2.6.2.8-.4 1.1-.6.3-1 1-.5 1.7.8 1 .9 2.1.5 3.2-.2.6-.5 1.2.6 1.2.2.2.4.8.7.1.4-1.3.6-2.6.5-4-.1-.3-1.3-1.5.3-.9zM240.3 542.3c-.2-.3-.3-.5-.5-.7-.3.1-.7.3-1 .4.5.3.9.7 1.6.7-.1 0 0-.3-.1-.4zM241 544.8c0 .1-.1.2 0 .3 0 .1.2.2.3.1.1-.1.2-.3.1-.4-.2-.2-.3-.2-.4 0zM310.7 481.5c.1-.1.1-.2.1-.3-.1 0-.2-.1-.3-.1 0 .1-.1.2-.1.3.1.1.2.2.3.1zM254.5 499.3c0 .2.1.2.3.2.2 0 .2-.2.2-.3 0-.2-.1-.2-.2-.2-.3 0-.3.2-.3.3zM266.3 550.4c-.1.1 0 .2.1.3.1.1.2.1.4 0 .1-.2-.1-.3-.2-.3-.1-.1-.3-.1-.3 0zM254.8 494.5c-.2.1-.3.2-.5.3.3 0 .5-.1.5-.3zM240.6 502.8c-.2.1-.2.2-.2.3.1.1.2.2.3.2.1 0 .2-.2.1-.3 0-.1-.1-.2-.2-.2zM189.5 587.4c-.2-.1-.4-.1-.6.2-.1.2 0 .4.2.6.2.2.4.1.6-.2 0-.2 0-.4-.2-.6zM214.8 580.4c-.2 0-.3.2-.3.4 0 .1.1.3.2.3h.1c.1 0 .1-.1.2-.1 0-.1.1-.1.1-.2 0-.2 0-.4-.3-.4zM167.6 537.4c.3-.1.7-.2.5-.6-.3.1-.7.3-1.1.4.2.2.3.3.6.2zM1059.4 133.4c.1-.1.1-.2-.1-.4-.1 0-.2-.1-.4 0-.1.1-.1.2 0 .3.2.1.3.2.5.1zM1061.8 128.4c-.1 0-.2-.1-.3-.1-.2 0-.2.2-.1.3.1.1.2.1.3.1 0-.2 0-.2.1-.3zM1016.7 137.2s.1 0 .2-.1c-.1.1-.1.1-.2.1zM1009.2 155.8c.3-.1.4-.3.4-.6 0-.2-.1-.4-.3-.5-.4-.2-2.5.8-2.6 1.1-.1.3 0 .6.4.5.7-.1 1.4-.3 2.1-.5zM1042 128.9c.1.1.2 0 .3-.2 0-.1-.1-.1-.1-.2-.1 0-.3 0-.3.2 0 .1 0 .2.1.2zM1061.8 130.5c-.6.5.1.8.3 1.3.2.2.4.8.5.7.3-.5.2-1.1 0-1.6-.2-.4-.6-.6-.8-.4zM236.4 546c.1-.2 0-.4-.2-.6-.1-.1-.2-.1-.3 0-.1.2 0 .4.2.6 0 .1.2.1.3 0zM318.4 464.6c-.1.4-.8.9 0 1.2.6.2.8-.4 1-.9.2-.4.5-1.1-.2-1.3-.7-.2-.5.6-.8 1zM323.5 461.1c.1 0 .2-.1.2-.1s0-.1-.1-.1-.2.1-.3.1c0 .1.1.1.2.1zM320.7 462.8s.2 0 .2-.1c.1-.2.1-.3 0-.5-.1 0-.2 0-.2.1-.1.2-.2.3 0 .5zM85.6 442.5c.2.1.5.1.7.2.2-.1.2-.2.1-.3-.2-.2-.5-.3-.7-.1-.1 0-.2.1-.1.2zM168.2 397.5v.1c.2.2.4.4.5.6l.1.2c.1.1.2.2.4.2.4-.1.8-.3.7-.6-.1-.7-.8-.8-1.3-.9-.3-.1-.4.1-.4.4zM313.5 470.3c-.1.2 0 .4.2.5.4.1.7-.1.9-.5.1-.2.1-.5-.2-.5-.4 0-.7.1-.9.5zM25.5 504.5c-.3-.5-.7 0-1 .1-.5.2-.9.6-1.6.4-.6-.2-.9.6-1.4.9l-.1.2c.7.4 1.2.8.7 1.6l.1.1c.3.1.5 0 .7-.2.7-.8 1.3-1.6 2.3-2 .3-.1.5-.7.3-1.1zM210 571.5c0 .1.1.3.1.4.2.3.3.7.7.5.4-.1.2-.5.1-.7-.2-.5-.3-1 0-1.6.1-.3.3-.7-.2-.8-.4-.1-.7.1-.8.5-.1.2-.1.4-.1.6-.3.2-.6.4-.6.7.3.4.5.4.8.4zM211 580.8c.3.2.6.3.8-.1.2-.3-.2-.5-.4-.6-.3-.1-.7-.3-.9.1 0 .4.3.5.5.6zM215.3 559.1c.2-.2.1-.5.1-.7 0-.2-.1-.3-.3-.3-.3.2-.2.5-.2.7.1.2.2.4.4.3zM213.1 564.8c-.1 0-.1.1-.1.2s0 .3.2.3.2-.2.2-.3c-.1-.1-.1-.3-.3-.2zM214.3 564.7c.1.2 0 .6.4.6.2 0 .3-.1.3-.3 0-.3-.2-.5-.4-.6-.3-.1-.3.1-.3.3zM214 566.6c.2.7.8 1 1.4 1.3.3 0 .5-.1.4-.3-.3-.5-.7-1.1-1.3-1.4-.3 0-.6.2-.5.4zM212.3 568.3c-.2-.3-.4-.3-.8-.1-.1.2-.4.3-.3.6.2.4.5.3.8.2.4-.1.5-.4.3-.7zM196.8 583.3c0 .4.4.4.6.6.2.1.3.1.4-.1 0-.4-.3-.5-.6-.6-.1-.2-.4-.2-.4.1zM212.6 577.2c.1.1.2-.1.2-.2 0-.2-.1-.3-.3-.4-.2-.1-.4 0-.3.3.1.1.3.2.4.3zM173.7 536.5c-.1.1-.2.2-.1.3h.2c.1-.1.2-.2.1-.3 0 0-.2-.1-.2 0zM238.2 547.3c0-.1-.1-.2-.2-.2s-.2 0-.3.1c0 .2.1.2.2.2s.2 0 .3-.1zM204.4 569.6c-.4-.1-.7.1-.8.3-.3.5-.1 1 .3 1.4.2.1.5 0 .4-.1-.2-.5.5-1 .1-1.6zM203.4 573.2c-.1.3-.1.5.2.7.3.1.5 0 .7-.4 0-.2.2-.5-.1-.7-.4-.2-.6.1-.8.4zM175.1 533.4c-.6.3-1.2.7-1.8 1 .1.1.2.3.2.3.2.5.4.8.6 1.1.4.6.7 1.8 1.6.4.3-.4.9-.3 1.1 0 .1-.4.3-.8.4-1.2-.7-.5-1.5-1-2.1-1.6zM229.1 564.2c-.3.2-.6.5-.4.9.2.4.6.5 1.1.3.2-.2.7-.4.4-.9-.3-.5-.8-.5-1.1-.3zM232.3 558.5c-.1-.1-.1-.1-.2-.1s-.2 0-.2.2c.1.1.2.2.3.2h.2c-.1.6 0 1.3.3 1.9 0 .1.3.2.3.2.5-.6.3-1.3.3-2 0-.2 0-.4-.1-.5v-.1c0-.4-.4-.4-.6-.5-.2-.1-.4-.1-.5.2.1.1.3.2.4.3v.1c-.2 0-.2 0-.2.1zM230.5 554.2c.2-.2.6-.4.5-.7 0-.3-.3-.1-.4-.1-.2.2-.6.4-.5.7 0 .4.3.2.4.1zM228.3 569.4c-.1-.1-.2-.2-.3-.1l-.1.2c.1.1.2.2.3.1.1 0 .1-.1.1-.2zM234.5 543.7c.5.1.5 0 .5-.2-.2 0-.4.1-.5.2-.1 0-.1 0 0 0zM226.9 559.2c.1-.1.2-.2.1-.3-.1-.1-.2-.1-.3 0-.1.1-.2.2-.1.3.1.1.2 0 .3 0zM216.1 580c0 .1.1.1.1.2.1 0 .2 0 .3-.2 0-.1-.1-.2-.1-.2-.1 0-.2 0-.3.2zM224.8 568.7c-.2 0-.3.2-.1.5.6 0 .8 1.1 1.6.9.5-.2.7-.9.4-1.2-.5-.6-1.2-.1-1.9-.2zM231.8 566c.1.3.3.3.5.2.2-.1.3-.3.2-.6-.1-.3-.3-.3-.5-.2-.2.1-.3.3-.2.6zM233.7 569.3c.1-.3.1-.6-.2-.7-.3-.2-.5 0-.7.3-.1.3 0 .5.2.7.3.1.5 0 .7-.3zM221.6 560.7c-.1.3 0 .5.2.7.1.1.2.2.3.1.1-.3 0-.5-.1-.7-.1-.2-.3-.3-.4-.1zM232.6 556.7c.2.1.3 0 .4-.2.1-.1.1-.3.1-.5-.1.1-.2.1-.3.2-.2.1-.5.2-.2.5zM232.7 554c-.4.1-.5.5-.5 1 .1.5.5.7.8.9.8-.3.2-.8.1-1.2 0-.3.2-.9-.4-.7zM233.1 555.9s0 .1 0 0c0 .1 0 .1 0 0zM223.7 511.2zM156.9 496.8c-.1.1-.1.2 0 .3.1.1.2.1.3 0 .1-.1.1-.2.1-.2-.1-.2-.3-.2-.4-.1zM156.3 497.6c-.1.3.1.3.3.2.2 0 .5 0 .6-.2.1-.2-.2-.3-.3-.3-.3 0-.6 0-.6.3zM158 502.9c-.3 0-.7.1-.8.4-.1.3.3.4.5.5.3.1.6 0 .7-.4.1-.3-.1-.4-.4-.5zM153.7 495.1c0-.1-.1-.1-.2-.1 0 .1-.1.1-.1.2s.1.2.2.2c.1-.1.2-.2.1-.3zM110 522.1c-.1-.1-.2-.2-.3 0v.2c.1 0 .2 0 .3.1v-.3zM158.5 498.9c-.2-.4 0-1.2-.8-1-.6.2-.4.8-.2 1.3.2.4.4 1.1 1 .9.7-.2.1-.8 0-1.2zM156.1 496.5c-.1.2-.1.3 0 .5 0 .1.2.1.2.1.1-.2.1-.3 0-.5 0-.1-.1-.1-.2-.1zM145.9 453.2c.3-.2.4-.4.3-.8-.2-.3-.4-.3-.7-.2-.3.2-.3.5-.2.8.2.2.4.4.6.2zM148.5 509.3c.1 0 .1-.1.2-.1h-.1c0-.1 0 0-.1.1zM145.3 453.3c-.2 0-.3.1-.4.2-.1.2 0 .4.2.5.2.1.4 0 .4-.2.1-.2 0-.4-.2-.5zM147.6 449.9c0 .4.2.8.5.8.7-.1.9-.7 1.1-1.2.1-.2-.1-.4-.4-.4-.6.1-.9.5-1.2.8zM161.6 453.6c-1.6-.3-2.6.5-2.6 2.2 0 .1 0 .3.2.3.1 0 .2-.1.3-.2l.6-.9c.2-.3.5-.6.9-.3.3.3.6.2.8 0 .3-.3.9-.4.8-.8-.1-.5-.7-.2-1-.3zM113.6 504.6c1.1-.1 1.3-.2.8-1.1-.4.2-.8.3-1.3.5-.5.8.1.6.5.6zM158 489.6l.3.3-.3-.6c-.1.1-.1.2 0 .3zM149.6 457.2c0 .2-.1.4.2.5.2 0 .3-.2.3-.3.1-.2.1-.4-.1-.4-.3-.1-.4 0-.4.2zM140.5 506c0-.2-.1-.4-.3-.3-.3.1-.3.4-.3.7 0 .1.1.2.3.2.2-.1.3-.3.3-.6zM137.1 503.3c-.1-.1-.2-.1-.3-.1-.1 0-.1.2-.1.2.1.1.2.1.3.1 0-.1 0-.2.1-.2zM139.3 511.6c0-.2-.1-.7-.4-.4-.5.5-.8 1.3-.6 2 .1.8.8.4 1.3.5-.3-.7-.4-1.4-.3-2.1zM139.6 513.7c.1 0 .1 0 0 0 .1 0 .1 0 0 0zM115.5 506.4c.2-.2.4-.4.4-.6 0-.2-.3-.2-.4-.1-.3.1-.3.4-.3.7 0 .1.2.1.3 0zM139.8 513.6c-.1 0-.1.1 0 0v.1c.3-.1.5-.3.8-.4-.3 0-.6.2-.8.3zM135.5 501.8c0-.2-.1-.2-.3-.2 0 .1-.1.1-.1.2 0 .2.1.2.3.2 0 0 .1-.1.1-.2zM119.7 516.4c0-.1-.1-.2-.2-.3-.1 0-.3 0-.3.1 0 .2.1.2.2.3.1 0 .3 0 .3-.1zM141.9 505.6c-.2.1-.4.2-.3.5.1.2.3.3.6.2.2 0 .4-.2.4-.4-.2-.3-.4-.4-.7-.3zM141.2 499.1c-.5.3-.6.8-.7 1.3 0 .2 0 .4.1.5.3.3.4-.1.6-.2.2-.2.5-.4.7-.7.2-.3.6-.6.2-.9-.2-.4-.6-.2-.9 0zM147 496.6c-.4 0-.6.2-.6.5 0 .4-.4.9-.1 1.1.2.2.5-.4.9-.4 1.5-.7 1.8-2 .8-3.3-.1-.1-.2-.2-.3-.1-.1.1-.1.2-.1.4 0 .4.1.7.1 1.1-.2.3-.2.7-.7.7zM139.7 509c.2.2.1.4.1.7-.1.2 0 .5.2.6.3.1.6-.1.6-.4.2-.7.3-1.5.2-2.3 0-.3-.3-.5-.8 0-.3.1-1 .5-.3 1.4zM147 506.2c-.2.1-.3.2-.1.4.2.2.5.2.8.1.1-.1.2-.2.1-.3-.3-.3-.6-.3-.8-.2zM142.6 503.7c-.1-.3-.3-.3-.6-.2-.3.1-.6.2-.6.6 0 .3.3.2.5.1.3-.1.7-.1.7-.5zM142.6 464.2c-.1.2-.1.4.1.5.3.1.5-.1.6-.4.1-.2.1-.4-.1-.4-.3-.1-.5.1-.6.3zM153.2 493.8c0-.1 0-.3-.2-.4-.1 0-.3 0-.4.1-.6.4-1.3.7-1.8 1.1-.4.3-.1.5.2.5.6.2 2.1-.8 2.2-1.3zM222.8 510.3c-.2-.1-.5-.7-.8-.1-.2.4 0 .8.4 1 .4.3.8.2 1.3 0 .2-.8-.5-.7-.9-.9zM218.7 516.3c.1-.1.2-.3 0-.5-.2-.1-.4 0-.5.1-.1.1-.1.3 0 .4.2.3.4.2.5 0zM223.9 512.1c.2 0 .2-.3.1-.4-.1-.1-.2-.3-.3-.4 0 .1-.1.2-.1.4 0 .1-.1.4.3.4zM266.7 466.4c0-.2 0-.4-.2-.3-.3.1-.4.5-.4.8 0 .2-.1.4.2.3.3-.1.3-.5.4-.8zM281.9 427.4c-.2.1-.4.2-.3.5.1.2.3.1.5 0 .2-.2.4-.3.4-.7-.2-.1-.4.1-.6.2zM257.7 472.5c0-.4-.2-.8-.6-.9-.6 0-.5.5-.6.8 0 .5.2.9.7.9.4-.1.5-.5.5-.8zM279.8 442.1v.2c.1 0 .1.1.2.1 0-.1.1-.2.1-.2-.1-.1-.2-.3-.3-.1zM216.2 514.4c.4-.2.1-.5.1-.7-.2-.3-.4-.6-.7-.5-.3.1-.2.5-.1.7.1.4.3.7.7.5zM213.9 522.7c0-.2-.2-.2-.4-.2-.3.1-.6.3-.6.6 0 .2.1.3.3.2.3 0 .7-.2.7-.6zM204.1 529.8c0 .1.1.2.2.3.2 0 .4-.1.4-.3 0-.1-.1-.2-.1-.3-.3 0-.5.1-.5.3zM284.5 424.4c.1.1.2.2.3.1 0-.1.1-.2.1-.2-.1-.1-.2-.2-.3-.1-.1.1-.2.2-.1.2zM224.6 511c.2-.1.2-.3.1-.4-.2-.3-.3-.6-.6-.6s-.2.3-.1.5.3.5.6.5zM209.6 527c-.1.2.1.3.2.3s.2 0 .2-.1c.1-.2-.1-.2-.2-.3l-.2.1zM211.3 526.7c.3.3.6.7 1.1.5.2-.1.2-.3.1-.5-.3-.3-.6-.7-1.1-.6-.3.1-.3.4-.1.6zM286 425.1c0 .1-.1.2-.1.4l.2.2v-.4c.1-.1 0-.1-.1-.2zM230.5 420.4c0-.1.1-.1.1-.2l-.2-.2c0 .1-.1.1-.1.2l.2.2zM231.4 417.9c-.2 0-.4.2-.5.4-.1.4 1.3 2.3 1.7 2.3.3 0 .6-.2.4-.5-.3-.7-.6-1.3-1-1.9 0-.2-.3-.3-.6-.3zM228 419.9c0 .1.1.2.2.2.2 0 .4 0 .5-.3 0-.1-.1-.2-.3-.3-.2 0-.4.1-.4.4zM229 418.3c.1 0 .2-.2.1-.3-.1-.1-.2-.2-.3-.2-.1 0-.3.1-.2.2 0 .2.2.3.4.3zM141.8 466.8c0 .1 0 .3.1.3.2 0 .3-.1.4-.3 0-.1 0-.3-.1-.3-.2.1-.3.2-.4.3zM161 413.6c.1-.1 0-.3-.1-.3-.1-.1-.3 0-.3.2 0 .1 0 .3.1.3.2 0 .3-.1.3-.2zM151 420.7c0 .1-.1.2-.1.2l.6-.3c-.1-.2-.4-.2-.5.1zM245.8 413.6h.2c-.2-.1-.5-.3-.7-.4-.1.3.2.4.5.4zM296.6 425.3c-.1.1-.2.2-.1.4.1.1.2.1.4 0 .1-.1.2-.2 0-.4-.1 0-.2-.1-.3 0z"/><path class="st0" d="M229.4 418.1c.4 0 .7-.2.9-.5.1-.2-.1-.3-.3-.3-.3.1-.7.1-.9.5-.1.2.1.3.3.3zM276.7 350.1c-.1.1-.2.2-.1.3.1.1.2.1.3.1.1-.1.2-.2.1-.3-.1-.1-.2-.1-.3-.1zM293.5 422.5c-.3.1-.3.4-.1.6.3.4.7.7 1.2.6.4-.1 0-.3-.1-.5-.3-.4-.5-.9-1-.7zM252.2 372c.1-.3-.3-.4-.6-.4-.4.1-.8 0-.9.5 0 .3.2.6.5.5.4 0 .9 0 1-.6zM224.5 422.6c0-.1 0-.1 0 0 .1-.2 0-.2 0-.3-.1.1-.2.1-.2.2 0 0 0 .1.2.1zM50.8 511.7c.2-.1.3-.1.5-.2-.2-.1-.3 0-.5.2zM76 530c-.4.2-.6.6-.4 1 .2.3.5.4.8.2.4-.2.6-.5.4-1-.2 0-.5-.1-.8-.2zM63.8 487.3c.1.1.3 0 .3-.2 0-.1-.1-.1-.1-.2-.2 0-.3 0-.3.2 0 .1 0 .2.1.2zM69.3 539.5c.1.3.5.4.7.5.2 0 .4.1.4-.2-.1-.3-.4-.4-.7-.5-.2 0-.4-.1-.4.2zM82.8 487.7c-.1 0-.2.2-.1.3.1.1.2.1.3.1.1-.1.2-.2.1-.3 0-.1-.2-.1-.3-.1zM58.4 540.8c-.1.2 0 .4.2.5.5.1.9 0 1.2-.3.2-.2.1-.4-.1-.4-.5-.1-.9-.1-1.3.2zM66.3 447.1h.2v-.2h-.2v.2zM87 489.4s0 .2.1.2c.1.1.3 0 .3-.1 0 0 0-.2-.1-.2s-.3 0-.3.1zM53.7 539.9c-.2-.1-.3.2-.2.3 0 .3.1.5.4.6.1 0 .2-.1.2-.3-.1-.2-.2-.5-.4-.6zM49.5 534.1c.1-.1.1-.2 0-.4-.2 0-.2.1-.3.2 0 .1-.1.3.1.3 0 .1.1 0 .2-.1zM64.3 529.8c0 .4.3.6.7.7.4.1.8-.1.9-.5.1-.6-.4-.6-.7-.7-.5-.2-.9 0-.9.5zM95.1 514.6c-.3.2-.3.4-.2.7.1.2.3.3.4.2.3-.2.2-.5.1-.7 0-.2-.1-.4-.3-.2zM54.3 540.6c-.2.3-.4.6 0 .8.4.2.6-.1.8-.4.2-.2.2-.5-.1-.7-.3-.1-.5.1-.7.3zM62.9 490.7c.1-.1.1-.2 0-.4s-.3-.2-.5 0c-.1.1-.1.3 0 .4.3.1.4.1.5 0zM56.4 543.8c-.1.1-.1.2 0 .3.1.1.2 0 .3-.1.1-.1.1-.2 0-.3 0-.1-.2 0-.3.1zM58.3 502c0 .1 0 .2.2.2.1 0 .2-.1.2-.1 0-.1 0-.2-.2-.2-.1-.1-.2 0-.2.1zM34.5 503c.1-.1.1-.2.1-.3 0-.1-.2-.2-.3-.1-.1.1-.1.2-.1.3.1.2.2.3.3.1zM36.9 505.5c0-.2-.1-.3-.3-.4-.2 0-.4.1-.4.3 0 .2.1.3.3.3.2.1.4 0 .4-.2zM48.8 495.2c0-.1-.1-.1-.2-.2-.1.1-.1.1-.1.2s.1.1.2.2c0-.1.1-.1.1-.2zM33.1 500.4c.1-.1.1-.2.1-.3-.1 0-.2-.1-.3-.1 0 .1-.1.2-.1.3.1.1.2.2.3.1zM51.8 509.3c-.1 0-.2.1-.3.1 0 .1 0 .2.1.3.1 0 .3 0 .3-.1s0-.3-.1-.3zM21.4 507.8c-.1.1-.1.2-.1.4.1.1.2.2.3.1.1-.1.2-.2.1-.3.1-.3-.1-.3-.3-.2zM31.3 498.9c.4-.1.3-.5.1-.8-.3-.5-.8-.9-1.4-.8-.2 0 .2.5.3.8.4.3.3 1 1 .8zM57.2 490.7c-.3-.1-.5-.1-.6.3-.1.3.1.4.4.5.2 0 .4 0 .6-.2-.1-.3-.2-.5-.4-.6zM59.2 491.5c0-.3 0-.6-.3-.7-.2-.1-.3.1-.3.3 0 .3.1.5.4.6 0 .1.1 0 .2-.2zM52.5 485.3c.1-.1.2-.2.1-.3-.1-.1-.2-.1-.4-.1-.1.1-.2.2-.1.3.1.2.2.2.4.1zM57.7 501.6c.1.3.4.3.7.2.9-.1 1.6-.7 2.3-1.3 0 0 .1-.2 0-.3-.1-.1-.3-.1-.4-.1-.7.4-1.4.6-2.1.8-.3.1-.6.4-.5.7zM57.9 498.6v.2c.4.4.8.2 1.1 0h-.1c-.3-.2-.6-.5-1-.2zM59.1 498.8c0 .1 0 .1 0 0 0 .1 0 0 0 0zM60.5 498.4c.2-.7-.1-1.5-.6-2-.3-.3-.4.2-.4.4.1.7 0 1.4-.4 2 .5 0 1.2.4 1.4-.4zM49.1 535.5c.2.1.3 0 .4-.1.1-.2.1-.4-.2-.4-.2 0-.3.1-.3.2s0 .3.1.3zM123.6 456.8c.1-.1.2-.2.1-.3 0-.2-.2-.1-.3-.1-1.6.3-2.2 1.5-1.5 3 .2.2.1.9.4.9.4 0 .4-.6.6-1 .2-.3.2-.6-.2-.8-.4-.3-.2-.6.1-.9l.8-.8zM124.5 459.4c-.2.1-.4.3-.3.5.1.2.3.1.4 0 .2-.1.4-.3.3-.6-.1-.1-.3 0-.4.1zM121.4 461.4c-.1.1 0 .2.1.3.1.1.2.1.3 0 .1-.1 0-.2-.1-.3-.1-.1-.2-.1-.3 0zM116.6 466.2c.2 0 .3-.2.2-.4-.2-.2-.4-.4-.7-.4-.1.1-.2.2-.2.3.2.4.4.5.7.5zM113.6 467.1h-.2v.2h.2v-.2zM108 472.7c.1-.1.1-.2 0-.4-.1-.1-.3 0-.3.1v.3c.1.1.3.1.3 0zM110.6 457.2c.2-.3-.1-.6-.3-.8-.2-.2-.5-.2-.7.1-.2.4 0 .6.3.8.2 0 .6.2.7-.1zM57.2 504.4c0 .1.1.2.2.2s.1-.1.2-.1c0-.1-.1-.3-.2-.2-.1-.1-.1 0-.2.1zM103 519c-.2.3 0 .6.2.8.1.2.3.5.5.2s.1-.6-.1-.8c-.1-.2-.3-.4-.6-.2zM96.3 517.2c-.1.1 0 .2-.1.4.1.1.3.2.3.2.2-.1.1-.3 0-.5.1-.1-.1-.2-.2-.1zM113.5 515.8c.3-.2.4-.5.1-.8-.2-.3-.6-.3-.9-.1-.6.4-.9 1.3-1.9 1l-.1.1c.4.9-.4 1.8 0 2.7.1.1.2.2.3.2.1 0 .2-.1.3-.3.1-.7.3-1.3 1.3-1.3.2 0 .3-.2.3-.4-.3-.5.1-.8.6-1.1zM124.5 464.2c0 .4.1.7.1 1 .1.3 0 .6.3.6.1 0 .3-.2.4-.3.3-.4.5-.9.3-1.4-.1-.3-.3-.7-.8-.7-.4 0-.3.5-.3.8zM136.3 495.9c-.2.1-.2.4 0 .5.8.5.5 1.1.2 1.8v.4c.1.1.2 0 .3 0 .3-.1.4-.4.6-.6.1 0 .2 0 .3.1.1-.1.3-.1.2-.3-.1-.1-.2-.1-.3-.1.3-.5.5-1 .9-1.2v-.1c-.9-.4-.6-1.3-.8-2 0-.1-.1-.2-.2-.3-.3.1-.7.3-1 .4v.2c.2.4.3.8-.2 1.2zM74.2 564.8c-.1.1-.1.2-.1.3 0 .1.2.2.3.1.1-.1.2-.3.1-.5-.1 0-.3 0-.3.1zM129.1 517.8c-.4-.1-.6.1-.7.4-.1.3-.3.6-.2.8.4-.2.8-.3 1.1-.5 0-.2 0-.5-.2-.7zM27.1 511.9c.2 0 .3.1.5.1 0-.1-.1-.1-.2-.1h-.3zM49.1 532.2v-.2l-.6.3.1.1c.1.1.5 0 .5-.2zM27.7 499.5c-.2.1-.2.2-.2.4 0 .1.2.2.3.2.2-.1.2-.2.2-.3 0-.3-.2-.3-.3-.3zM57.1 488.6c-.2-.1-.4-.1-.6.2 0 .4.3.5.6.6.2.1.5.2.5-.1.1-.5-.2-.6-.5-.7zM24.9 507.5c-.1.4-.3.8.1 1.1.2.1.3-.1.4-.2.2-.4.2-.7-.2-1-.1-.2-.3-.2-.3.1zM45.4 602.3c.3-.4.7-1 1.3-.6.4.3.9.9 1.4.5.6-.5-.5-.8-.3-1.4v-.4c-.2-.4-.5-.4-.8-.3-.7 0-1.1.4-1.5.8l-.6 1.8c.1.2.3-.2.5-.4zM56.8 509.4c-.3.1-.6.2-.8.3.2 0 .5-.1.8-.3zM70.4 565.5s-.2.1-.3.2c-.1.1-.1.2-.2.3.1 0 .2-.1.3-.1.2-.1.4-.2.2-.4zM69.9 566z"/><path class="st0" d="M69.5 564.7c-.6-.1-1.2.3-1.8.2.1.8-.1 1.7.3 2.2.5.7 1-1 1.9-.4.2.1.1-.5 0-.7l-.3-.3c-.2-.3.4-.9-.1-1z"/><path class="st0" d="M70.1 565.5c.1 0 .1-.1.2-.2 0-.1-.1-.2-.2-.2s-.1.1-.1.2c-.2.1-.1.2.1.2zM48 595.9c0 .1-.1.2-.1.2 0-.1 0-.1.1-.2zM71.3 566.8c.1 0 .2-.2.2-.3 0-.2-.2-.3-.4-.2-.2.1-.4.1-.3.3.1.2.3.3.5.2zM58.3 572.6c.1-.2-.1-.3-.3-.4-.2 0-.3-.1-.5.1 0 .2.1.3.3.4.3.1.5.1.5-.1z"/></g></svg>